<svg xmlns="http://www.w3.org/2000/svg" xmlns:xlink="http://www.w3.org/1999/xlink" width="500" zoomAndPan="magnify" viewBox="0 0 375 374.999991" height="500" preserveAspectRatio="xMidYMid meet" version="1.0"><rect x="-37.5" width="450" fill="#ffffff" y="-37.499999" height="449.999989" fill-opacity="1"/><rect x="-37.5" width="450" fill="#ffffff" y="-37.499999" height="449.999989" fill-opacity="1"/><path fill="#231f1f" d="M 187.441406 5.816406 C 87.292969 5.816406 5.816406 87.292969 5.816406 187.441406 C 5.816406 248.597656 36.316406 305.289062 87.410156 339.050781 C 117.09375 358.691406 151.691406 369.066406 187.441406 369.066406 C 223.191406 369.066406 257.777344 358.691406 287.460938 339.050781 C 338.558594 305.289062 369.066406 248.609375 369.066406 187.441406 C 369.066406 87.292969 287.589844 5.816406 187.441406 5.816406 Z M 187.441406 374.941406 C 150.527344 374.941406 114.816406 364.226562 84.167969 343.964844 C 31.429688 309.097656 -0.0585938 250.585938 -0.0585938 187.441406 C -0.0585938 84.050781 84.050781 -0.0585938 187.441406 -0.0585938 C 290.824219 -0.0546875 374.941406 84.050781 374.941406 187.441406 C 374.941406 250.585938 343.449219 309.097656 290.707031 343.964844 C 260.058594 364.226562 224.34375 374.941406 187.441406 374.941406 " fill-opacity="1" fill-rule="nonzero"/><path fill="#231f1f" d="M 265.25 176.945312 C 265.25 176.945312 274.15625 120.136719 269.117188 102.898438 C 269.117188 102.898438 257.421875 80.195312 240.570312 72.742188 L 248.5625 89.195312 C 248.5625 89.195312 223.34375 59.417969 167.320312 66.46875 L 177.113281 74.695312 C 177.113281 74.695312 138.023438 75.667969 115.660156 65.398438 C 115.660156 65.398438 121.101562 80.96875 125.402344 83.320312 C 129.714844 85.671875 115.226562 77.054688 112.875 69.617188 C 112.875 69.617188 102.980469 93.132812 108.960938 133.453125 L 104.648438 124.050781 C 104.648438 124.050781 104.648438 160.847656 111.300781 173.785156 C 117.964844 186.734375 141.46875 197.769531 141.46875 197.769531 L 265.25 176.945312 " fill-opacity="1" fill-rule="nonzero"/><path fill="#231f1f" d="M 107.941406 136.214844 C 108.503906 147.882812 109.996094 164.832031 113.921875 172.445312 C 119.386719 183.070312 137.824219 192.683594 141.914062 194.714844 L 262.664062 174.398438 C 264.179688 164.125 270.492188 118.894531 266.378906 104.015625 C 265.332031 102.0625 258.105469 89.054688 247.65625 80.605469 L 251.207031 87.914062 C 251.851562 89.242188 251.40625 90.851562 250.160156 91.652344 C 248.925781 92.464844 247.28125 92.226562 246.316406 91.101562 C 246.128906 90.875 226.363281 68.335938 184.09375 68.335938 C 180.964844 68.335938 177.78125 68.453125 174.539062 68.699219 L 179.003906 72.449219 C 179.945312 73.238281 180.296875 74.519531 179.898438 75.667969 C 179.484375 76.820312 178.402344 77.609375 177.195312 77.632812 C 177.195312 77.632812 176.171875 77.667969 174.375 77.667969 C 166.171875 77.667969 140.128906 77.105469 120.855469 70.59375 C 122.289062 73.90625 124.0625 77.539062 125.683594 79.605469 C 126.203125 80.007812 126.660156 80.335938 127.023438 80.617188 C 128.199219 81.5 129.667969 82.589844 128.988281 84.636719 C 128.589844 85.835938 127.460938 86.65625 126.191406 86.65625 C 125.378906 86.65625 124.863281 86.363281 124.003906 85.90625 C 123.183594 85.460938 122.394531 84.789062 121.585938 83.859375 C 118.257812 81.277344 115.660156 78.867188 113.734375 76.609375 C 111.300781 85.8125 107.789062 105.460938 111.867188 133.03125 C 112.078125 134.476562 111.195312 135.863281 109.796875 136.273438 C 109.164062 136.460938 108.515625 136.425781 107.941406 136.214844 Z M 141.46875 200.710938 C 141.046875 200.710938 140.609375 200.613281 140.222656 200.425781 C 139.222656 199.957031 115.730469 188.816406 108.691406 175.136719 C 101.78125 161.714844 101.710938 125.589844 101.710938 124.050781 C 101.710938 122.675781 102.664062 121.476562 104.015625 121.183594 C 104.214844 121.148438 104.414062 121.125 104.601562 121.113281 C 102.050781 88.28125 109.796875 69.359375 110.160156 68.464844 C 110.644531 67.335938 111.757812 66.621094 112.992188 66.679688 C 112.933594 66.515625 112.898438 66.410156 112.886719 66.363281 C 112.488281 65.246094 112.804688 64.011719 113.675781 63.226562 C 114.542969 62.425781 115.8125 62.238281 116.882812 62.730469 C 132.417969 69.863281 156.617188 71.414062 169.003906 71.722656 L 165.441406 68.722656 C 164.535156 67.972656 164.171875 66.761719 164.5 65.644531 C 164.832031 64.527344 165.792969 63.707031 166.957031 63.566406 C 172.773438 62.824219 178.535156 62.460938 184.09375 62.460938 C 211.132812 62.460938 229.40625 71.003906 239.902344 78.078125 L 237.9375 74.023438 C 237.398438 72.917969 237.609375 71.59375 238.46875 70.710938 C 239.3125 69.816406 240.640625 69.558594 241.757812 70.050781 C 259.363281 77.832031 271.230469 100.59375 271.726562 101.558594 C 271.820312 101.722656 271.890625 101.898438 271.9375 102.074219 C 277.09375 119.75 268.527344 175.054688 268.164062 177.394531 C 267.964844 178.652344 266.988281 179.625 265.742188 179.835938 L 141.949219 200.671875 C 141.796875 200.695312 141.632812 200.710938 141.46875 200.710938 " fill-opacity="1" fill-rule="nonzero"/><path fill="#231f1f" d="M 289.082031 341.507812 C 259.9375 360.78125 225 372.003906 187.441406 372.003906 C 149.871094 372.003906 114.933594 360.78125 85.789062 341.507812 C 93.707031 319.097656 108.84375 300.082031 128.398438 287.261719 C 138.320312 280.75 149.378906 275.839844 161.210938 272.886719 C 169.601562 270.773438 178.390625 269.667969 187.441406 269.667969 C 190.765625 269.667969 194.058594 269.808594 197.300781 270.113281 C 197.863281 270.164062 198.429688 270.222656 198.980469 270.28125 C 199.335938 270.316406 199.6875 270.351562 200.027344 270.398438 C 200.414062 270.445312 200.792969 270.492188 201.179688 270.539062 C 201.414062 270.5625 201.660156 270.597656 201.894531 270.632812 C 202.238281 270.667969 202.589844 270.726562 202.941406 270.773438 C 203.210938 270.808594 203.484375 270.855469 203.765625 270.890625 L 204.011719 270.925781 C 204.5625 271.019531 205.105469 271.101562 205.65625 271.195312 L 205.667969 271.195312 C 206.527344 271.347656 207.371094 271.5 208.21875 271.667969 C 209.066406 271.832031 209.910156 272.007812 210.757812 272.195312 C 210.910156 272.230469 211.074219 272.265625 211.226562 272.300781 C 211.554688 272.371094 211.875 272.441406 212.203125 272.523438 C 212.308594 272.546875 212.425781 272.570312 212.53125 272.605469 C 212.742188 272.652344 212.953125 272.699219 213.152344 272.757812 C 213.332031 272.792969 213.507812 272.839844 213.683594 272.875 C 213.730469 272.886719 213.777344 272.898438 213.8125 272.914062 C 213.847656 272.925781 213.882812 272.925781 213.90625 272.9375 C 213.929688 272.949219 213.964844 272.949219 213.988281 272.960938 C 214.46875 273.078125 214.941406 273.207031 215.410156 273.335938 C 215.679688 273.394531 215.949219 273.464844 216.210938 273.546875 C 216.480469 273.617188 216.738281 273.699219 216.996094 273.769531 C 217.597656 273.933594 218.183594 274.109375 218.785156 274.285156 C 219.242188 274.429688 219.699219 274.570312 220.160156 274.722656 C 220.453125 274.816406 220.757812 274.910156 221.039062 275.003906 C 221.519531 275.15625 222.003906 275.320312 222.472656 275.484375 C 222.742188 275.578125 223.015625 275.671875 223.273438 275.769531 C 224.222656 276.097656 225.164062 276.449219 226.105469 276.800781 C 226.539062 276.976562 226.984375 277.144531 227.433594 277.332031 C 228.160156 277.613281 228.878906 277.917969 229.59375 278.222656 C 230.523438 278.613281 231.429688 279.011719 232.34375 279.433594 C 233.144531 279.796875 233.941406 280.175781 234.730469 280.5625 C 234.789062 280.585938 234.835938 280.621094 234.894531 280.644531 C 235.234375 280.808594 235.578125 280.972656 235.90625 281.148438 C 235.941406 281.160156 235.964844 281.183594 236 281.195312 C 236.726562 281.5625 237.433594 281.925781 238.148438 282.3125 L 238.160156 282.3125 C 238.808594 282.667969 239.464844 283.019531 240.101562 283.382812 C 240.277344 283.476562 240.441406 283.570312 240.605469 283.664062 C 240.828125 283.792969 241.042969 283.910156 241.253906 284.03125 C 241.792969 284.347656 242.332031 284.664062 242.863281 284.992188 L 243.390625 285.308594 C 243.519531 285.378906 243.648438 285.464844 243.78125 285.546875 C 244.695312 286.097656 245.589844 286.671875 246.480469 287.261719 C 259.410156 295.734375 270.398438 306.910156 278.648438 319.988281 C 282.890625 326.699219 286.402344 333.914062 289.082031 341.507812 " fill-opacity="1" fill-rule="nonzero"/><path fill="#231f1f" d="M 89.347656 340.320312 C 118.597656 359.136719 152.46875 369.066406 187.441406 369.066406 C 222.414062 369.066406 256.273438 359.136719 285.523438 340.320312 C 283.042969 333.773438 279.90625 327.476562 276.167969 321.566406 C 268.1875 308.917969 257.375 297.90625 244.871094 289.71875 C 244.003906 289.140625 243.144531 288.589844 242.261719 288.058594 C 242.121094 287.976562 242.0625 287.929688 241.992188 287.894531 L 241.886719 287.824219 L 241.359375 287.519531 C 240.804688 287.167969 240.289062 286.863281 239.761719 286.566406 C 239.535156 286.4375 239.335938 286.320312 239.136719 286.203125 C 239.007812 286.132812 238.867188 286.050781 238.714844 285.980469 C 238.148438 285.652344 237.644531 285.367188 237.140625 285.097656 L 236.90625 284.96875 C 236.847656 284.945312 236.796875 284.921875 236.75 284.898438 C 236.070312 284.523438 235.386719 284.171875 234.683594 283.828125 C 234.671875 283.816406 234.648438 283.804688 234.625 283.792969 C 234.589844 283.769531 234.554688 283.757812 234.519531 283.734375 C 234.226562 283.582031 233.917969 283.441406 233.613281 283.289062 C 233.566406 283.265625 233.507812 283.230469 233.460938 283.207031 C 233.449219 283.207031 233.4375 283.207031 233.425781 283.195312 C 232.675781 282.820312 231.898438 282.453125 231.121094 282.101562 C 230.230469 281.691406 229.359375 281.304688 228.464844 280.9375 C 227.738281 280.621094 227.066406 280.339844 226.375 280.070312 C 226.058594 279.941406 225.824219 279.84375 225.585938 279.75 L 225 279.515625 C 224.152344 279.210938 223.238281 278.859375 222.308594 278.542969 L 221.507812 278.257812 C 221.0625 278.105469 220.605469 277.941406 220.160156 277.800781 L 219.265625 277.519531 C 218.796875 277.367188 218.359375 277.226562 217.925781 277.097656 L 217.679688 277.023438 C 217.183594 276.882812 216.703125 276.742188 216.222656 276.601562 L 215.46875 276.390625 C 215.421875 276.378906 215.363281 276.367188 215.316406 276.34375 C 215.140625 276.285156 214.964844 276.238281 214.777344 276.203125 L 214.636719 276.167969 C 214.128906 276.027344 213.71875 275.921875 213.296875 275.816406 C 213.25 275.804688 213.203125 275.792969 213.140625 275.78125 C 213.140625 275.769531 213.128906 275.769531 213.128906 275.769531 C 213.082031 275.757812 213.035156 275.746094 212.976562 275.734375 L 212.589844 275.636719 C 212.496094 275.625 212.402344 275.601562 212.320312 275.566406 C 212.191406 275.53125 212.0625 275.507812 211.945312 275.484375 C 211.839844 275.460938 211.695312 275.425781 211.601562 275.390625 C 211.191406 275.296875 210.898438 275.238281 210.605469 275.167969 L 210.085938 275.050781 C 209.300781 274.875 208.476562 274.710938 207.65625 274.546875 C 206.855469 274.394531 206.054688 274.25 205.246094 274.097656 C 205.222656 274.097656 205.1875 274.097656 205.164062 274.085938 L 203.410156 273.804688 C 203.222656 273.78125 203.046875 273.757812 202.882812 273.734375 L 202.15625 273.628906 C 201.964844 273.59375 201.777344 273.570312 201.589844 273.558594 C 201.554688 273.546875 201.507812 273.546875 201.472656 273.535156 C 201.273438 273.511719 201.074219 273.476562 200.886719 273.464844 L 199.675781 273.3125 C 199.347656 273.265625 199.050781 273.242188 198.757812 273.207031 C 198.136719 273.148438 197.59375 273.089844 197.054688 273.042969 C 193.976562 272.746094 190.753906 272.605469 187.441406 272.605469 C 178.757812 272.605469 170.167969 273.652344 161.929688 275.734375 C 150.5625 278.566406 139.835938 283.265625 130.011719 289.71875 C 111.511719 301.84375 97.152344 319.753906 89.347656 340.320312 Z M 187.441406 374.941406 C 150.527344 374.941406 114.816406 364.222656 84.167969 343.964844 C 83.050781 343.210938 82.566406 341.800781 83.015625 340.53125 C 91.042969 317.839844 106.578125 298.050781 126.789062 284.804688 C 137.15625 278 148.496094 273.03125 160.507812 270.03125 C 169.203125 267.847656 178.261719 266.730469 187.441406 266.730469 C 190.941406 266.730469 194.351562 266.882812 197.582031 267.1875 C 198.136719 267.234375 198.722656 267.292969 199.285156 267.351562 C 199.722656 267.402344 200.074219 267.4375 200.425781 267.484375 L 201.53125 267.625 C 201.742188 267.636719 202 267.683594 202.261719 267.71875 C 202.507812 267.742188 202.742188 267.777344 203 267.8125 L 206.042969 268.28125 C 206.089844 268.28125 206.136719 268.292969 206.183594 268.304688 C 207.054688 268.457031 207.914062 268.609375 208.78125 268.773438 C 209.652344 268.953125 210.523438 269.128906 211.390625 269.328125 L 211.875 269.433594 C 212.214844 269.503906 212.554688 269.585938 212.917969 269.667969 C 213.011719 269.691406 213.140625 269.726562 213.273438 269.761719 C 213.484375 269.808594 213.683594 269.855469 213.859375 269.902344 C 213.929688 269.925781 214.011719 269.9375 214.09375 269.960938 L 214.269531 269.996094 C 214.304688 270.007812 214.339844 270.007812 214.375 270.019531 C 214.433594 270.03125 214.503906 270.054688 214.5625 270.066406 C 214.613281 270.078125 214.671875 270.089844 214.71875 270.113281 L 214.730469 270.113281 C 215.1875 270.234375 215.644531 270.351562 216.09375 270.46875 C 216.375 270.539062 216.703125 270.621094 217.019531 270.726562 C 217.171875 270.761719 217.324219 270.808594 217.480469 270.84375 L 217.761719 270.925781 C 218.300781 271.078125 218.820312 271.230469 219.347656 271.394531 L 219.617188 271.464844 C 220.121094 271.621094 220.605469 271.773438 221.085938 271.9375 L 221.96875 272.21875 C 222.4375 272.359375 222.945312 272.535156 223.4375 272.710938 C 223.71875 272.804688 224 272.898438 224.28125 273.007812 C 225.210938 273.324219 226.175781 273.6875 227.140625 274.050781 L 227.726562 274.273438 C 227.996094 274.394531 228.289062 274.5 228.574219 274.628906 C 229.253906 274.886719 229.984375 275.191406 230.722656 275.507812 C 231.6875 275.910156 232.625 276.320312 233.578125 276.765625 C 234.390625 277.144531 235.210938 277.519531 236.035156 277.929688 C 236.070312 277.953125 236.128906 277.976562 236.175781 278 C 236.539062 278.175781 236.90625 278.351562 237.257812 278.542969 C 237.269531 278.542969 237.28125 278.554688 237.292969 278.554688 C 237.292969 278.566406 237.304688 278.566406 237.316406 278.566406 C 238.019531 278.917969 238.703125 279.269531 239.394531 279.644531 C 239.453125 279.679688 239.511719 279.703125 239.570312 279.726562 L 239.949219 279.941406 C 240.488281 280.234375 241.03125 280.527344 241.570312 280.832031 C 241.6875 280.890625 241.875 281.007812 242.0625 281.113281 L 242.582031 281.410156 C 242.605469 281.421875 242.722656 281.480469 242.734375 281.492188 C 243.296875 281.820312 243.863281 282.160156 244.414062 282.5 L 244.859375 282.761719 C 245.023438 282.855469 245.203125 282.960938 245.367188 283.066406 C 246.246094 283.605469 247.175781 284.195312 248.09375 284.804688 C 261.289062 293.453125 272.710938 305.078125 281.125 318.414062 C 285.511719 325.359375 289.117188 332.800781 291.855469 340.53125 C 292.300781 341.800781 291.832031 343.210938 290.703125 343.964844 C 260.054688 364.222656 224.34375 374.941406 187.441406 374.941406 " fill-opacity="1" fill-rule="nonzero"/><path fill="#ffffff" d="M 246.480469 287.261719 C 244.835938 299.707031 239.347656 310.953125 231.226562 319.742188 C 220.347656 331.53125 204.761719 338.921875 187.441406 338.921875 C 159.695312 338.921875 136.378906 319.941406 129.761719 294.253906 C 129.175781 291.972656 128.71875 289.636719 128.398438 287.261719 C 145.359375 276.132812 165.640625 269.667969 187.441406 269.667969 C 190.765625 269.667969 194.058594 269.808594 197.300781 270.113281 C 197.863281 270.164062 198.429688 270.222656 198.980469 270.28125 C 199.335938 270.316406 199.6875 270.351562 200.027344 270.398438 C 200.414062 270.433594 200.804688 270.492188 201.179688 270.539062 C 201.414062 270.5625 201.660156 270.597656 201.894531 270.632812 C 202.238281 270.667969 202.589844 270.726562 202.941406 270.773438 C 203.210938 270.808594 203.484375 270.855469 203.765625 270.890625 C 204 270.925781 204.234375 270.960938 204.46875 271.007812 C 204.867188 271.066406 205.257812 271.136719 205.65625 271.195312 C 207.371094 271.488281 209.078125 271.820312 210.757812 272.195312 L 211.886719 272.441406 C 212.097656 272.5 212.320312 272.546875 212.53125 272.605469 C 212.929688 272.699219 213.34375 272.792969 213.730469 272.898438 C 213.800781 272.910156 213.859375 272.921875 213.90625 272.9375 C 214.410156 273.066406 214.917969 273.195312 215.410156 273.335938 C 215.949219 273.464844 216.480469 273.617188 216.996094 273.769531 C 217.597656 273.933594 218.183594 274.109375 218.785156 274.285156 C 219.242188 274.429688 219.699219 274.570312 220.160156 274.722656 C 220.453125 274.816406 220.757812 274.910156 221.039062 275.003906 C 221.519531 275.15625 222.003906 275.320312 222.472656 275.484375 C 223.0625 275.683594 223.636719 275.886719 224.210938 276.097656 C 224.257812 276.121094 224.292969 276.132812 224.332031 276.144531 C 224.929688 276.355469 225.515625 276.578125 226.105469 276.800781 C 226.539062 276.976562 226.984375 277.144531 227.433594 277.332031 C 228.597656 277.789062 229.734375 278.269531 230.863281 278.765625 L 232.34375 279.433594 C 232.792969 279.632812 233.238281 279.84375 233.683594 280.058594 C 234.097656 280.257812 234.496094 280.445312 234.894531 280.644531 C 235.269531 280.820312 235.636719 281.007812 236 281.195312 C 236.234375 281.316406 236.480469 281.433594 236.714844 281.5625 C 237.691406 282.054688 238.644531 282.570312 239.582031 283.089844 C 239.925781 283.277344 240.277344 283.476562 240.605469 283.664062 C 240.828125 283.792969 241.042969 283.910156 241.253906 284.027344 L 242.050781 284.5 L 242.863281 284.992188 L 243.390625 285.308594 C 243.898438 285.605469 244.390625 285.910156 244.882812 286.226562 C 245.425781 286.566406 245.953125 286.910156 246.480469 287.261719 " fill-opacity="1" fill-rule="nonzero"/><path fill="#231f1f" d="M 131.585938 288.707031 C 131.855469 290.316406 132.195312 291.9375 132.605469 293.523438 C 139.046875 318.519531 161.597656 335.984375 187.441406 335.984375 C 203.199219 335.984375 218.371094 329.332031 229.066406 317.746094 C 236.597656 309.589844 241.5 299.578125 243.296875 288.707031 C 242.828125 288.402344 242.382812 288.117188 241.910156 287.847656 L 239.136719 286.214844 C 238.820312 286.039062 238.492188 285.839844 238.160156 285.664062 C 237.257812 285.15625 236.328125 284.664062 235.386719 284.183594 C 235.164062 284.066406 235.023438 283.992188 234.871094 283.921875 L 234.683594 283.828125 C 234.320312 283.640625 233.976562 283.464844 233.636719 283.300781 C 233.332031 283.148438 233.085938 283.03125 232.839844 282.914062 L 232.402344 282.703125 C 231.933594 282.476562 231.535156 282.289062 231.144531 282.113281 L 229.652344 281.445312 C 228.585938 280.972656 227.480469 280.515625 226.351562 280.058594 C 226.046875 279.929688 225.800781 279.84375 225.5625 279.738281 L 225 279.527344 C 224.496094 279.328125 223.929688 279.117188 223.355469 278.917969 C 223.296875 278.894531 223.203125 278.859375 223.085938 278.8125 C 222.566406 278.625 222.050781 278.445312 221.535156 278.269531 C 221.0625 278.105469 220.605469 277.953125 220.148438 277.800781 L 219.265625 277.519531 C 218.796875 277.367188 218.359375 277.226562 217.925781 277.097656 L 217.714844 277.035156 C 217.21875 276.882812 216.726562 276.742188 216.222656 276.601562 C 215.691406 276.449219 215.210938 276.308594 214.730469 276.191406 C 214.683594 276.179688 214.648438 276.179688 214.601562 276.15625 C 214.140625 276.027344 213.671875 275.910156 213.203125 275.792969 C 213.105469 275.78125 213.046875 275.757812 212.953125 275.734375 C 212.660156 275.648438 212.34375 275.578125 212.039062 275.507812 L 211.863281 275.460938 C 211.816406 275.460938 211.765625 275.4375 211.730469 275.4375 L 211.507812 275.378906 C 211.402344 275.355469 211.285156 275.320312 211.179688 275.296875 L 210.132812 275.0625 C 208.546875 274.710938 206.9375 274.394531 205.164062 274.097656 L 204.046875 273.910156 C 203.988281 273.910156 203.941406 273.898438 203.882812 273.886719 C 203.730469 273.851562 203.578125 273.828125 203.421875 273.804688 C 203.222656 273.78125 203.046875 273.757812 202.859375 273.734375 L 202.132812 273.628906 C 201.953125 273.59375 201.777344 273.570312 201.601562 273.558594 C 201.542969 273.558594 201.496094 273.546875 201.4375 273.535156 C 201.261719 273.511719 201.074219 273.476562 200.898438 273.464844 L 200.484375 273.40625 C 200.238281 273.382812 199.992188 273.347656 199.746094 273.324219 C 199.324219 273.265625 199.003906 273.242188 198.6875 273.207031 C 198.136719 273.148438 197.59375 273.089844 197.054688 273.042969 C 193.976562 272.757812 190.753906 272.605469 187.441406 272.605469 C 167.558594 272.605469 148.285156 278.164062 131.585938 288.707031 Z M 187.441406 341.859375 C 158.90625 341.859375 134.015625 322.585938 126.917969 294.980469 C 126.296875 292.574219 125.816406 290.105469 125.484375 287.648438 C 125.332031 286.53125 125.839844 285.425781 126.789062 284.804688 C 144.804688 272.984375 165.769531 266.730469 187.441406 266.730469 C 190.929688 266.730469 194.351562 266.882812 197.570312 267.1875 C 198.136719 267.234375 198.710938 267.292969 199.285156 267.363281 C 199.664062 267.402344 200.039062 267.4375 200.414062 267.484375 C 200.625 267.507812 200.945312 267.542969 201.261719 267.589844 L 201.554688 267.625 C 201.730469 267.636719 202 267.683594 202.273438 267.71875 C 202.496094 267.742188 202.730469 267.777344 202.976562 267.8125 L 204.117188 267.976562 C 204.152344 267.976562 204.292969 268 204.316406 268 C 204.527344 268.035156 204.75 268.070312 204.964844 268.117188 C 205.164062 268.140625 205.351562 268.175781 205.539062 268.199219 L 206.078125 268.28125 C 208.019531 268.621094 209.734375 268.953125 211.390625 269.328125 L 212.507812 269.574219 L 212.683594 269.609375 L 212.894531 269.667969 C 213.011719 269.691406 213.140625 269.726562 213.261719 269.761719 L 213.378906 269.785156 C 213.707031 269.867188 214.046875 269.9375 214.375 270.03125 C 214.457031 270.042969 214.527344 270.066406 214.601562 270.078125 C 215.164062 270.222656 215.667969 270.351562 216.152344 270.492188 C 216.726562 270.632812 217.289062 270.796875 217.832031 270.949219 C 218.3125 271.078125 218.84375 271.242188 219.382812 271.394531 L 219.617188 271.464844 C 220.121094 271.632812 220.605469 271.773438 221.085938 271.9375 L 221.96875 272.21875 C 222.4375 272.359375 222.945312 272.535156 223.4375 272.710938 C 224.023438 272.910156 224.625 273.125 225.222656 273.347656 C 225.269531 273.359375 225.328125 273.382812 225.375 273.394531 C 226.011719 273.628906 226.574219 273.839844 227.152344 274.050781 L 227.691406 274.261719 C 227.984375 274.382812 228.277344 274.5 228.574219 274.628906 C 229.699219 275.0625 230.875 275.566406 232.039062 276.074219 L 233.566406 276.765625 C 233.964844 276.941406 234.402344 277.144531 234.835938 277.355469 C 234.847656 277.355469 234.953125 277.414062 234.964844 277.414062 L 235.375 277.613281 C 235.660156 277.753906 235.929688 277.882812 236.210938 278.023438 C 236.550781 278.175781 236.953125 278.375 237.351562 278.589844 L 237.46875 278.648438 C 237.691406 278.753906 237.914062 278.859375 238.125 278.988281 C 239.042969 279.445312 240.03125 279.988281 240.996094 280.515625 C 241.359375 280.714844 241.722656 280.914062 242.0625 281.113281 L 242.617188 281.421875 C 242.640625 281.433594 242.722656 281.480469 242.746094 281.503906 L 244.917969 282.808594 C 245.414062 283.089844 245.941406 283.417969 246.46875 283.746094 C 247.011719 284.101562 247.5625 284.453125 248.117188 284.816406 C 249.042969 285.441406 249.539062 286.53125 249.398438 287.648438 C 247.703125 300.445312 242.167969 312.234375 233.390625 321.742188 C 221.582031 334.527344 204.832031 341.859375 187.441406 341.859375 " fill-opacity="1" fill-rule="nonzero"/><path fill="#ffffff" d="M 161.210938 291.738281 L 161.210938 240.113281 C 161.210938 227.054688 171.882812 216.386719 184.9375 216.386719 L 189.945312 216.386719 C 203 216.386719 213.683594 227.054688 213.683594 240.113281 L 213.683594 291.738281 C 213.683594 304.792969 203 315.488281 189.945312 315.488281 " fill-opacity="1" fill-rule="nonzero"/><path fill="#231f1f" d="M 189.945312 318.425781 C 188.324219 318.425781 187.007812 317.109375 187.007812 315.488281 C 187.007812 313.867188 188.324219 312.550781 189.945312 312.550781 C 201.414062 312.550781 210.746094 303.207031 210.746094 291.738281 L 210.746094 240.113281 C 210.746094 228.644531 201.414062 219.324219 189.945312 219.324219 L 184.9375 219.324219 C 173.46875 219.324219 164.148438 228.644531 164.148438 240.113281 L 164.148438 291.738281 C 164.148438 293.359375 162.832031 294.675781 161.210938 294.675781 C 159.589844 294.675781 158.273438 293.359375 158.273438 291.738281 L 158.273438 240.113281 C 158.273438 225.410156 170.238281 213.449219 184.9375 213.449219 L 189.945312 213.449219 C 204.65625 213.449219 216.621094 225.410156 216.621094 240.113281 L 216.621094 291.738281 C 216.621094 306.453125 204.65625 318.425781 189.945312 318.425781 " fill-opacity="1" fill-rule="nonzero"/><path fill="#ffffff" d="M 251.429688 220.207031 C 251.429688 220.207031 263.722656 216.023438 271.574219 202.320312 C 280.105469 187.441406 274.746094 178.167969 273.054688 176.160156 C 268.433594 170.683594 261.300781 174.195312 260.125 176.160156 C 258.949219 178.121094 241.933594 209.027344 251.429688 220.207031 " fill-opacity="1" fill-rule="nonzero"/><path fill="#231f1f" d="M 266.894531 176.160156 C 264.816406 176.160156 262.957031 177.3125 262.605469 177.746094 C 259.867188 182.304688 247.808594 206.351562 252.535156 216.527344 C 256.140625 214.742188 263.710938 210.121094 269.023438 200.863281 C 277.4375 186.195312 271.089844 178.378906 270.808594 178.050781 C 269.738281 176.78125 268.457031 176.160156 266.894531 176.160156 Z M 251.429688 223.144531 C 250.570312 223.144531 249.75 222.777344 249.183594 222.109375 C 237.761719 208.652344 257.410156 174.984375 257.609375 174.644531 C 258.902344 172.503906 262.722656 170.285156 266.894531 170.285156 C 270.210938 170.285156 273.113281 171.671875 275.308594 174.265625 C 278.789062 178.390625 282.453125 189.25 274.121094 203.789062 C 265.8125 218.277344 252.921875 222.800781 252.371094 222.992188 C 252.0625 223.097656 251.746094 223.144531 251.429688 223.144531 " fill-opacity="1" fill-rule="nonzero"/><path fill="#ffffff" d="M 126.648438 220.207031 C 126.648438 220.207031 114.355469 216.023438 106.507812 202.320312 C 97.964844 187.441406 103.320312 178.167969 105.015625 176.160156 C 109.632812 170.683594 116.765625 174.195312 117.941406 176.160156 C 119.117188 178.121094 136.144531 209.027344 126.648438 220.207031 " fill-opacity="1" fill-rule="nonzero"/><path fill="#231f1f" d="M 111.171875 176.160156 C 109.621094 176.160156 108.339844 176.78125 107.269531 178.050781 C 106.988281 178.378906 100.628906 186.195312 109.046875 200.863281 C 114.402344 210.191406 121.9375 214.777344 125.542969 216.539062 C 130.269531 206.363281 118.210938 182.304688 115.425781 177.675781 C 115.121094 177.3125 113.265625 176.160156 111.171875 176.160156 Z M 126.648438 223.144531 C 126.332031 223.144531 126.015625 223.097656 125.695312 222.992188 C 125.15625 222.800781 112.265625 218.277344 103.945312 203.789062 C 95.625 189.25 99.289062 178.390625 102.769531 174.265625 C 104.96875 171.671875 107.871094 170.285156 111.171875 170.285156 C 115.355469 170.285156 119.175781 172.503906 120.46875 174.644531 C 120.667969 174.984375 140.316406 208.652344 128.894531 222.109375 C 128.316406 222.777344 127.496094 223.144531 126.648438 223.144531 " fill-opacity="1" fill-rule="nonzero"/><path fill="#ffffff" d="M 263.476562 173.785156 C 263.476562 128.753906 230.230469 92.226562 189.203125 92.226562 C 148.191406 92.226562 114.921875 128.753906 114.921875 173.785156 C 114.921875 218.84375 148.191406 265.929688 189.203125 265.929688 C 227.75 265.929688 263.476562 218.464844 263.476562 173.785156 " fill-opacity="1" fill-rule="nonzero"/><path fill="#231f1f" d="M 189.203125 95.167969 C 149.871094 95.167969 117.859375 130.445312 117.859375 173.785156 C 117.859375 195.269531 125.566406 217.5625 139.011719 234.964844 C 152.972656 253.039062 170.800781 262.992188 189.203125 262.992188 C 206.410156 262.992188 224.367188 252.710938 238.492188 234.789062 C 252.5 217.007812 260.539062 194.773438 260.539062 173.785156 C 260.539062 130.445312 228.539062 95.167969 189.203125 95.167969 Z M 189.203125 268.871094 C 145.015625 268.871094 111.984375 218.675781 111.984375 173.785156 C 111.984375 127.203125 146.628906 89.289062 189.203125 89.289062 C 231.78125 89.289062 266.414062 127.203125 266.414062 173.785156 C 266.414062 221.78125 228.171875 268.871094 189.203125 268.871094 " fill-opacity="1" fill-rule="nonzero"/><path fill="#231f1f" d="M 262.417969 105.0625 L 197.464844 83.320312 L 180.789062 83.320312 L 115.835938 105.0625 L 114.78125 173.785156 C 116.332031 158.496094 129.667969 118.574219 142.597656 125.039062 C 153.089844 130.28125 178.320312 132.429688 187.453125 133.054688 L 187.453125 133.265625 C 187.453125 133.265625 188.050781 133.230469 189.132812 133.171875 C 190.203125 133.230469 190.8125 133.265625 190.8125 133.265625 L 190.8125 133.054688 C 199.933594 132.429688 225.164062 130.28125 235.660156 125.039062 C 248.585938 118.574219 261.925781 158.496094 263.476562 173.785156 L 262.417969 105.0625 " fill-opacity="1" fill-rule="nonzero"/><path fill="#231f1f" d="M 238.527344 121.394531 C 247.609375 121.394531 255.191406 135.085938 260.160156 148.859375 L 259.515625 107.1875 L 196.984375 86.257812 L 181.273438 86.257812 L 118.742188 107.1875 L 118.09375 148.859375 C 123.066406 135.085938 130.644531 121.394531 139.730469 121.394531 C 141.164062 121.394531 142.574219 121.738281 143.914062 122.417969 C 154.078125 127.496094 179.957031 129.597656 187.640625 130.128906 C 187.898438 130.140625 188.144531 130.199219 188.371094 130.269531 C 188.546875 130.257812 188.734375 130.246094 188.945312 130.234375 C 189.0625 130.222656 189.191406 130.222656 189.308594 130.234375 C 189.519531 130.246094 189.710938 130.257812 189.886719 130.269531 C 190.121094 130.199219 190.355469 130.140625 190.613281 130.128906 C 198.300781 129.597656 224.175781 127.496094 234.34375 122.417969 C 235.683594 121.738281 237.09375 121.394531 238.527344 121.394531 Z M 263.476562 176.722656 C 261.984375 176.722656 260.714844 175.59375 260.5625 174.089844 C 258.890625 157.722656 246.917969 127.273438 238.527344 127.273438 C 237.996094 127.273438 237.503906 127.402344 236.976562 127.660156 C 226.492188 132.902344 202.859375 135.144531 192.082031 135.910156 C 191.648438 136.121094 191.15625 136.226562 190.660156 136.203125 C 190.660156 136.203125 190.109375 136.167969 189.132812 136.109375 C 188.144531 136.167969 187.59375 136.203125 187.59375 136.203125 C 187.101562 136.226562 186.605469 136.121094 186.171875 135.910156 C 175.394531 135.144531 151.761719 132.902344 141.28125 127.660156 C 140.761719 127.402344 140.257812 127.273438 139.730469 127.273438 C 131.339844 127.273438 119.363281 157.722656 117.695312 174.089844 C 117.542969 175.652344 116.203125 176.816406 114.605469 176.722656 C 113.027344 176.628906 111.820312 175.324219 111.84375 173.75 L 112.898438 105.015625 C 112.921875 103.769531 113.722656 102.664062 114.910156 102.277344 L 179.859375 80.535156 C 180.167969 80.429688 180.472656 80.382812 180.789062 80.382812 L 197.464844 80.382812 C 197.78125 80.382812 198.089844 80.429688 198.394531 80.535156 L 263.359375 102.277344 C 264.53125 102.664062 265.34375 103.769531 265.355469 105.015625 L 266.414062 173.75 C 266.4375 175.324219 265.226562 176.628906 263.652344 176.722656 L 263.476562 176.722656 " fill-opacity="1" fill-rule="nonzero"/><path fill="#231f1f" d="M 247.527344 172.410156 C 246.988281 172.410156 246.445312 172.257812 245.953125 171.953125 C 224.988281 158.589844 206.585938 169.660156 205.820312 170.140625 C 204.433594 170.988281 202.625 170.566406 201.777344 169.191406 C 200.921875 167.816406 201.34375 166.007812 202.707031 165.148438 C 203.613281 164.597656 224.941406 151.597656 249.113281 166.992188 C 250.476562 167.863281 250.878906 169.683594 250.007812 171.046875 C 249.445312 171.929688 248.503906 172.410156 247.527344 172.410156 " fill-opacity="1" fill-rule="nonzero"/><path fill="#231f1f" d="M 238.5625 185.433594 C 238.03125 185.433594 237.503906 185.289062 237.023438 184.996094 C 224.507812 177.289062 214.789062 184.738281 214.695312 184.808594 C 213.414062 185.808594 211.566406 185.585938 210.558594 184.316406 C 209.558594 183.046875 209.78125 181.1875 211.0625 180.191406 C 211.578125 179.777344 224.140625 170.15625 240.101562 180.003906 C 241.488281 180.847656 241.910156 182.660156 241.066406 184.046875 C 240.5 184.9375 239.546875 185.433594 238.5625 185.433594 " fill-opacity="1" fill-rule="nonzero"/><path fill="#231f1f" d="M 136.507812 185.433594 C 135.523438 185.433594 134.558594 184.9375 134.003906 184.046875 C 133.148438 182.660156 133.582031 180.847656 134.96875 180.003906 C 150.917969 170.15625 163.480469 179.765625 164.007812 180.191406 C 165.289062 181.1875 165.5 183.046875 164.5 184.316406 C 163.503906 185.585938 161.65625 185.808594 160.386719 184.820312 C 159.976562 184.503906 150.421875 177.371094 138.046875 184.996094 C 137.566406 185.289062 137.039062 185.433594 136.507812 185.433594 " fill-opacity="1" fill-rule="nonzero"/><path fill="#231f1f" d="M 170.402344 171.859375 C 169.789062 171.859375 169.167969 171.671875 168.648438 171.28125 C 167.910156 170.742188 150.492188 158.191406 128.507812 169.753906 C 127.070312 170.519531 125.285156 169.964844 124.535156 168.53125 C 123.78125 167.097656 124.324219 165.3125 125.769531 164.558594 C 151.128906 151.222656 171.316406 165.933594 172.164062 166.570312 C 173.457031 167.546875 173.726562 169.378906 172.75 170.683594 C 172.175781 171.457031 171.292969 171.859375 170.402344 171.859375 " fill-opacity="1" fill-rule="nonzero"/><path fill="#231f1f" d="M 188.582031 219.40625 C 185.394531 219.40625 183 218.277344 182.859375 218.207031 C 181.402344 217.503906 180.789062 215.738281 181.496094 214.28125 C 182.199219 212.824219 183.9375 212.214844 185.394531 212.90625 C 185.503906 212.953125 188.535156 214.292969 191.378906 212.917969 C 192.835938 212.214844 194.585938 212.824219 195.304688 214.28125 C 196.007812 215.738281 195.398438 217.503906 193.929688 218.207031 C 192.070312 219.113281 190.214844 219.40625 188.582031 219.40625 " fill-opacity="1" fill-rule="nonzero"/><path fill="#231f1f" d="M 187.347656 232.992188 C 179.25 232.992188 173.832031 230.570312 173.503906 230.417969 C 172.023438 229.746094 171.375 227.996094 172.058594 226.527344 C 172.726562 225.058594 174.46875 224.402344 175.9375 225.070312 C 176.125 225.152344 186.464844 229.640625 199.417969 224.988281 C 200.945312 224.4375 202.625 225.234375 203.175781 226.75 C 203.730469 228.289062 202.929688 229.972656 201.402344 230.511719 C 196.242188 232.367188 191.449219 232.992188 187.347656 232.992188 " fill-opacity="1" fill-rule="nonzero"/><path fill="#231f1f" d="M 229.136719 189.507812 C 229.136719 194.972656 225.976562 199.417969 222.0625 199.417969 C 218.148438 199.417969 214.988281 194.972656 214.988281 189.507812 C 214.988281 184.019531 218.148438 179.578125 222.0625 179.578125 C 225.976562 179.578125 229.136719 184.019531 229.136719 189.507812 " fill-opacity="1" fill-rule="nonzero"/><path fill="#231f1f" d="M 160.425781 189.507812 C 160.425781 194.972656 157.25 199.417969 153.347656 199.417969 C 149.4375 199.417969 146.261719 194.972656 146.261719 189.507812 C 146.261719 184.019531 149.4375 179.578125 153.347656 179.578125 C 157.25 179.578125 160.425781 184.019531 160.425781 189.507812 " fill-opacity="1" fill-rule="nonzero"/></svg>