<svg xmlns="http://www.w3.org/2000/svg" xmlns:xlink="http://www.w3.org/1999/xlink" width="500" zoomAndPan="magnify" viewBox="0 0 375 374.999991" height="500" preserveAspectRatio="xMidYMid meet" version="1.0"><defs><clipPath id="4be4ba0ca0"><path d="M 0 0.703125 L 375 0.703125 L 375 374.953125 L 0 374.953125 Z M 0 0.703125 " clip-rule="nonzero"/></clipPath><clipPath id="358ff3bd2f"><path d="M 163 57 L 375 57 L 375 374.953125 L 163 374.953125 Z M 163 57 " clip-rule="nonzero"/></clipPath><clipPath id="c54f12f74a"><path d="M 52 201 L 322 201 L 322 374.953125 L 52 374.953125 Z M 52 201 " clip-rule="nonzero"/></clipPath><clipPath id="388e8e3c7b"><path d="M 52 257 L 322 257 L 322 374.953125 L 52 374.953125 Z M 52 257 " clip-rule="nonzero"/></clipPath></defs><rect x="-37.5" width="450" fill="#ffffff" y="-37.499999" height="449.999989" fill-opacity="1"/><rect x="-37.5" width="450" fill="#ffffff" y="-37.499999" height="449.999989" fill-opacity="1"/><g clip-path="url(#4be4ba0ca0)"><path fill="#aad8f4" d="M 374.578125 187.902344 C 374.578125 234.40625 357.585938 276.980469 329.496094 309.710938 C 326.957031 312.675781 324.316406 315.550781 321.589844 318.351562 C 314.632812 325.511719 307.089844 332.128906 299.0625 338.085938 C 267.894531 361.308594 229.257812 375.042969 187.40625 375.042969 C 186.832031 375.042969 186.277344 375.042969 185.703125 375.027344 C 159.582031 374.804688 134.753906 369.21875 112.226562 359.328125 C 99.199219 353.621094 86.960938 346.476562 75.6875 338.085938 C 67.53125 331.996094 59.886719 325.277344 52.828125 317.972656 C 50.230469 315.300781 47.71875 312.542969 45.296875 309.726562 C 17.210938 276.996094 0.203125 234.421875 0.203125 187.902344 C 0.203125 84.546875 84.023438 0.761719 187.40625 0.761719 C 258.339844 0.761719 320.0625 40.226562 351.816406 98.394531 C 362.351562 117.6875 369.574219 139.035156 372.757812 161.683594 C 373.960938 170.253906 374.578125 179.011719 374.578125 187.902344 Z M 374.578125 187.902344 " fill-opacity="1" fill-rule="nonzero"/></g><g clip-path="url(#358ff3bd2f)"><path fill="#5ec1ed" d="M 375.398438 187.902344 C 375.398438 234.40625 358.40625 276.980469 330.320312 309.710938 C 327.78125 312.675781 325.140625 315.550781 322.410156 318.351562 C 315.453125 325.511719 307.910156 332.128906 299.882812 338.085938 C 268.714844 361.308594 230.078125 375.042969 188.226562 375.042969 C 187.65625 375.042969 187.097656 375.042969 186.523438 375.027344 L 163.867188 334.785156 L 232.457031 57.230469 L 373.578125 161.683594 C 374.78125 170.253906 375.398438 179.011719 375.398438 187.902344 Z M 375.398438 187.902344 " fill-opacity="1" fill-rule="nonzero"/></g><path fill="#092838" d="M 100.429688 108.34375 C 102.96875 101.8125 106.578125 95.667969 111.023438 90.296875 C 120.445312 78.898438 145.789062 55.71875 162.152344 59.078125 C 185.234375 63.832031 204.75 102.402344 209.796875 123.042969 C 215.125 144.828125 214.742188 167.566406 214.316406 190 C 213.554688 230.519531 212.734375 271.554688 201.917969 310.621094 C 199.71875 318.558594 196.988281 326.640625 191.527344 332.820312 C 183.3125 342.121094 170.425781 345.554688 158.203125 347.679688 C 132.128906 352.199219 103.1875 345.859375 78.726562 335.929688 C 70.320312 332.511719 61.878906 328.109375 56.539062 320.757812 C 50.359375 312.222656 49.757812 299.324219 54.953125 290.140625 C 61.574219 278.433594 71.800781 280.046875 82.308594 273.328125 C 88.96875 269.074219 93.59375 259.347656 88.410156 253.390625 C 85.742188 250.324219 81.457031 249.386719 77.789062 247.640625 C 64.992188 241.507812 60.707031 222.582031 69.613281 211.535156 C 79.695312 199.035156 101.253906 197.890625 107.355469 183.03125 C 112.640625 170.195312 102.632812 156.710938 98.507812 143.433594 C 94.941406 131.960938 96.070312 119.578125 100.429688 108.34375 Z M 100.429688 108.34375 " fill-opacity="1" fill-rule="nonzero"/><g clip-path="url(#c54f12f74a)"><path fill="#eec191" d="M 273.484375 270.234375 L 228.480469 255.578125 C 220.171875 252.878906 214.554688 245.132812 214.554688 236.402344 L 214.554688 201.882812 L 160.039062 201.882812 L 160.039062 236.828125 C 160.039062 245.628906 154.328125 253.40625 145.9375 256.0625 L 100.855469 270.292969 C 77.507812 277.40625 59.828125 295.570312 52.8125 317.988281 C 59.871094 325.292969 67.515625 332.011719 75.675781 338.101562 C 86.945312 346.492188 99.183594 353.636719 112.214844 359.34375 C 135.222656 369.453125 160.640625 375.054688 187.390625 375.054688 C 229.242188 375.054688 267.878906 361.324219 299.046875 338.101562 C 307.074219 332.144531 314.617188 325.527344 321.574219 318.367188 C 314.675781 295.746094 296.949219 277.421875 273.484375 270.234375 Z M 273.484375 270.234375 " fill-opacity="1" fill-rule="nonzero"/></g><g clip-path="url(#388e8e3c7b)"><path fill="#ed6e4a" d="M 273.484375 270.234375 L 238.179688 258.730469 C 210.472656 279.078125 169.003906 277.582031 140.667969 257.71875 L 100.871094 270.277344 C 77.523438 277.394531 59.839844 295.554688 52.828125 317.972656 C 59.886719 325.277344 67.53125 331.996094 75.6875 338.085938 C 86.960938 346.476562 99.199219 353.621094 112.230469 359.328125 C 135.238281 369.4375 160.652344 375.042969 187.40625 375.042969 C 229.257812 375.042969 267.894531 361.308594 299.0625 338.085938 C 307.089844 332.128906 314.632812 325.511719 321.589844 318.351562 C 314.675781 295.746094 296.949219 277.421875 273.484375 270.234375 Z M 273.484375 270.234375 " fill-opacity="1" fill-rule="nonzero"/></g><path fill="#fbcb98" d="M 246.101562 124.582031 C 245.957031 82.84375 220.40625 52.871094 187.363281 52.871094 C 187.347656 52.871094 187.316406 52.871094 187.300781 52.871094 C 187.289062 52.871094 187.257812 52.871094 187.242188 52.871094 C 154.210938 52.871094 128.648438 82.84375 128.503906 124.582031 C 128.429688 143.609375 128.957031 148.347656 130.894531 162.15625 C 136.910156 205.082031 176.574219 224.914062 187.242188 224.914062 C 200.320312 224.914062 237.386719 205.082031 243.402344 162.15625 C 245.339844 148.347656 246.175781 143.609375 246.101562 124.582031 Z M 246.101562 124.582031 " fill-opacity="1" fill-rule="nonzero"/><path fill="#fbcb98" d="M 128.503906 130.933594 C 126.757812 129.042969 124.085938 128.117188 122.589844 130.746094 C 120.417969 134.5 120.652344 139.53125 120.960938 143.683594 C 121.210938 147.042969 121.636719 150.417969 122.515625 153.675781 C 123.277344 156.507812 124.320312 160.378906 126.828125 162.140625 C 127.402344 162.535156 128.195312 162.933594 128.914062 163.09375 C 129.308594 163.179688 131.714844 163.226562 130.910156 162.167969 " fill-opacity="1" fill-rule="nonzero"/><path fill="#fbcb98" d="M 245.792969 130.933594 C 247.542969 129.042969 250.210938 128.117188 251.707031 130.746094 C 253.878906 134.5 253.644531 139.53125 253.335938 143.683594 C 253.089844 147.042969 252.664062 150.417969 251.78125 153.675781 C 251.019531 156.507812 249.976562 160.378906 247.46875 162.140625 C 246.894531 162.535156 246.101562 162.933594 245.382812 163.09375 C 244.988281 163.179688 242.582031 163.226562 243.386719 162.167969 " fill-opacity="1" fill-rule="nonzero"/><path fill="#092838" d="M 220.863281 151.460938 C 219.925781 159.585938 213.230469 167.980469 217.78125 174.652344 C 220.527344 178.671875 226.21875 179.640625 229.332031 183.382812 C 233.894531 188.882812 230.753906 197.320312 226.292969 202.894531 C 221.832031 208.46875 215.933594 213.605469 214.832031 220.660156 C 212.953125 232.71875 225.589844 241.539062 231.019531 252.46875 C 237.414062 265.332031 232.25 282.734375 219.878906 290.039062 C 232.382812 291.140625 244.589844 282.441406 249.289062 270.804688 C 253.984375 259.171875 251.796875 245.453125 245.25 234.746094 C 243.242188 231.457031 240.804688 228.320312 239.761719 224.609375 C 237.679688 217.183594 241.816406 207.605469 246.058594 201.558594 C 251.0625 194.460938 259.808594 188.8125 255.949219 178.761719 C 254.644531 175.371094 252.441406 172.21875 252.148438 168.59375 C 251.78125 163.972656 254.554688 159.777344 257.066406 155.875 C 261.832031 148.464844 266.148438 140.382812 266.734375 131.59375 C 267.351562 122.515625 263.945312 113.710938 260.601562 105.246094 C 248.554688 74.761719 232.222656 45.917969 196.429688 42.207031 C 163.839844 38.832031 148.605469 70.625 157.601562 98.894531 C 161.433594 110.910156 170.441406 121.414062 182.195312 126.003906 C 189.796875 128.984375 198.175781 129.46875 205.835938 132.285156 C 213.496094 135.101562 220.90625 141.453125 220.9375 149.609375 C 220.964844 150.226562 220.9375 150.84375 220.863281 151.460938 Z M 220.863281 151.460938 " fill-opacity="1" fill-rule="nonzero"/><path fill="#092838" d="M 154.859375 113.433594 C 161.109375 105.40625 167.375 97.25 171.484375 87.949219 C 173.449219 83.476562 174.917969 78.648438 174.566406 73.777344 C 174.214844 68.90625 171.792969 63.976562 167.523438 61.617188 C 163.558594 59.414062 158.585938 59.695312 154.328125 61.292969 C 150.089844 62.890625 146.40625 65.679688 142.796875 68.4375 C 135.003906 74.363281 126.917969 80.660156 122.839844 89.5625 C 118.230469 99.628906 119.125 117.777344 128.046875 125.726562 C 138.980469 135.46875 148.136719 122.058594 154.859375 113.433594 Z M 154.859375 113.433594 " fill-opacity="1" fill-rule="nonzero"/></svg>