<svg xmlns="http://www.w3.org/2000/svg" xmlns:xlink="http://www.w3.org/1999/xlink" width="500" zoomAndPan="magnify" viewBox="0 0 375 374.999991" height="500" preserveAspectRatio="xMidYMid meet" version="1.0"><defs><filter x="0%" y="0%" width="100%" height="100%" id="822dbf2220"><feColorMatrix values="0 0 0 0 1 0 0 0 0 1 0 0 0 0 1 0 0 0 1 0" color-interpolation-filters="sRGB"/></filter><clipPath id="032e798485"><path d="M 25.378906 70.742188 L 153.628906 70.742188 L 153.628906 198.992188 L 25.378906 198.992188 Z M 25.378906 70.742188 " clip-rule="nonzero"/></clipPath><clipPath id="3add8e9a98"><path d="M 89.996094 89.996094 L 285.003906 89.996094 L 285.003906 285.003906 L 89.996094 285.003906 Z M 89.996094 89.996094 " clip-rule="nonzero"/></clipPath><clipPath id="4ed358c768"><path d="M 187.5 89.996094 C 133.648438 89.996094 89.996094 133.648438 89.996094 187.5 C 89.996094 241.351562 133.648438 285.003906 187.5 285.003906 C 241.351562 285.003906 285.003906 241.351562 285.003906 187.5 C 285.003906 133.648438 241.351562 89.996094 187.5 89.996094 Z M 187.5 89.996094 " clip-rule="nonzero"/></clipPath><clipPath id="916ccc6710"><path d="M 43.957031 43.957031 L 331.207031 43.957031 L 331.207031 331.207031 L 43.957031 331.207031 Z M 43.957031 43.957031 " clip-rule="nonzero"/></clipPath><clipPath id="036d9760c9"><path d="M 187.582031 43.957031 C 108.261719 43.957031 43.957031 108.261719 43.957031 187.582031 C 43.957031 266.902344 108.261719 331.207031 187.582031 331.207031 C 266.902344 331.207031 331.207031 266.902344 331.207031 187.582031 C 331.207031 108.261719 266.902344 43.957031 187.582031 43.957031 Z M 187.582031 43.957031 " clip-rule="nonzero"/></clipPath><clipPath id="da3c6bce73"><path d="M 89.375 214 L 280.625 214 L 280.625 245.378906 L 89.375 245.378906 Z M 89.375 214 " clip-rule="nonzero"/></clipPath><clipPath id="267e06e6eb"><path d="M 114 117.921875 L 256 117.921875 L 256 207 L 114 207 Z M 114 117.921875 " clip-rule="nonzero"/></clipPath><clipPath id="7759ebf3f1"><path d="M 231 79.09375 L 274 79.09375 L 274 113 L 231 113 Z M 231 79.09375 " clip-rule="nonzero"/></clipPath><clipPath id="cc37c96915"><path d="M 224.078125 110 L 280.328125 110 L 280.328125 157.09375 L 224.078125 157.09375 Z M 224.078125 110 " clip-rule="nonzero"/></clipPath><mask id="bc06cb3bb1"><g filter="url(#822dbf2220)"><rect x="-37.5" width="450" fill="#000000" y="-37.499999" height="449.999989" fill-opacity="0.25"/></g></mask><clipPath id="2c3666e3f9"><path d="M 0.5 0.265625 L 80.398438 0.265625 L 80.398438 80.160156 L 0.5 80.160156 Z M 0.5 0.265625 " clip-rule="nonzero"/></clipPath><clipPath id="055ad462f7"><path d="M 40.449219 0.265625 C 18.386719 0.265625 0.5 18.148438 0.5 40.210938 C 0.5 62.277344 18.386719 80.160156 40.449219 80.160156 C 62.511719 80.160156 80.398438 62.277344 80.398438 40.210938 C 80.398438 18.148438 62.511719 0.265625 40.449219 0.265625 Z M 40.449219 0.265625 " clip-rule="nonzero"/></clipPath><clipPath id="e78bff67fa"><rect x="0" width="81" y="0" height="81"/></clipPath><clipPath id="8afbafeddc"><path d="M 50.0625 233.828125 L 104.832031 233.828125 L 104.832031 288.597656 L 50.0625 288.597656 Z M 50.0625 233.828125 " clip-rule="nonzero"/></clipPath><clipPath id="8e0585cc19"><path d="M 77.449219 233.828125 C 62.324219 233.828125 50.0625 246.089844 50.0625 261.210938 C 50.0625 276.335938 62.324219 288.597656 77.449219 288.597656 C 92.574219 288.597656 104.832031 276.335938 104.832031 261.210938 C 104.832031 246.089844 92.574219 233.828125 77.449219 233.828125 Z M 77.449219 233.828125 " clip-rule="nonzero"/></clipPath><clipPath id="518a0d55b6"><path d="M 64.507812 248 L 90 248 L 90 275.550781 L 64.507812 275.550781 Z M 64.507812 248 " clip-rule="nonzero"/></clipPath><mask id="6eb95e8f55"><g filter="url(#822dbf2220)"><rect x="-37.5" width="450" fill="#000000" y="-37.499999" height="449.999989" fill-opacity="0.25"/></g></mask><clipPath id="601c684fcd"><path d="M 0.117188 0.824219 L 72.792969 0.824219 L 72.792969 73.5 L 0.117188 73.5 Z M 0.117188 0.824219 " clip-rule="nonzero"/></clipPath><clipPath id="9e6dee2b75"><path d="M 36.453125 0.824219 C 16.386719 0.824219 0.117188 17.09375 0.117188 37.160156 C 0.117188 57.230469 16.386719 73.5 36.453125 73.5 C 56.523438 73.5 72.792969 57.230469 72.792969 37.160156 C 72.792969 17.09375 56.523438 0.824219 36.453125 0.824219 Z M 36.453125 0.824219 " clip-rule="nonzero"/></clipPath><clipPath id="7630e0c35b"><rect x="0" width="73" y="0" height="74"/></clipPath><clipPath id="1196e4cc8f"><path d="M 243.644531 276.734375 L 293.265625 276.734375 L 293.265625 326.359375 L 243.644531 326.359375 Z M 243.644531 276.734375 " clip-rule="nonzero"/></clipPath><clipPath id="adae872402"><path d="M 268.453125 276.734375 C 254.753906 276.734375 243.644531 287.84375 243.644531 301.546875 C 243.644531 315.25 254.753906 326.359375 268.453125 326.359375 C 282.15625 326.359375 293.265625 315.25 293.265625 301.546875 C 293.265625 287.84375 282.15625 276.734375 268.453125 276.734375 Z M 268.453125 276.734375 " clip-rule="nonzero"/></clipPath><clipPath id="82c486d5fa"><path d="M 256 289 L 279 289 L 279 314 L 256 314 Z M 256 289 " clip-rule="nonzero"/></clipPath><clipPath id="ec80efd3ac"><path d="M 260.0625 287.628906 L 282.628906 293.21875 L 277.039062 315.785156 L 254.46875 310.195312 Z M 260.0625 287.628906 " clip-rule="nonzero"/></clipPath><clipPath id="da54ed4dab"><path d="M 260.0625 287.628906 L 282.628906 293.21875 L 277.039062 315.785156 L 254.46875 310.195312 Z M 260.0625 287.628906 " clip-rule="nonzero"/></clipPath><clipPath id="a1da59968a"><path d="M 110.425781 14.996094 L 177.925781 14.996094 L 177.925781 82.496094 L 110.425781 82.496094 Z M 110.425781 14.996094 " clip-rule="nonzero"/></clipPath><clipPath id="86d397c27e"><path d="M 154.125 149 L 165 149 L 165 156 L 154.125 156 Z M 154.125 149 " clip-rule="nonzero"/></clipPath><clipPath id="f414f4caac"><path d="M 202 149 L 212.625 149 L 212.625 156 L 202 156 Z M 202 149 " clip-rule="nonzero"/></clipPath><clipPath id="8c65bb54d4"><path d="M 154.125 173 L 212.625 173 L 212.625 189.410156 L 154.125 189.410156 Z M 154.125 173 " clip-rule="nonzero"/></clipPath><clipPath id="681be1f43b"><path d="M 168 133.160156 L 183 133.160156 L 183 144 L 168 144 Z M 168 133.160156 " clip-rule="nonzero"/></clipPath><clipPath id="ff51f5076c"><path d="M 184 133.160156 L 198 133.160156 L 198 144 L 184 144 Z M 184 133.160156 " clip-rule="nonzero"/></clipPath></defs><g clip-path="url(#032e798485)"><path fill="#d9d9d9" d="M 153.097656 145.472656 C 153.363281 136.824219 153.363281 136.808594 153.628906 128.164062 L 140.234375 122.941406 C 138.304688 117.839844 137.339844 115.28125 135.40625 110.179688 L 141.972656 97.386719 C 136.039062 91.105469 136.023438 91.089844 130.09375 84.789062 L 116.941406 90.558594 L 104.519531 84.949219 L 100.109375 71.269531 L 82.816406 70.742188 L 77.574219 84.132812 C 72.492188 86.066406 69.914062 87.03125 64.835938 88.964844 L 52.042969 82.40625 C 45.742188 88.316406 45.722656 88.335938 39.421875 94.265625 L 45.191406 107.425781 C 42.972656 112.386719 41.839844 114.894531 39.601562 119.851562 L 25.90625 124.265625 C 25.640625 132.910156 25.640625 132.925781 25.378906 141.554688 L 38.769531 146.796875 C 40.703125 151.878906 41.667969 154.453125 43.597656 159.554688 L 37.039062 172.332031 C 42.972656 178.628906 42.988281 178.648438 48.898438 184.949219 L 62.0625 179.175781 C 67.039062 181.402344 69.546875 182.53125 74.503906 184.769531 L 78.898438 198.464844 L 96.214844 198.992188 L 101.4375 185.601562 C 106.539062 183.667969 109.097656 182.703125 114.195312 180.769531 L 126.988281 187.335938 L 139.589844 175.476562 L 133.820312 162.316406 C 136.074219 157.355469 137.191406 154.832031 139.429688 149.871094 Z M 89.503906 172.492188 C 88.269531 172.492188 87.042969 172.433594 85.816406 172.3125 C 84.589844 172.191406 83.371094 172.011719 82.164062 171.769531 C 80.953125 171.527344 79.761719 171.230469 78.582031 170.871094 C 77.402344 170.515625 76.246094 170.101562 75.105469 169.628906 C 73.96875 169.15625 72.855469 168.628906 71.769531 168.050781 C 70.683594 167.46875 69.625 166.835938 68.601562 166.152344 C 67.578125 165.464844 66.589844 164.734375 65.636719 163.953125 C 64.683594 163.171875 63.773438 162.34375 62.902344 161.472656 C 62.03125 160.601562 61.203125 159.6875 60.421875 158.738281 C 59.640625 157.785156 58.90625 156.796875 58.222656 155.769531 C 57.539062 154.746094 56.90625 153.691406 56.324219 152.605469 C 55.746094 151.519531 55.21875 150.40625 54.746094 149.265625 C 54.277344 148.128906 53.859375 146.96875 53.503906 145.789062 C 53.144531 144.613281 52.847656 143.417969 52.605469 142.210938 C 52.367188 141 52.1875 139.785156 52.066406 138.558594 C 51.945312 137.332031 51.882812 136.101562 51.882812 134.871094 C 51.882812 133.636719 51.945312 132.410156 52.066406 131.183594 C 52.1875 129.957031 52.367188 128.738281 52.605469 127.53125 C 52.847656 126.324219 53.148438 125.128906 53.503906 123.949219 C 53.863281 122.769531 54.277344 121.613281 54.75 120.472656 C 55.21875 119.335938 55.746094 118.222656 56.328125 117.136719 C 56.90625 116.050781 57.539062 114.992188 58.226562 113.96875 C 58.910156 112.945312 59.640625 111.957031 60.425781 111.003906 C 61.207031 110.050781 62.03125 109.140625 62.902344 108.269531 C 63.773438 107.398438 64.6875 106.570312 65.640625 105.789062 C 66.589844 105.007812 67.578125 104.273438 68.605469 103.589844 C 69.628906 102.90625 70.683594 102.273438 71.769531 101.691406 C 72.855469 101.109375 73.96875 100.585938 75.109375 100.113281 C 76.246094 99.640625 77.40625 99.226562 78.585938 98.871094 C 79.761719 98.511719 80.957031 98.214844 82.164062 97.972656 C 83.375 97.730469 84.589844 97.550781 85.816406 97.429688 C 87.042969 97.308594 88.273438 97.25 89.503906 97.25 C 90.738281 97.25 91.964844 97.308594 93.191406 97.429688 C 94.417969 97.550781 95.636719 97.730469 96.84375 97.972656 C 98.050781 98.210938 99.246094 98.511719 100.425781 98.867188 C 101.605469 99.226562 102.761719 99.640625 103.902344 100.113281 C 105.039062 100.585938 106.152344 101.109375 107.238281 101.691406 C 108.324219 102.273438 109.382812 102.90625 110.40625 103.589844 C 111.429688 104.273438 112.417969 105.007812 113.371094 105.789062 C 114.324219 106.570312 115.234375 107.394531 116.105469 108.265625 C 116.976562 109.136719 117.804688 110.050781 118.585938 111.003906 C 119.367188 111.953125 120.101562 112.941406 120.785156 113.96875 C 121.46875 114.992188 122.101562 116.046875 122.683594 117.132812 C 123.265625 118.222656 123.792969 119.332031 124.261719 120.472656 C 124.734375 121.609375 125.148438 122.769531 125.507812 123.949219 C 125.863281 125.125 126.164062 126.320312 126.402344 127.527344 C 126.644531 128.738281 126.824219 129.953125 126.945312 131.179688 C 127.066406 132.40625 127.128906 133.636719 127.128906 134.867188 C 127.128906 136.101562 127.066406 137.328125 126.945312 138.554688 C 126.824219 139.78125 126.644531 141 126.402344 142.207031 C 126.164062 143.417969 125.863281 144.609375 125.503906 145.789062 C 125.148438 146.96875 124.734375 148.125 124.261719 149.265625 C 123.789062 150.402344 123.261719 151.515625 122.683594 152.601562 C 122.101562 153.6875 121.46875 154.746094 120.785156 155.769531 C 120.097656 156.792969 119.367188 157.78125 118.585938 158.734375 C 117.800781 159.6875 116.976562 160.597656 116.105469 161.46875 C 115.234375 162.339844 114.320312 163.167969 113.367188 163.949219 C 112.417969 164.730469 111.429688 165.464844 110.402344 166.148438 C 109.378906 166.832031 108.324219 167.464844 107.238281 168.046875 C 106.148438 168.628906 105.039062 169.15625 103.898438 169.625 C 102.761719 170.097656 101.601562 170.511719 100.421875 170.871094 C 99.246094 171.226562 98.050781 171.527344 96.84375 171.769531 C 95.632812 172.007812 94.417969 172.191406 93.191406 172.3125 C 91.964844 172.433594 90.734375 172.492188 89.503906 172.492188 Z M 89.503906 172.492188 " fill-opacity="1" fill-rule="nonzero"/></g><g clip-path="url(#3add8e9a98)"><g clip-path="url(#4ed358c768)"><path fill="#f4f4f4" d="M 89.996094 89.996094 L 285.003906 89.996094 L 285.003906 285.003906 L 89.996094 285.003906 Z M 89.996094 89.996094 " fill-opacity="1" fill-rule="nonzero"/></g></g><g clip-path="url(#916ccc6710)"><g clip-path="url(#036d9760c9)"><path stroke-linecap="butt" transform="matrix(0.750459, 0, 0, 0.750459, 43.957274, 43.957269)" fill="none" stroke-linejoin="miter" d="M 191.382484 -0.000316957 C 85.68679 -0.000316957 -0.000322954 85.686796 -0.000322954 191.38249 C -0.000322954 297.078184 85.68679 382.765296 191.382484 382.765296 C 297.078178 382.765296 382.76529 297.078184 382.76529 191.38249 C 382.76529 85.686796 297.078178 -0.000316957 191.382484 -0.000316957 Z M 191.382484 -0.000316957 " stroke="#d9d9d9" stroke-width="2" stroke-opacity="1" stroke-miterlimit="4"/></g></g><g clip-path="url(#da3c6bce73)"><path fill="#002d8f" d="M 212.59375 237.355469 L 157.410156 237.355469 C 157.03125 237.355469 156.785156 236.953125 156.960938 236.621094 L 161.207031 228.453125 C 161.296875 228.285156 161.46875 228.179688 161.65625 228.179688 L 208.347656 228.179688 C 208.535156 228.179688 208.707031 228.285156 208.792969 228.453125 L 213.042969 236.621094 C 213.214844 236.953125 212.972656 237.355469 212.59375 237.355469 Z M 279.40625 238.28125 L 256.554688 215.457031 C 255.773438 214.675781 254.714844 214.242188 253.613281 214.242188 L 116.390625 214.242188 C 115.285156 214.242188 114.226562 214.675781 113.445312 215.457031 L 90.59375 238.28125 C 89.8125 239.0625 89.375 240.117188 89.375 241.222656 C 89.375 243.515625 91.238281 245.378906 93.539062 245.378906 L 276.464844 245.378906 C 278.761719 245.378906 280.625 243.515625 280.625 241.222656 C 280.625 240.117188 280.1875 239.0625 279.40625 238.28125 " fill-opacity="1" fill-rule="nonzero"/></g><g clip-path="url(#267e06e6eb)"><path fill="#002d8f" d="M 248.496094 117.96875 L 121.507812 117.96875 C 117.832031 117.96875 114.824219 120.972656 114.824219 124.640625 L 114.824219 199.941406 C 114.824219 203.613281 117.832031 206.613281 121.507812 206.613281 L 248.496094 206.613281 C 252.171875 206.613281 255.175781 203.613281 255.175781 199.941406 L 255.175781 124.640625 C 255.175781 120.972656 252.171875 117.96875 248.496094 117.96875 Z M 247.445312 125.691406 L 247.445312 198.890625 L 122.558594 198.890625 L 122.558594 125.691406 L 247.445312 125.691406 " fill-opacity="1" fill-rule="nonzero"/></g><g clip-path="url(#7759ebf3f1)"><path fill="#383536" d="M 236.4375 112.425781 L 236.4375 94.804688 C 236.4375 92.011719 236.4375 84.828125 250.167969 84.828125 L 253.476562 84.828125 C 266.953125 84.828125 267.96875 92.011719 267.96875 94.804688 L 267.96875 112.425781 L 273.113281 112.425781 L 273.113281 92.160156 C 273.113281 88.503906 271.765625 79.109375 253.890625 79.109375 L 249.507812 79.109375 C 231.292969 79.109375 231.292969 88.503906 231.292969 92.160156 L 231.292969 112.425781 L 236.4375 112.425781 " fill-opacity="1" fill-rule="nonzero"/></g><g clip-path="url(#cc37c96915)"><path fill="#f8a62b" d="M 224.179688 110.359375 C 224.171875 110.492188 224.15625 110.621094 224.15625 110.753906 L 224.15625 150.429688 C 224.15625 154.121094 227.324219 157.109375 231.226562 157.109375 L 273.179688 157.109375 C 277.085938 157.109375 280.25 154.121094 280.25 150.429688 L 280.25 110.753906 C 280.25 110.621094 280.234375 110.492188 280.230469 110.359375 L 224.179688 110.359375 " fill-opacity="1" fill-rule="nonzero"/></g><path fill="#fbca5d" d="M 271.0625 155.402344 L 233.464844 155.402344 C 231.078125 155.402344 229.007812 154.160156 227.925781 152.320312 C 230.261719 152.851562 232.734375 153.070312 235.199219 153.070312 C 239.515625 153.070312 243.816406 152.394531 247.359375 151.496094 C 253.546875 149.933594 259.691406 146.9375 264.472656 142.660156 C 270.082031 137.632812 272.300781 130.671875 274.714844 123.75 C 275.867188 120.445312 276.878906 117.011719 277.132812 113.503906 L 277.378906 113.503906 C 277.382812 113.625 277.394531 113.742188 277.394531 113.859375 L 277.394531 149.417969 C 277.394531 152.722656 274.558594 155.402344 271.0625 155.402344 " fill-opacity="1" fill-rule="nonzero"/><path fill="#383536" d="M 258.226562 128.363281 C 258.226562 125.007812 255.527344 122.289062 252.203125 122.289062 C 248.878906 122.289062 246.179688 125.007812 246.179688 128.363281 C 246.179688 130.972656 247.8125 133.195312 250.101562 134.054688 L 250.101562 143.0625 C 250.101562 144.230469 251.042969 145.179688 252.203125 145.179688 C 253.363281 145.179688 254.304688 144.230469 254.304688 143.0625 L 254.304688 134.054688 C 256.59375 133.195312 258.226562 130.972656 258.226562 128.363281 " fill-opacity="1" fill-rule="nonzero"/><path fill="#fbca5d" d="M 250.011719 146.09375 C 248.765625 146.09375 247.757812 145.070312 247.757812 143.808594 L 247.757812 134.125 C 245.304688 133.199219 243.554688 130.8125 243.554688 128.003906 C 243.554688 124.398438 246.445312 121.472656 250.011719 121.472656 C 250.234375 121.472656 250.457031 121.484375 250.675781 121.507812 C 247.425781 121.84375 244.886719 124.625 244.886719 128.003906 C 244.886719 130.8125 246.636719 133.199219 249.089844 134.125 L 249.089844 143.808594 C 249.089844 144.835938 249.757812 145.703125 250.675781 145.988281 C 250.464844 146.054688 250.242188 146.09375 250.011719 146.09375 " fill-opacity="1" fill-rule="nonzero"/><path fill="#656263" d="M 271.445312 109 L 271.394531 108.945312 C 271.394531 108.945312 271.34375 107.339844 271.265625 104.929688 C 271.183594 102.519531 271.117188 99.304688 271.039062 96.089844 C 271.015625 95.289062 270.992188 94.484375 270.96875 93.691406 C 270.960938 93.300781 270.941406 92.90625 270.9375 92.515625 C 270.933594 92.320312 270.929688 92.128906 270.925781 91.941406 C 270.925781 91.746094 270.917969 91.558594 270.90625 91.390625 C 270.902344 90.683594 270.757812 90.011719 270.613281 89.378906 C 270.523438 89.066406 270.441406 88.757812 270.324219 88.472656 C 270.222656 88.179688 270.097656 87.90625 269.980469 87.640625 C 269.726562 87.121094 269.472656 86.652344 269.207031 86.25 C 268.957031 85.84375 268.707031 85.507812 268.5 85.230469 C 268.078125 84.679688 267.804688 84.390625 267.804688 84.390625 L 267.804688 84.3125 L 267.863281 84.308594 C 267.863281 84.308594 268.21875 84.511719 268.765625 84.976562 C 269.03125 85.210938 269.351562 85.507812 269.683594 85.890625 C 270.019531 86.261719 270.359375 86.714844 270.691406 87.25 C 271.015625 87.785156 271.320312 88.398438 271.554688 89.089844 C 271.621094 89.261719 271.660156 89.445312 271.710938 89.625 C 271.761719 89.804688 271.808594 89.988281 271.835938 90.179688 C 271.867188 90.371094 271.898438 90.5625 271.929688 90.757812 C 271.9375 90.957031 271.953125 91.152344 271.960938 91.355469 C 271.972656 91.558594 271.972656 91.75 271.964844 91.941406 C 271.960938 92.128906 271.957031 92.320312 271.957031 92.515625 C 271.953125 92.90625 271.933594 93.300781 271.921875 93.691406 C 271.898438 94.484375 271.878906 95.289062 271.851562 96.089844 C 271.773438 99.304688 271.707031 102.519531 271.625 104.929688 C 271.546875 107.339844 271.496094 108.945312 271.496094 108.945312 L 271.445312 109 " fill-opacity="1" fill-rule="nonzero"/><path fill="#656263" d="M 235.0625 108.910156 L 235.015625 108.863281 C 235.015625 108.863281 234.949219 107.871094 234.871094 106.382812 C 234.78125 104.898438 234.707031 102.917969 234.617188 100.933594 C 234.589844 100.441406 234.5625 99.945312 234.539062 99.457031 C 234.511719 98.96875 234.488281 98.488281 234.480469 98.023438 C 234.480469 97.558594 234.484375 97.113281 234.511719 96.683594 C 234.527344 96.257812 234.554688 95.855469 234.589844 95.484375 C 234.707031 93.996094 234.929688 93.003906 234.929688 93.003906 L 234.996094 92.964844 L 235.03125 93.003906 C 235.03125 93.003906 235.265625 93.992188 235.402344 95.480469 C 235.4375 95.851562 235.46875 96.253906 235.492188 96.683594 C 235.523438 97.105469 235.53125 97.554688 235.535156 98.015625 C 235.535156 98.480469 235.515625 98.964844 235.492188 99.453125 C 235.472656 99.9375 235.453125 100.4375 235.429688 100.933594 C 235.359375 102.914062 235.304688 104.898438 235.234375 106.382812 C 235.171875 107.871094 235.117188 108.863281 235.117188 108.863281 L 235.0625 108.910156 " fill-opacity="1" fill-rule="nonzero"/><g mask="url(#bc06cb3bb1)"><g transform="matrix(1, 0, 0, 1, 37, 221)"><g clip-path="url(#e78bff67fa)"><g clip-path="url(#2c3666e3f9)"><g clip-path="url(#055ad462f7)"><path fill="#7ed957" d="M 0.5 0.265625 L 80.398438 0.265625 L 80.398438 80.160156 L 0.5 80.160156 Z M 0.5 0.265625 " fill-opacity="1" fill-rule="nonzero"/></g></g></g></g></g><g clip-path="url(#8afbafeddc)"><g clip-path="url(#8e0585cc19)"><path fill="#7ed957" d="M 50.0625 233.828125 L 104.832031 233.828125 L 104.832031 288.597656 L 50.0625 288.597656 Z M 50.0625 233.828125 " fill-opacity="1" fill-rule="nonzero"/></g></g><g clip-path="url(#518a0d55b6)"><path fill="#ffffff" d="M 74.769531 251.058594 C 77.816406 247.601562 83.042969 247.234375 86.527344 250.195312 C 90.007812 253.21875 90.382812 258.398438 87.398438 261.855469 C 85.21875 264.324219 81.921875 265.1875 78.9375 264.445312 L 77.132812 266.542969 L 76.261719 265.804688 L 73.523438 268.949219 L 71.722656 269.074219 L 71.84375 270.863281 L 70.042969 270.984375 L 70.167969 272.773438 L 68.363281 272.898438 L 68.488281 274.6875 L 67.863281 275.367188 L 64.753906 275.179688 L 64.132812 272.160156 L 72.46875 262.59375 L 71.597656 261.855469 L 73.402344 259.757812 C 72.21875 256.917969 72.59375 253.527344 74.769531 251.058594 Z M 84.910156 252.105469 C 84.101562 251.429688 82.917969 251.488281 82.234375 252.292969 C 81.550781 253.09375 81.613281 254.265625 82.421875 254.945312 C 83.230469 255.625 84.410156 255.5625 85.09375 254.761719 C 85.777344 253.957031 85.71875 252.785156 84.910156 252.105469 Z M 84.910156 252.105469 " fill-opacity="1" fill-rule="nonzero"/></g><g mask="url(#6eb95e8f55)"><g transform="matrix(1, 0, 0, 1, 232, 264)"><g clip-path="url(#7630e0c35b)"><g clip-path="url(#601c684fcd)"><g clip-path="url(#9e6dee2b75)"><path fill="#38b6ff" d="M 0.117188 0.824219 L 72.792969 0.824219 L 72.792969 73.5 L 0.117188 73.5 Z M 0.117188 0.824219 " fill-opacity="1" fill-rule="nonzero"/></g></g></g></g></g><g clip-path="url(#1196e4cc8f)"><g clip-path="url(#adae872402)"><path fill="#38b6ff" d="M 243.644531 276.734375 L 293.265625 276.734375 L 293.265625 326.359375 L 243.644531 326.359375 Z M 243.644531 276.734375 " fill-opacity="1" fill-rule="nonzero"/></g></g><g clip-path="url(#82c486d5fa)"><g clip-path="url(#ec80efd3ac)"><g clip-path="url(#da54ed4dab)"><path fill="#ffffff" d="M 277.335938 299.6875 C 276.695312 298.679688 275.890625 297.828125 274.914062 297.140625 C 273.9375 296.449219 272.867188 295.976562 271.703125 295.710938 L 263.519531 293.910156 L 266.960938 291.730469 C 267.105469 291.644531 267.230469 291.53125 267.332031 291.394531 C 267.433594 291.253906 267.507812 291.105469 267.546875 290.9375 C 267.589844 290.769531 267.597656 290.605469 267.570312 290.433594 C 267.542969 290.265625 267.488281 290.105469 267.398438 289.960938 C 267.308594 289.816406 267.199219 289.691406 267.0625 289.59375 C 266.925781 289.492188 266.773438 289.421875 266.609375 289.378906 C 266.445312 289.339844 266.277344 289.332031 266.109375 289.355469 C 265.941406 289.382812 265.785156 289.4375 265.640625 289.523438 L 259.453125 293.390625 C 259.308594 293.480469 259.1875 293.59375 259.085938 293.730469 C 258.984375 293.867188 258.914062 294.015625 258.875 294.179688 C 258.832031 294.347656 258.824219 294.511719 258.851562 294.679688 C 258.875 294.847656 258.929688 295.003906 259.019531 295.148438 L 262.910156 301.289062 C 263.09375 301.578125 263.351562 301.765625 263.683594 301.851562 C 264.039062 301.9375 264.371094 301.882812 264.675781 301.6875 C 264.824219 301.597656 264.949219 301.488281 265.050781 301.347656 C 265.152344 301.210938 265.222656 301.058594 265.265625 300.894531 C 265.308594 300.726562 265.3125 300.558594 265.289062 300.390625 C 265.261719 300.21875 265.207031 300.0625 265.117188 299.917969 L 262.828125 296.386719 L 271.132812 298.285156 C 271.957031 298.457031 272.714844 298.785156 273.410156 299.265625 C 274.101562 299.742188 274.675781 300.339844 275.132812 301.046875 C 275.472656 301.585938 275.726562 302.164062 275.894531 302.777344 C 276.066406 303.390625 276.140625 304.015625 276.125 304.652344 C 276.105469 305.289062 275.996094 305.910156 275.796875 306.511719 C 275.59375 307.117188 275.308594 307.679688 274.941406 308.199219 C 274.574219 308.714844 274.136719 309.171875 273.632812 309.5625 C 273.128906 309.949219 272.582031 310.257812 271.984375 310.484375 C 271.390625 310.710938 270.777344 310.847656 270.140625 310.890625 C 269.503906 310.933594 268.878906 310.882812 268.257812 310.738281 L 258.417969 308.527344 C 258.25 308.484375 258.085938 308.476562 257.917969 308.503906 C 257.746094 308.527344 257.589844 308.585938 257.445312 308.671875 C 257.300781 308.761719 257.175781 308.871094 257.074219 309.011719 C 256.972656 309.148438 256.902344 309.296875 256.859375 309.464844 C 256.820312 309.628906 256.8125 309.796875 256.839844 309.964844 C 256.863281 310.132812 256.921875 310.289062 257.007812 310.4375 C 257.097656 310.582031 257.207031 310.707031 257.34375 310.804688 C 257.484375 310.90625 257.632812 310.976562 257.800781 311.019531 L 267.675781 313.1875 C 268.539062 313.378906 269.410156 313.441406 270.292969 313.375 C 271.171875 313.308594 272.027344 313.117188 272.851562 312.800781 C 273.675781 312.480469 274.4375 312.050781 275.132812 311.511719 C 275.832031 310.96875 276.4375 310.335938 276.949219 309.617188 C 277.460938 308.894531 277.855469 308.117188 278.140625 307.28125 C 278.421875 306.441406 278.578125 305.582031 278.605469 304.699219 C 278.632812 303.816406 278.535156 302.949219 278.308594 302.09375 C 278.078125 301.238281 277.734375 300.4375 277.269531 299.683594 Z M 277.335938 299.6875 " fill-opacity="1" fill-rule="nonzero"/></g></g></g><g clip-path="url(#a1da59968a)"><path fill="#d9d9d9" d="M 177.648438 54.328125 C 177.785156 49.777344 177.785156 49.765625 177.925781 45.21875 L 170.878906 42.46875 C 169.859375 39.785156 169.351562 38.4375 168.335938 35.75 L 171.789062 29.019531 C 168.667969 25.710938 168.660156 25.703125 165.539062 22.386719 L 158.617188 25.425781 L 152.078125 22.472656 L 149.757812 15.273438 L 140.65625 14.996094 L 137.898438 22.042969 C 135.222656 23.058594 133.867188 23.570312 131.191406 24.585938 L 124.460938 21.132812 C 121.144531 24.246094 121.132812 24.253906 117.816406 27.375 L 120.855469 34.304688 C 119.6875 36.914062 119.089844 38.234375 117.910156 40.839844 L 110.703125 43.164062 C 110.566406 47.714844 110.566406 47.722656 110.425781 52.265625 L 117.472656 55.023438 C 118.492188 57.699219 119 59.054688 120.015625 61.738281 L 116.5625 68.464844 C 119.6875 71.777344 119.695312 71.789062 122.804688 75.101562 L 129.734375 72.066406 C 132.355469 73.238281 133.671875 73.832031 136.28125 75.007812 L 138.59375 82.21875 L 147.710938 82.496094 L 150.457031 75.445312 C 153.140625 74.429688 154.488281 73.921875 157.171875 72.90625 L 163.90625 76.359375 L 170.535156 70.117188 L 167.5 63.191406 C 168.6875 60.582031 169.273438 59.253906 170.453125 56.640625 Z M 144.175781 68.546875 C 143.527344 68.546875 142.878906 68.515625 142.234375 68.453125 C 141.589844 68.390625 140.949219 68.292969 140.3125 68.167969 C 139.675781 68.039062 139.046875 67.882812 138.429688 67.695312 C 137.808594 67.507812 137.199219 67.289062 136.597656 67.039062 C 136 66.792969 135.414062 66.515625 134.84375 66.210938 C 134.269531 65.902344 133.714844 65.570312 133.175781 65.210938 C 132.636719 64.851562 132.117188 64.464844 131.613281 64.050781 C 131.113281 63.640625 130.632812 63.207031 130.175781 62.746094 C 129.714844 62.289062 129.28125 61.808594 128.871094 61.308594 C 128.460938 60.804688 128.074219 60.285156 127.714844 59.746094 C 127.351562 59.207031 127.019531 58.652344 126.714844 58.082031 C 126.410156 57.507812 126.132812 56.921875 125.882812 56.324219 C 125.636719 55.722656 125.417969 55.113281 125.230469 54.492188 C 125.039062 53.875 124.882812 53.246094 124.757812 52.609375 C 124.628906 51.972656 124.535156 51.332031 124.472656 50.6875 C 124.410156 50.042969 124.375 49.394531 124.375 48.746094 C 124.375 48.097656 124.410156 47.449219 124.472656 46.804688 C 124.535156 46.160156 124.628906 45.519531 124.757812 44.882812 C 124.882812 44.246094 125.042969 43.621094 125.230469 43 C 125.417969 42.378906 125.636719 41.769531 125.882812 41.167969 C 126.132812 40.570312 126.410156 39.984375 126.714844 39.414062 C 127.019531 38.839844 127.351562 38.285156 127.714844 37.746094 C 128.074219 37.207031 128.460938 36.6875 128.871094 36.183594 C 129.28125 35.683594 129.71875 35.203125 130.175781 34.746094 C 130.632812 34.285156 131.113281 33.851562 131.617188 33.441406 C 132.117188 33.027344 132.636719 32.644531 133.175781 32.28125 C 133.714844 31.921875 134.269531 31.589844 134.84375 31.285156 C 135.414062 30.976562 136 30.703125 136.601562 30.453125 C 137.199219 30.207031 137.808594 29.988281 138.429688 29.796875 C 139.050781 29.609375 139.679688 29.453125 140.3125 29.328125 C 140.949219 29.199219 141.589844 29.105469 142.234375 29.042969 C 142.882812 28.976562 143.527344 28.945312 144.175781 28.945312 C 144.824219 28.945312 145.472656 28.976562 146.117188 29.042969 C 146.761719 29.105469 147.402344 29.199219 148.039062 29.328125 C 148.675781 29.453125 149.304688 29.609375 149.925781 29.796875 C 150.546875 29.988281 151.15625 30.203125 151.753906 30.453125 C 152.351562 30.699219 152.9375 30.976562 153.511719 31.285156 C 154.082031 31.589844 154.636719 31.921875 155.175781 32.28125 C 155.714844 32.644531 156.238281 33.027344 156.738281 33.441406 C 157.238281 33.851562 157.71875 34.285156 158.179688 34.746094 C 158.636719 35.203125 159.070312 35.683594 159.484375 36.183594 C 159.894531 36.6875 160.28125 37.207031 160.640625 37.746094 C 161 38.285156 161.332031 38.839844 161.640625 39.410156 C 161.945312 39.984375 162.222656 40.570312 162.46875 41.167969 C 162.71875 41.765625 162.9375 42.378906 163.125 42.996094 C 163.3125 43.617188 163.472656 44.246094 163.597656 44.882812 C 163.722656 45.519531 163.820312 46.160156 163.882812 46.804688 C 163.945312 47.449219 163.976562 48.097656 163.976562 48.746094 C 163.976562 49.394531 163.945312 50.039062 163.882812 50.6875 C 163.820312 51.332031 163.722656 51.972656 163.597656 52.609375 C 163.46875 53.246094 163.3125 53.871094 163.125 54.492188 C 162.9375 55.113281 162.71875 55.722656 162.46875 56.324219 C 162.222656 56.921875 161.945312 57.507812 161.636719 58.078125 C 161.332031 58.652344 161 59.207031 160.640625 59.746094 C 160.277344 60.285156 159.894531 60.804688 159.480469 61.304688 C 159.070312 61.808594 158.636719 62.289062 158.175781 62.746094 C 157.71875 63.203125 157.238281 63.640625 156.738281 64.050781 C 156.234375 64.460938 155.714844 64.847656 155.175781 65.207031 C 154.636719 65.570312 154.082031 65.902344 153.507812 66.207031 C 152.9375 66.515625 152.351562 66.789062 151.753906 67.039062 C 151.152344 67.289062 150.542969 67.503906 149.921875 67.695312 C 149.304688 67.882812 148.675781 68.039062 148.039062 68.167969 C 147.402344 68.292969 146.761719 68.386719 146.117188 68.453125 C 145.472656 68.515625 144.824219 68.546875 144.175781 68.546875 Z M 144.175781 68.546875 " fill-opacity="1" fill-rule="nonzero"/></g><g clip-path="url(#86d397c27e)"><path fill="#f8a62b" d="M 157.230469 155.492188 C 157.84375 155.488281 158.402344 155.3125 158.90625 154.957031 C 159.40625 154.605469 159.761719 154.136719 159.964844 153.5625 L 164.019531 153.5625 L 164.019531 151.628906 L 159.964844 151.628906 C 159.847656 151.296875 159.671875 150.992188 159.4375 150.71875 C 159.207031 150.449219 158.933594 150.226562 158.621094 150.058594 C 158.308594 149.886719 157.972656 149.777344 157.617188 149.726562 C 157.265625 149.679688 156.914062 149.695312 156.566406 149.773438 C 156.214844 149.855469 155.894531 149.996094 155.597656 150.191406 C 155.300781 150.390625 155.046875 150.636719 154.84375 150.925781 C 154.636719 151.21875 154.488281 151.535156 154.402344 151.882812 C 154.3125 152.226562 154.289062 152.574219 154.332031 152.929688 C 154.371094 153.28125 154.472656 153.617188 154.640625 153.933594 C 154.804688 154.25 155.019531 154.523438 155.289062 154.761719 C 155.554688 154.996094 155.855469 155.179688 156.191406 155.304688 C 156.527344 155.429688 156.871094 155.492188 157.230469 155.492188 Z M 157.230469 155.492188 " fill-opacity="1" fill-rule="nonzero"/></g><path fill="#f8a62b" d="M 159.113281 143.910156 L 160.1875 147.121094 C 160.257812 147.316406 160.375 147.472656 160.546875 147.59375 C 160.714844 147.710938 160.902344 147.769531 161.109375 147.769531 L 164.613281 147.769531 C 164.285156 149.035156 164.085938 150.324219 164.019531 151.628906 L 171.78125 151.628906 C 171.835938 149.40625 172.121094 147.210938 172.644531 145.046875 C 170.796875 144.039062 169.128906 142.792969 167.640625 141.3125 C 166.628906 142.710938 165.824219 144.222656 165.222656 145.839844 L 161.808594 145.839844 L 160.953125 143.28125 C 161.132812 143.140625 161.292969 142.984375 161.4375 142.804688 C 161.578125 142.628906 161.695312 142.4375 161.792969 142.234375 C 161.890625 142.027344 161.960938 141.8125 162.007812 141.59375 C 162.054688 141.371094 162.074219 141.148438 162.066406 140.921875 C 162.058594 140.695312 162.027344 140.472656 161.96875 140.253906 C 161.910156 140.035156 161.828125 139.824219 161.71875 139.628906 C 161.609375 139.429688 161.480469 139.242188 161.328125 139.074219 C 161.175781 138.90625 161.007812 138.757812 160.820312 138.628906 C 160.636719 138.5 160.4375 138.390625 160.222656 138.308594 C 160.011719 138.226562 159.792969 138.167969 159.570312 138.136719 C 159.34375 138.105469 159.117188 138.097656 158.890625 138.121094 C 158.664062 138.140625 158.445312 138.1875 158.226562 138.257812 C 158.011719 138.332031 157.808594 138.425781 157.617188 138.546875 C 157.421875 138.667969 157.246094 138.808594 157.085938 138.96875 C 156.925781 139.128906 156.789062 139.308594 156.667969 139.5 C 156.550781 139.695312 156.457031 139.898438 156.386719 140.113281 C 156.316406 140.328125 156.273438 140.550781 156.257812 140.773438 C 156.238281 141 156.246094 141.226562 156.28125 141.449219 C 156.316406 141.671875 156.378906 141.890625 156.464844 142.097656 C 156.550781 142.308594 156.660156 142.503906 156.792969 142.6875 C 156.921875 142.875 157.074219 143.039062 157.246094 143.1875 C 157.417969 143.335938 157.605469 143.464844 157.808594 143.570312 C 158.007812 143.671875 158.21875 143.753906 158.441406 143.808594 C 158.660156 143.867188 158.882812 143.894531 159.113281 143.898438 Z M 159.113281 143.910156 " fill-opacity="1" fill-rule="nonzero"/><g clip-path="url(#f414f4caac)"><path fill="#f8a62b" d="M 209.617188 149.699219 C 209.003906 149.703125 208.445312 149.878906 207.941406 150.234375 C 207.441406 150.589844 207.085938 151.054688 206.882812 151.628906 L 202.828125 151.628906 L 202.828125 153.5625 L 206.882812 153.5625 C 207 153.898438 207.175781 154.199219 207.40625 154.472656 C 207.640625 154.742188 207.914062 154.964844 208.226562 155.136719 C 208.539062 155.304688 208.875 155.417969 209.226562 155.464844 C 209.582031 155.511719 209.933594 155.496094 210.28125 155.417969 C 210.628906 155.335938 210.953125 155.199219 211.25 155 C 211.546875 154.800781 211.796875 154.554688 212.003906 154.265625 C 212.210938 153.972656 212.359375 153.65625 212.445312 153.3125 C 212.535156 152.964844 212.558594 152.617188 212.515625 152.261719 C 212.476562 151.910156 212.371094 151.574219 212.207031 151.257812 C 212.042969 150.945312 211.828125 150.667969 211.558594 150.429688 C 211.292969 150.195312 210.992188 150.011719 210.65625 149.886719 C 210.320312 149.761719 209.976562 149.699219 209.617188 149.699219 Z M 209.617188 149.699219 " fill-opacity="1" fill-rule="nonzero"/></g><path fill="#f8a62b" d="M 195.066406 151.628906 L 202.828125 151.628906 C 202.757812 150.324219 202.5625 149.035156 202.234375 147.769531 L 205.738281 147.769531 C 205.953125 147.78125 206.152344 147.726562 206.332031 147.605469 C 206.511719 147.480469 206.636719 147.320312 206.707031 147.113281 L 207.734375 143.910156 C 207.960938 143.90625 208.1875 143.875 208.40625 143.820312 C 208.628906 143.761719 208.839844 143.683594 209.039062 143.578125 C 209.242188 143.472656 209.429688 143.347656 209.601562 143.199219 C 209.769531 143.050781 209.921875 142.882812 210.054688 142.699219 C 210.1875 142.515625 210.296875 142.316406 210.382812 142.109375 C 210.46875 141.898438 210.53125 141.683594 210.566406 141.457031 C 210.601562 141.234375 210.609375 141.011719 210.589844 140.785156 C 210.574219 140.558594 210.527344 140.339844 210.460938 140.125 C 210.390625 139.90625 210.296875 139.703125 210.175781 139.511719 C 210.058594 139.316406 209.921875 139.140625 209.761719 138.976562 C 209.601562 138.816406 209.425781 138.675781 209.230469 138.558594 C 209.039062 138.4375 208.835938 138.339844 208.617188 138.269531 C 208.402344 138.195312 208.183594 138.148438 207.957031 138.128906 C 207.730469 138.109375 207.503906 138.113281 207.277344 138.144531 C 207.050781 138.179688 206.835938 138.234375 206.621094 138.320312 C 206.410156 138.402344 206.210938 138.507812 206.023438 138.636719 C 205.839844 138.765625 205.667969 138.914062 205.519531 139.085938 C 205.367188 139.253906 205.238281 139.4375 205.128906 139.636719 C 205.019531 139.835938 204.9375 140.042969 204.878906 140.261719 C 204.820312 140.480469 204.785156 140.703125 204.78125 140.929688 C 204.773438 141.15625 204.792969 141.378906 204.839844 141.601562 C 204.886719 141.824219 204.957031 142.039062 205.054688 142.242188 C 205.152344 142.445312 205.269531 142.636719 205.410156 142.816406 C 205.554688 142.992188 205.714844 143.152344 205.890625 143.289062 L 205.039062 145.839844 L 201.625 145.839844 C 201.023438 144.222656 200.21875 142.710938 199.207031 141.3125 C 197.71875 142.792969 196.050781 144.039062 194.203125 145.046875 C 194.726562 147.210938 195.011719 149.40625 195.066406 151.628906 Z M 195.066406 151.628906 " fill-opacity="1" fill-rule="nonzero"/><path fill="#f8a62b" d="M 195.066406 153.5625 C 195.011719 155.785156 194.726562 157.980469 194.203125 160.144531 C 196.050781 161.152344 197.71875 162.398438 199.207031 163.878906 C 200.21875 162.480469 201.023438 160.972656 201.625 159.351562 L 205.039062 159.351562 L 205.890625 161.910156 C 205.714844 162.050781 205.554688 162.210938 205.410156 162.386719 C 205.269531 162.5625 205.152344 162.753906 205.054688 162.960938 C 204.957031 163.164062 204.886719 163.378906 204.839844 163.597656 C 204.792969 163.820312 204.773438 164.042969 204.78125 164.269531 C 204.785156 164.496094 204.820312 164.71875 204.878906 164.9375 C 204.9375 165.15625 205.019531 165.367188 205.128906 165.566406 C 205.238281 165.765625 205.367188 165.949219 205.519531 166.117188 C 205.667969 166.285156 205.839844 166.433594 206.023438 166.566406 C 206.210938 166.695312 206.410156 166.800781 206.621094 166.882812 C 206.835938 166.964844 207.050781 167.023438 207.277344 167.054688 C 207.503906 167.085938 207.730469 167.09375 207.957031 167.074219 C 208.183594 167.050781 208.402344 167.003906 208.617188 166.933594 C 208.835938 166.859375 209.039062 166.765625 209.230469 166.644531 C 209.425781 166.523438 209.601562 166.382812 209.761719 166.222656 C 209.921875 166.0625 210.058594 165.886719 210.175781 165.691406 C 210.296875 165.5 210.390625 165.292969 210.460938 165.078125 C 210.527344 164.863281 210.574219 164.640625 210.589844 164.417969 C 210.609375 164.191406 210.601562 163.964844 210.566406 163.742188 C 210.53125 163.519531 210.46875 163.304688 210.382812 163.09375 C 210.296875 162.882812 210.1875 162.6875 210.054688 162.503906 C 209.921875 162.320312 209.769531 162.152344 209.601562 162.003906 C 209.429688 161.855469 209.242188 161.730469 209.039062 161.625 C 208.839844 161.519531 208.628906 161.4375 208.40625 161.382812 C 208.1875 161.328125 207.960938 161.296875 207.734375 161.292969 L 206.707031 158.078125 C 206.636719 157.875 206.511719 157.710938 206.332031 157.589844 C 206.152344 157.464844 205.953125 157.410156 205.738281 157.421875 L 202.234375 157.421875 C 202.5625 156.15625 202.757812 154.867188 202.828125 153.5625 Z M 195.066406 153.5625 " fill-opacity="1" fill-rule="nonzero"/><path fill="#f8a62b" d="M 165.222656 159.351562 C 165.824219 160.972656 166.628906 162.480469 167.640625 163.878906 C 169.128906 162.398438 170.796875 161.152344 172.644531 160.144531 C 172.121094 157.980469 171.835938 155.785156 171.78125 153.5625 L 164.019531 153.5625 C 164.085938 154.867188 164.285156 156.15625 164.613281 157.421875 L 161.109375 157.421875 C 160.902344 157.421875 160.710938 157.480469 160.542969 157.601562 C 160.375 157.722656 160.253906 157.882812 160.1875 158.078125 L 159.113281 161.285156 C 158.882812 161.289062 158.660156 161.316406 158.441406 161.371094 C 158.21875 161.429688 158.007812 161.507812 157.808594 161.613281 C 157.605469 161.71875 157.417969 161.847656 157.246094 161.996094 C 157.074219 162.144531 156.921875 162.308594 156.792969 162.492188 C 156.660156 162.675781 156.550781 162.875 156.464844 163.082031 C 156.378906 163.292969 156.316406 163.507812 156.28125 163.734375 C 156.246094 163.957031 156.238281 164.179688 156.257812 164.40625 C 156.273438 164.632812 156.316406 164.851562 156.386719 165.070312 C 156.457031 165.285156 156.550781 165.488281 156.667969 165.683594 C 156.789062 165.875 156.925781 166.054688 157.085938 166.214844 C 157.246094 166.375 157.421875 166.515625 157.617188 166.636719 C 157.808594 166.753906 158.011719 166.851562 158.226562 166.921875 C 158.445312 166.996094 158.664062 167.042969 158.890625 167.0625 C 159.117188 167.082031 159.34375 167.078125 159.570312 167.046875 C 159.792969 167.015625 160.011719 166.957031 160.222656 166.875 C 160.4375 166.789062 160.636719 166.683594 160.820312 166.554688 C 161.007812 166.425781 161.175781 166.277344 161.328125 166.109375 C 161.480469 165.9375 161.609375 165.753906 161.71875 165.554688 C 161.828125 165.355469 161.910156 165.148438 161.96875 164.929688 C 162.027344 164.710938 162.058594 164.488281 162.066406 164.261719 C 162.074219 164.035156 162.054688 163.8125 162.007812 163.589844 C 161.960938 163.367188 161.890625 163.15625 161.792969 162.949219 C 161.695312 162.746094 161.578125 162.554688 161.4375 162.375 C 161.292969 162.199219 161.132812 162.042969 160.953125 161.902344 L 161.808594 159.351562 Z M 165.222656 159.351562 " fill-opacity="1" fill-rule="nonzero"/><g clip-path="url(#8c65bb54d4)"><path fill="#f8a62b" d="M 204.765625 173.832031 L 162.082031 173.832031 C 161.570312 173.832031 161.066406 173.882812 160.566406 173.980469 C 160.066406 174.078125 159.582031 174.226562 159.109375 174.421875 C 158.640625 174.613281 158.191406 174.851562 157.769531 175.132812 C 157.34375 175.414062 156.953125 175.734375 156.59375 176.09375 C 156.230469 176.453125 155.910156 176.84375 155.628906 177.265625 C 155.34375 177.6875 155.105469 178.132812 154.910156 178.597656 C 154.714844 179.066406 154.566406 179.550781 154.46875 180.046875 C 154.367188 180.546875 154.320312 181.046875 154.320312 181.554688 C 154.320312 182.0625 154.367188 182.5625 154.46875 183.0625 C 154.566406 183.558594 154.714844 184.042969 154.910156 184.511719 C 155.105469 184.976562 155.34375 185.421875 155.628906 185.84375 C 155.910156 186.265625 156.230469 186.65625 156.59375 187.015625 C 156.953125 187.375 157.34375 187.695312 157.769531 187.976562 C 158.191406 188.257812 158.640625 188.496094 159.109375 188.6875 C 159.582031 188.882812 160.066406 189.03125 160.566406 189.128906 C 161.066406 189.226562 161.570312 189.277344 162.082031 189.277344 L 204.765625 189.277344 C 205.277344 189.277344 205.78125 189.226562 206.28125 189.128906 C 206.78125 189.03125 207.265625 188.882812 207.738281 188.6875 C 208.207031 188.496094 208.65625 188.257812 209.078125 187.976562 C 209.503906 187.695312 209.894531 187.375 210.253906 187.015625 C 210.613281 186.65625 210.9375 186.265625 211.21875 185.84375 C 211.503906 185.421875 211.742188 184.976562 211.9375 184.511719 C 212.132812 184.042969 212.28125 183.558594 212.378906 183.0625 C 212.476562 182.5625 212.527344 182.0625 212.527344 181.554688 C 212.527344 181.046875 212.476562 180.546875 212.378906 180.046875 C 212.28125 179.550781 212.132812 179.066406 211.9375 178.597656 C 211.742188 178.132812 211.503906 177.6875 211.21875 177.265625 C 210.9375 176.84375 210.613281 176.453125 210.253906 176.09375 C 209.894531 175.734375 209.503906 175.414062 209.078125 175.132812 C 208.65625 174.851562 208.207031 174.613281 207.738281 174.421875 C 207.265625 174.226562 206.78125 174.078125 206.28125 173.980469 C 205.78125 173.882812 205.277344 173.832031 204.765625 173.832031 Z M 167.902344 182.519531 L 166.757812 182.519531 L 166.640625 182.800781 L 167.453125 183.601562 L 166.078125 184.972656 L 165.273438 184.160156 L 164.992188 184.277344 L 164.992188 185.414062 L 163.050781 185.414062 L 163.050781 184.277344 L 162.769531 184.160156 L 161.964844 184.972656 L 160.585938 183.601562 L 161.402344 182.800781 L 161.285156 182.519531 L 160.140625 182.519531 L 160.140625 180.589844 L 161.285156 180.589844 L 161.402344 180.308594 L 160.585938 179.507812 L 161.964844 178.136719 L 162.769531 178.949219 L 163.050781 178.832031 L 163.050781 177.695312 L 164.992188 177.695312 L 164.992188 178.832031 L 165.273438 178.949219 L 166.078125 178.136719 L 167.453125 179.507812 L 166.640625 180.308594 L 166.757812 180.589844 L 167.902344 180.589844 Z M 177.601562 182.519531 L 176.457031 182.519531 L 176.339844 182.800781 L 177.15625 183.601562 L 175.777344 184.972656 L 174.972656 184.160156 L 174.691406 184.277344 L 174.691406 185.414062 L 172.75 185.414062 L 172.75 184.277344 L 172.46875 184.160156 L 171.664062 184.972656 L 170.289062 183.601562 L 171.101562 182.800781 L 170.984375 182.519531 L 169.839844 182.519531 L 169.839844 180.589844 L 170.984375 180.589844 L 171.101562 180.308594 L 170.289062 179.507812 L 171.664062 178.136719 L 172.46875 178.949219 L 172.75 178.832031 L 172.75 177.695312 L 174.691406 177.695312 L 174.691406 178.832031 L 174.972656 178.949219 L 175.777344 178.136719 L 177.15625 179.507812 L 176.339844 180.308594 L 176.457031 180.589844 L 177.601562 180.589844 Z M 187.304688 182.519531 L 186.160156 182.519531 L 186.042969 182.800781 L 186.859375 183.601562 L 185.480469 184.972656 L 184.675781 184.160156 L 184.394531 184.277344 L 184.394531 185.414062 L 182.453125 185.414062 L 182.453125 184.277344 L 182.171875 184.160156 L 181.367188 184.972656 L 179.988281 183.601562 L 180.804688 182.800781 L 180.6875 182.519531 L 179.542969 182.519531 L 179.542969 180.589844 L 180.6875 180.589844 L 180.804688 180.308594 L 179.988281 179.507812 L 181.367188 178.136719 L 182.171875 178.949219 L 182.453125 178.832031 L 182.453125 177.695312 L 184.394531 177.695312 L 184.394531 178.832031 L 184.675781 178.949219 L 185.480469 178.136719 L 186.859375 179.507812 L 186.042969 180.308594 L 186.160156 180.589844 L 187.304688 180.589844 Z M 197.003906 182.519531 L 195.859375 182.519531 L 195.746094 182.800781 L 196.558594 183.601562 L 195.183594 184.972656 L 194.375 184.160156 L 194.09375 184.277344 L 194.09375 185.414062 L 192.15625 185.414062 L 192.15625 184.277344 L 191.875 184.160156 L 191.066406 184.972656 L 189.691406 183.601562 L 190.503906 182.800781 L 190.390625 182.519531 L 189.246094 182.519531 L 189.246094 180.589844 L 190.390625 180.589844 L 190.503906 180.308594 L 189.691406 179.507812 L 191.066406 178.136719 L 191.875 178.949219 L 192.15625 178.832031 L 192.15625 177.695312 L 194.09375 177.695312 L 194.09375 178.832031 L 194.375 178.949219 L 195.183594 178.136719 L 196.558594 179.507812 L 195.746094 180.308594 L 195.859375 180.589844 L 197.003906 180.589844 Z M 206.707031 182.519531 L 205.5625 182.519531 L 205.445312 182.800781 L 206.261719 183.601562 L 204.882812 184.972656 L 204.078125 184.160156 L 203.796875 184.277344 L 203.796875 185.414062 L 201.855469 185.414062 L 201.855469 184.277344 L 201.574219 184.160156 L 200.769531 184.972656 L 199.390625 183.601562 L 200.207031 182.800781 L 200.089844 182.519531 L 198.945312 182.519531 L 198.945312 180.589844 L 200.089844 180.589844 L 200.207031 180.308594 L 199.390625 179.507812 L 200.769531 178.136719 L 201.574219 178.949219 L 201.855469 178.832031 L 201.855469 177.695312 L 203.796875 177.695312 L 203.796875 178.832031 L 204.078125 178.949219 L 204.882812 178.136719 L 206.261719 179.507812 L 205.445312 180.308594 L 205.5625 180.589844 L 206.707031 180.589844 Z M 206.707031 182.519531 " fill-opacity="1" fill-rule="nonzero"/></g><path fill="#f8a62b" d="M 192.40625 145.90625 C 189.851562 147.023438 187.179688 147.644531 184.394531 147.769531 L 184.394531 151.628906 L 193.125 151.628906 C 193.066406 149.699219 192.828125 147.792969 192.40625 145.90625 Z M 192.40625 145.90625 " fill-opacity="1" fill-rule="nonzero"/><path fill="#f8a62b" d="M 191.882812 161.167969 C 189.5 160.101562 187.003906 159.511719 184.394531 159.402344 L 184.394531 169.972656 C 187.605469 169.351562 190.359375 165.964844 191.882812 161.167969 Z M 191.882812 161.167969 " fill-opacity="1" fill-rule="nonzero"/><g clip-path="url(#681be1f43b)"><path fill="#f8a62b" d="M 182.453125 133.289062 C 181.160156 133.355469 179.886719 133.542969 178.632812 133.859375 C 177.378906 134.175781 176.167969 134.613281 175.003906 135.171875 C 173.835938 135.730469 172.738281 136.398438 171.703125 137.175781 C 170.671875 137.953125 169.726562 138.820312 168.871094 139.785156 C 170.160156 141.097656 171.601562 142.210938 173.199219 143.125 C 175.03125 137.625 178.417969 133.851562 182.453125 133.289062 Z M 182.453125 133.289062 " fill-opacity="1" fill-rule="nonzero"/></g><g clip-path="url(#ff51f5076c)"><path fill="#f8a62b" d="M 193.648438 143.125 C 195.246094 142.210938 196.6875 141.097656 197.976562 139.785156 C 197.117188 138.820312 196.175781 137.953125 195.140625 137.175781 C 194.109375 136.398438 193.011719 135.730469 191.84375 135.171875 C 190.679688 134.613281 189.46875 134.175781 188.214844 133.859375 C 186.960938 133.542969 185.6875 133.355469 184.394531 133.289062 C 188.429688 133.851562 191.816406 137.625 193.648438 143.125 Z M 193.648438 143.125 " fill-opacity="1" fill-rule="nonzero"/></g><path fill="#f8a62b" d="M 184.394531 135.269531 L 184.394531 145.839844 C 187.003906 145.726562 189.5 145.136719 191.882812 144.074219 C 190.359375 139.226562 187.605469 135.839844 184.394531 135.269531 Z M 184.394531 135.269531 " fill-opacity="1" fill-rule="nonzero"/><path fill="#f8a62b" d="M 182.453125 159.402344 C 179.84375 159.511719 177.347656 160.101562 174.964844 161.167969 C 176.488281 165.996094 179.242188 169.351562 182.453125 169.921875 Z M 182.453125 159.402344 " fill-opacity="1" fill-rule="nonzero"/><path fill="#f8a62b" d="M 182.453125 135.269531 C 179.242188 135.839844 176.488281 139.226562 174.964844 144.023438 C 177.34375 145.105469 179.839844 145.710938 182.453125 145.839844 Z M 182.453125 135.269531 " fill-opacity="1" fill-rule="nonzero"/><path fill="#f8a62b" d="M 182.453125 153.5625 L 173.722656 153.5625 C 173.777344 155.492188 174.019531 157.398438 174.441406 159.285156 C 176.996094 158.167969 179.664062 157.546875 182.453125 157.421875 Z M 182.453125 153.5625 " fill-opacity="1" fill-rule="nonzero"/><path fill="#f8a62b" d="M 182.453125 147.769531 C 179.667969 147.65625 176.996094 147.046875 174.441406 145.945312 C 174.019531 147.816406 173.78125 149.714844 173.722656 151.628906 L 182.453125 151.628906 Z M 182.453125 147.769531 " fill-opacity="1" fill-rule="nonzero"/><path fill="#f8a62b" d="M 193.125 153.5625 L 184.394531 153.5625 L 184.394531 157.421875 C 187.179688 157.535156 189.851562 158.144531 192.40625 159.246094 C 192.828125 157.375 193.066406 155.480469 193.125 153.5625 Z M 193.125 153.5625 " fill-opacity="1" fill-rule="nonzero"/><path fill="#f8a62b" d="M 182.453125 171.902344 C 178.417969 171.371094 175.03125 167.597656 173.199219 162.09375 C 171.601562 163 170.160156 164.101562 168.871094 165.40625 C 169.726562 166.371094 170.671875 167.242188 171.703125 168.015625 C 172.738281 168.792969 173.835938 169.460938 175.003906 170.019531 C 176.167969 170.578125 177.378906 171.015625 178.632812 171.332031 C 179.886719 171.648438 181.160156 171.839844 182.453125 171.902344 Z M 182.453125 171.902344 " fill-opacity="1" fill-rule="nonzero"/><path fill="#f8a62b" d="M 197.976562 165.40625 C 196.691406 164.089844 195.246094 162.976562 193.648438 162.066406 C 191.816406 167.566406 188.429688 171.34375 184.394531 171.902344 C 185.6875 171.839844 186.960938 171.648438 188.214844 171.332031 C 189.46875 171.015625 190.679688 170.578125 191.84375 170.019531 C 193.011719 169.460938 194.109375 168.792969 195.140625 168.015625 C 196.175781 167.242188 197.117188 166.371094 197.976562 165.40625 Z M 197.976562 165.40625 " fill-opacity="1" fill-rule="nonzero"/></svg>