<svg xmlns="http://www.w3.org/2000/svg" x="0px" y="0px" width="48" height="48" viewBox="0 0 48 48">
<linearGradient id="SVGID_1__Qk1zOoSsdVmy_gr1" x1="-524.409" x2="-540.199" y1="29.663" y2="3.032" gradientTransform="rotate(180 -250 23.945)" gradientUnits="userSpaceOnUse"><stop offset="0" stop-color="#047676"></stop><stop offset="1" stop-color="#047676"></stop></linearGradient><path fill="url(#SVGID_1__Qk1zOoSsdVmy_gr1)" d="M17.5,18h26c0.8,0,1.5,0.7,1.5,1.5v18c0,0.8-0.7,1.5-1.5,1.5H39v6.4c0,0.7-0.9,1.1-1.4,0.6l-7-7H17.5	c-0.8,0-1.5-0.7-1.5-1.5v-18C16,18.7,16.7,18,17.5,18z"></path><linearGradient id="SVGID_00000052069559342975644880000008823389707590667911__Qk1zOoSsdVmy_gr2" x1="15.565" x2="26.724" y1="35.538" y2="17.383" gradientTransform="matrix(1 0 0 -1 0 47.89)" gradientUnits="userSpaceOnUse"><stop offset="0" stop-color="#29baba"></stop><stop offset="1" stop-color="#22a5e2"></stop></linearGradient><path fill="url(#SVGID_00000052069559342975644880000008823389707590667911__Qk1zOoSsdVmy_gr2)" d="M30.5,5h-26C3.7,5,3,5.7,3,6.5v18	C3,25.3,3.7,26,4.5,26H9v6.4c0,0.7,0.9,1.1,1.4,0.6l7-7h13.2c0.8,0,1.5-0.7,1.5-1.5v-18C32,5.7,31.3,5,30.5,5z"></path>
</svg>

