<svg xmlns="http://www.w3.org/2000/svg" xmlns:xlink="http://www.w3.org/1999/xlink" width="500" zoomAndPan="magnify" viewBox="0 0 375 374.999991" height="500" preserveAspectRatio="xMidYMid meet" version="1.0"><defs><g/><clipPath id="dc729edf33"><path d="M 171.691406 186.378906 L 186.890625 186.378906 L 186.890625 196.910156 L 171.691406 196.910156 Z M 171.691406 186.378906 " clip-rule="nonzero"/></clipPath><clipPath id="5e442ce701"><path d="M 180.492188 190.507812 L 214.417969 190.507812 L 214.417969 223.308594 L 180.492188 223.308594 Z M 180.492188 190.507812 " clip-rule="nonzero"/></clipPath></defs><path fill="#e6e7e8" d="M 187.253906 180.484375 C 187.03125 183.113281 185.300781 184.765625 183.046875 184.765625 C 181.019531 184.765625 178.84375 183.339844 178.84375 179.734375 L 178.84375 139.09375 L 187.328125 139.09375 L 187.328125 137.515625 L 178.84375 137.515625 L 178.84375 117.683594 L 169.902344 117.683594 L 169.902344 137.515625 L 164.71875 137.515625 L 164.71875 139.09375 L 169.902344 139.09375 L 169.902344 174.476562 C 169.902344 177.707031 170.203125 180.410156 171.179688 182.4375 C 172.90625 185.96875 175.988281 187.546875 180.71875 187.546875 C 185.453125 187.546875 188.683594 184.46875 188.90625 180.484375 Z M 187.253906 180.484375 " fill-opacity="1" fill-rule="nonzero"/><path fill="#e6e7e8" d="M 246.671875 139.09375 L 246.671875 137.515625 L 234.125 137.515625 L 234.125 139.09375 L 239.234375 139.09375 L 222.105469 174.773438 L 206.03125 139.09375 L 211.0625 139.09375 L 211.0625 137.515625 L 191.15625 137.515625 L 191.15625 139.09375 L 196.113281 139.09375 L 218.050781 187.320312 L 241.261719 139.09375 Z M 246.671875 139.09375 " fill-opacity="1" fill-rule="nonzero"/><g clip-path="url(#dc729edf33)"><path fill="#e6e7e8" d="M 179.675781 196.730469 C 177.070312 196.644531 174.335938 194.421875 172.851562 191.996094 C 171.664062 190.042969 171.515625 188.003906 172.433594 186.226562 C 174.21875 182.800781 177.867188 184.542969 180.03125 185.582031 C 180.449219 185.785156 180.832031 185.964844 181.1875 186.113281 C 182.195312 186.53125 183.824219 186.53125 184.480469 185.910156 C 185.074219 185.347656 184.835938 184.222656 184.511719 183.394531 C 184.304688 182.890625 184.574219 182.332031 185.074219 182.125 C 185.574219 181.917969 186.140625 182.1875 186.34375 182.683594 C 187.292969 185.199219 186.613281 186.59375 185.839844 187.332031 C 184.386719 188.726562 181.78125 188.546875 180.414062 187.957031 C 180.027344 187.777344 179.613281 187.601562 179.164062 187.394531 C 176.289062 185.976562 174.953125 185.648438 174.210938 187.128906 C 173.4375 188.609375 173.976562 190.027344 174.539062 190.972656 C 175.664062 192.808594 178.097656 194.226562 180.027344 194.375 C 180.144531 194.375 180.351562 194.527344 180.324219 194.699219 L 180.144531 196.355469 C 180.125 196.351562 180.007812 196.730469 179.675781 196.730469 Z M 179.675781 196.730469 " fill-opacity="1" fill-rule="nonzero"/></g><g clip-path="url(#5e442ce701)"><path fill="#e6e7e8" d="M 187.597656 194.097656 C 188.042969 194.214844 188.460938 194.453125 188.785156 194.777344 C 189.9375 195.902344 189.96875 197.707031 188.816406 198.828125 C 187.660156 199.953125 185.789062 199.980469 184.628906 198.859375 C 183.476562 197.734375 183.445312 195.929688 184.597656 194.808594 C 184.835938 194.570312 185.101562 194.421875 185.371094 194.246094 C 185.492188 194.1875 185.523438 194.066406 185.523438 193.980469 C 185.671875 193.035156 185.582031 191.996094 185.550781 191.554688 C 185.550781 191.433594 185.371094 191.375 185.316406 191.375 C 184.421875 191.554688 183.507812 191.761719 182.527344 192.027344 C 182.203125 192.113281 181.992188 192.292969 181.933594 192.617188 C 180.511719 198.773438 180.867188 202.410156 181.015625 203.445312 C 181.046875 203.652344 181.132812 203.800781 181.253906 203.917969 C 182.589844 205.28125 191.371094 214.128906 200.980469 222.765625 C 201.1875 222.945312 201.660156 223.300781 202.046875 222.972656 C 206.351562 219.628906 210.679688 215.691406 214.148438 211.105469 C 214.417969 210.75 214.179688 210.214844 213.96875 210.042969 C 205.070312 200.875 195.78125 192.617188 194.210938 191.230469 C 194.0625 191.082031 193.886719 191.023438 193.707031 190.992188 C 192.964844 190.875 190.679688 190.636719 187.449219 191.023438 C 187.386719 191.023438 187.242188 191.144531 187.242188 191.292969 C 187.210938 191.765625 187.179688 192.859375 187.390625 193.804688 C 187.417969 193.925781 187.480469 194.066406 187.597656 194.097656 Z M 187.597656 194.097656 " fill-opacity="1" fill-rule="nonzero"/></g><g fill="#e6e7e8" fill-opacity="1"><g transform="translate(205.550558, 241.229427)"><g><path d="M 3.765625 0.09375 C 3.128906 0.09375 2.507812 -0.00390625 1.90625 -0.203125 C 1.3125 -0.398438 0.84375 -0.65625 0.5 -0.96875 L 0.953125 -1.921875 C 1.273438 -1.628906 1.691406 -1.390625 2.203125 -1.203125 C 2.710938 -1.023438 3.234375 -0.9375 3.765625 -0.9375 C 4.472656 -0.9375 5 -1.054688 5.34375 -1.296875 C 5.695312 -1.535156 5.875 -1.851562 5.875 -2.25 C 5.875 -2.550781 5.78125 -2.789062 5.59375 -2.96875 C 5.40625 -3.15625 5.171875 -3.296875 4.890625 -3.390625 C 4.609375 -3.484375 4.210938 -3.59375 3.703125 -3.71875 C 3.054688 -3.875 2.535156 -4.03125 2.140625 -4.1875 C 1.742188 -4.34375 1.40625 -4.578125 1.125 -4.890625 C 0.84375 -5.210938 0.703125 -5.648438 0.703125 -6.203125 C 0.703125 -6.648438 0.820312 -7.054688 1.0625 -7.421875 C 1.300781 -7.796875 1.664062 -8.09375 2.15625 -8.3125 C 2.644531 -8.53125 3.253906 -8.640625 3.984375 -8.640625 C 4.484375 -8.640625 4.976562 -8.570312 5.46875 -8.4375 C 5.957031 -8.3125 6.375 -8.128906 6.71875 -7.890625 L 6.328125 -6.90625 C 5.960938 -7.132812 5.578125 -7.304688 5.171875 -7.421875 C 4.765625 -7.546875 4.367188 -7.609375 3.984375 -7.609375 C 3.285156 -7.609375 2.765625 -7.476562 2.421875 -7.21875 C 2.078125 -6.96875 1.90625 -6.644531 1.90625 -6.25 C 1.90625 -5.957031 2 -5.71875 2.1875 -5.53125 C 2.382812 -5.351562 2.628906 -5.210938 2.921875 -5.109375 C 3.210938 -5.003906 3.601562 -4.894531 4.09375 -4.78125 C 4.738281 -4.625 5.253906 -4.46875 5.640625 -4.3125 C 6.035156 -4.164062 6.375 -3.929688 6.65625 -3.609375 C 6.9375 -3.296875 7.078125 -2.867188 7.078125 -2.328125 C 7.078125 -1.878906 6.953125 -1.46875 6.703125 -1.09375 C 6.460938 -0.726562 6.09375 -0.4375 5.59375 -0.21875 C 5.101562 -0.0078125 4.492188 0.09375 3.765625 0.09375 Z M 3.765625 0.09375 "/></g></g></g><g fill="#e6e7e8" fill-opacity="1"><g transform="translate(213.126271, 241.229427)"><g><path d="M 7.140625 -6.46875 L 7.140625 0 L 6.03125 0 L 6.03125 -0.96875 C 5.789062 -0.632812 5.476562 -0.375 5.09375 -0.1875 C 4.707031 -0.0078125 4.285156 0.078125 3.828125 0.078125 C 2.960938 0.078125 2.28125 -0.160156 1.78125 -0.640625 C 1.289062 -1.117188 1.046875 -1.820312 1.046875 -2.75 L 1.046875 -6.46875 L 2.21875 -6.46875 L 2.21875 -2.875 C 2.21875 -2.25 2.367188 -1.773438 2.671875 -1.453125 C 2.972656 -1.128906 3.40625 -0.96875 3.96875 -0.96875 C 4.582031 -0.96875 5.066406 -1.15625 5.421875 -1.53125 C 5.785156 -1.90625 5.96875 -2.4375 5.96875 -3.125 L 5.96875 -6.46875 Z M 7.140625 -6.46875 "/></g></g></g><g fill="#e6e7e8" fill-opacity="1"><g transform="translate(221.38514, 241.229427)"><g><path d="M 4.546875 -6.53125 C 5.171875 -6.53125 5.726562 -6.390625 6.21875 -6.109375 C 6.71875 -5.835938 7.109375 -5.453125 7.390625 -4.953125 C 7.671875 -4.453125 7.8125 -3.878906 7.8125 -3.234375 C 7.8125 -2.578125 7.671875 -2 7.390625 -1.5 C 7.109375 -1 6.71875 -0.609375 6.21875 -0.328125 C 5.726562 -0.0546875 5.171875 0.078125 4.546875 0.078125 C 4.078125 0.078125 3.648438 -0.0078125 3.265625 -0.1875 C 2.878906 -0.375 2.550781 -0.632812 2.28125 -0.96875 L 2.28125 2.375 L 1.109375 2.375 L 1.109375 -6.46875 L 2.234375 -6.46875 L 2.234375 -5.4375 C 2.492188 -5.800781 2.820312 -6.070312 3.21875 -6.25 C 3.613281 -6.4375 4.054688 -6.53125 4.546875 -6.53125 Z M 4.4375 -0.953125 C 4.851562 -0.953125 5.222656 -1.046875 5.546875 -1.234375 C 5.878906 -1.429688 6.140625 -1.703125 6.328125 -2.046875 C 6.523438 -2.390625 6.625 -2.785156 6.625 -3.234375 C 6.625 -3.679688 6.523438 -4.078125 6.328125 -4.421875 C 6.140625 -4.765625 5.878906 -5.03125 5.546875 -5.21875 C 5.222656 -5.40625 4.851562 -5.5 4.4375 -5.5 C 4.03125 -5.5 3.660156 -5.40625 3.328125 -5.21875 C 3.003906 -5.03125 2.742188 -4.765625 2.546875 -4.421875 C 2.359375 -4.078125 2.265625 -3.679688 2.265625 -3.234375 C 2.265625 -2.785156 2.359375 -2.390625 2.546875 -2.046875 C 2.734375 -1.703125 2.992188 -1.429688 3.328125 -1.234375 C 3.660156 -1.046875 4.03125 -0.953125 4.4375 -0.953125 Z M 4.4375 -0.953125 "/></g></g></g><g fill="#e6e7e8" fill-opacity="1"><g transform="translate(229.705005, 241.229427)"><g><path d="M 4.546875 -6.53125 C 5.171875 -6.53125 5.726562 -6.390625 6.21875 -6.109375 C 6.71875 -5.835938 7.109375 -5.453125 7.390625 -4.953125 C 7.671875 -4.453125 7.8125 -3.878906 7.8125 -3.234375 C 7.8125 -2.578125 7.671875 -2 7.390625 -1.5 C 7.109375 -1 6.71875 -0.609375 6.21875 -0.328125 C 5.726562 -0.0546875 5.171875 0.078125 4.546875 0.078125 C 4.078125 0.078125 3.648438 -0.0078125 3.265625 -0.1875 C 2.878906 -0.375 2.550781 -0.632812 2.28125 -0.96875 L 2.28125 2.375 L 1.109375 2.375 L 1.109375 -6.46875 L 2.234375 -6.46875 L 2.234375 -5.4375 C 2.492188 -5.800781 2.820312 -6.070312 3.21875 -6.25 C 3.613281 -6.4375 4.054688 -6.53125 4.546875 -6.53125 Z M 4.4375 -0.953125 C 4.851562 -0.953125 5.222656 -1.046875 5.546875 -1.234375 C 5.878906 -1.429688 6.140625 -1.703125 6.328125 -2.046875 C 6.523438 -2.390625 6.625 -2.785156 6.625 -3.234375 C 6.625 -3.679688 6.523438 -4.078125 6.328125 -4.421875 C 6.140625 -4.765625 5.878906 -5.03125 5.546875 -5.21875 C 5.222656 -5.40625 4.851562 -5.5 4.4375 -5.5 C 4.03125 -5.5 3.660156 -5.40625 3.328125 -5.21875 C 3.003906 -5.03125 2.742188 -4.765625 2.546875 -4.421875 C 2.359375 -4.078125 2.265625 -3.679688 2.265625 -3.234375 C 2.265625 -2.785156 2.359375 -2.390625 2.546875 -2.046875 C 2.734375 -1.703125 2.992188 -1.429688 3.328125 -1.234375 C 3.660156 -1.046875 4.03125 -0.953125 4.4375 -0.953125 Z M 4.4375 -0.953125 "/></g></g></g><g fill="#e6e7e8" fill-opacity="1"><g transform="translate(238.024871, 241.229427)"><g><path d="M 3.875 0.078125 C 3.238281 0.078125 2.660156 -0.0625 2.140625 -0.34375 C 1.628906 -0.632812 1.226562 -1.03125 0.9375 -1.53125 C 0.65625 -2.03125 0.515625 -2.597656 0.515625 -3.234375 C 0.515625 -3.867188 0.65625 -4.4375 0.9375 -4.9375 C 1.226562 -5.4375 1.628906 -5.828125 2.140625 -6.109375 C 2.660156 -6.390625 3.238281 -6.53125 3.875 -6.53125 C 4.519531 -6.53125 5.097656 -6.390625 5.609375 -6.109375 C 6.117188 -5.828125 6.515625 -5.4375 6.796875 -4.9375 C 7.085938 -4.4375 7.234375 -3.867188 7.234375 -3.234375 C 7.234375 -2.597656 7.085938 -2.03125 6.796875 -1.53125 C 6.515625 -1.03125 6.117188 -0.632812 5.609375 -0.34375 C 5.097656 -0.0625 4.519531 0.078125 3.875 0.078125 Z M 3.875 -0.953125 C 4.289062 -0.953125 4.660156 -1.046875 4.984375 -1.234375 C 5.316406 -1.429688 5.578125 -1.703125 5.765625 -2.046875 C 5.953125 -2.390625 6.046875 -2.785156 6.046875 -3.234375 C 6.046875 -3.679688 5.953125 -4.078125 5.765625 -4.421875 C 5.578125 -4.765625 5.316406 -5.03125 4.984375 -5.21875 C 4.660156 -5.40625 4.289062 -5.5 3.875 -5.5 C 3.46875 -5.5 3.097656 -5.40625 2.765625 -5.21875 C 2.429688 -5.03125 2.171875 -4.765625 1.984375 -4.421875 C 1.796875 -4.078125 1.703125 -3.679688 1.703125 -3.234375 C 1.703125 -2.785156 1.796875 -2.390625 1.984375 -2.046875 C 2.171875 -1.703125 2.429688 -1.429688 2.765625 -1.234375 C 3.097656 -1.046875 3.46875 -0.953125 3.875 -0.953125 Z M 3.875 -0.953125 "/></g></g></g><g fill="#e6e7e8" fill-opacity="1"><g transform="translate(245.771376, 241.229427)"><g><path d="M 2.234375 -5.375 C 2.429688 -5.75 2.726562 -6.035156 3.125 -6.234375 C 3.53125 -6.429688 4.019531 -6.53125 4.59375 -6.53125 L 4.59375 -5.390625 C 4.519531 -5.398438 4.425781 -5.40625 4.3125 -5.40625 C 3.6875 -5.40625 3.191406 -5.210938 2.828125 -4.828125 C 2.460938 -4.453125 2.28125 -3.914062 2.28125 -3.21875 L 2.28125 0 L 1.109375 0 L 1.109375 -6.46875 L 2.234375 -6.46875 Z M 2.234375 -5.375 "/></g></g></g><g fill="#e6e7e8" fill-opacity="1"><g transform="translate(250.773062, 241.229427)"><g><path d="M 4.75 -0.375 C 4.570312 -0.226562 4.359375 -0.113281 4.109375 -0.03125 C 3.859375 0.0390625 3.597656 0.078125 3.328125 0.078125 C 2.679688 0.078125 2.175781 -0.09375 1.8125 -0.4375 C 1.457031 -0.789062 1.28125 -1.296875 1.28125 -1.953125 L 1.28125 -5.5 L 0.1875 -5.5 L 0.1875 -6.46875 L 1.28125 -6.46875 L 1.28125 -7.890625 L 2.453125 -7.890625 L 2.453125 -6.46875 L 4.3125 -6.46875 L 4.3125 -5.5 L 2.453125 -5.5 L 2.453125 -2 C 2.453125 -1.65625 2.539062 -1.390625 2.71875 -1.203125 C 2.894531 -1.015625 3.144531 -0.921875 3.46875 -0.921875 C 3.820312 -0.921875 4.125 -1.019531 4.375 -1.21875 Z M 4.75 -0.375 "/></g></g></g><g fill="#e6e7e8" fill-opacity="1"><g transform="translate(255.823545, 241.229427)"><g/></g></g><g fill="#e6e7e8" fill-opacity="1"><g transform="translate(259.105139, 241.229427)"><g><path d="M 5.09375 0.09375 C 4.238281 0.09375 3.46875 -0.09375 2.78125 -0.46875 C 2.09375 -0.84375 1.550781 -1.363281 1.15625 -2.03125 C 0.769531 -2.695312 0.578125 -3.441406 0.578125 -4.265625 C 0.578125 -5.097656 0.769531 -5.84375 1.15625 -6.5 C 1.550781 -7.164062 2.09375 -7.6875 2.78125 -8.0625 C 3.476562 -8.445312 4.253906 -8.640625 5.109375 -8.640625 C 5.773438 -8.640625 6.382812 -8.523438 6.9375 -8.296875 C 7.5 -8.078125 7.972656 -7.75 8.359375 -7.3125 L 7.5625 -6.546875 C 6.925781 -7.210938 6.125 -7.546875 5.15625 -7.546875 C 4.519531 -7.546875 3.945312 -7.40625 3.4375 -7.125 C 2.925781 -6.84375 2.523438 -6.453125 2.234375 -5.953125 C 1.953125 -5.453125 1.8125 -4.890625 1.8125 -4.265625 C 1.8125 -3.648438 1.953125 -3.09375 2.234375 -2.59375 C 2.523438 -2.09375 2.925781 -1.695312 3.4375 -1.40625 C 3.945312 -1.125 4.519531 -0.984375 5.15625 -0.984375 C 6.113281 -0.984375 6.914062 -1.328125 7.5625 -2.015625 L 8.359375 -1.25 C 7.972656 -0.800781 7.5 -0.460938 6.9375 -0.234375 C 6.382812 -0.015625 5.769531 0.09375 5.09375 0.09375 Z M 5.09375 0.09375 "/></g></g></g><g fill="#e6e7e8" fill-opacity="1"><g transform="translate(267.92518, 241.229427)"><g><path d="M 4.5625 -6.53125 C 5.382812 -6.53125 6.035156 -6.289062 6.515625 -5.8125 C 7.003906 -5.332031 7.25 -4.632812 7.25 -3.71875 L 7.25 0 L 6.078125 0 L 6.078125 -3.59375 C 6.078125 -4.21875 5.925781 -4.6875 5.625 -5 C 5.320312 -5.320312 4.890625 -5.484375 4.328125 -5.484375 C 3.691406 -5.484375 3.191406 -5.296875 2.828125 -4.921875 C 2.460938 -4.554688 2.28125 -4.023438 2.28125 -3.328125 L 2.28125 0 L 1.109375 0 L 1.109375 -9.0625 L 2.28125 -9.0625 L 2.28125 -5.546875 C 2.519531 -5.859375 2.835938 -6.097656 3.234375 -6.265625 C 3.628906 -6.441406 4.070312 -6.53125 4.5625 -6.53125 Z M 4.5625 -6.53125 "/></g></g></g><g fill="#e6e7e8" fill-opacity="1"><g transform="translate(276.232846, 241.229427)"><g><path d="M 3.46875 -6.53125 C 4.363281 -6.53125 5.046875 -6.304688 5.515625 -5.859375 C 5.992188 -5.421875 6.234375 -4.769531 6.234375 -3.90625 L 6.234375 0 L 5.125 0 L 5.125 -0.859375 C 4.925781 -0.554688 4.644531 -0.320312 4.28125 -0.15625 C 3.925781 0 3.5 0.078125 3 0.078125 C 2.28125 0.078125 1.703125 -0.09375 1.265625 -0.4375 C 0.828125 -0.789062 0.609375 -1.253906 0.609375 -1.828125 C 0.609375 -2.398438 0.816406 -2.859375 1.234375 -3.203125 C 1.648438 -3.546875 2.304688 -3.71875 3.203125 -3.71875 L 5.0625 -3.71875 L 5.0625 -3.953125 C 5.0625 -4.453125 4.914062 -4.835938 4.625 -5.109375 C 4.332031 -5.378906 3.898438 -5.515625 3.328125 -5.515625 C 2.953125 -5.515625 2.578125 -5.453125 2.203125 -5.328125 C 1.835938 -5.203125 1.53125 -5.03125 1.28125 -4.8125 L 0.796875 -5.703125 C 1.128906 -5.972656 1.523438 -6.175781 1.984375 -6.3125 C 2.453125 -6.457031 2.945312 -6.53125 3.46875 -6.53125 Z M 3.203125 -0.828125 C 3.648438 -0.828125 4.035156 -0.925781 4.359375 -1.125 C 4.679688 -1.320312 4.914062 -1.609375 5.0625 -1.984375 L 5.0625 -2.875 L 3.265625 -2.875 C 2.265625 -2.875 1.765625 -2.539062 1.765625 -1.875 C 1.765625 -1.550781 1.890625 -1.296875 2.140625 -1.109375 C 2.398438 -0.921875 2.753906 -0.828125 3.203125 -0.828125 Z M 3.203125 -0.828125 "/></g></g></g><g fill="#e6e7e8" fill-opacity="1"><g transform="translate(283.527985, 241.229427)"><g><path d="M 4.75 -0.375 C 4.570312 -0.226562 4.359375 -0.113281 4.109375 -0.03125 C 3.859375 0.0390625 3.597656 0.078125 3.328125 0.078125 C 2.679688 0.078125 2.175781 -0.09375 1.8125 -0.4375 C 1.457031 -0.789062 1.28125 -1.296875 1.28125 -1.953125 L 1.28125 -5.5 L 0.1875 -5.5 L 0.1875 -6.46875 L 1.28125 -6.46875 L 1.28125 -7.890625 L 2.453125 -7.890625 L 2.453125 -6.46875 L 4.3125 -6.46875 L 4.3125 -5.5 L 2.453125 -5.5 L 2.453125 -2 C 2.453125 -1.65625 2.539062 -1.390625 2.71875 -1.203125 C 2.894531 -1.015625 3.144531 -0.921875 3.46875 -0.921875 C 3.820312 -0.921875 4.125 -1.019531 4.375 -1.21875 Z M 4.75 -0.375 "/></g></g></g></svg>