<svg xmlns="http://www.w3.org/2000/svg" xmlns:xlink="http://www.w3.org/1999/xlink" width="1080" zoomAndPan="magnify" viewBox="0 0 810 809.999993" height="1080" preserveAspectRatio="xMidYMid meet" version="1.0"><defs><clipPath id="8295830041"><path d="M 66 111 L 680 111 L 680 672.492188 L 66 672.492188 Z M 66 111 " clip-rule="nonzero"/></clipPath></defs><g clip-path="url(#8295830041)"><path fill="#000000" d="M 367.191406 111.644531 C 364.027344 112.097656 358.609375 112.550781 350.476562 112.550781 C 342.34375 112.550781 337.375 113.003906 336.019531 113.453125 C 334.664062 114.359375 332.855469 114.359375 331.5 114.359375 C 330.144531 114.359375 329.242188 114.359375 329.242188 113.453125 C 328.789062 113.003906 327.886719 113.003906 325.628906 113.003906 C 323.367188 113.003906 321.5625 113.90625 319.304688 114.8125 C 317.496094 115.714844 315.6875 116.167969 313.882812 116.167969 C 312.074219 116.167969 310.265625 116.621094 308.914062 117.074219 C 307.558594 117.976562 305.75 117.976562 304.394531 117.976562 C 303.039062 117.523438 301.230469 117.976562 299.425781 119.335938 C 297.164062 120.691406 294.003906 121.597656 289.035156 122.046875 C 284.0625 122.953125 280.902344 123.855469 279.09375 124.761719 C 277.289062 126.117188 274.125 127.023438 269.15625 127.929688 C 264.1875 128.832031 261.476562 129.738281 260.121094 131.09375 C 258.765625 132.449219 256.054688 133.355469 252.441406 134.261719 C 248.824219 135.164062 246.566406 136.070312 245.210938 137.425781 C 243.855469 138.78125 241.597656 139.234375 238.886719 140.140625 C 236.175781 141.042969 234.367188 141.496094 233.917969 142.402344 C 233.464844 143.304688 231.207031 144.210938 228.042969 144.664062 C 224.882812 145.113281 222.621094 146.019531 221.71875 146.925781 C 220.816406 147.828125 219.910156 148.28125 218.554688 148.734375 C 217.203125 148.734375 216.296875 149.636719 215.394531 150.542969 C 214.492188 151.898438 213.585938 152.351562 211.78125 152.351562 C 210.425781 152.804688 205.453125 155.066406 197.324219 160.039062 C 189.191406 165.015625 184.222656 167.730469 182.414062 168.183594 C 180.605469 168.632812 176.542969 171.800781 169.3125 177.226562 C 162.535156 182.65625 157.113281 187.179688 153.953125 190.796875 C 150.339844 194.414062 148.53125 196.222656 147.628906 196.675781 C 146.722656 197.128906 145.367188 198.484375 143.5625 200.746094 C 141.753906 203.460938 139.945312 204.816406 138.59375 205.269531 C 137.238281 205.722656 135.429688 207.53125 133.621094 211.148438 C 131.816406 214.769531 130.007812 216.578125 129.105469 216.578125 C 128.199219 216.578125 126.84375 218.386719 125.492188 221.101562 C 124.136719 223.816406 122.328125 225.625 120.972656 226.527344 C 119.617188 227.433594 118.261719 228.789062 118.261719 230.148438 C 117.808594 231.503906 117.359375 232.859375 116.003906 233.765625 C 114.648438 234.667969 113.292969 237.382812 111.035156 241.90625 C 108.773438 246.429688 106.96875 249.144531 106.0625 249.59375 C 105.160156 250.046875 101.996094 255.023438 97.480469 264.070312 C 92.511719 272.664062 89.800781 278.542969 89.347656 281.257812 C 88.445312 283.515625 87.992188 285.328125 87.089844 285.777344 C 86.1875 286.683594 84.832031 289.398438 83.476562 294.824219 C 82.121094 300.253906 80.765625 302.964844 80.3125 302.964844 C 79.859375 303.417969 79.410156 305.226562 78.503906 309.296875 C 78.054688 313.367188 77.148438 316.082031 76.246094 317.4375 C 75.34375 318.796875 74.890625 320.152344 75.34375 321.058594 C 75.792969 322.414062 75.34375 324.222656 74.890625 326.9375 C 73.988281 329.652344 73.535156 331.007812 73.085938 331.460938 C 72.632812 331.914062 72.632812 332.363281 72.632812 333.722656 C 73.085938 335.078125 72.632812 336.4375 71.730469 337.339844 C 71.277344 338.246094 70.824219 340.054688 71.277344 343.21875 C 71.277344 345.933594 71.277344 348.195312 70.375 349.550781 C 69.46875 350.910156 69.019531 353.171875 69.46875 356.789062 C 69.921875 360.40625 69.46875 362.214844 69.019531 362.667969 C 68.566406 363.121094 68.566406 364.476562 68.566406 367.644531 C 69.019531 370.359375 68.566406 371.714844 68.113281 372.167969 C 67.664062 372.167969 67.664062 373.523438 68.113281 375.785156 C 68.566406 377.59375 68.566406 379.402344 67.664062 380.308594 C 66.757812 381.214844 66.757812 385.734375 67.210938 393.878906 C 67.664062 402.019531 67.664062 406.992188 67.210938 409.253906 C 66.757812 411.515625 66.757812 414.683594 66.757812 419.65625 C 66.757812 424.632812 67.664062 429.15625 68.113281 432.773438 C 69.019531 436.394531 69.46875 438.65625 70.375 440.011719 C 71.277344 441.367188 71.277344 442.273438 71.277344 443.628906 C 70.824219 444.988281 71.277344 445.890625 72.179688 447.25 C 73.085938 448.605469 73.988281 451.320312 74.890625 455.390625 C 75.792969 459.460938 76.246094 461.722656 76.699219 461.722656 C 77.148438 461.722656 77.601562 463.078125 77.601562 465.339844 C 77.601562 468.054688 78.957031 470.316406 80.3125 473.027344 C 81.667969 475.742188 82.570312 477.550781 82.121094 478.910156 C 82.121094 480.265625 82.121094 481.171875 83.023438 482.074219 C 83.925781 482.980469 84.832031 484.335938 85.28125 486.597656 C 85.734375 488.859375 87.089844 491.121094 88.894531 494.285156 C 91.15625 497.453125 92.511719 500.167969 92.960938 502.878906 C 93.414062 505.59375 95.222656 508.308594 97.933594 511.472656 C 100.191406 514.640625 101.996094 517.804688 103.351562 520.972656 C 104.707031 524.136719 105.613281 526.851562 106.96875 528.660156 C 108.324219 530.46875 109.679688 532.28125 110.582031 532.730469 C 111.9375 533.183594 112.390625 534.539062 112.839844 536.351562 C 113.292969 537.707031 115.097656 539.96875 118.261719 542.683594 C 121.425781 545.394531 123.230469 547.207031 123.230469 548.109375 C 123.683594 549.015625 124.585938 549.917969 126.847656 551.726562 C 129.105469 553.085938 131.363281 555.347656 133.621094 557.609375 C 135.882812 560.320312 138.140625 562.132812 140.398438 563.035156 C 142.65625 563.941406 144.464844 565.296875 145.820312 567.558594 C 147.175781 569.367188 146.273438 572.082031 143.5625 574.796875 C 140.398438 577.960938 138.59375 580.675781 137.238281 582.9375 C 135.882812 585.648438 134.527344 587.007812 133.171875 587.910156 C 131.816406 588.363281 130.460938 589.722656 128.652344 591.53125 C 127.296875 593.339844 126.394531 594.242188 126.394531 595.148438 C 126.394531 596.054688 124.585938 597.410156 121.425781 600.125 C 118.261719 602.835938 116.003906 605.097656 115.550781 606.457031 C 115.097656 607.8125 114.195312 608.71875 112.839844 609.167969 C 111.484375 609.621094 109.226562 611.429688 106.515625 614.597656 C 103.351562 617.761719 101.996094 619.574219 101.996094 620.476562 C 101.996094 620.929688 101.09375 622.285156 98.835938 623.644531 C 97.027344 625 94.316406 627.261719 91.15625 630.425781 C 88.445312 633.59375 86.636719 635.402344 86.636719 636.308594 C 86.1875 637.210938 85.734375 638.117188 84.378906 638.570312 C 83.023438 639.019531 82.570312 640.832031 81.667969 643.996094 C 80.765625 646.710938 80.765625 649.875 80.765625 653.042969 C 81.214844 656.207031 82.121094 658.921875 83.925781 661.183594 C 85.734375 663.445312 87.089844 664.800781 87.992188 664.800781 C 88.894531 665.253906 90.25 666.160156 92.058594 667.96875 C 93.867188 669.777344 97.027344 671.132812 101.546875 671.585938 C 106.0625 672.492188 109.679688 672.492188 112.839844 672.492188 C 116.003906 672.492188 117.808594 672.039062 117.808594 671.585938 C 118.261719 671.132812 119.617188 671.132812 122.78125 671.585938 C 125.941406 672.039062 128.199219 672.039062 130.007812 671.132812 C 131.816406 670.683594 135.429688 669.777344 140.398438 669.324219 C 145.367188 668.871094 148.53125 668.421875 149.433594 667.515625 C 150.339844 667.0625 152.144531 666.160156 155.308594 665.707031 C 158.019531 665.253906 159.824219 664.800781 159.824219 664.351562 C 160.277344 663.898438 161.179688 663.898438 162.535156 663.898438 C 164.34375 663.898438 165.699219 663.445312 167.054688 662.539062 C 168.410156 661.636719 170.214844 661.183594 172.476562 661.183594 C 174.734375 661.183594 176.992188 660.730469 179.703125 659.828125 C 182.414062 658.921875 184.222656 657.566406 186.027344 656.207031 C 187.382812 654.851562 189.644531 653.945312 192.804688 653.042969 C 195.515625 652.136719 197.324219 651.683594 197.773438 651.234375 C 198.226562 650.328125 201.839844 648.972656 208.164062 646.257812 C 214.492188 643.542969 218.558594 641.734375 220.363281 640.378906 C 222.171875 639.019531 223.527344 638.117188 225.332031 637.664062 C 226.6875 637.210938 228.042969 636.308594 228.949219 635.855469 C 229.851562 634.949219 231.207031 634.046875 233.917969 632.6875 C 236.628906 631.332031 238.886719 630.878906 240.242188 631.332031 C 241.597656 631.785156 242.953125 632.238281 244.308594 633.140625 C 245.664062 634.046875 247.921875 634.949219 251.535156 635.855469 C 255.152344 636.308594 257.859375 637.210938 259.667969 638.570312 C 261.476562 639.925781 263.734375 640.832031 267.347656 641.28125 C 270.511719 641.734375 272.769531 642.640625 274.125 643.542969 C 275.480469 644.449219 278.191406 645.351562 282.710938 645.804688 C 286.773438 646.257812 289.484375 647.164062 290.390625 647.613281 C 291.292969 648.066406 294.003906 648.972656 298.070312 649.425781 C 302.136719 649.875 306.203125 650.78125 309.363281 651.683594 C 312.527344 653.042969 315.238281 653.496094 317.496094 653.042969 C 319.753906 652.589844 323.820312 653.496094 329.242188 654.398438 C 334.664062 655.304688 338.730469 656.207031 340.988281 655.757812 C 343.246094 655.304688 347.765625 655.757812 353.636719 656.660156 C 359.511719 657.566406 363.125 658.015625 364.027344 657.566406 C 365.382812 657.113281 368.546875 657.113281 374.421875 658.015625 C 380.292969 658.921875 383.90625 658.921875 385.714844 658.46875 C 387.972656 658.015625 392.039062 658.015625 398.363281 658.015625 C 404.6875 658.46875 409.207031 658.46875 411.464844 658.015625 C 413.726562 657.566406 415.078125 657.566406 415.53125 657.113281 C 415.984375 656.660156 418.242188 656.660156 422.761719 656.660156 C 427.277344 656.660156 430.441406 656.207031 432.699219 655.757812 C 434.507812 655.304688 436.765625 654.851562 439.023438 655.304688 C 440.832031 655.757812 442.636719 655.304688 444.445312 654.398438 C 445.800781 653.496094 449.414062 653.042969 453.933594 652.589844 C 458.902344 652.136719 462.066406 651.234375 463.421875 650.78125 C 464.777344 650.328125 469.746094 648.519531 477.425781 647.164062 C 485.558594 645.351562 489.625 644.449219 490.527344 643.542969 C 491.429688 642.640625 495.496094 641.28125 502.726562 639.472656 C 509.953125 637.664062 514.019531 636.308594 514.472656 635.402344 C 515.375 634.5 517.183594 633.59375 520.34375 633.140625 C 523.507812 632.6875 525.3125 631.785156 526.21875 630.878906 C 527.121094 629.976562 531.640625 628.167969 539.320312 624.546875 C 547.449219 621.382812 551.96875 619.121094 552.871094 618.214844 C 553.777344 617.3125 556.035156 615.953125 558.292969 615.5 C 561.003906 615.050781 562.359375 614.144531 563.261719 613.242188 C 564.167969 612.335938 565.070312 611.429688 567.328125 610.980469 C 569.136719 610.527344 570.945312 609.621094 571.847656 608.265625 C 572.75 606.910156 574.558594 606.457031 576.816406 606.003906 C 578.625 605.550781 580.882812 604.195312 583.140625 602.386719 C 585.398438 600.574219 586.753906 599.21875 588.5625 598.765625 C 590.371094 598.316406 591.273438 597.410156 592.175781 595.601562 C 593.082031 593.792969 594.4375 592.886719 596.242188 591.984375 C 598.050781 591.53125 599.40625 590.171875 599.855469 589.269531 C 600.308594 587.910156 601.210938 587.460938 602.117188 587.460938 C 603.019531 587.460938 603.921875 586.554688 604.375 585.199219 C 604.828125 583.839844 606.183594 582.484375 607.988281 581.578125 C 609.796875 580.675781 612.507812 577.960938 615.667969 573.890625 C 618.832031 569.820312 621.542969 567.105469 622.898438 566.652344 C 624.253906 565.75 625.15625 564.84375 626.058594 563.035156 C 626.964844 561.226562 628.320312 559.417969 630.125 557.15625 C 631.933594 554.894531 634.191406 552.179688 636.902344 547.65625 C 639.613281 543.132812 640.96875 540.875 642.324219 539.96875 C 643.679688 539.0625 645.9375 535.445312 650.003906 529.566406 C 654.070312 523.234375 655.878906 519.617188 655.878906 517.804688 C 655.878906 515.996094 656.78125 514.1875 657.683594 512.832031 C 659.039062 511.472656 659.945312 510.117188 659.945312 508.761719 C 659.945312 507.402344 660.394531 506.046875 661.75 504.238281 C 663.105469 502.429688 664.007812 500.167969 664.914062 497 C 665.816406 493.835938 666.71875 490.214844 667.171875 485.691406 C 667.625 481.621094 668.980469 477.550781 670.335938 473.933594 C 671.691406 470.316406 672.59375 466.695312 672.59375 462.625 C 673.046875 458.554688 673.046875 455.839844 673.949219 454.484375 C 674.402344 453.128906 674.851562 450.414062 674.851562 446.34375 C 674.851562 442.273438 675.753906 436.394531 677.109375 428.703125 C 678.464844 421.015625 678.917969 415.585938 678.464844 411.515625 C 678.015625 407.898438 678.015625 404.28125 678.917969 400.660156 C 679.371094 397.042969 679.371094 392.519531 678.464844 387.996094 C 677.5625 383.023438 677.109375 376.238281 677.5625 368.097656 C 678.015625 359.957031 677.109375 354.074219 675.753906 350.910156 C 673.949219 347.742188 673.496094 344.578125 673.496094 341.863281 C 673.496094 339.148438 672.59375 335.984375 671.238281 333.269531 C 669.429688 330.554688 668.980469 328.746094 669.429688 327.84375 C 669.429688 326.9375 668.527344 323.320312 666.269531 316.988281 C 664.007812 310.65625 663.105469 307.035156 663.105469 306.585938 C 663.558594 305.679688 663.105469 305.226562 662.652344 304.324219 C 661.75 303.417969 661.300781 302.0625 661.300781 299.800781 C 660.847656 297.539062 660.394531 295.730469 659.492188 294.371094 C 658.136719 293.015625 657.234375 289.847656 655.878906 285.777344 C 654.523438 281.707031 652.261719 275.828125 648.199219 268.140625 C 644.132812 260.449219 641.871094 256.378906 640.96875 255.925781 C 640.066406 255.476562 640.066406 254.570312 640.066406 253.664062 C 640.066406 252.761719 639.613281 250.953125 638.257812 248.691406 C 636.902344 246.882812 636 245.523438 635.097656 245.074219 C 634.191406 244.621094 633.742188 243.714844 633.289062 241.90625 C 632.835938 240.550781 631.933594 239.191406 630.578125 238.289062 C 629.222656 237.382812 628.320312 236.480469 628.320312 235.121094 C 628.320312 233.765625 627.414062 232.859375 626.058594 231.503906 C 624.703125 230.148438 622.898438 227.886719 621.089844 224.71875 C 619.285156 221.554688 617.023438 218.839844 614.765625 216.578125 C 612.054688 214.316406 610.699219 212.507812 609.796875 210.246094 C 608.894531 208.4375 608.441406 207.078125 607.988281 207.078125 C 607.539062 207.078125 607.539062 207.078125 607.539062 207.078125 C 607.539062 206.628906 607.539062 206.628906 607.988281 206.175781 C 608.441406 205.722656 607.085938 204.816406 604.375 202.558594 C 601.664062 200.746094 596.695312 196.675781 589.917969 189.890625 C 583.140625 183.109375 578.625 179.488281 576.816406 178.132812 C 575.007812 177.226562 572.75 175.871094 570.492188 173.609375 C 568.234375 171.347656 566.425781 169.992188 565.523438 169.992188 C 564.167969 169.992188 561.90625 168.183594 558.292969 165.46875 C 554.679688 162.300781 551.515625 160.492188 548.355469 159.136719 C 545.191406 157.78125 543.386719 156.875 542.480469 155.519531 C 541.578125 154.160156 539.769531 152.804688 537.058594 151.898438 C 534.347656 150.996094 532.542969 150.089844 532.089844 149.1875 C 531.640625 148.28125 529.378906 146.925781 525.765625 145.566406 C 522.152344 144.210938 519.890625 142.855469 518.539062 141.949219 C 517.183594 141.042969 515.828125 140.140625 514.921875 140.140625 C 514.019531 140.140625 510.855469 138.78125 506.339844 136.523438 C 501.820312 134.261719 498.207031 132.902344 496.851562 132.902344 C 495.949219 132.902344 495.496094 132.902344 494.59375 132.902344 C 494.59375 132.449219 494.59375 132.449219 494.59375 132 C 494.59375 131.546875 493.6875 131.09375 492.335938 130.1875 C 490.980469 129.285156 488.71875 129.285156 486.460938 129.285156 C 484.203125 129.285156 480.585938 128.378906 476.070312 126.117188 C 471.550781 123.855469 465.226562 122.5 458.449219 120.691406 C 451.675781 118.882812 445.800781 117.976562 440.832031 117.523438 C 435.863281 117.074219 433.152344 116.621094 432.246094 115.714844 C 431.34375 114.8125 430.441406 114.8125 428.632812 114.8125 C 427.277344 115.265625 425.472656 114.8125 422.761719 113.90625 C 420.050781 113.003906 414.628906 112.550781 406.496094 112.550781 C 398.363281 112.550781 392.941406 113.003906 390.683594 113.453125 C 388.425781 113.90625 384.8125 113.90625 380.292969 113.453125 C 373.96875 110.742188 369.902344 110.742188 367.191406 111.644531 Z M 380.292969 128.378906 C 381.648438 128.832031 383.457031 128.832031 385.261719 128.378906 C 387.070312 127.476562 388.875 127.476562 390.230469 128.378906 C 392.039062 128.832031 396.105469 128.832031 402.429688 128.378906 C 409.207031 127.476562 412.820312 127.476562 414.175781 128.378906 C 415.53125 128.832031 420.050781 129.738281 428.632812 130.640625 C 437.21875 131.546875 442.636719 132.449219 444.898438 133.808594 C 447.15625 135.164062 449.414062 135.617188 451.222656 135.617188 C 453.03125 135.617188 454.382812 136.070312 454.835938 136.523438 C 455.289062 137.425781 457.09375 137.425781 459.804688 137.425781 C 462.515625 137.425781 464.324219 137.878906 465.226562 138.78125 C 466.132812 139.6875 469.746094 140.59375 475.617188 141.949219 C 481.492188 143.304688 486.007812 144.210938 489.625 145.566406 C 493.238281 146.925781 495.949219 148.28125 498.660156 150.089844 C 501.371094 151.898438 503.628906 152.804688 504.984375 152.804688 C 506.339844 152.804688 507.695312 153.707031 509.050781 154.613281 C 510.40625 155.96875 512.210938 156.875 514.019531 156.875 C 515.828125 157.328125 518.085938 158.230469 520.34375 159.589844 C 522.152344 161.398438 524.410156 162.300781 526.21875 162.753906 C 528.023438 163.207031 529.832031 164.5625 532.089844 166.375 C 534.347656 168.632812 536.15625 169.539062 538.414062 169.992188 C 540.675781 170.445312 542.480469 171.347656 544.289062 173.609375 C 546.09375 175.417969 549.257812 177.226562 553.324219 179.488281 C 557.390625 181.75 560.101562 183.558594 561.003906 185.371094 C 561.90625 187.179688 564.167969 188.535156 567.328125 190.34375 C 570.492188 192.152344 573.652344 194.414062 577.71875 198.035156 C 581.335938 201.199219 583.59375 203.460938 584.042969 204.816406 C 584.496094 206.175781 586.304688 207.53125 588.5625 208.890625 C 590.820312 210.246094 592.175781 211.601562 592.628906 213.410156 C 593.082031 214.769531 593.984375 216.125 595.339844 217.03125 C 596.695312 217.484375 598.050781 218.839844 599.40625 221.101562 C 600.761719 223.363281 602.117188 224.71875 603.472656 225.625 C 604.828125 226.527344 605.277344 226.980469 605.277344 227.433594 C 605.277344 227.886719 605.277344 228.789062 606.183594 229.695312 C 606.632812 231.050781 607.988281 231.503906 609.34375 232.40625 C 610.699219 233.3125 612.054688 235.121094 613.863281 238.289062 C 615.667969 241.453125 616.574219 243.714844 617.929688 244.167969 C 619.285156 245.074219 619.734375 245.976562 620.1875 247.785156 C 620.1875 249.59375 621.542969 250.953125 623.347656 252.761719 C 625.15625 254.570312 627.867188 259.09375 631.03125 266.78125 C 634.191406 274.472656 636.902344 278.542969 637.804688 279.445312 C 639.160156 280.351562 639.613281 281.707031 639.613281 283.96875 C 639.613281 286.230469 640.515625 288.492188 641.871094 290.300781 C 643.679688 292.5625 644.132812 294.371094 644.132812 295.730469 C 644.132812 297.085938 645.035156 299.347656 646.390625 302.0625 C 648.195312 304.773438 648.648438 307.035156 648.648438 308.394531 C 648.648438 310.203125 649.101562 312.011719 650.457031 314.726562 C 651.8125 317.441406 652.261719 319.699219 652.261719 321.511719 C 652.261719 323.320312 652.714844 325.128906 653.167969 325.582031 C 653.617188 326.484375 654.523438 328.292969 655.878906 331.914062 C 657.234375 335.53125 657.683594 339.148438 657.683594 342.769531 C 658.136719 346.839844 658.589844 349.101562 659.039062 350.003906 C 659.941406 350.910156 659.941406 353.171875 659.941406 356.335938 C 659.492188 359.503906 659.941406 361.3125 660.847656 362.214844 C 661.75 363.121094 662.203125 366.738281 661.75 373.976562 C 661.296875 381.214844 661.75 385.734375 662.203125 387.546875 C 663.105469 389.355469 663.105469 397.496094 662.203125 411.515625 C 661.75 425.539062 660.847656 433.226562 660.394531 434.582031 C 659.941406 435.941406 659.492188 438.203125 659.492188 441.820312 C 659.492188 445.4375 659.039062 448.152344 658.136719 450.414062 C 657.234375 453.128906 656.328125 456.292969 655.878906 460.816406 C 655.425781 465.339844 654.523438 468.507812 654.070312 470.765625 C 653.167969 473.027344 652.714844 474.386719 653.167969 475.289062 C 653.167969 476.195312 652.714844 478.003906 651.359375 480.71875 C 650.003906 483.433594 649.101562 485.691406 649.101562 487.050781 C 649.101562 488.40625 648.648438 489.3125 648.195312 490.214844 C 647.292969 490.667969 647.292969 492.023438 647.292969 494.285156 C 647.292969 496.546875 646.84375 497.453125 646.390625 497.90625 C 645.488281 498.355469 645.035156 499.261719 644.132812 501.070312 C 643.226562 502.878906 642.777344 505.140625 642.324219 507.855469 C 641.871094 510.570312 640.96875 512.378906 639.613281 513.734375 C 638.257812 515.09375 636 518.257812 632.835938 524.136719 C 629.675781 530.019531 626.964844 533.636719 625.609375 534.992188 C 623.800781 536.351562 622.898438 537.707031 622.898438 538.613281 C 622.898438 539.0625 621.542969 541.324219 618.378906 544.492188 C 615.21875 547.65625 613.863281 549.464844 613.863281 550.371094 C 613.863281 551.277344 612.957031 552.179688 611.601562 553.539062 C 609.796875 554.894531 608.890625 556.25 608.441406 557.15625 C 607.988281 558.058594 606.183594 560.320312 603.019531 562.582031 C 599.855469 564.84375 597.597656 567.105469 596.242188 568.914062 C 594.886719 570.722656 592.628906 572.535156 589.015625 574.796875 C 585.398438 577.054688 583.140625 578.867188 581.335938 580.675781 C 579.980469 582.9375 577.71875 584.746094 575.460938 586.101562 C 572.75 587.460938 570.492188 588.816406 568.230469 589.722656 C 565.972656 590.171875 564.167969 591.53125 562.8125 593.339844 C 561.457031 594.695312 560.101562 595.601562 557.839844 596.054688 C 556.035156 596.503906 554.679688 596.957031 553.324219 597.863281 C 551.96875 598.765625 550.613281 599.671875 548.355469 600.125 C 546.546875 600.574219 544.738281 601.480469 543.835938 602.386719 C 542.933594 603.742188 541.578125 604.195312 539.320312 604.648438 C 537.058594 605.097656 535.703125 605.550781 535.703125 606.457031 C 535.703125 606.90625 534.347656 607.8125 532.542969 608.71875 C 530.734375 609.621094 527.574219 610.527344 523.507812 611.882812 C 519.441406 613.238281 517.179688 614.144531 516.277344 615.050781 C 515.375 615.953125 513.566406 616.40625 511.308594 616.859375 C 508.597656 616.859375 506.789062 617.761719 504.984375 619.121094 C 503.175781 620.476562 500.015625 621.382812 496.398438 622.285156 C 492.332031 622.738281 489.171875 624.09375 486.460938 625.90625 C 483.75 627.261719 480.585938 628.617188 476.972656 629.070312 C 472.90625 629.523438 470.648438 629.976562 469.746094 630.878906 C 468.839844 631.332031 467.035156 632.238281 464.773438 632.238281 C 462.515625 632.6875 461.160156 632.6875 460.710938 633.140625 C 460.257812 633.59375 459.355469 633.59375 458 633.59375 C 456.644531 633.140625 454.835938 633.59375 453.027344 634.496094 C 451.222656 635.402344 449.414062 635.855469 448.058594 635.402344 C 446.703125 635.402344 445.347656 635.402344 444.445312 636.308594 C 443.542969 636.757812 442.1875 637.210938 440.378906 636.757812 C 438.570312 636.308594 436.765625 636.757812 434.957031 637.664062 C 433.152344 638.570312 429.085938 639.019531 423.210938 639.472656 C 417.339844 639.925781 413.722656 639.925781 412.820312 640.378906 C 411.464844 640.828125 409.660156 640.828125 406.496094 640.828125 C 403.785156 640.378906 401.074219 640.828125 399.265625 641.28125 C 397.460938 641.734375 396.105469 641.734375 394.75 641.28125 C 393.394531 640.828125 389.328125 640.378906 381.648438 640.828125 C 373.96875 641.28125 366.738281 641.28125 359.511719 639.925781 C 352.734375 639.019531 348.667969 638.570312 347.3125 639.472656 C 345.957031 640.378906 344.152344 639.925781 341.441406 639.925781 C 338.730469 639.472656 336.46875 639.019531 334.210938 638.117188 C 331.953125 637.210938 329.242188 636.757812 325.628906 636.757812 C 322.011719 636.757812 319.753906 636.308594 318.398438 635.855469 C 317.042969 634.949219 313.882812 634.496094 307.554688 634.046875 C 301.230469 633.140625 297.617188 632.6875 295.808594 631.785156 C 294.003906 630.878906 292.195312 630.425781 290.839844 630.425781 C 289.484375 630.425781 287.679688 629.976562 286.324219 629.070312 C 284.96875 628.164062 283.613281 627.714844 281.804688 627.714844 C 280 627.714844 277.289062 626.808594 273.222656 624.546875 C 269.15625 622.738281 265.542969 621.382812 262.832031 620.929688 C 259.667969 620.476562 257.859375 620.476562 257.410156 619.570312 C 256.957031 619.121094 254.246094 617.761719 249.730469 615.953125 C 245.210938 614.597656 242.953125 613.238281 242.953125 612.789062 C 242.953125 612.335938 241.144531 611.882812 237.984375 611.882812 C 234.820312 611.882812 232.5625 612.335938 231.207031 614.144531 C 229.851562 615.953125 228.042969 617.3125 226.238281 617.761719 C 224.429688 618.214844 223.074219 619.121094 222.621094 619.570312 C 221.71875 620.476562 220.816406 620.929688 219.007812 621.382812 C 217.199219 621.832031 215.84375 622.285156 215.394531 623.191406 C 214.488281 624.09375 212.230469 625.453125 208.617188 626.808594 C 205.003906 628.164062 202.742188 629.523438 202.292969 630.425781 C 201.839844 630.878906 201.386719 631.332031 200.484375 630.878906 C 199.582031 630.425781 197.773438 631.332031 194.613281 633.59375 C 191.449219 635.402344 188.738281 636.757812 186.027344 637.210938 C 183.316406 637.664062 181.511719 638.570312 180.15625 639.472656 C 178.347656 640.832031 175.183594 641.734375 170.214844 643.089844 C 165.246094 644.449219 162.082031 645.351562 161.632812 646.257812 C 160.730469 647.164062 158.46875 647.613281 155.308594 648.066406 C 152.144531 648.519531 149.433594 648.972656 147.628906 649.875 C 145.820312 650.78125 144.464844 651.234375 142.65625 651.234375 C 140.851562 651.234375 138.589844 651.683594 136.332031 652.589844 C 133.621094 653.496094 128.652344 653.945312 120.972656 654.398438 C 113.292969 654.398438 107.871094 653.945312 105.160156 653.042969 C 102.449219 652.136719 100.640625 650.78125 100.191406 649.875 C 99.738281 648.972656 99.738281 648.066406 100.191406 646.710938 C 100.640625 645.351562 101.546875 644.902344 101.996094 644.449219 C 102.902344 643.996094 103.804688 643.089844 104.257812 641.734375 C 104.707031 640.378906 106.0625 639.019531 108.324219 638.117188 C 110.128906 636.757812 111.9375 635.402344 113.292969 633.140625 C 114.648438 630.878906 116.003906 629.070312 117.808594 628.164062 C 119.617188 627.261719 120.972656 625.902344 121.875 624.09375 C 123.230469 622.285156 124.132812 621.382812 125.039062 620.929688 C 125.941406 620.476562 129.554688 617.3125 136.332031 610.527344 C 142.65625 604.195312 146.273438 600.125 146.273438 599.671875 C 146.273438 598.765625 147.175781 598.3125 148.53125 597.410156 C 149.886719 596.957031 150.789062 596.054688 151.242188 594.695312 C 151.691406 593.339844 153.5 591.53125 156.210938 588.816406 C 159.375 586.101562 160.277344 584.292969 160.277344 583.386719 C 159.824219 582.484375 160.730469 581.128906 162.988281 579.769531 C 164.792969 577.960938 166.601562 576.152344 168.410156 573.4375 C 169.765625 570.722656 170.667969 568.460938 170.667969 566.203125 C 170.667969 563.941406 170.214844 562.582031 169.765625 561.226562 C 169.3125 559.871094 168.410156 558.964844 167.503906 558.964844 C 167.054688 558.964844 167.054688 558.511719 166.601562 558.511719 C 166.601562 558.511719 167.054688 558.058594 167.054688 558.058594 C 167.054688 557.609375 167.054688 557.609375 167.503906 557.609375 C 165.246094 556.703125 163.4375 555.347656 161.179688 554.441406 C 157.113281 552.632812 153.953125 550.371094 151.691406 547.65625 C 149.886719 544.945312 147.175781 543.132812 144.464844 541.324219 C 141.753906 539.96875 139.945312 538.160156 138.589844 536.351562 C 137.234375 534.539062 134.976562 532.277344 131.363281 529.113281 C 127.75 525.945312 125.488281 522.78125 124.132812 520.066406 C 122.777344 517.351562 121.875 515.09375 120.519531 514.1875 C 119.164062 512.832031 118.261719 511.472656 117.808594 509.664062 C 117.359375 507.855469 115.550781 504.6875 112.386719 499.261719 C 109.226562 494.285156 107.417969 491.121094 107.417969 488.859375 C 107.417969 487.050781 106.515625 485.242188 105.160156 483.882812 C 103.804688 482.527344 103.351562 481.167969 103.351562 480.265625 C 103.351562 479.359375 102.902344 478.003906 101.546875 476.648438 C 100.191406 475.289062 99.285156 472.578125 98.382812 468.957031 C 97.480469 465.339844 96.574219 462.171875 94.769531 459.460938 C 93.414062 456.746094 92.960938 454.484375 92.960938 451.769531 C 92.960938 449.507812 92.511719 447.246094 91.15625 445.4375 C 89.800781 443.628906 89.347656 441.820312 89.347656 440.464844 C 89.347656 439.105469 88.894531 437.296875 87.539062 435.035156 C 86.183594 432.773438 85.734375 428.25 85.28125 421.917969 C 84.828125 415.585938 84.828125 411.96875 85.28125 411.515625 C 85.734375 410.613281 85.734375 409.253906 84.828125 406.542969 C 83.925781 403.828125 83.925781 402.46875 84.828125 401.113281 C 85.734375 399.757812 85.734375 398.398438 85.734375 396.589844 C 85.28125 394.78125 85.734375 392.972656 86.183594 391.617188 C 86.636719 390.257812 86.636719 388.449219 86.183594 386.640625 C 85.734375 385.285156 85.734375 382.117188 85.734375 378.046875 C 85.734375 373.976562 86.183594 371.714844 86.636719 371.714844 C 87.089844 371.261719 87.089844 369 87.089844 364.476562 C 87.089844 359.953125 87.089844 357.242188 87.992188 356.335938 C 88.894531 355.433594 88.894531 352.71875 88.894531 348.195312 C 88.894531 343.671875 89.347656 340.957031 89.800781 340.507812 C 90.703125 340.054688 91.15625 336.433594 92.058594 330.101562 C 92.960938 323.769531 93.867188 320.152344 95.222656 318.796875 C 96.574219 317.4375 97.480469 314.726562 98.382812 310.203125 C 99.285156 305.679688 100.191406 302.964844 101.09375 301.609375 C 101.996094 300.25 102.449219 298.894531 102.449219 297.085938 C 102.449219 295.277344 103.351562 293.015625 104.707031 289.847656 C 106.0625 286.683594 107.417969 284.875 108.324219 283.96875 C 109.226562 283.066406 110.128906 281.253906 110.582031 278.992188 C 111.03125 276.734375 112.386719 274.019531 115.097656 270.851562 C 117.808594 267.6875 118.714844 265.878906 118.714844 264.972656 C 118.714844 264.066406 119.617188 262.710938 120.972656 260.449219 C 122.328125 258.640625 123.230469 256.832031 124.585938 256.378906 C 125.488281 255.476562 126.394531 254.117188 127.75 250.953125 C 129.105469 247.785156 130.910156 245.070312 133.621094 242.359375 C 136.332031 239.644531 138.140625 237.382812 138.589844 236.476562 C 139.042969 235.121094 140.851562 232.859375 144.011719 230.144531 C 147.175781 227.433594 148.980469 225.171875 149.433594 223.8125 C 149.886719 222.457031 150.789062 220.648438 153.046875 219.292969 C 154.855469 217.933594 156.664062 216.125 158.019531 213.863281 C 159.375 211.601562 161.179688 210.246094 162.535156 209.339844 C 163.890625 208.4375 167.054688 206.175781 171.570312 201.652344 C 175.636719 197.128906 178.347656 194.867188 179.25 194.867188 C 180.15625 194.867188 181.960938 193.511719 184.222656 191.25 C 186.480469 188.988281 190.996094 185.820312 197.324219 182.65625 C 203.648438 179.035156 206.808594 177.226562 207.261719 176.777344 C 207.714844 176.324219 209.972656 174.964844 214.039062 173.15625 C 218.105469 171.347656 221.71875 169.992188 224.429688 168.183594 C 227.140625 166.371094 229.398438 165.46875 231.207031 165.015625 C 233.011719 164.5625 235.273438 163.660156 237.078125 161.851562 C 238.886719 160.039062 240.691406 159.136719 242.953125 159.136719 C 244.757812 158.683594 247.921875 157.777344 252.4375 155.066406 C 256.957031 152.351562 259.667969 151.445312 261.476562 150.996094 C 263.28125 150.996094 265.992188 149.636719 269.15625 147.828125 C 272.769531 146.019531 277.289062 144.210938 283.160156 142.851562 C 289.035156 141.496094 292.195312 140.59375 292.648438 139.6875 C 293.097656 139.234375 294.90625 138.332031 298.070312 138.332031 C 301.230469 137.878906 303.492188 137.425781 304.394531 136.972656 C 305.296875 136.519531 306.652344 136.070312 308.007812 136.070312 C 309.816406 136.519531 312.976562 135.617188 318.398438 133.808594 C 323.820312 132 328.339844 131.09375 332.855469 131.09375 C 337.375 131.09375 341.441406 130.640625 345.503906 130.1875 C 349.570312 129.285156 352.28125 129.285156 353.1875 129.738281 C 354.089844 130.1875 357.25 130.1875 362.222656 130.1875 C 367.644531 130.1875 371.707031 129.285156 375.324219 128.832031 C 376.679688 127.929688 378.9375 127.929688 380.292969 128.378906 Z M 224.429688 173.15625 C 216.296875 176.777344 212.230469 178.585938 211.78125 179.488281 C 211.328125 179.941406 209.972656 180.847656 207.261719 182.203125 C 204.550781 183.558594 199.582031 186.273438 191.902344 191.25 C 184.222656 196.222656 177.445312 201.652344 171.121094 207.078125 C 164.796875 212.960938 161.632812 216.125 161.632812 216.578125 C 161.632812 217.03125 160.730469 217.933594 159.375 219.292969 C 158.019531 220.648438 157.113281 221.554688 156.664062 222.457031 C 156.664062 223.363281 155.757812 224.265625 154.855469 224.71875 C 153.953125 225.171875 152.597656 226.074219 151.695312 228.335938 C 150.789062 230.148438 150.339844 231.957031 150.789062 233.3125 C 151.242188 234.667969 151.695312 236.027344 153.050781 236.929688 C 154.402344 237.835938 155.757812 237.835938 157.113281 236.929688 C 158.46875 236.027344 160.277344 234.21875 162.535156 231.503906 C 164.796875 228.789062 167.054688 226.527344 168.859375 224.71875 C 170.667969 223.363281 172.023438 222.003906 172.476562 220.648438 C 172.925781 219.292969 176.542969 216.125 184.222656 210.246094 C 191.449219 204.367188 195.96875 201.199219 198.226562 200.296875 C 200.035156 199.390625 201.839844 198.9375 202.292969 198.035156 C 203.195312 197.128906 203.648438 196.675781 204.101562 196.675781 C 204.550781 196.675781 206.359375 195.773438 208.164062 193.964844 C 209.972656 192.152344 211.78125 191.25 213.136719 190.796875 C 214.492188 190.796875 214.941406 190.34375 214.941406 189.890625 C 214.941406 189.441406 215.394531 188.988281 216.75 188.988281 C 218.105469 188.988281 219.007812 188.082031 219.910156 187.179688 C 220.816406 186.273438 224.882812 184.464844 231.65625 182.203125 C 238.433594 179.941406 242.5 178.132812 243.40625 177.226562 C 243.855469 176.777344 244.308594 175.417969 243.855469 174.0625 C 243.855469 172.707031 242.953125 171.347656 241.597656 170.445312 C 240.242188 169.085938 238.886719 168.632812 237.984375 168.632812 C 237.078125 168.632812 232.5625 169.992188 224.429688 173.15625 Z M 142.65625 240.097656 C 141.300781 241 140.851562 242.359375 140.851562 244.167969 C 140.851562 245.976562 141.300781 247.332031 142.65625 248.691406 C 144.011719 250.046875 145.367188 250.046875 147.628906 250.046875 C 149.886719 249.59375 151.242188 249.59375 151.695312 249.144531 C 152.144531 248.691406 152.144531 247.332031 152.144531 245.523438 C 151.695312 243.714844 151.242188 241.90625 149.886719 241 C 148.53125 240.097656 147.628906 239.644531 146.273438 239.191406 C 145.367188 238.742188 144.011719 239.191406 142.65625 240.097656 Z M 130.910156 251.40625 C 130.460938 251.855469 130.460938 252.761719 130.460938 255.023438 C 130.460938 257.285156 130.910156 258.640625 132.265625 260.449219 C 133.621094 262.257812 135.429688 263.164062 137.238281 263.164062 C 139.042969 263.164062 140.398438 262.710938 140.851562 262.257812 C 141.300781 261.808594 141.753906 260 141.753906 257.738281 C 141.753906 255.476562 140.851562 253.664062 139.945312 252.761719 C 138.59375 251.40625 136.785156 250.953125 134.976562 250.953125 C 132.71875 250.953125 131.363281 250.953125 130.910156 251.40625 Z M 510.855469 334.625 C 509.5 335.53125 507.695312 335.53125 504.53125 335.53125 C 501.371094 335.53125 499.5625 335.984375 498.660156 336.4375 C 498.207031 336.886719 496.398438 337.792969 493.6875 338.246094 C 491.429688 338.699219 490.074219 339.601562 489.625 340.054688 C 489.171875 340.507812 488.269531 341.410156 486.914062 341.863281 C 485.558594 342.769531 483.296875 344.125 480.585938 346.839844 C 477.878906 349.550781 476.523438 350.910156 476.523438 351.8125 C 476.523438 352.265625 475.617188 353.621094 474.261719 355.433594 C 472.457031 356.789062 471.101562 360.40625 469.292969 364.929688 C 467.484375 369.90625 467.035156 372.621094 467.035156 373.976562 C 467.035156 375.332031 466.582031 376.238281 466.128906 376.238281 C 465.679688 376.691406 465.679688 377.59375 465.679688 379.402344 C 465.679688 381.214844 466.128906 384.832031 467.484375 390.710938 C 468.839844 396.589844 471.550781 402.019531 475.617188 407.898438 C 479.683594 413.777344 482.847656 416.945312 484.203125 417.847656 C 486.007812 418.300781 487.363281 419.65625 488.269531 421.015625 C 489.171875 422.371094 491.429688 423.730469 495.042969 425.085938 C 498.660156 426.441406 501.371094 427.347656 503.175781 427.347656 C 504.984375 427.800781 506.789062 427.347656 508.144531 426.894531 C 509.953125 426.441406 511.761719 426.441406 514.472656 427.347656 C 517.183594 428.25 520.796875 427.800781 526.667969 425.988281 C 532.542969 424.632812 537.058594 422.371094 541.125 419.207031 C 545.191406 416.492188 547.902344 413.324219 549.710938 410.613281 C 551.515625 407.898438 552.421875 405.636719 552.421875 404.730469 C 552.421875 403.828125 552.871094 402.921875 553.777344 402.921875 C 554.679688 402.472656 555.582031 401.113281 556.9375 398.851562 C 558.292969 396.589844 558.746094 392.066406 559.195312 385.734375 C 559.648438 379.402344 559.195312 373.976562 558.292969 369.453125 C 557.390625 364.929688 556.488281 362.667969 555.582031 362.214844 C 555.132812 361.765625 554.226562 359.957031 552.871094 357.242188 C 551.515625 354.074219 550.160156 352.265625 548.804688 351.363281 C 547.449219 350.457031 545.191406 348.648438 542.933594 345.480469 C 540.222656 342.316406 536.15625 340.054688 530.734375 338.246094 C 524.863281 336.4375 522.152344 335.078125 521.699219 334.625 C 521.246094 334.175781 519.441406 333.722656 516.730469 333.722656 C 514.019531 333.722656 511.761719 334.175781 510.855469 334.625 Z M 375.324219 336.4375 C 374.871094 336.886719 372.613281 337.339844 368.546875 337.339844 C 364.933594 337.792969 361.316406 338.246094 358.15625 339.601562 C 355.445312 340.957031 353.1875 342.316406 352.28125 343.21875 C 351.378906 344.125 350.476562 345.03125 350.023438 345.03125 C 349.121094 345.03125 347.765625 345.933594 345.957031 347.289062 C 344.152344 348.648438 342.34375 350.457031 341.441406 352.265625 C 340.535156 354.074219 339.179688 355.882812 337.375 357.242188 C 335.566406 359.050781 334.210938 362.214844 332.855469 367.644531 C 331.5 373.070312 330.597656 376.238281 330.144531 377.140625 C 329.695312 378.046875 329.242188 379.402344 329.242188 381.214844 C 329.242188 383.023438 329.695312 383.925781 330.144531 384.378906 C 330.597656 384.832031 331.5 387.546875 331.953125 392.972656 C 332.40625 398.398438 335.113281 403.828125 338.277344 408.804688 C 341.890625 414.230469 344.601562 417.398438 346.863281 418.300781 C 349.121094 419.207031 350.476562 420.5625 351.378906 421.917969 C 352.28125 423.277344 354.089844 424.179688 356.800781 425.539062 C 359.511719 426.894531 364.933594 427.800781 372.160156 428.703125 C 379.390625 429.15625 385.714844 429.15625 390.683594 427.800781 C 395.652344 426.441406 400.621094 424.179688 404.6875 421.917969 C 408.753906 419.207031 412.820312 414.683594 416.433594 407.898438 C 420.050781 401.113281 422.308594 394.78125 423.210938 388.449219 C 423.664062 382.117188 423.210938 375.785156 421.40625 369 C 419.144531 362.667969 416.433594 357.242188 413.273438 353.171875 C 409.660156 349.101562 407.851562 347.289062 406.949219 347.289062 C 406.496094 347.289062 405.59375 346.839844 405.140625 345.480469 C 404.6875 344.125 402.882812 343.21875 400.625 341.863281 C 398.363281 340.507812 395.652344 339.601562 392.941406 339.148438 C 389.78125 338.699219 387.972656 337.792969 386.617188 337.339844 C 385.261719 336.886719 383.457031 335.984375 380.746094 335.984375 C 377.582031 335.53125 375.773438 335.984375 375.324219 336.4375 Z M 523.957031 339.601562 C 526.21875 339.601562 528.476562 340.054688 530.734375 340.957031 C 532.992188 341.863281 535.703125 343.671875 538.414062 346.839844 C 541.125 349.550781 542.933594 351.8125 543.386719 353.625 C 543.386719 354.980469 543.386719 356.335938 542.480469 357.242188 C 541.578125 358.144531 540.675781 358.597656 539.769531 358.597656 C 538.867188 358.597656 537.058594 357.242188 533.898438 354.074219 C 530.734375 350.910156 527.574219 349.101562 524.863281 348.648438 C 522.152344 347.742188 520.34375 346.839844 519.441406 345.03125 C 518.988281 343.21875 518.988281 341.863281 519.890625 340.957031 C 520.34375 340.507812 521.699219 339.601562 523.957031 339.601562 Z M 236.175781 340.957031 C 235.273438 341.410156 233.464844 341.863281 230.304688 341.863281 C 227.140625 341.863281 224.882812 342.316406 224.429688 343.21875 C 223.527344 344.125 222.171875 345.03125 219.910156 345.480469 C 217.652344 345.933594 216.296875 346.839844 214.941406 348.195312 C 213.585938 349.550781 212.230469 350.003906 211.328125 350.003906 C 210.425781 350.003906 208.617188 351.363281 205.90625 354.074219 C 203.195312 356.789062 200.9375 359.503906 199.128906 361.765625 C 197.324219 364.476562 195.515625 367.644531 194.613281 372.167969 C 193.257812 376.691406 192.351562 379.402344 192.351562 381.214844 C 192.351562 382.570312 192.351562 383.472656 191.449219 383.925781 C 191 384.378906 191 385.285156 191 387.546875 C 191 389.808594 191 390.710938 191.449219 391.164062 C 191.902344 391.617188 191.902344 392.066406 191.902344 393.425781 C 191.449219 394.78125 191.902344 396.589844 193.257812 399.304688 C 194.613281 402.019531 195.0625 403.828125 195.0625 405.636719 C 195.0625 406.992188 197.324219 411.066406 201.390625 416.945312 C 205.453125 422.824219 210.425781 427.347656 215.847656 430.0625 C 221.265625 432.773438 224.429688 434.582031 226.6875 435.035156 C 228.496094 435.488281 230.753906 435.488281 233.011719 435.035156 C 235.273438 434.582031 237.53125 434.582031 240.242188 435.488281 C 242.5 436.394531 245.664062 435.941406 249.277344 435.035156 C 252.890625 434.132812 255.152344 433.226562 255.601562 432.773438 C 256.054688 431.871094 256.957031 431.871094 257.410156 431.871094 C 257.859375 431.871094 260.570312 430.511719 265.089844 427.800781 C 269.609375 424.632812 273.222656 421.46875 275.480469 417.398438 C 277.289062 413.324219 279.09375 410.613281 280.902344 408.804688 C 282.257812 406.992188 283.613281 405.183594 284.515625 402.921875 C 284.96875 400.660156 285.417969 397.496094 284.96875 393.878906 C 284.515625 389.808594 284.96875 387.546875 285.417969 386.1875 C 285.871094 384.832031 285.417969 382.117188 284.0625 377.140625 C 282.710938 372.167969 281.355469 368.550781 280 366.738281 C 278.644531 364.929688 277.738281 363.121094 277.738281 361.765625 C 277.738281 360.40625 276.835938 359.503906 275.933594 359.503906 C 275.027344 359.503906 273.222656 357.695312 270.058594 354.074219 C 267.347656 350.457031 264.1875 348.195312 260.570312 346.386719 C 256.957031 345.03125 254.246094 343.671875 251.535156 343.21875 C 249.277344 342.769531 247.46875 342.316406 247.019531 341.410156 C 246.113281 340.957031 244.308594 340.507812 241.597656 340.507812 C 238.886719 340.507812 237.078125 340.507812 236.175781 340.957031 Z M 390.683594 342.316406 C 392.039062 342.769531 392.941406 342.769531 393.394531 343.671875 C 393.847656 344.125 394.75 345.03125 397.007812 345.480469 C 398.816406 345.933594 401.074219 347.289062 402.882812 349.101562 C 404.6875 350.910156 406.042969 352.71875 406.496094 354.527344 C 406.949219 356.335938 406.949219 357.695312 406.496094 358.597656 C 405.59375 359.503906 405.140625 359.957031 404.238281 360.40625 C 403.332031 360.859375 402.429688 360.859375 401.527344 360.40625 C 400.625 359.957031 399.269531 358.597656 397.460938 356.789062 C 395.652344 354.527344 393.847656 353.171875 392.941406 352.265625 C 391.585938 351.363281 390.230469 350.910156 389.328125 350.910156 C 388.425781 350.910156 387.070312 350.457031 386.167969 349.550781 C 385.261719 348.648438 384.8125 347.289062 385.261719 345.933594 C 385.714844 344.578125 386.167969 343.21875 387.070312 342.316406 C 387.972656 342.316406 389.328125 341.863281 390.683594 342.316406 Z M 253.796875 349.101562 C 257.410156 350.457031 259.214844 351.363281 259.667969 352.265625 C 260.121094 352.71875 261.023438 353.625 263.28125 354.527344 C 265.542969 355.433594 267.347656 357.242188 269.15625 359.503906 C 270.960938 362.214844 271.867188 364.027344 271.414062 365.835938 C 270.960938 367.191406 270.511719 368.546875 270.058594 369 C 269.609375 369.453125 268.253906 369.453125 266.445312 369.453125 C 264.636719 369.453125 263.28125 368.097656 261.476562 365.835938 C 260.121094 363.574219 256.957031 361.3125 252.890625 359.503906 C 248.824219 357.695312 246.113281 355.882812 245.210938 355.433594 C 244.308594 354.980469 244.308594 353.625 244.308594 351.8125 C 244.308594 350.457031 245.210938 349.101562 246.113281 348.195312 C 247.46875 347.742188 250.179688 347.742188 253.796875 349.101562 Z M 545.191406 358.597656 C 546.546875 358.597656 547.449219 359.050781 548.355469 359.503906 C 549.257812 360.40625 549.710938 361.3125 548.804688 363.121094 C 548.355469 364.929688 547.449219 365.835938 545.644531 366.289062 C 544.289062 366.738281 542.933594 366.289062 542.03125 365.835938 C 541.578125 364.929688 541.125 364.027344 541.125 362.667969 C 541.125 361.3125 541.578125 360.40625 542.03125 359.503906 C 543.386719 359.050781 544.289062 358.597656 545.191406 358.597656 Z M 410.109375 364.027344 C 411.464844 364.476562 411.917969 365.835938 411.917969 367.644531 C 411.917969 369 411.464844 370.359375 410.5625 371.261719 C 409.660156 371.714844 408.753906 372.167969 406.949219 371.714844 C 405.59375 371.261719 404.6875 370.808594 404.238281 369.90625 C 403.785156 369 403.332031 368.097656 403.332031 367.191406 C 403.332031 366.289062 404.238281 365.382812 405.59375 364.476562 C 407.398438 363.121094 408.753906 363.121094 410.109375 364.027344 Z M 271.414062 373.070312 C 272.769531 373.070312 273.671875 373.523438 274.578125 373.976562 C 275.027344 374.429688 275.480469 375.785156 275.027344 377.59375 C 274.578125 379.402344 273.671875 380.308594 271.867188 380.761719 C 270.511719 380.761719 269.15625 380.761719 268.253906 379.855469 C 267.800781 379.402344 267.347656 378.046875 267.347656 376.238281 C 267.347656 374.882812 267.800781 373.523438 268.253906 373.070312 C 268.703125 373.070312 270.058594 373.070312 271.414062 373.070312 Z M 623.800781 499.714844 C 622.445312 500.167969 621.996094 501.523438 621.996094 503.332031 C 621.542969 505.140625 622.445312 506.949219 624.253906 508.308594 C 626.058594 509.664062 627.414062 511.023438 628.769531 511.023438 C 630.125 511.472656 631.03125 511.023438 632.386719 510.117188 C 633.742188 509.210938 634.191406 507.855469 633.742188 505.59375 C 633.289062 503.332031 632.835938 501.976562 631.933594 500.617188 C 631.03125 499.261719 629.675781 498.808594 628.320312 498.808594 C 626.511719 498.808594 625.15625 498.808594 623.800781 499.714844 Z M 611.601562 512.378906 C 611.152344 513.28125 610.699219 514.640625 610.699219 516.902344 C 610.699219 519.164062 611.601562 520.972656 612.957031 521.875 C 614.3125 523.234375 616.574219 523.234375 618.378906 523.234375 C 620.1875 522.78125 621.542969 521.425781 621.542969 519.164062 C 621.542969 516.902344 621.089844 515.09375 619.734375 513.734375 C 618.378906 512.378906 617.023438 511.925781 615.21875 511.925781 C 613.863281 511.472656 612.507812 511.925781 611.601562 512.378906 Z M 602.117188 530.019531 C 599.40625 533.636719 597.144531 536.351562 594.886719 537.707031 C 592.628906 539.0625 591.273438 540.421875 589.917969 541.777344 C 588.5625 543.132812 588.109375 544.039062 588.109375 544.945312 C 588.109375 545.847656 586.304688 547.207031 583.140625 549.464844 C 579.980469 551.726562 578.171875 553.539062 576.816406 554.894531 C 575.914062 556.25 569.585938 560.773438 557.839844 568.914062 C 546.09375 577.054688 537.511719 582.03125 532.089844 583.839844 C 526.667969 585.648438 523.054688 587.460938 521.699219 588.816406 C 519.890625 590.171875 518.988281 591.53125 518.988281 593.339844 C 518.535156 594.695312 518.988281 596.054688 519.890625 596.957031 C 520.796875 597.863281 522.152344 598.316406 523.507812 598.316406 C 524.863281 598.316406 526.21875 597.863281 526.21875 597.410156 C 526.21875 596.957031 528.476562 596.054688 532.089844 595.148438 C 536.15625 593.792969 538.867188 592.886719 541.125 591.53125 C 543.386719 590.171875 544.738281 589.269531 545.644531 587.910156 C 546.546875 586.554688 547.449219 586.101562 548.355469 586.101562 C 549.257812 586.101562 550.613281 585.199219 552.421875 583.839844 C 554.226562 582.03125 556.488281 581.128906 558.746094 580.222656 C 561.003906 579.316406 562.8125 578.414062 563.714844 577.058594 C 564.617188 575.699219 565.972656 575.246094 567.328125 574.796875 C 569.136719 574.34375 570.039062 573.4375 570.039062 572.984375 C 570.039062 572.082031 572.296875 570.273438 576.363281 568.011719 C 580.429688 565.296875 582.6875 563.941406 583.59375 562.582031 C 584.042969 561.226562 585.398438 560.320312 587.207031 559.417969 C 589.015625 558.511719 591.726562 556.25 595.792969 552.179688 C 599.40625 548.109375 601.664062 545.847656 601.664062 545.394531 C 601.664062 544.492188 603.472656 542.683594 606.632812 539.0625 C 609.796875 535.445312 612.054688 533.183594 612.507812 532.28125 C 612.957031 530.921875 612.957031 529.566406 612.957031 528.207031 C 612.507812 526.398438 611.601562 525.496094 609.34375 524.589844 C 607.085938 524.589844 604.828125 526.398438 602.117188 530.019531 Z M 602.117188 530.019531 " fill-opacity="1" fill-rule="evenodd"/></g></svg>