<svg xmlns="http://www.w3.org/2000/svg" xmlns:xlink="http://www.w3.org/1999/xlink" width="500" zoomAndPan="magnify" viewBox="0 0 375 374.999991" height="500" preserveAspectRatio="xMidYMid meet" version="1.0"><defs><g/><clipPath id="0627bd3a2a"><path d="M 156.5 204.371094 L 171.699219 204.371094 L 171.699219 214.898438 L 156.5 214.898438 Z M 156.5 204.371094 " clip-rule="nonzero"/></clipPath><clipPath id="46117a37f4"><path d="M 165.300781 208.5 L 199.226562 208.5 L 199.226562 241.300781 L 165.300781 241.300781 Z M 165.300781 208.5 " clip-rule="nonzero"/></clipPath></defs><path fill="#e6e7e8" d="M 172.0625 198.476562 C 171.835938 201.105469 170.109375 202.757812 167.855469 202.757812 C 165.828125 202.757812 163.648438 201.332031 163.648438 197.726562 L 163.648438 157.082031 L 172.136719 157.082031 L 172.136719 155.507812 L 163.648438 155.507812 L 163.648438 135.675781 L 154.710938 135.675781 L 154.710938 155.507812 L 149.527344 155.507812 L 149.527344 157.082031 L 154.710938 157.082031 L 154.710938 192.464844 C 154.710938 195.699219 155.011719 198.402344 155.988281 200.429688 C 157.714844 203.960938 160.796875 205.539062 165.527344 205.539062 C 170.261719 205.539062 173.492188 202.457031 173.714844 198.476562 Z M 172.0625 198.476562 " fill-opacity="1" fill-rule="nonzero"/><path fill="#e6e7e8" d="M 231.480469 157.082031 L 231.480469 155.507812 L 218.933594 155.507812 L 218.933594 157.082031 L 224.042969 157.082031 L 206.914062 192.765625 L 190.835938 157.082031 L 195.871094 157.082031 L 195.871094 155.507812 L 175.964844 155.507812 L 175.964844 157.082031 L 180.921875 157.082031 L 202.859375 205.3125 L 226.070312 157.082031 Z M 231.480469 157.082031 " fill-opacity="1" fill-rule="nonzero"/><g clip-path="url(#0627bd3a2a)"><path fill="#e6e7e8" d="M 164.484375 214.722656 C 161.875 214.632812 159.144531 212.414062 157.660156 209.988281 C 156.472656 208.035156 156.324219 205.992188 157.242188 204.21875 C 159.023438 200.789062 162.675781 202.53125 164.839844 203.570312 C 165.257812 203.777344 165.640625 203.957031 165.992188 204.105469 C 167.003906 204.523438 168.632812 204.523438 169.289062 203.898438 C 169.882812 203.339844 169.644531 202.214844 169.320312 201.386719 C 169.113281 200.882812 169.382812 200.320312 169.882812 200.117188 C 170.382812 199.910156 170.945312 200.179688 171.152344 200.675781 C 172.101562 203.191406 171.421875 204.585938 170.648438 205.324219 C 169.195312 206.71875 166.585938 206.539062 165.21875 205.945312 C 164.835938 205.765625 164.421875 205.59375 163.972656 205.386719 C 161.097656 203.96875 159.761719 203.640625 159.019531 205.117188 C 158.246094 206.601562 158.78125 208.019531 159.34375 208.964844 C 160.472656 210.800781 162.90625 212.21875 164.835938 212.367188 C 164.953125 212.367188 165.160156 212.515625 165.132812 212.691406 L 164.953125 214.347656 C 164.933594 214.34375 164.8125 214.722656 164.484375 214.722656 Z M 164.484375 214.722656 " fill-opacity="1" fill-rule="nonzero"/></g><g clip-path="url(#46117a37f4)"><path fill="#e6e7e8" d="M 172.40625 212.089844 C 172.851562 212.207031 173.265625 212.445312 173.59375 212.769531 C 174.746094 213.894531 174.777344 215.699219 173.625 216.820312 C 172.46875 217.945312 170.597656 217.972656 169.4375 216.851562 C 168.28125 215.726562 168.25 213.921875 169.40625 212.800781 C 169.644531 212.5625 169.910156 212.414062 170.179688 212.238281 C 170.296875 212.179688 170.328125 212.058594 170.328125 211.972656 C 170.476562 211.027344 170.390625 209.988281 170.359375 209.546875 C 170.359375 209.425781 170.179688 209.367188 170.125 209.367188 C 169.230469 209.546875 168.3125 209.75 167.335938 210.019531 C 167.007812 210.105469 166.796875 210.285156 166.742188 210.609375 C 165.320312 216.765625 165.675781 220.402344 165.824219 221.4375 C 165.855469 221.640625 165.941406 221.789062 166.0625 221.910156 C 167.398438 223.273438 176.179688 232.117188 185.789062 240.757812 C 185.992188 240.9375 186.46875 241.289062 186.855469 240.960938 C 191.15625 237.621094 195.488281 233.683594 198.957031 229.097656 C 199.226562 228.742188 198.988281 228.207031 198.777344 228.03125 C 189.878906 218.867188 180.589844 210.609375 179.019531 209.222656 C 178.871094 209.070312 178.695312 209.015625 178.515625 208.984375 C 177.773438 208.867188 175.488281 208.628906 172.257812 209.015625 C 172.195312 209.015625 172.050781 209.132812 172.050781 209.28125 C 172.019531 209.757812 171.988281 210.851562 172.199219 211.796875 C 172.226562 211.914062 172.289062 212.058594 172.40625 212.089844 Z M 172.40625 212.089844 " fill-opacity="1" fill-rule="nonzero"/></g><g fill="#ffffff" fill-opacity="1"><g transform="translate(196.782266, 267.034552)"><g><path d="M 3.765625 0.09375 C 3.128906 0.09375 2.507812 -0.00390625 1.90625 -0.203125 C 1.3125 -0.398438 0.84375 -0.65625 0.5 -0.96875 L 0.953125 -1.921875 C 1.273438 -1.628906 1.691406 -1.390625 2.203125 -1.203125 C 2.710938 -1.023438 3.234375 -0.9375 3.765625 -0.9375 C 4.472656 -0.9375 5 -1.054688 5.34375 -1.296875 C 5.695312 -1.535156 5.875 -1.851562 5.875 -2.25 C 5.875 -2.550781 5.78125 -2.789062 5.59375 -2.96875 C 5.40625 -3.15625 5.171875 -3.296875 4.890625 -3.390625 C 4.609375 -3.484375 4.210938 -3.59375 3.703125 -3.71875 C 3.054688 -3.875 2.535156 -4.03125 2.140625 -4.1875 C 1.742188 -4.34375 1.40625 -4.578125 1.125 -4.890625 C 0.84375 -5.210938 0.703125 -5.648438 0.703125 -6.203125 C 0.703125 -6.648438 0.820312 -7.054688 1.0625 -7.421875 C 1.300781 -7.796875 1.664062 -8.09375 2.15625 -8.3125 C 2.644531 -8.53125 3.253906 -8.640625 3.984375 -8.640625 C 4.484375 -8.640625 4.976562 -8.570312 5.46875 -8.4375 C 5.957031 -8.3125 6.375 -8.128906 6.71875 -7.890625 L 6.328125 -6.90625 C 5.960938 -7.132812 5.578125 -7.304688 5.171875 -7.421875 C 4.765625 -7.546875 4.367188 -7.609375 3.984375 -7.609375 C 3.285156 -7.609375 2.765625 -7.476562 2.421875 -7.21875 C 2.078125 -6.96875 1.90625 -6.644531 1.90625 -6.25 C 1.90625 -5.957031 2 -5.71875 2.1875 -5.53125 C 2.382812 -5.351562 2.628906 -5.210938 2.921875 -5.109375 C 3.210938 -5.003906 3.601562 -4.894531 4.09375 -4.78125 C 4.738281 -4.625 5.253906 -4.46875 5.640625 -4.3125 C 6.035156 -4.164062 6.375 -3.929688 6.65625 -3.609375 C 6.9375 -3.296875 7.078125 -2.867188 7.078125 -2.328125 C 7.078125 -1.878906 6.953125 -1.46875 6.703125 -1.09375 C 6.460938 -0.726562 6.09375 -0.4375 5.59375 -0.21875 C 5.101562 -0.0078125 4.492188 0.09375 3.765625 0.09375 Z M 3.765625 0.09375 "/></g></g></g><g fill="#ffffff" fill-opacity="1"><g transform="translate(204.35798, 267.034552)"><g><path d="M 7.140625 -6.46875 L 7.140625 0 L 6.03125 0 L 6.03125 -0.96875 C 5.789062 -0.632812 5.476562 -0.375 5.09375 -0.1875 C 4.707031 -0.0078125 4.285156 0.078125 3.828125 0.078125 C 2.960938 0.078125 2.28125 -0.160156 1.78125 -0.640625 C 1.289062 -1.117188 1.046875 -1.820312 1.046875 -2.75 L 1.046875 -6.46875 L 2.21875 -6.46875 L 2.21875 -2.875 C 2.21875 -2.25 2.367188 -1.773438 2.671875 -1.453125 C 2.972656 -1.128906 3.40625 -0.96875 3.96875 -0.96875 C 4.582031 -0.96875 5.066406 -1.15625 5.421875 -1.53125 C 5.785156 -1.90625 5.96875 -2.4375 5.96875 -3.125 L 5.96875 -6.46875 Z M 7.140625 -6.46875 "/></g></g></g><g fill="#ffffff" fill-opacity="1"><g transform="translate(212.616848, 267.034552)"><g><path d="M 4.546875 -6.53125 C 5.171875 -6.53125 5.726562 -6.390625 6.21875 -6.109375 C 6.71875 -5.835938 7.109375 -5.453125 7.390625 -4.953125 C 7.671875 -4.453125 7.8125 -3.878906 7.8125 -3.234375 C 7.8125 -2.578125 7.671875 -2 7.390625 -1.5 C 7.109375 -1 6.71875 -0.609375 6.21875 -0.328125 C 5.726562 -0.0546875 5.171875 0.078125 4.546875 0.078125 C 4.078125 0.078125 3.648438 -0.0078125 3.265625 -0.1875 C 2.878906 -0.375 2.550781 -0.632812 2.28125 -0.96875 L 2.28125 2.375 L 1.109375 2.375 L 1.109375 -6.46875 L 2.234375 -6.46875 L 2.234375 -5.4375 C 2.492188 -5.800781 2.820312 -6.070312 3.21875 -6.25 C 3.613281 -6.4375 4.054688 -6.53125 4.546875 -6.53125 Z M 4.4375 -0.953125 C 4.851562 -0.953125 5.222656 -1.046875 5.546875 -1.234375 C 5.878906 -1.429688 6.140625 -1.703125 6.328125 -2.046875 C 6.523438 -2.390625 6.625 -2.785156 6.625 -3.234375 C 6.625 -3.679688 6.523438 -4.078125 6.328125 -4.421875 C 6.140625 -4.765625 5.878906 -5.03125 5.546875 -5.21875 C 5.222656 -5.40625 4.851562 -5.5 4.4375 -5.5 C 4.03125 -5.5 3.660156 -5.40625 3.328125 -5.21875 C 3.003906 -5.03125 2.742188 -4.765625 2.546875 -4.421875 C 2.359375 -4.078125 2.265625 -3.679688 2.265625 -3.234375 C 2.265625 -2.785156 2.359375 -2.390625 2.546875 -2.046875 C 2.734375 -1.703125 2.992188 -1.429688 3.328125 -1.234375 C 3.660156 -1.046875 4.03125 -0.953125 4.4375 -0.953125 Z M 4.4375 -0.953125 "/></g></g></g><g fill="#ffffff" fill-opacity="1"><g transform="translate(220.936714, 267.034552)"><g><path d="M 4.546875 -6.53125 C 5.171875 -6.53125 5.726562 -6.390625 6.21875 -6.109375 C 6.71875 -5.835938 7.109375 -5.453125 7.390625 -4.953125 C 7.671875 -4.453125 7.8125 -3.878906 7.8125 -3.234375 C 7.8125 -2.578125 7.671875 -2 7.390625 -1.5 C 7.109375 -1 6.71875 -0.609375 6.21875 -0.328125 C 5.726562 -0.0546875 5.171875 0.078125 4.546875 0.078125 C 4.078125 0.078125 3.648438 -0.0078125 3.265625 -0.1875 C 2.878906 -0.375 2.550781 -0.632812 2.28125 -0.96875 L 2.28125 2.375 L 1.109375 2.375 L 1.109375 -6.46875 L 2.234375 -6.46875 L 2.234375 -5.4375 C 2.492188 -5.800781 2.820312 -6.070312 3.21875 -6.25 C 3.613281 -6.4375 4.054688 -6.53125 4.546875 -6.53125 Z M 4.4375 -0.953125 C 4.851562 -0.953125 5.222656 -1.046875 5.546875 -1.234375 C 5.878906 -1.429688 6.140625 -1.703125 6.328125 -2.046875 C 6.523438 -2.390625 6.625 -2.785156 6.625 -3.234375 C 6.625 -3.679688 6.523438 -4.078125 6.328125 -4.421875 C 6.140625 -4.765625 5.878906 -5.03125 5.546875 -5.21875 C 5.222656 -5.40625 4.851562 -5.5 4.4375 -5.5 C 4.03125 -5.5 3.660156 -5.40625 3.328125 -5.21875 C 3.003906 -5.03125 2.742188 -4.765625 2.546875 -4.421875 C 2.359375 -4.078125 2.265625 -3.679688 2.265625 -3.234375 C 2.265625 -2.785156 2.359375 -2.390625 2.546875 -2.046875 C 2.734375 -1.703125 2.992188 -1.429688 3.328125 -1.234375 C 3.660156 -1.046875 4.03125 -0.953125 4.4375 -0.953125 Z M 4.4375 -0.953125 "/></g></g></g><g fill="#ffffff" fill-opacity="1"><g transform="translate(229.25658, 267.034552)"><g><path d="M 3.875 0.078125 C 3.238281 0.078125 2.660156 -0.0625 2.140625 -0.34375 C 1.628906 -0.632812 1.226562 -1.03125 0.9375 -1.53125 C 0.65625 -2.03125 0.515625 -2.597656 0.515625 -3.234375 C 0.515625 -3.867188 0.65625 -4.4375 0.9375 -4.9375 C 1.226562 -5.4375 1.628906 -5.828125 2.140625 -6.109375 C 2.660156 -6.390625 3.238281 -6.53125 3.875 -6.53125 C 4.519531 -6.53125 5.097656 -6.390625 5.609375 -6.109375 C 6.117188 -5.828125 6.515625 -5.4375 6.796875 -4.9375 C 7.085938 -4.4375 7.234375 -3.867188 7.234375 -3.234375 C 7.234375 -2.597656 7.085938 -2.03125 6.796875 -1.53125 C 6.515625 -1.03125 6.117188 -0.632812 5.609375 -0.34375 C 5.097656 -0.0625 4.519531 0.078125 3.875 0.078125 Z M 3.875 -0.953125 C 4.289062 -0.953125 4.660156 -1.046875 4.984375 -1.234375 C 5.316406 -1.429688 5.578125 -1.703125 5.765625 -2.046875 C 5.953125 -2.390625 6.046875 -2.785156 6.046875 -3.234375 C 6.046875 -3.679688 5.953125 -4.078125 5.765625 -4.421875 C 5.578125 -4.765625 5.316406 -5.03125 4.984375 -5.21875 C 4.660156 -5.40625 4.289062 -5.5 3.875 -5.5 C 3.46875 -5.5 3.097656 -5.40625 2.765625 -5.21875 C 2.429688 -5.03125 2.171875 -4.765625 1.984375 -4.421875 C 1.796875 -4.078125 1.703125 -3.679688 1.703125 -3.234375 C 1.703125 -2.785156 1.796875 -2.390625 1.984375 -2.046875 C 2.171875 -1.703125 2.429688 -1.429688 2.765625 -1.234375 C 3.097656 -1.046875 3.46875 -0.953125 3.875 -0.953125 Z M 3.875 -0.953125 "/></g></g></g><g fill="#ffffff" fill-opacity="1"><g transform="translate(237.003085, 267.034552)"><g><path d="M 2.234375 -5.375 C 2.429688 -5.75 2.726562 -6.035156 3.125 -6.234375 C 3.53125 -6.429688 4.019531 -6.53125 4.59375 -6.53125 L 4.59375 -5.390625 C 4.519531 -5.398438 4.425781 -5.40625 4.3125 -5.40625 C 3.6875 -5.40625 3.191406 -5.210938 2.828125 -4.828125 C 2.460938 -4.453125 2.28125 -3.914062 2.28125 -3.21875 L 2.28125 0 L 1.109375 0 L 1.109375 -6.46875 L 2.234375 -6.46875 Z M 2.234375 -5.375 "/></g></g></g><g fill="#ffffff" fill-opacity="1"><g transform="translate(242.004771, 267.034552)"><g><path d="M 4.75 -0.375 C 4.570312 -0.226562 4.359375 -0.113281 4.109375 -0.03125 C 3.859375 0.0390625 3.597656 0.078125 3.328125 0.078125 C 2.679688 0.078125 2.175781 -0.09375 1.8125 -0.4375 C 1.457031 -0.789062 1.28125 -1.296875 1.28125 -1.953125 L 1.28125 -5.5 L 0.1875 -5.5 L 0.1875 -6.46875 L 1.28125 -6.46875 L 1.28125 -7.890625 L 2.453125 -7.890625 L 2.453125 -6.46875 L 4.3125 -6.46875 L 4.3125 -5.5 L 2.453125 -5.5 L 2.453125 -2 C 2.453125 -1.65625 2.539062 -1.390625 2.71875 -1.203125 C 2.894531 -1.015625 3.144531 -0.921875 3.46875 -0.921875 C 3.820312 -0.921875 4.125 -1.019531 4.375 -1.21875 Z M 4.75 -0.375 "/></g></g></g><g fill="#ffffff" fill-opacity="1"><g transform="translate(247.055254, 267.034552)"><g/></g></g><g fill="#ffffff" fill-opacity="1"><g transform="translate(250.336847, 267.034552)"><g><path d="M 5.09375 0.09375 C 4.238281 0.09375 3.46875 -0.09375 2.78125 -0.46875 C 2.09375 -0.84375 1.550781 -1.363281 1.15625 -2.03125 C 0.769531 -2.695312 0.578125 -3.441406 0.578125 -4.265625 C 0.578125 -5.097656 0.769531 -5.84375 1.15625 -6.5 C 1.550781 -7.164062 2.09375 -7.6875 2.78125 -8.0625 C 3.476562 -8.445312 4.253906 -8.640625 5.109375 -8.640625 C 5.773438 -8.640625 6.382812 -8.523438 6.9375 -8.296875 C 7.5 -8.078125 7.972656 -7.75 8.359375 -7.3125 L 7.5625 -6.546875 C 6.925781 -7.210938 6.125 -7.546875 5.15625 -7.546875 C 4.519531 -7.546875 3.945312 -7.40625 3.4375 -7.125 C 2.925781 -6.84375 2.523438 -6.453125 2.234375 -5.953125 C 1.953125 -5.453125 1.8125 -4.890625 1.8125 -4.265625 C 1.8125 -3.648438 1.953125 -3.09375 2.234375 -2.59375 C 2.523438 -2.09375 2.925781 -1.695312 3.4375 -1.40625 C 3.945312 -1.125 4.519531 -0.984375 5.15625 -0.984375 C 6.113281 -0.984375 6.914062 -1.328125 7.5625 -2.015625 L 8.359375 -1.25 C 7.972656 -0.800781 7.5 -0.460938 6.9375 -0.234375 C 6.382812 -0.015625 5.769531 0.09375 5.09375 0.09375 Z M 5.09375 0.09375 "/></g></g></g><g fill="#ffffff" fill-opacity="1"><g transform="translate(259.156888, 267.034552)"><g><path d="M 4.5625 -6.53125 C 5.382812 -6.53125 6.035156 -6.289062 6.515625 -5.8125 C 7.003906 -5.332031 7.25 -4.632812 7.25 -3.71875 L 7.25 0 L 6.078125 0 L 6.078125 -3.59375 C 6.078125 -4.21875 5.925781 -4.6875 5.625 -5 C 5.320312 -5.320312 4.890625 -5.484375 4.328125 -5.484375 C 3.691406 -5.484375 3.191406 -5.296875 2.828125 -4.921875 C 2.460938 -4.554688 2.28125 -4.023438 2.28125 -3.328125 L 2.28125 0 L 1.109375 0 L 1.109375 -9.0625 L 2.28125 -9.0625 L 2.28125 -5.546875 C 2.519531 -5.859375 2.835938 -6.097656 3.234375 -6.265625 C 3.628906 -6.441406 4.070312 -6.53125 4.5625 -6.53125 Z M 4.5625 -6.53125 "/></g></g></g><g fill="#ffffff" fill-opacity="1"><g transform="translate(267.464554, 267.034552)"><g><path d="M 3.46875 -6.53125 C 4.363281 -6.53125 5.046875 -6.304688 5.515625 -5.859375 C 5.992188 -5.421875 6.234375 -4.769531 6.234375 -3.90625 L 6.234375 0 L 5.125 0 L 5.125 -0.859375 C 4.925781 -0.554688 4.644531 -0.320312 4.28125 -0.15625 C 3.925781 0 3.5 0.078125 3 0.078125 C 2.28125 0.078125 1.703125 -0.09375 1.265625 -0.4375 C 0.828125 -0.789062 0.609375 -1.253906 0.609375 -1.828125 C 0.609375 -2.398438 0.816406 -2.859375 1.234375 -3.203125 C 1.648438 -3.546875 2.304688 -3.71875 3.203125 -3.71875 L 5.0625 -3.71875 L 5.0625 -3.953125 C 5.0625 -4.453125 4.914062 -4.835938 4.625 -5.109375 C 4.332031 -5.378906 3.898438 -5.515625 3.328125 -5.515625 C 2.953125 -5.515625 2.578125 -5.453125 2.203125 -5.328125 C 1.835938 -5.203125 1.53125 -5.03125 1.28125 -4.8125 L 0.796875 -5.703125 C 1.128906 -5.972656 1.523438 -6.175781 1.984375 -6.3125 C 2.453125 -6.457031 2.945312 -6.53125 3.46875 -6.53125 Z M 3.203125 -0.828125 C 3.648438 -0.828125 4.035156 -0.925781 4.359375 -1.125 C 4.679688 -1.320312 4.914062 -1.609375 5.0625 -1.984375 L 5.0625 -2.875 L 3.265625 -2.875 C 2.265625 -2.875 1.765625 -2.539062 1.765625 -1.875 C 1.765625 -1.550781 1.890625 -1.296875 2.140625 -1.109375 C 2.398438 -0.921875 2.753906 -0.828125 3.203125 -0.828125 Z M 3.203125 -0.828125 "/></g></g></g><g fill="#ffffff" fill-opacity="1"><g transform="translate(274.759693, 267.034552)"><g><path d="M 4.75 -0.375 C 4.570312 -0.226562 4.359375 -0.113281 4.109375 -0.03125 C 3.859375 0.0390625 3.597656 0.078125 3.328125 0.078125 C 2.679688 0.078125 2.175781 -0.09375 1.8125 -0.4375 C 1.457031 -0.789062 1.28125 -1.296875 1.28125 -1.953125 L 1.28125 -5.5 L 0.1875 -5.5 L 0.1875 -6.46875 L 1.28125 -6.46875 L 1.28125 -7.890625 L 2.453125 -7.890625 L 2.453125 -6.46875 L 4.3125 -6.46875 L 4.3125 -5.5 L 2.453125 -5.5 L 2.453125 -2 C 2.453125 -1.65625 2.539062 -1.390625 2.71875 -1.203125 C 2.894531 -1.015625 3.144531 -0.921875 3.46875 -0.921875 C 3.820312 -0.921875 4.125 -1.019531 4.375 -1.21875 Z M 4.75 -0.375 "/></g></g></g></svg>