<svg xmlns="http://www.w3.org/2000/svg" xmlns:xlink="http://www.w3.org/1999/xlink" width="500" zoomAndPan="magnify" viewBox="0 0 375 374.999991" height="500" preserveAspectRatio="xMidYMid meet" version="1.0"><defs><clipPath id="f2b68ccdbe"><path d="M 275 26.015625 L 285 26.015625 L 285 37 L 275 37 Z M 275 26.015625 " clip-rule="nonzero"/></clipPath><clipPath id="91291fe156"><path d="M 329 26.015625 L 348 26.015625 L 348 47 L 329 47 Z M 329 26.015625 " clip-rule="nonzero"/></clipPath><clipPath id="a613d61774"><path d="M 122 26.015625 L 178 26.015625 L 178 90 L 122 90 Z M 122 26.015625 " clip-rule="nonzero"/></clipPath></defs><path fill="#adadad" d="M 15.136719 243.882812 L 15.136719 243.835938 C 15.132812 243.84375 15.128906 243.851562 15.128906 243.859375 C 15.125 243.851562 15.121094 243.84375 15.121094 243.835938 L 15.121094 243.882812 C 14.480469 246.210938 12.996094 247.878906 10.671875 248.878906 C 12.996094 249.878906 14.480469 251.542969 15.121094 253.871094 L 15.121094 253.921875 C 15.125 253.914062 15.128906 253.90625 15.128906 253.898438 C 15.132812 253.90625 15.132812 253.914062 15.136719 253.921875 L 15.136719 253.871094 C 15.777344 251.542969 17.261719 249.878906 19.585938 248.878906 C 17.261719 247.878906 15.777344 246.210938 15.136719 243.882812 Z M 15.136719 243.882812 " fill-opacity="1" fill-rule="nonzero"/><path fill="#adadad" d="M 47.277344 30.3125 L 47.277344 30.265625 C 47.273438 30.273438 47.273438 30.28125 47.269531 30.289062 C 47.269531 30.28125 47.265625 30.273438 47.261719 30.265625 L 47.261719 30.3125 C 46.621094 32.640625 45.136719 34.308594 42.8125 35.308594 C 45.136719 36.308594 46.621094 37.972656 47.261719 40.300781 L 47.261719 40.351562 C 47.265625 40.34375 47.269531 40.335938 47.269531 40.328125 C 47.273438 40.335938 47.277344 40.34375 47.277344 40.351562 L 47.277344 40.300781 C 47.917969 37.972656 49.402344 36.308594 51.726562 35.308594 C 49.402344 34.308594 47.917969 32.640625 47.277344 30.3125 Z M 47.277344 30.3125 " fill-opacity="1" fill-rule="nonzero"/><path fill="#adadad" d="M 334.320312 243.882812 L 334.320312 243.835938 C 334.320312 243.84375 334.316406 243.851562 334.316406 243.859375 C 334.3125 243.851562 334.308594 243.84375 334.308594 243.835938 L 334.308594 243.882812 C 333.667969 246.210938 332.183594 247.878906 329.859375 248.878906 C 332.183594 249.878906 333.667969 251.542969 334.308594 253.871094 L 334.308594 253.921875 C 334.3125 253.914062 334.3125 253.90625 334.316406 253.898438 C 334.316406 253.90625 334.320312 253.914062 334.320312 253.921875 L 334.320312 253.871094 C 334.964844 251.542969 336.445312 249.878906 338.773438 248.878906 C 336.445312 247.878906 334.964844 246.210938 334.320312 243.882812 Z M 334.320312 243.882812 " fill-opacity="1" fill-rule="nonzero"/><path fill="#adadad" d="M 325.199219 90.003906 L 325.199219 89.953125 C 325.199219 89.960938 325.195312 89.96875 325.195312 89.976562 C 325.191406 89.96875 325.1875 89.960938 325.1875 89.953125 L 325.1875 90.003906 C 324.546875 92.332031 323.0625 93.996094 320.738281 94.996094 C 323.0625 96 324.546875 97.664062 325.1875 99.992188 L 325.1875 100.039062 C 325.191406 100.03125 325.191406 100.023438 325.195312 100.015625 C 325.195312 100.023438 325.199219 100.03125 325.199219 100.039062 L 325.199219 99.992188 C 325.84375 97.664062 327.328125 96 329.652344 94.996094 C 327.328125 93.996094 325.84375 92.332031 325.199219 90.003906 Z M 325.199219 90.003906 " fill-opacity="1" fill-rule="nonzero"/><g clip-path="url(#f2b68ccdbe)"><path fill="#adadad" d="M 279.820312 26.082031 L 279.820312 26.035156 C 279.820312 26.042969 279.816406 26.050781 279.816406 26.058594 C 279.8125 26.050781 279.808594 26.042969 279.808594 26.035156 L 279.808594 26.082031 C 279.167969 28.410156 277.683594 30.078125 275.355469 31.078125 C 277.683594 32.078125 279.167969 33.746094 279.808594 36.074219 L 279.808594 36.121094 C 279.8125 36.113281 279.8125 36.105469 279.816406 36.097656 C 279.816406 36.105469 279.820312 36.113281 279.820312 36.121094 L 279.820312 36.074219 C 280.464844 33.746094 281.945312 32.078125 284.273438 31.078125 C 281.945312 30.078125 280.464844 28.410156 279.820312 26.082031 Z M 279.820312 26.082031 " fill-opacity="1" fill-rule="nonzero"/></g><path fill="#adadad" d="M 84.652344 50.808594 L 84.652344 50.710938 C 84.648438 50.726562 84.640625 50.742188 84.636719 50.761719 C 84.632812 50.742188 84.628906 50.726562 84.625 50.710938 L 84.625 50.808594 C 83.339844 55.464844 80.375 58.796875 75.722656 60.796875 C 80.375 62.800781 83.339844 66.132812 84.625 70.785156 L 84.625 70.886719 C 84.628906 70.867188 84.632812 70.851562 84.636719 70.835938 C 84.640625 70.851562 84.648438 70.867188 84.652344 70.886719 L 84.652344 70.785156 C 85.933594 66.132812 88.902344 62.800781 93.554688 60.796875 C 88.902344 58.796875 85.9375 55.464844 84.652344 50.808594 Z M 84.652344 50.808594 " fill-opacity="1" fill-rule="nonzero"/><path fill="#adadad" d="M 286.675781 277.070312 L 286.675781 276.96875 C 286.671875 276.988281 286.667969 277.003906 286.664062 277.019531 C 286.660156 277.003906 286.652344 276.988281 286.648438 276.96875 L 286.648438 277.070312 C 285.367188 281.726562 282.398438 285.054688 277.75 287.058594 C 282.398438 289.0625 285.363281 292.390625 286.648438 297.046875 L 286.648438 297.144531 C 286.652344 297.128906 286.660156 297.113281 286.664062 297.09375 C 286.667969 297.113281 286.671875 297.128906 286.675781 297.144531 L 286.675781 297.046875 C 287.960938 292.390625 290.925781 289.0625 295.578125 287.058594 C 290.925781 285.054688 287.960938 281.726562 286.675781 277.070312 Z M 286.675781 277.070312 " fill-opacity="1" fill-rule="nonzero"/><g clip-path="url(#91291fe156)"><path fill="#adadad" d="M 338.785156 26.132812 L 338.785156 26.035156 C 338.78125 26.050781 338.777344 26.066406 338.773438 26.085938 C 338.769531 26.066406 338.761719 26.050781 338.757812 26.035156 L 338.757812 26.132812 C 337.476562 30.789062 334.507812 34.121094 329.859375 36.121094 C 334.507812 38.125 337.472656 41.457031 338.757812 46.109375 L 338.757812 46.210938 C 338.761719 46.191406 338.769531 46.179688 338.773438 46.160156 C 338.777344 46.179688 338.78125 46.191406 338.785156 46.210938 L 338.785156 46.109375 C 340.070312 41.457031 343.035156 38.125 347.6875 36.121094 C 343.035156 34.121094 340.070312 30.789062 338.785156 26.132812 Z M 338.785156 26.132812 " fill-opacity="1" fill-rule="nonzero"/></g><path fill="#000000" d="M 143.648438 203.988281 C 143.648438 203.988281 116.640625 164.597656 105.144531 154.199219 C 93.625 143.777344 51.25 123.285156 51.25 123.285156 L 36.40625 153.886719 C 36.40625 153.886719 69.089844 179.777344 76.949219 191.0625 C 88.316406 207.382812 99.257812 239.539062 121.796875 247.9375 C 144.332031 256.335938 164.058594 252.71875 182.511719 235.105469 C 200.960938 217.496094 218.835938 196.007812 218.835938 196.007812 C 212.886719 162.671875 182.871094 152.539062 143.410156 156 C 143.410156 156 134.671875 164.449219 124.992188 177.984375 " fill-opacity="1" fill-rule="nonzero"/><path fill="#ffffff" d="M 143.8125 252.949219 C 136.753906 252.949219 129.398438 251.5 121.554688 248.574219 C 114.09375 245.796875 107.246094 240.234375 100.617188 231.574219 C 94.863281 224.058594 89.988281 215.140625 85.6875 207.273438 C 82.472656 201.382812 79.433594 195.824219 76.386719 191.453125 C 68.675781 180.378906 36.308594 154.679688 35.980469 154.421875 C 35.730469 154.222656 35.652344 153.878906 35.792969 153.589844 L 50.636719 122.988281 C 50.800781 122.652344 51.207031 122.507812 51.546875 122.671875 C 53.28125 123.511719 94.140625 143.328125 105.601562 153.691406 C 110.4375 158.070312 117.902344 167.398438 124.988281 176.824219 C 134.371094 163.832031 142.847656 155.59375 142.933594 155.507812 C 143.046875 155.398438 143.195312 155.332031 143.347656 155.320312 C 164.328125 153.480469 181.363281 155.589844 193.980469 161.589844 C 208.050781 168.28125 216.640625 179.820312 219.507812 195.890625 C 219.542969 196.085938 219.488281 196.289062 219.359375 196.445312 C 219.179688 196.660156 201.25 218.164062 182.980469 235.601562 C 178.363281 240.007812 173.570312 243.613281 168.738281 246.316406 C 163.929688 249.007812 158.910156 250.902344 153.820312 251.941406 C 150.539062 252.613281 147.210938 252.949219 143.8125 252.949219 Z M 37.257812 153.691406 C 41.292969 156.910156 70.078125 180.003906 77.507812 190.671875 C 80.59375 195.105469 83.648438 200.699219 86.882812 206.617188 C 91.160156 214.445312 96.007812 223.3125 101.699219 230.746094 C 108.167969 239.195312 114.820312 244.609375 122.03125 247.296875 C 133.402344 251.535156 143.710938 252.617188 153.546875 250.605469 C 163.59375 248.554688 172.914062 243.320312 182.039062 234.613281 C 199.203125 218.230469 216.074219 198.242188 218.109375 195.816406 C 216.664062 187.957031 213.78125 181.164062 209.546875 175.621094 C 205.46875 170.285156 200.035156 165.980469 193.394531 162.820312 C 181.050781 156.949219 164.335938 154.878906 143.710938 156.65625 C 142.460938 157.898438 134.515625 165.902344 125.84375 177.964844 C 135.15625 190.421875 143.59375 202.703125 144.210938 203.605469 C 144.425781 203.914062 144.34375 204.339844 144.035156 204.550781 C 143.722656 204.761719 143.300781 204.683594 143.085938 204.375 C 142.816406 203.980469 115.992188 164.933594 104.683594 154.703125 C 94.121094 145.148438 56.8125 126.761719 51.5625 124.195312 Z M 37.257812 153.691406 " fill-opacity="1" fill-rule="nonzero"/><path fill="#000000" d="M 143.621094 110.171875 L 189.738281 117.078125 L 162.167969 149.625 C 162.167969 149.625 118.785156 143.089844 111.335938 135.542969 C 103.867188 127.976562 101.953125 114.890625 106.960938 105.320312 C 112.886719 94 126.664062 76.578125 126.664062 76.578125 L 150.96875 85.871094 C 150.96875 85.871094 142.699219 117.277344 137.238281 124.589844 " fill-opacity="1" fill-rule="nonzero"/><path fill="#ffffff" d="M 162.167969 150.308594 C 162.132812 150.308594 162.101562 150.304688 162.066406 150.300781 C 160.285156 150.03125 118.371094 143.640625 110.851562 136.023438 C 107.132812 132.257812 104.628906 127.023438 103.792969 121.28125 C 102.960938 115.535156 103.871094 109.753906 106.355469 105.003906 C 112.242188 93.757812 125.988281 76.328125 126.128906 76.152344 C 126.3125 75.917969 126.628906 75.832031 126.90625 75.9375 L 151.210938 85.230469 C 151.535156 85.355469 151.714844 85.703125 151.625 86.042969 C 151.605469 86.121094 149.523438 94.007812 146.800781 102.6875 C 146.015625 105.191406 145.261719 107.5 144.535156 109.617188 L 189.835938 116.402344 C 190.082031 116.441406 190.289062 116.605469 190.375 116.835938 C 190.460938 117.066406 190.417969 117.328125 190.257812 117.515625 L 162.6875 150.0625 C 162.558594 150.21875 162.367188 150.304688 162.167969 150.304688 Z M 126.886719 77.390625 C 124.820312 80.039062 112.902344 95.4375 107.5625 105.636719 C 105.207031 110.136719 104.347656 115.621094 105.140625 121.085938 C 105.933594 126.542969 108.304688 131.507812 111.820312 135.066406 C 118.664062 141.996094 157.636719 148.230469 161.894531 148.894531 L 188.425781 117.570312 L 144.082031 110.929688 C 141.605469 117.984375 139.496094 122.703125 137.78125 124.996094 C 137.558594 125.296875 137.128906 125.359375 136.828125 125.132812 C 136.527344 124.910156 136.464844 124.480469 136.691406 124.179688 C 141.605469 117.601562 148.984375 90.632812 150.152344 86.285156 L 126.890625 77.390625 Z M 126.886719 77.390625 " fill-opacity="1" fill-rule="nonzero"/><path fill="#000000" d="M 236.890625 45.550781 C 238.304688 45.742188 239.710938 46 241.101562 46.320312 C 242.492188 46.640625 243.867188 47.027344 245.222656 47.476562 C 246.574219 47.925781 247.902344 48.4375 249.207031 49.011719 C 250.507812 49.582031 251.78125 50.214844 253.019531 50.90625 C 254.257812 51.597656 255.460938 52.34375 256.625 53.144531 C 257.789062 53.945312 258.910156 54.796875 259.988281 55.703125 C 261.0625 56.609375 262.09375 57.5625 263.074219 58.5625 C 264.054688 59.5625 264.980469 60.605469 265.851562 61.6875 C 266.726562 62.773438 267.542969 63.894531 268.300781 65.054688 C 269.058594 66.214844 269.757812 67.40625 270.394531 68.628906 C 271.03125 69.851562 271.601562 71.101562 272.109375 72.375 C 272.617188 73.652344 273.058594 74.945312 273.433594 76.257812 C 273.808594 77.574219 274.117188 78.902344 274.355469 80.242188 C 274.589844 81.582031 274.761719 82.929688 274.859375 84.285156 C 274.957031 85.640625 274.984375 86.996094 274.945312 88.351562 C 274.902344 89.707031 274.792969 91.054688 274.609375 92.398438 C 274.429688 93.742188 274.179688 95.074219 273.859375 96.390625 C 273.542969 97.710938 273.15625 99.007812 272.699219 100.289062 C 272.246094 101.570312 271.726562 102.824219 271.144531 104.054688 C 270.558594 105.285156 269.910156 106.484375 269.203125 107.652344 C 268.492188 108.820312 267.722656 109.949219 266.894531 111.042969 C 266.070312 112.140625 265.1875 113.191406 264.25 114.203125 C 263.3125 115.214844 262.324219 116.179688 261.285156 117.09375 C 260.246094 118.011719 259.160156 118.878906 258.03125 119.691406 C 256.902344 120.507812 255.730469 121.265625 254.523438 121.972656 C 253.3125 122.675781 252.066406 123.324219 250.789062 123.910156 C 249.511719 124.496094 248.203125 125.023438 246.871094 125.488281 C 245.535156 125.953125 244.179688 126.355469 242.800781 126.691406 C 241.421875 127.03125 240.027344 127.300781 238.621094 127.507812 C 237.210938 127.714844 235.796875 127.855469 234.371094 127.933594 C 232.945312 128.007812 231.519531 128.015625 230.09375 127.957031 C 228.664062 127.898438 227.242188 127.773438 225.828125 127.582031 C 224.410156 127.390625 223.007812 127.132812 221.613281 126.8125 C 220.222656 126.492188 218.847656 126.105469 217.496094 125.65625 C 216.140625 125.207031 214.8125 124.695312 213.511719 124.121094 C 212.207031 123.550781 210.9375 122.917969 209.695312 122.226562 C 208.457031 121.539062 207.253906 120.792969 206.089844 119.988281 C 204.925781 119.1875 203.808594 118.335938 202.730469 117.429688 C 201.652344 116.523438 200.625 115.570312 199.644531 114.570312 C 198.664062 113.570312 197.738281 112.53125 196.863281 111.445312 C 195.988281 110.359375 195.171875 109.238281 194.414062 108.078125 C 193.65625 106.917969 192.957031 105.726562 192.324219 104.503906 C 191.6875 103.28125 191.113281 102.03125 190.605469 100.757812 C 190.097656 99.480469 189.65625 98.1875 189.28125 96.875 C 188.90625 95.558594 188.601562 94.230469 188.363281 92.890625 C 188.125 91.550781 187.957031 90.203125 187.859375 88.847656 C 187.757812 87.492188 187.730469 86.136719 187.773438 84.78125 C 187.8125 83.425781 187.925781 82.078125 188.105469 80.734375 C 188.285156 79.390625 188.535156 78.058594 188.855469 76.742188 C 189.175781 75.421875 189.5625 74.125 190.015625 72.84375 C 190.46875 71.5625 190.988281 70.308594 191.574219 69.078125 C 192.160156 67.847656 192.804688 66.648438 193.515625 65.480469 C 194.222656 64.3125 194.992188 63.183594 195.820312 62.089844 C 196.648438 60.992188 197.53125 59.941406 198.46875 58.929688 C 199.40625 57.917969 200.394531 56.957031 201.433594 56.039062 C 202.472656 55.121094 203.554688 54.253906 204.683594 53.441406 C 205.816406 52.625 206.984375 51.867188 208.195312 51.160156 C 209.40625 50.457031 210.648438 49.808594 211.925781 49.222656 C 213.207031 48.636719 214.511719 48.109375 215.847656 47.644531 C 217.183594 47.179688 218.539062 46.777344 219.917969 46.441406 C 221.292969 46.105469 222.6875 45.832031 224.09375 45.625 C 225.503906 45.417969 226.921875 45.277344 228.34375 45.203125 C 229.769531 45.125 231.195312 45.117188 232.621094 45.175781 C 234.050781 45.234375 235.472656 45.359375 236.890625 45.550781 Z M 236.890625 45.550781 " fill-opacity="1" fill-rule="nonzero"/><path fill="#ffffff" d="M 232.058594 128.679688 C 229.960938 128.679688 227.847656 128.535156 225.730469 128.253906 C 214.003906 126.671875 203.5625 120.851562 196.328125 111.867188 C 189.082031 102.871094 185.921875 91.78125 187.421875 80.640625 C 188.925781 69.496094 194.914062 59.640625 204.277344 52.882812 C 213.632812 46.136719 225.246094 43.292969 236.972656 44.871094 C 248.699219 46.453125 259.140625 52.273438 266.375 61.257812 C 273.617188 70.253906 276.78125 81.34375 275.277344 92.484375 C 273.777344 103.628906 267.789062 113.484375 258.425781 120.242188 C 250.757812 125.769531 241.574219 128.679688 232.058594 128.679688 Z M 230.648438 45.808594 C 221.410156 45.808594 212.507812 48.628906 205.074219 53.992188 C 196.015625 60.527344 190.222656 70.054688 188.773438 80.824219 C 187.320312 91.59375 190.382812 102.3125 197.386719 111.015625 C 204.402344 119.726562 214.535156 125.371094 225.914062 126.902344 C 237.292969 128.4375 248.554688 125.679688 257.628906 119.136719 C 266.6875 112.601562 272.476562 103.074219 273.929688 92.304688 L 274.605469 92.394531 L 273.929688 92.304688 C 275.378906 81.535156 272.320312 70.8125 265.316406 62.113281 C 258.300781 53.402344 248.167969 47.757812 236.789062 46.222656 C 234.734375 45.949219 232.683594 45.808594 230.648438 45.808594 Z M 230.648438 45.808594 " fill-opacity="1" fill-rule="nonzero"/><path fill="#c6c2c2" d="M 188.097656 80.730469 C 185.074219 103.152344 201.589844 123.925781 225.089844 127.46875 C 240.039062 122.339844 250.550781 109.179688 255.726562 90.734375 C 259.40625 77.601562 258.851562 62.5625 256.433594 53.007812 C 250.8125 49.171875 244.175781 46.53125 236.878906 45.546875 C 212.992188 42.328125 191.152344 58.082031 188.097656 80.734375 Z M 188.097656 80.730469 " fill-opacity="1" fill-rule="nonzero"/><path fill="#ffffff" d="M 225.089844 128.148438 C 225.054688 128.148438 225.023438 128.148438 224.988281 128.140625 C 213.441406 126.398438 203.1875 120.523438 196.113281 111.597656 C 189.023438 102.652344 185.9375 91.65625 187.421875 80.636719 L 188.097656 80.730469 L 187.421875 80.636719 C 188.925781 69.496094 194.910156 59.640625 204.277344 52.882812 C 213.632812 46.136719 225.242188 43.289062 236.96875 44.871094 C 244.101562 45.832031 250.964844 48.453125 256.816406 52.441406 C 256.953125 52.535156 257.050781 52.675781 257.089844 52.835938 C 258.371094 57.890625 259.0625 64.171875 259.046875 70.527344 C 259.027344 77.71875 258.105469 84.769531 256.378906 90.914062 C 253.753906 100.292969 249.789062 108.234375 244.597656 114.527344 C 239.28125 120.972656 232.792969 125.542969 225.3125 128.113281 C 225.238281 128.136719 225.164062 128.148438 225.089844 128.148438 Z M 230.648438 45.808594 C 221.410156 45.808594 212.507812 48.628906 205.074219 53.988281 C 196.015625 60.523438 190.222656 70.054688 188.773438 80.824219 C 187.335938 91.472656 190.324219 102.101562 197.183594 110.753906 C 204.007812 119.367188 213.890625 125.050781 225.027344 126.769531 C 232.199219 124.277344 238.433594 119.867188 243.550781 113.664062 C 248.617188 107.519531 252.492188 99.742188 255.070312 90.550781 C 256.761719 84.519531 257.664062 77.59375 257.6875 70.527344 C 257.703125 64.386719 257.046875 58.324219 255.835938 53.425781 C 250.207031 49.632812 243.628906 47.144531 236.789062 46.222656 C 234.734375 45.945312 232.683594 45.808594 230.648438 45.808594 Z M 230.648438 45.808594 " fill-opacity="1" fill-rule="nonzero"/><path fill="#000000" d="M 140.03125 155.339844 C 150.199219 135.203125 166.621094 119.597656 187.4375 115.558594 C 207.894531 116.058594 223.136719 121.121094 241.527344 129.695312 C 267.472656 122.71875 298.054688 130.523438 329.652344 141.566406 L 320.039062 162.703125 C 296.003906 157.195312 269.722656 159.710938 244.632812 173.003906 L 215.414062 204.785156 C 198.304688 178.503906 173.640625 161.457031 140.03125 155.335938 Z M 140.03125 155.339844 " fill-opacity="1" fill-rule="nonzero"/><path fill="#ffffff" d="M 215.414062 205.46875 C 215.394531 205.46875 215.375 205.46875 215.355469 205.464844 C 215.144531 205.449219 214.957031 205.335938 214.839844 205.160156 C 206.253906 191.96875 195.71875 181.171875 183.53125 173.070312 C 170.996094 164.734375 156.316406 158.996094 139.90625 156.007812 C 139.695312 155.972656 139.515625 155.835938 139.421875 155.644531 C 139.324219 155.449219 139.324219 155.222656 139.421875 155.03125 C 144.722656 144.53125 151.410156 135.738281 159.292969 128.898438 C 167.738281 121.570312 177.160156 116.859375 187.304688 114.890625 C 187.351562 114.882812 187.402344 114.878906 187.449219 114.878906 C 208.359375 115.386719 223.691406 120.644531 241.589844 128.972656 C 253.660156 125.773438 267.398438 125.519531 283.582031 128.203125 C 296.59375 130.359375 310.875 134.28125 329.875 140.921875 C 330.054688 140.984375 330.203125 141.121094 330.277344 141.296875 C 330.351562 141.472656 330.351562 141.671875 330.269531 141.84375 L 320.660156 162.984375 C 320.527344 163.28125 320.203125 163.441406 319.886719 163.367188 C 294.53125 157.554688 268.65625 161.074219 245.054688 173.546875 L 215.910156 205.246094 C 215.78125 205.386719 215.601562 205.464844 215.410156 205.464844 Z M 141.050781 154.835938 C 157.28125 157.902344 171.824219 163.652344 184.285156 171.9375 C 196.402344 179.988281 206.902344 190.667969 215.503906 203.683594 L 244.132812 172.542969 C 244.183594 172.484375 244.246094 172.4375 244.316406 172.402344 C 268.070312 159.820312 294.105469 156.199219 319.648438 161.921875 L 328.722656 141.964844 C 310.148438 135.5 296.132812 131.664062 283.359375 129.546875 C 267.269531 126.878906 253.640625 127.144531 241.703125 130.351562 C 241.546875 130.394531 241.382812 130.378906 241.238281 130.3125 C 223.421875 122.007812 208.214844 116.757812 187.492188 116.242188 C 177.613281 118.171875 168.425781 122.773438 160.1875 129.925781 C 152.640625 136.472656 146.203125 144.851562 141.050781 154.835938 Z M 141.050781 154.835938 " fill-opacity="1" fill-rule="nonzero"/><path fill="#ffffff" d="M 244.632812 173.683594 C 244.460938 173.683594 244.289062 173.621094 244.15625 173.488281 C 240.816406 170.226562 238.34375 166.582031 236.808594 162.65625 C 235.578125 159.511719 234.941406 156.183594 234.917969 152.765625 C 234.878906 146.941406 236.617188 142.921875 236.691406 142.753906 C 236.84375 142.410156 237.246094 142.253906 237.589844 142.402344 C 237.933594 142.554688 238.089844 142.957031 237.9375 143.300781 C 237.921875 143.339844 236.230469 147.269531 236.28125 152.816406 C 236.308594 156.058594 236.917969 159.210938 238.089844 162.195312 C 239.558594 165.925781 241.917969 169.394531 245.109375 172.515625 C 245.378906 172.777344 245.382812 173.210938 245.121094 173.476562 C 244.984375 173.613281 244.808594 173.683594 244.632812 173.683594 Z M 244.632812 173.683594 " fill-opacity="1" fill-rule="nonzero"/><path fill="#000000" d="M 263.351562 94.988281 C 263.816406 91.5625 262.589844 88.304688 260.320312 86.035156 L 260.535156 84.453125 C 260.535156 84.453125 254.863281 83.109375 254.230469 83.023438 C 248.40625 82.238281 243.046875 86.320312 242.261719 92.144531 C 241.476562 97.96875 245.601562 103.070312 251.386719 104.113281 C 252.976562 104.398438 257.691406 105.542969 257.691406 105.542969 L 258.058594 102.820312 C 260.847656 101.234375 262.890625 98.414062 263.351562 94.988281 Z M 263.351562 94.988281 " fill-opacity="1" fill-rule="nonzero"/><path fill="#ffffff" d="M 257.691406 106.222656 C 257.640625 106.222656 257.585938 106.21875 257.53125 106.203125 C 257.484375 106.195312 252.816406 105.0625 251.265625 104.78125 C 248.269531 104.242188 245.628906 102.664062 243.824219 100.339844 C 241.980469 97.964844 241.1875 95.023438 241.585938 92.054688 C 242.421875 85.867188 248.132812 81.511719 254.320312 82.347656 C 254.96875 82.433594 260.109375 83.652344 260.691406 83.789062 C 261.03125 83.871094 261.257812 84.195312 261.210938 84.542969 L 261.039062 85.796875 C 263.402344 88.296875 264.488281 91.660156 264.027344 95.078125 C 263.566406 98.496094 261.628906 101.453125 258.691406 103.238281 L 258.367188 105.632812 C 258.339844 105.824219 258.234375 105.996094 258.078125 106.105469 C 257.960938 106.183594 257.828125 106.222656 257.691406 106.222656 Z M 252.800781 83.605469 C 247.894531 83.605469 243.613281 87.242188 242.9375 92.234375 C 242.585938 94.839844 243.285156 97.421875 244.902344 99.503906 C 246.5 101.5625 248.84375 102.960938 251.507812 103.441406 C 252.734375 103.664062 255.722656 104.371094 257.117188 104.703125 L 257.382812 102.726562 C 257.414062 102.515625 257.539062 102.332031 257.722656 102.226562 C 260.453125 100.675781 262.257812 98.003906 262.679688 94.894531 C 263.097656 91.789062 262.0625 88.734375 259.839844 86.515625 C 259.691406 86.367188 259.617188 86.152344 259.648438 85.941406 L 259.777344 84.96875 C 257.535156 84.441406 254.539062 83.75 254.136719 83.695312 C 253.6875 83.632812 253.242188 83.605469 252.800781 83.605469 Z M 252.800781 83.605469 " fill-opacity="1" fill-rule="nonzero"/><path fill="#000000" d="M 269.753906 94.996094 C 269.753906 95.695312 269.6875 96.386719 269.550781 97.074219 C 269.414062 97.757812 269.214844 98.421875 268.945312 99.070312 C 268.679688 99.714844 268.351562 100.328125 267.960938 100.910156 C 267.574219 101.488281 267.132812 102.027344 266.640625 102.519531 C 266.144531 103.015625 265.605469 103.457031 265.027344 103.84375 C 264.445312 104.234375 263.832031 104.5625 263.1875 104.828125 C 262.542969 105.09375 261.875 105.296875 261.191406 105.433594 C 260.503906 105.570312 259.8125 105.636719 259.113281 105.636719 C 258.414062 105.636719 257.722656 105.570312 257.039062 105.433594 C 256.351562 105.296875 255.6875 105.09375 255.042969 104.828125 C 254.398438 104.5625 253.785156 104.234375 253.203125 103.84375 C 252.621094 103.457031 252.085938 103.015625 251.589844 102.519531 C 251.097656 102.027344 250.65625 101.488281 250.265625 100.910156 C 249.878906 100.328125 249.550781 99.714844 249.285156 99.070312 C 249.015625 98.421875 248.816406 97.757812 248.679688 97.074219 C 248.542969 96.386719 248.472656 95.695312 248.472656 94.996094 C 248.472656 94.296875 248.542969 93.605469 248.679688 92.921875 C 248.816406 92.234375 249.015625 91.570312 249.285156 90.925781 C 249.550781 90.28125 249.878906 89.667969 250.265625 89.085938 C 250.65625 88.503906 251.097656 87.96875 251.589844 87.472656 C 252.085938 86.980469 252.621094 86.539062 253.203125 86.148438 C 253.785156 85.761719 254.398438 85.433594 255.042969 85.167969 C 255.6875 84.898438 256.351562 84.695312 257.039062 84.5625 C 257.722656 84.425781 258.414062 84.355469 259.113281 84.355469 C 259.8125 84.355469 260.503906 84.425781 261.191406 84.5625 C 261.875 84.695312 262.542969 84.898438 263.1875 85.167969 C 263.832031 85.433594 264.445312 85.761719 265.027344 86.148438 C 265.605469 86.539062 266.144531 86.980469 266.640625 87.472656 C 267.132812 87.96875 267.574219 88.503906 267.960938 89.085938 C 268.351562 89.667969 268.679688 90.28125 268.945312 90.925781 C 269.214844 91.570312 269.414062 92.234375 269.550781 92.921875 C 269.6875 93.605469 269.753906 94.296875 269.753906 94.996094 Z M 269.753906 94.996094 " fill-opacity="1" fill-rule="nonzero"/><path fill="#ffffff" d="M 259.121094 106.320312 C 258.621094 106.320312 258.113281 106.285156 257.601562 106.21875 C 254.605469 105.8125 251.945312 104.265625 250.109375 101.863281 C 248.277344 99.457031 247.488281 96.480469 247.894531 93.484375 C 248.296875 90.488281 249.84375 87.828125 252.25 85.992188 C 254.652344 84.160156 257.628906 83.371094 260.625 83.777344 C 266.8125 84.609375 271.167969 90.324219 270.332031 96.511719 C 269.566406 102.1875 264.699219 106.320312 259.121094 106.320312 Z M 259.09375 85.035156 C 256.925781 85.035156 254.828125 85.742188 253.074219 87.078125 C 250.960938 88.691406 249.597656 91.03125 249.242188 93.667969 C 248.886719 96.300781 249.578125 98.917969 251.191406 101.035156 C 252.804688 103.152344 255.144531 104.511719 257.78125 104.867188 C 263.226562 105.601562 268.25 101.769531 268.984375 96.328125 C 269.71875 90.886719 265.886719 85.863281 260.445312 85.128906 C 259.992188 85.066406 259.542969 85.035156 259.09375 85.035156 Z M 269.660156 96.417969 Z M 269.660156 96.417969 " fill-opacity="1" fill-rule="nonzero"/><path fill="#02d0d0" d="M 326.714844 138.382812 C 317.035156 147.367188 313.328125 154.710938 314.492188 165.644531 L 324.261719 170.265625 C 324.261719 170.265625 327.96875 181.253906 330.050781 184.480469 C 331.71875 187.066406 338.519531 193.417969 338.519531 193.417969 C 340.792969 193.097656 341.6875 192.019531 342.171875 190.71875 C 339.921875 186.238281 338.019531 181.660156 336.703125 176.921875 C 336.703125 176.921875 344.835938 181.402344 345.355469 181.753906 C 345.871094 182.105469 352.660156 188.539062 356.144531 190.910156 C 359.585938 193.253906 365.933594 187.710938 368.351562 183.429688 C 372.054688 176.882812 374.292969 170.15625 374.292969 170.15625 C 374.292969 170.15625 365.992188 157.699219 363.964844 156.304688 C 360.527344 153.945312 346.191406 149.738281 344.832031 149.367188 C 343.472656 148.996094 326.714844 138.382812 326.714844 138.382812 Z M 326.714844 138.382812 " fill-opacity="1" fill-rule="nonzero"/><path fill="#ffffff" d="M 338.519531 194.097656 C 338.347656 194.097656 338.183594 194.035156 338.054688 193.914062 C 337.773438 193.652344 331.171875 187.476562 329.476562 184.847656 C 327.539062 181.839844 324.3125 172.519531 323.710938 170.757812 L 314.203125 166.257812 C 313.988281 166.15625 313.839844 165.949219 313.816406 165.714844 C 312.667969 154.910156 316.035156 147.363281 326.253906 137.882812 C 326.480469 137.671875 326.820312 137.640625 327.082031 137.804688 C 333.480469 141.859375 344.011719 148.402344 345.019531 148.710938 C 345.167969 148.75 360.632812 153.1875 364.351562 155.742188 C 366.429688 157.167969 374.003906 168.492188 374.859375 169.777344 C 374.976562 169.953125 375.007812 170.171875 374.941406 170.371094 C 374.917969 170.4375 372.636719 177.238281 368.945312 183.765625 C 367.988281 185.457031 366.476562 187.289062 364.796875 188.792969 C 363.472656 189.980469 361.453125 191.496094 359.335938 191.988281 C 357.945312 192.3125 356.742188 192.140625 355.761719 191.472656 C 353.207031 189.734375 348.894531 185.835938 346.574219 183.742188 C 345.816406 183.058594 345.101562 182.410156 344.964844 182.3125 C 344.65625 182.101562 340.929688 180.03125 337.820312 178.316406 C 338.996094 182.152344 340.625 186.125 342.777344 190.410156 C 342.863281 190.582031 342.875 190.777344 342.808594 190.953125 C 342.125 192.785156 340.792969 193.78125 338.613281 194.09375 C 338.582031 194.097656 338.550781 194.101562 338.519531 194.101562 Z M 315.132812 165.191406 L 324.554688 169.648438 C 324.722656 169.730469 324.851562 169.875 324.910156 170.046875 C 324.945312 170.15625 328.613281 180.992188 330.621094 184.109375 C 332.050781 186.328125 337.523438 191.542969 338.742188 192.691406 C 339.804688 192.503906 340.828125 192.078125 341.425781 190.746094 C 339.007812 185.898438 337.246094 181.433594 336.046875 177.105469 C 335.972656 176.839844 336.066406 176.558594 336.28125 176.386719 C 336.496094 176.21875 336.792969 176.191406 337.03125 176.324219 C 337.867188 176.785156 345.210938 180.828125 345.738281 181.1875 C 345.902344 181.304688 346.300781 181.660156 347.488281 182.730469 C 349.78125 184.804688 354.050781 188.660156 356.527344 190.347656 C 357.179688 190.792969 358.019531 190.898438 359.027344 190.664062 C 362.195312 189.925781 366.027344 186.160156 367.757812 183.09375 C 370.9375 177.476562 373.050781 171.648438 373.539062 170.253906 C 370.21875 165.285156 364.960938 157.816406 363.578125 156.867188 C 360.335938 154.640625 346.507812 150.53125 344.65625 150.027344 C 343.328125 149.664062 330.402344 141.523438 326.796875 139.242188 C 317.359375 148.105469 314.164062 155.21875 315.128906 165.195312 Z M 315.132812 165.191406 " fill-opacity="1" fill-rule="nonzero"/><path fill="#ffffff" d="M 362.488281 188.761719 C 362.300781 188.761719 362.117188 188.683594 361.980469 188.535156 L 350.726562 175.921875 L 342.949219 172.394531 C 342.605469 172.238281 342.453125 171.835938 342.609375 171.492188 C 342.765625 171.152344 343.167969 171 343.511719 171.152344 L 351.421875 174.738281 C 351.503906 174.777344 351.582031 174.835938 351.648438 174.90625 L 363 187.625 C 363.25 187.90625 363.222656 188.335938 362.945312 188.585938 C 362.8125 188.703125 362.652344 188.761719 362.488281 188.761719 Z M 362.488281 188.761719 " fill-opacity="1" fill-rule="nonzero"/><path fill="#ffffff" d="M 370.1875 175.570312 C 369.996094 175.570312 369.808594 175.488281 369.671875 175.335938 L 359.117188 163.320312 L 352.96875 159.917969 C 352.640625 159.738281 352.523438 159.320312 352.703125 158.992188 C 352.886719 158.664062 353.300781 158.542969 353.628906 158.726562 L 359.882812 162.183594 C 359.949219 162.222656 360.011719 162.269531 360.0625 162.332031 L 370.699219 174.4375 C 370.945312 174.71875 370.917969 175.152344 370.636719 175.398438 C 370.503906 175.511719 370.34375 175.570312 370.1875 175.570312 Z M 370.1875 175.570312 " fill-opacity="1" fill-rule="nonzero"/><path fill="#ffffff" d="M 367.238281 182.851562 C 367.046875 182.851562 366.855469 182.769531 366.722656 182.613281 L 356.007812 170.101562 L 348.160156 165.925781 C 347.828125 165.75 347.703125 165.339844 347.878906 165.003906 C 348.054688 164.671875 348.464844 164.546875 348.800781 164.722656 L 356.761719 168.960938 C 356.835938 169 356.902344 169.054688 356.960938 169.117188 L 367.753906 181.726562 C 368 182.015625 367.964844 182.441406 367.679688 182.6875 C 367.550781 182.796875 367.394531 182.851562 367.238281 182.851562 Z M 367.238281 182.851562 " fill-opacity="1" fill-rule="nonzero"/><path fill="#02d0d0" d="M 122.6875 77.96875 C 132.410156 86.910156 142.113281 90.765625 152.917969 88.738281 L 154.664062 77.890625 C 154.664062 77.890625 165.328125 73.324219 168.378906 70.996094 C 170.824219 69.128906 176.617188 61.84375 176.617188 61.84375 C 176.117188 59.605469 174.972656 58.800781 173.636719 58.417969 C 169.347656 61.019531 166.164062 62.816406 161.542969 64.5 C 161.542969 64.5 164.136719 56.5 164.445312 55.957031 C 164.757812 55.414062 169.984375 45.898438 172.074219 42.238281 C 174.136719 38.621094 164.492188 33.414062 160.035156 31.34375 C 153.214844 28.171875 144.347656 26.691406 142.585938 27.933594 C 139.402344 30.167969 136.332031 39.820312 135.5 41.78125 C 133.871094 45.621094 132.46875 57.65625 132.207031 59.039062 C 131.941406 60.421875 122.691406 77.972656 122.691406 77.972656 Z M 122.6875 77.96875 " fill-opacity="1" fill-rule="nonzero"/><g clip-path="url(#a613d61774)"><path fill="#ffffff" d="M 147.339844 89.953125 C 143.894531 89.953125 140.53125 89.339844 137.164062 88.105469 C 132.179688 86.28125 127.292969 83.128906 122.226562 78.472656 C 122 78.261719 121.941406 77.925781 122.085938 77.652344 C 125.617188 70.953125 131.308594 59.9375 131.535156 58.910156 C 131.582031 58.648438 131.6875 57.90625 131.816406 56.96875 C 132.375 52.972656 133.535156 44.660156 134.871094 41.511719 C 135.007812 41.183594 135.222656 40.609375 135.492188 39.882812 C 136.855469 36.199219 139.394531 29.335938 142.191406 27.371094 C 143.585938 26.390625 147.394531 26.914062 149.535156 27.3125 C 153.1875 27.988281 157.117188 29.230469 160.320312 30.722656 C 161.539062 31.289062 164.679688 32.8125 167.507812 34.683594 C 170.550781 36.703125 172.359375 38.550781 172.875 40.171875 C 173.152344 41.035156 173.082031 41.84375 172.664062 42.574219 C 171.15625 45.210938 167.976562 50.972656 166.265625 54.070312 C 165.578125 55.316406 165.125 56.140625 165.035156 56.292969 C 164.835938 56.6875 163.59375 60.410156 162.628906 63.359375 C 166.667969 61.773438 169.644531 60.039062 173.28125 57.835938 C 173.441406 57.738281 173.636719 57.710938 173.820312 57.761719 C 175.699219 58.296875 176.796875 59.546875 177.28125 61.695312 C 177.324219 61.898438 177.277344 62.105469 177.148438 62.269531 C 176.910156 62.570312 171.273438 69.640625 168.789062 71.539062 C 165.984375 73.679688 157.167969 77.550781 155.277344 78.367188 L 153.589844 88.847656 C 153.542969 89.132812 153.324219 89.355469 153.039062 89.410156 C 151.109375 89.769531 149.210938 89.953125 147.335938 89.953125 Z M 123.535156 77.820312 C 128.328125 82.160156 132.945312 85.109375 137.632812 86.824219 C 142.449219 88.589844 147.257812 89.023438 152.324219 88.15625 L 153.992188 77.78125 C 154.03125 77.550781 154.183594 77.355469 154.398438 77.265625 C 154.503906 77.21875 165.015625 72.703125 167.964844 70.453125 C 170.058594 68.851562 174.824219 62.984375 175.875 61.679688 C 175.601562 60.632812 175.097656 59.648438 173.722656 59.160156 C 169.753906 61.558594 166.523438 63.410156 161.773438 65.136719 C 161.527344 65.226562 161.253906 65.167969 161.066406 64.988281 C 160.878906 64.804688 160.8125 64.535156 160.894531 64.285156 C 161.507812 62.394531 163.535156 56.175781 163.851562 55.617188 C 163.9375 55.46875 164.414062 54.605469 165.074219 53.410156 C 166.785156 50.3125 169.96875 44.542969 171.480469 41.898438 C 171.703125 41.507812 171.734375 41.078125 171.578125 40.585938 C 170.714844 37.875 164.664062 34.242188 159.746094 31.957031 C 152.328125 28.507812 144.210938 27.617188 142.972656 28.488281 C 140.523438 30.207031 137.988281 37.0625 136.769531 40.355469 C 136.492188 41.097656 136.277344 41.6875 136.125 42.042969 C 134.859375 45.027344 133.714844 53.21875 133.167969 57.15625 C 133.023438 58.1875 132.929688 58.867188 132.875 59.164062 C 132.617188 60.515625 125.527344 74.042969 123.535156 77.820312 Z M 123.535156 77.820312 " fill-opacity="1" fill-rule="nonzero"/></g><path fill="#02d0d0" d="M 64.550781 125.824219 C 55.171875 136.953125 48.285156 149.65625 43.707031 163.820312 C 43.707031 163.820312 26.578125 151.972656 25.363281 151.808594 C 24.148438 151.644531 16.074219 151.261719 9.746094 149.703125 C 3.421875 148.144531 0.00390625 142.03125 1.355469 137.265625 C 2.703125 132.5 26.960938 87.542969 28.082031 85.753906 C 29.210938 83.960938 35.835938 85.914062 38.007812 88.148438 C 40.179688 90.386719 40.429688 113.5625 41.605469 115.308594 C 42.78125 117.058594 64.546875 125.824219 64.546875 125.824219 Z M 64.550781 125.824219 " fill-opacity="1" fill-rule="nonzero"/><path fill="#ffffff" d="M 43.703125 164.5 C 43.566406 164.5 43.429688 164.460938 43.316406 164.378906 C 36.9375 159.96875 26.425781 152.859375 25.242188 152.480469 C 25.003906 152.449219 24.476562 152.40625 23.8125 152.355469 C 20.851562 152.117188 14.691406 151.625 9.582031 150.363281 C 6.3125 149.558594 3.496094 147.472656 1.851562 144.648438 C 0.441406 142.226562 0.0234375 139.464844 0.699219 137.078125 C 1.433594 134.484375 8.445312 120.964844 14.199219 110.078125 C 20.414062 98.320312 26.890625 86.375 27.507812 85.390625 C 27.859375 84.832031 28.507812 84.5 29.433594 84.402344 C 32.027344 84.128906 36.683594 85.8125 38.496094 87.675781 C 39.828125 89.050781 40.386719 95.375 41.082031 104.871094 C 41.390625 109.050781 41.773438 114.253906 42.175781 114.933594 C 42.351562 115.160156 43.734375 116.265625 53.886719 120.640625 C 59.371094 123.003906 64.75 125.167969 64.804688 125.191406 C 65.007812 125.273438 65.15625 125.445312 65.210938 125.660156 C 65.261719 125.871094 65.210938 126.09375 65.070312 126.261719 C 55.910156 137.132812 48.9375 149.84375 44.351562 164.03125 C 44.285156 164.234375 44.125 164.398438 43.921875 164.464844 C 43.851562 164.492188 43.777344 164.5 43.703125 164.5 Z M 30.046875 85.730469 C 29.878906 85.730469 29.722656 85.742188 29.574219 85.753906 C 29.105469 85.804688 28.773438 85.933594 28.660156 86.113281 C 27.25 88.359375 3.292969 132.90625 2.007812 137.449219 C 1.433594 139.484375 1.804688 141.859375 3.03125 143.964844 C 4.488281 146.472656 6.996094 148.324219 9.90625 149.039062 C 14.910156 150.273438 20.996094 150.761719 23.921875 150.996094 C 24.6875 151.058594 25.191406 151.097656 25.453125 151.132812 C 25.773438 151.175781 26.367188 151.257812 35.367188 157.308594 C 38.667969 159.527344 41.914062 161.761719 43.339844 162.742188 C 47.878906 149.046875 54.636719 136.726562 63.425781 126.101562 C 61.664062 125.386719 57.480469 123.671875 53.25 121.847656 C 41.890625 116.949219 41.296875 116.066406 41.039062 115.6875 C 40.5 114.886719 40.238281 111.960938 39.722656 104.96875 C 39.46875 101.496094 39.179688 97.558594 38.804688 94.433594 C 38.253906 89.816406 37.71875 88.832031 37.519531 88.621094 C 36.09375 87.160156 32.320312 85.730469 30.046875 85.730469 Z M 25.269531 152.480469 Z M 25.269531 152.480469 " fill-opacity="1" fill-rule="nonzero"/><path fill="#ffffff" d="M 141.28125 51.40625 C 141.222656 51.40625 141.164062 51.398438 141.109375 51.382812 C 140.746094 51.289062 140.527344 50.917969 140.621094 50.554688 C 140.671875 50.351562 141.914062 45.628906 142.785156 43.097656 C 143.660156 40.554688 149.328125 28.863281 149.566406 28.367188 C 149.734375 28.03125 150.140625 27.890625 150.476562 28.050781 C 150.816406 28.21875 150.957031 28.625 150.792969 28.960938 C 150.734375 29.082031 144.921875 41.074219 144.074219 43.542969 C 143.21875 46.023438 141.953125 50.847656 141.941406 50.898438 C 141.859375 51.203125 141.582031 51.40625 141.28125 51.40625 Z M 141.28125 51.40625 " fill-opacity="1" fill-rule="nonzero"/><path fill="#ffffff" d="M 148.492188 54.324219 C 148.433594 54.324219 148.375 54.316406 148.3125 54.300781 C 147.949219 54.199219 147.738281 53.824219 147.835938 53.464844 C 147.894531 53.242188 149.316406 48.039062 150.1875 45.511719 C 151.0625 42.96875 156.730469 31.277344 156.972656 30.78125 C 157.136719 30.441406 157.542969 30.300781 157.882812 30.464844 C 158.21875 30.628906 158.359375 31.039062 158.195312 31.375 C 158.136719 31.496094 152.324219 43.488281 151.476562 45.953125 C 150.621094 48.441406 149.164062 53.769531 149.148438 53.820312 C 149.066406 54.125 148.792969 54.324219 148.492188 54.324219 Z M 148.492188 54.324219 " fill-opacity="1" fill-rule="nonzero"/><path fill="#ffffff" d="M 156.335938 56.972656 C 156.277344 56.972656 156.214844 56.964844 156.15625 56.945312 C 155.792969 56.847656 155.582031 56.472656 155.679688 56.109375 C 155.691406 56.070312 156.78125 52.140625 157.648438 49.613281 C 158.53125 47.046875 165.128906 35.464844 165.410156 34.972656 C 165.59375 34.644531 166.011719 34.53125 166.339844 34.71875 C 166.664062 34.90625 166.78125 35.320312 166.59375 35.648438 C 166.523438 35.765625 159.78125 47.609375 158.9375 50.058594 C 158.082031 52.542969 157.003906 56.433594 156.992188 56.472656 C 156.910156 56.773438 156.636719 56.972656 156.335938 56.972656 Z M 156.335938 56.972656 " fill-opacity="1" fill-rule="nonzero"/><path fill="#ffffff" d="M 128.863281 143.515625 C 128.757812 143.515625 128.652344 143.488281 128.554688 143.4375 C 128.21875 143.269531 128.085938 142.859375 128.253906 142.523438 C 128.265625 142.5 129.382812 140.257812 129.769531 136.535156 C 130.128906 133.101562 129.925781 127.667969 126.917969 121.273438 C 123.910156 114.875 118.609375 111.058594 114.6875 108.988281 C 110.425781 106.734375 106.859375 105.996094 106.824219 105.988281 C 106.457031 105.914062 106.21875 105.554688 106.292969 105.1875 C 106.367188 104.816406 106.726562 104.578125 107.09375 104.65625 C 107.246094 104.6875 110.890625 105.4375 115.324219 107.78125 C 119.429688 109.953125 124.984375 113.953125 128.152344 120.695312 C 131.308594 127.40625 131.507812 133.128906 131.117188 136.75 C 130.695312 140.699219 129.519531 143.042969 129.46875 143.140625 C 129.351562 143.375 129.109375 143.511719 128.863281 143.511719 Z M 128.863281 143.515625 " fill-opacity="1" fill-rule="nonzero"/><path fill="#adadad" d="M 121.640625 323.664062 C 121.640625 324.214844 121.613281 324.757812 121.558594 325.304688 C 121.503906 325.847656 121.425781 326.390625 121.320312 326.925781 C 121.210938 327.460938 121.078125 327.992188 120.921875 328.515625 C 120.761719 329.039062 120.578125 329.554688 120.367188 330.058594 C 120.160156 330.566406 119.925781 331.058594 119.667969 331.542969 C 119.410156 332.027344 119.128906 332.496094 118.824219 332.949219 C 118.519531 333.40625 118.195312 333.84375 117.847656 334.265625 C 117.5 334.691406 117.132812 335.09375 116.746094 335.480469 C 116.359375 335.867188 115.953125 336.234375 115.53125 336.582031 C 115.105469 336.929688 114.667969 337.253906 114.214844 337.558594 C 113.757812 337.863281 113.289062 338.144531 112.808594 338.402344 C 112.324219 338.660156 111.828125 338.894531 111.324219 339.105469 C 110.820312 339.3125 110.304688 339.496094 109.78125 339.65625 C 109.257812 339.816406 108.726562 339.949219 108.191406 340.054688 C 107.652344 340.160156 107.113281 340.242188 106.566406 340.296875 C 106.023438 340.347656 105.476562 340.375 104.929688 340.375 C 104.382812 340.375 103.835938 340.347656 103.292969 340.296875 C 102.746094 340.242188 102.207031 340.160156 101.667969 340.054688 C 101.132812 339.949219 100.601562 339.816406 100.078125 339.65625 C 99.554688 339.496094 99.039062 339.3125 98.535156 339.105469 C 98.03125 338.894531 97.535156 338.660156 97.050781 338.402344 C 96.570312 338.144531 96.101562 337.863281 95.644531 337.558594 C 95.191406 337.253906 94.753906 336.929688 94.328125 336.582031 C 93.90625 336.234375 93.5 335.867188 93.113281 335.480469 C 92.726562 335.09375 92.359375 334.691406 92.011719 334.265625 C 91.664062 333.84375 91.339844 333.40625 91.035156 332.949219 C 90.730469 332.496094 90.449219 332.027344 90.191406 331.542969 C 89.933594 331.058594 89.699219 330.566406 89.492188 330.058594 C 89.28125 329.554688 89.097656 329.039062 88.9375 328.515625 C 88.78125 327.992188 88.648438 327.460938 88.539062 326.925781 C 88.433594 326.390625 88.355469 325.847656 88.300781 325.304688 C 88.246094 324.757812 88.21875 324.214844 88.21875 323.664062 C 88.21875 323.117188 88.246094 322.574219 88.300781 322.027344 C 88.355469 321.484375 88.433594 320.941406 88.539062 320.40625 C 88.648438 319.871094 88.78125 319.339844 88.9375 318.816406 C 89.097656 318.292969 89.28125 317.777344 89.492188 317.269531 C 89.699219 316.765625 89.933594 316.273438 90.191406 315.789062 C 90.449219 315.304688 90.730469 314.835938 91.035156 314.382812 C 91.339844 313.925781 91.664062 313.488281 92.011719 313.066406 C 92.359375 312.640625 92.726562 312.238281 93.113281 311.851562 C 93.5 311.464844 93.90625 311.097656 94.328125 310.75 C 94.753906 310.402344 95.191406 310.074219 95.644531 309.773438 C 96.101562 309.46875 96.570312 309.1875 97.050781 308.929688 C 97.535156 308.671875 98.03125 308.4375 98.535156 308.226562 C 99.039062 308.019531 99.554688 307.835938 100.078125 307.675781 C 100.601562 307.515625 101.132812 307.382812 101.667969 307.277344 C 102.207031 307.171875 102.746094 307.089844 103.292969 307.035156 C 103.835938 306.984375 104.382812 306.957031 104.929688 306.957031 C 105.476562 306.957031 106.023438 306.984375 106.566406 307.035156 C 107.113281 307.089844 107.652344 307.171875 108.191406 307.277344 C 108.726562 307.382812 109.257812 307.515625 109.78125 307.675781 C 110.304688 307.835938 110.820312 308.019531 111.324219 308.226562 C 111.828125 308.4375 112.324219 308.671875 112.808594 308.929688 C 113.289062 309.1875 113.757812 309.46875 114.214844 309.773438 C 114.667969 310.074219 115.105469 310.402344 115.53125 310.75 C 115.953125 311.097656 116.359375 311.464844 116.746094 311.851562 C 117.132812 312.238281 117.5 312.640625 117.847656 313.066406 C 118.195312 313.488281 118.519531 313.925781 118.824219 314.382812 C 119.128906 314.835938 119.410156 315.304688 119.667969 315.789062 C 119.925781 316.273438 120.160156 316.765625 120.367188 317.269531 C 120.578125 317.777344 120.761719 318.292969 120.921875 318.816406 C 121.078125 319.339844 121.210938 319.871094 121.320312 320.40625 C 121.425781 320.941406 121.503906 321.484375 121.558594 322.027344 C 121.613281 322.574219 121.640625 323.117188 121.640625 323.664062 Z M 121.640625 323.664062 " fill-opacity="1" fill-rule="nonzero"/><path fill="#ffffff" d="M 104.941406 341.058594 C 104.171875 341.058594 103.390625 341.003906 102.605469 340.898438 C 93.105469 339.621094 86.414062 330.84375 87.695312 321.339844 C 88.976562 311.839844 97.75 305.148438 107.253906 306.429688 C 111.855469 307.050781 115.945312 309.425781 118.757812 313.121094 C 121.574219 316.816406 122.785156 321.382812 122.164062 325.988281 C 120.988281 334.707031 113.507812 341.054688 104.941406 341.054688 Z M 104.917969 307.636719 C 97.023438 307.636719 90.128906 313.488281 89.046875 321.523438 C 87.863281 330.28125 94.03125 338.367188 102.789062 339.550781 C 103.511719 339.648438 104.230469 339.695312 104.941406 339.695312 C 112.835938 339.695312 119.730469 333.84375 120.8125 325.804688 C 121.386719 321.5625 120.273438 317.351562 117.675781 313.945312 C 115.078125 310.542969 111.3125 308.351562 107.070312 307.78125 C 106.347656 307.683594 105.628906 307.636719 104.917969 307.636719 Z M 104.917969 307.636719 " fill-opacity="1" fill-rule="nonzero"/><path fill="#c6c2c2" d="M 111.523438 323.664062 C 111.523438 324.097656 111.480469 324.527344 111.394531 324.953125 C 111.3125 325.375 111.1875 325.789062 111.019531 326.1875 C 110.855469 326.589844 110.652344 326.96875 110.410156 327.328125 C 110.171875 327.6875 109.898438 328.019531 109.589844 328.328125 C 109.285156 328.632812 108.953125 328.90625 108.59375 329.148438 C 108.230469 329.386719 107.851562 329.589844 107.453125 329.757812 C 107.050781 329.921875 106.640625 330.046875 106.214844 330.132812 C 105.792969 330.214844 105.363281 330.257812 104.929688 330.257812 C 104.496094 330.257812 104.066406 330.214844 103.644531 330.132812 C 103.21875 330.046875 102.808594 329.921875 102.40625 329.757812 C 102.007812 329.589844 101.628906 329.386719 101.265625 329.148438 C 100.90625 328.90625 100.574219 328.632812 100.269531 328.328125 C 99.960938 328.019531 99.6875 327.6875 99.449219 327.328125 C 99.207031 326.96875 99.003906 326.589844 98.839844 326.1875 C 98.671875 325.789062 98.546875 325.375 98.464844 324.953125 C 98.378906 324.527344 98.335938 324.097656 98.335938 323.664062 C 98.335938 323.234375 98.378906 322.804688 98.464844 322.378906 C 98.546875 321.957031 98.671875 321.542969 98.839844 321.144531 C 99.003906 320.742188 99.207031 320.363281 99.449219 320.003906 C 99.6875 319.644531 99.960938 319.308594 100.269531 319.003906 C 100.574219 318.699219 100.90625 318.425781 101.265625 318.183594 C 101.628906 317.945312 102.007812 317.742188 102.40625 317.574219 C 102.808594 317.410156 103.21875 317.285156 103.644531 317.199219 C 104.066406 317.117188 104.496094 317.074219 104.929688 317.074219 C 105.363281 317.074219 105.792969 317.117188 106.214844 317.199219 C 106.640625 317.285156 107.050781 317.410156 107.453125 317.574219 C 107.851562 317.742188 108.230469 317.945312 108.59375 318.183594 C 108.953125 318.425781 109.285156 318.699219 109.589844 319.003906 C 109.898438 319.308594 110.171875 319.644531 110.410156 320.003906 C 110.652344 320.363281 110.855469 320.742188 111.019531 321.144531 C 111.1875 321.542969 111.3125 321.957031 111.394531 322.378906 C 111.480469 322.804688 111.523438 323.234375 111.523438 323.664062 Z M 111.523438 323.664062 " fill-opacity="1" fill-rule="nonzero"/><path fill="#ffffff" d="M 104.945312 330.941406 C 104.617188 330.941406 104.289062 330.917969 103.957031 330.875 C 99.984375 330.339844 97.183594 326.667969 97.722656 322.691406 C 98.257812 318.71875 101.925781 315.917969 105.902344 316.457031 C 107.828125 316.714844 109.535156 317.710938 110.714844 319.253906 C 111.894531 320.800781 112.398438 322.710938 112.140625 324.636719 C 111.878906 326.5625 110.886719 328.273438 109.339844 329.449219 C 108.058594 330.425781 106.527344 330.941406 104.945312 330.941406 Z M 104.925781 317.753906 C 102.011719 317.753906 99.472656 319.910156 99.070312 322.875 C 98.632812 326.105469 100.90625 329.089844 104.140625 329.523438 C 105.703125 329.734375 107.257812 329.324219 108.515625 328.367188 C 109.769531 327.40625 110.578125 326.019531 110.789062 324.453125 C 111 322.890625 110.589844 321.335938 109.632812 320.082031 C 108.671875 318.824219 107.285156 318.015625 105.71875 317.804688 C 105.453125 317.769531 105.1875 317.753906 104.925781 317.753906 Z M 104.925781 317.753906 " fill-opacity="1" fill-rule="nonzero"/><path fill="#adadad" d="M 180.148438 331.554688 C 180.148438 332.101562 180.121094 332.648438 180.066406 333.191406 C 180.011719 333.734375 179.933594 334.277344 179.828125 334.8125 C 179.71875 335.351562 179.585938 335.878906 179.429688 336.402344 C 179.269531 336.929688 179.085938 337.441406 178.875 337.949219 C 178.667969 338.453125 178.433594 338.949219 178.175781 339.429688 C 177.917969 339.914062 177.636719 340.382812 177.332031 340.835938 C 177.027344 341.292969 176.703125 341.730469 176.355469 342.152344 C 176.007812 342.578125 175.640625 342.980469 175.253906 343.371094 C 174.867188 343.757812 174.460938 344.125 174.039062 344.46875 C 173.617188 344.816406 173.175781 345.144531 172.722656 345.449219 C 172.265625 345.75 171.796875 346.03125 171.316406 346.289062 C 170.832031 346.546875 170.339844 346.78125 169.832031 346.992188 C 169.328125 347.199219 168.8125 347.386719 168.289062 347.542969 C 167.765625 347.703125 167.234375 347.835938 166.699219 347.941406 C 166.160156 348.050781 165.621094 348.128906 165.074219 348.183594 C 164.53125 348.238281 163.984375 348.261719 163.4375 348.261719 C 162.890625 348.261719 162.34375 348.238281 161.800781 348.183594 C 161.253906 348.128906 160.714844 348.050781 160.179688 347.941406 C 159.640625 347.835938 159.109375 347.703125 158.585938 347.542969 C 158.0625 347.386719 157.546875 347.199219 157.042969 346.992188 C 156.539062 346.78125 156.042969 346.546875 155.5625 346.289062 C 155.078125 346.03125 154.609375 345.75 154.152344 345.449219 C 153.699219 345.144531 153.261719 344.816406 152.835938 344.46875 C 152.414062 344.125 152.007812 343.757812 151.621094 343.371094 C 151.234375 342.980469 150.867188 342.578125 150.519531 342.152344 C 150.171875 341.730469 149.847656 341.292969 149.542969 340.835938 C 149.238281 340.382812 148.957031 339.914062 148.699219 339.429688 C 148.441406 338.949219 148.210938 338.453125 148 337.949219 C 147.789062 337.441406 147.605469 336.929688 147.449219 336.402344 C 147.289062 335.878906 147.15625 335.351562 147.046875 334.8125 C 146.941406 334.277344 146.863281 333.734375 146.808594 333.191406 C 146.753906 332.648438 146.726562 332.101562 146.726562 331.554688 C 146.726562 331.007812 146.753906 330.460938 146.808594 329.914062 C 146.863281 329.371094 146.941406 328.832031 147.046875 328.292969 C 147.15625 327.757812 147.289062 327.226562 147.449219 326.703125 C 147.605469 326.179688 147.789062 325.664062 148 325.160156 C 148.210938 324.652344 148.441406 324.160156 148.699219 323.675781 C 148.957031 323.195312 149.238281 322.726562 149.542969 322.269531 C 149.847656 321.816406 150.171875 321.375 150.519531 320.953125 C 150.867188 320.53125 151.234375 320.125 151.621094 319.738281 C 152.007812 319.351562 152.414062 318.984375 152.835938 318.636719 C 153.261719 318.289062 153.699219 317.964844 154.152344 317.660156 C 154.609375 317.355469 155.078125 317.074219 155.5625 316.816406 C 156.042969 316.558594 156.539062 316.324219 157.042969 316.117188 C 157.546875 315.90625 158.0625 315.722656 158.585938 315.5625 C 159.109375 315.402344 159.640625 315.269531 160.179688 315.164062 C 160.714844 315.058594 161.253906 314.976562 161.800781 314.925781 C 162.34375 314.871094 162.890625 314.84375 163.4375 314.84375 C 163.984375 314.84375 164.53125 314.871094 165.074219 314.925781 C 165.621094 314.976562 166.160156 315.058594 166.699219 315.164062 C 167.234375 315.269531 167.765625 315.402344 168.289062 315.5625 C 168.8125 315.722656 169.328125 315.90625 169.832031 316.117188 C 170.339844 316.324219 170.832031 316.558594 171.316406 316.816406 C 171.796875 317.074219 172.265625 317.355469 172.722656 317.660156 C 173.175781 317.964844 173.617188 318.289062 174.039062 318.636719 C 174.460938 318.984375 174.867188 319.351562 175.253906 319.738281 C 175.640625 320.125 176.007812 320.53125 176.355469 320.953125 C 176.703125 321.375 177.027344 321.816406 177.332031 322.269531 C 177.636719 322.726562 177.917969 323.195312 178.175781 323.675781 C 178.433594 324.160156 178.667969 324.652344 178.875 325.160156 C 179.085938 325.664062 179.269531 326.179688 179.429688 326.703125 C 179.585938 327.226562 179.71875 327.757812 179.828125 328.292969 C 179.933594 328.832031 180.011719 329.371094 180.066406 329.914062 C 180.121094 330.460938 180.148438 331.007812 180.148438 331.554688 Z M 180.148438 331.554688 " fill-opacity="1" fill-rule="nonzero"/><path fill="#ffffff" d="M 163.472656 348.949219 C 162.691406 348.949219 161.902344 348.894531 161.113281 348.789062 C 151.609375 347.507812 144.921875 338.734375 146.203125 329.230469 C 147.484375 319.726562 156.257812 313.039062 165.761719 314.316406 C 175.265625 315.597656 181.953125 324.371094 180.671875 333.875 L 179.996094 333.785156 L 180.671875 333.875 C 180.050781 338.480469 177.675781 342.566406 173.980469 345.382812 C 170.917969 347.714844 167.257812 348.945312 163.472656 348.945312 Z M 163.425781 315.523438 C 155.53125 315.523438 148.636719 321.375 147.550781 329.410156 C 146.371094 338.171875 152.535156 346.257812 161.292969 347.4375 C 165.539062 348.011719 169.75 346.894531 173.152344 344.300781 C 176.558594 341.703125 178.75 337.9375 179.320312 333.695312 C 180.5 324.933594 174.335938 316.847656 165.578125 315.667969 C 164.855469 315.570312 164.136719 315.523438 163.425781 315.523438 Z M 163.425781 315.523438 " fill-opacity="1" fill-rule="nonzero"/><path fill="#c6c2c2" d="M 170.03125 331.554688 C 170.03125 331.988281 169.988281 332.414062 169.902344 332.839844 C 169.820312 333.265625 169.695312 333.675781 169.527344 334.078125 C 169.363281 334.476562 169.160156 334.855469 168.917969 335.214844 C 168.679688 335.574219 168.40625 335.910156 168.097656 336.214844 C 167.792969 336.519531 167.460938 336.792969 167.101562 337.035156 C 166.738281 337.273438 166.359375 337.476562 165.960938 337.644531 C 165.558594 337.808594 165.148438 337.933594 164.722656 338.019531 C 164.300781 338.101562 163.871094 338.144531 163.4375 338.144531 C 163.003906 338.144531 162.574219 338.101562 162.152344 338.019531 C 161.726562 337.933594 161.316406 337.808594 160.914062 337.644531 C 160.515625 337.476562 160.136719 337.273438 159.773438 337.035156 C 159.414062 336.792969 159.082031 336.519531 158.777344 336.214844 C 158.46875 335.910156 158.195312 335.574219 157.957031 335.214844 C 157.714844 334.855469 157.511719 334.476562 157.347656 334.078125 C 157.183594 333.675781 157.054688 333.265625 156.972656 332.839844 C 156.886719 332.414062 156.84375 331.988281 156.84375 331.554688 C 156.84375 331.121094 156.886719 330.691406 156.972656 330.265625 C 157.054688 329.84375 157.183594 329.429688 157.347656 329.03125 C 157.511719 328.632812 157.714844 328.25 157.957031 327.890625 C 158.195312 327.53125 158.46875 327.199219 158.777344 326.890625 C 159.082031 326.585938 159.414062 326.3125 159.773438 326.074219 C 160.136719 325.832031 160.515625 325.628906 160.914062 325.464844 C 161.316406 325.296875 161.726562 325.171875 162.152344 325.089844 C 162.574219 325.003906 163.003906 324.960938 163.4375 324.960938 C 163.871094 324.960938 164.300781 325.003906 164.722656 325.089844 C 165.148438 325.171875 165.558594 325.296875 165.960938 325.464844 C 166.359375 325.628906 166.738281 325.832031 167.101562 326.074219 C 167.460938 326.3125 167.792969 326.585938 168.097656 326.890625 C 168.40625 327.199219 168.679688 327.53125 168.917969 327.890625 C 169.160156 328.25 169.363281 328.632812 169.527344 329.03125 C 169.695312 329.429688 169.820312 329.84375 169.902344 330.265625 C 169.988281 330.691406 170.03125 331.121094 170.03125 331.554688 Z M 170.03125 331.554688 " fill-opacity="1" fill-rule="nonzero"/><path fill="#ffffff" d="M 163.441406 338.828125 C 163.117188 338.828125 162.792969 338.804688 162.464844 338.761719 C 158.488281 338.226562 155.691406 334.554688 156.226562 330.582031 C 156.765625 326.605469 160.433594 323.808594 164.410156 324.34375 C 168.382812 324.878906 171.183594 328.550781 170.644531 332.523438 C 170.152344 336.171875 167.023438 338.828125 163.441406 338.828125 Z M 163.433594 325.640625 C 160.519531 325.640625 157.976562 327.796875 157.578125 330.761719 C 157.140625 333.992188 159.414062 336.976562 162.644531 337.410156 C 165.875 337.847656 168.859375 335.574219 169.292969 332.339844 C 169.730469 329.109375 167.457031 326.128906 164.226562 325.691406 C 163.957031 325.65625 163.691406 325.640625 163.429688 325.640625 Z M 169.96875 332.433594 Z M 169.96875 332.433594 " fill-opacity="1" fill-rule="nonzero"/><path fill="#000000" d="M 279.535156 160.476562 C 278.691406 158.210938 276.167969 157.0625 273.90625 157.910156 C 264.835938 161.300781 257.605469 165.019531 251.789062 169.28125 C 245.074219 174.207031 240.101562 179.902344 236.628906 186.648438 L 57.820312 162.542969 C 47.886719 161.203125 39.027344 168.875 38.929688 178.894531 L 38.519531 220.34375 C 38.347656 237.667969 51.105469 252.40625 68.273438 254.722656 L 192.566406 271.476562 C 209.734375 273.792969 225.941406 262.957031 230.363281 246.207031 L 245.589844 188.535156 C 251.265625 179.039062 261.125 172.03125 276.96875 166.105469 C 279.234375 165.257812 280.382812 162.738281 279.535156 160.472656 Z M 75.488281 246.863281 L 69.441406 246.050781 C 57.835938 244.484375 48.902344 235.242188 47.472656 223.894531 L 78.03125 228.011719 Z M 79.199219 219.339844 L 47.324219 215.042969 L 47.515625 195.6875 L 81.765625 200.304688 L 79.195312 219.339844 Z M 47.601562 186.867188 L 47.679688 178.980469 C 47.703125 176.679688 48.671875 174.582031 50.414062 173.078125 C 52.152344 171.570312 54.371094 170.910156 56.648438 171.21875 L 85.167969 175.0625 L 82.933594 191.632812 L 47.601562 186.871094 Z M 123.746094 253.371094 L 84.160156 248.03125 L 86.703125 229.179688 L 126.289062 234.519531 Z M 127.457031 225.84375 L 87.871094 220.507812 L 90.4375 201.472656 L 130.023438 206.8125 Z M 91.609375 192.800781 L 93.84375 176.230469 L 133.425781 181.570312 L 131.195312 198.136719 Z M 174.472656 260.207031 L 132.421875 254.539062 L 134.964844 235.6875 L 177.015625 241.355469 Z M 178.183594 232.683594 L 136.132812 227.015625 L 138.699219 207.980469 L 180.75 213.652344 Z M 139.867188 199.308594 L 142.101562 182.738281 L 184.152344 188.40625 L 181.917969 204.976562 Z M 193.734375 262.804688 L 183.144531 261.378906 L 185.6875 242.527344 L 220.789062 247.257812 C 216.402344 257.820312 205.339844 264.367188 193.734375 262.804688 Z M 223.273438 238.761719 L 186.855469 233.851562 L 189.421875 214.820312 L 228.214844 220.050781 Z M 230.464844 211.519531 L 190.59375 206.144531 L 192.828125 189.574219 L 234.765625 195.230469 Z M 230.464844 211.519531 " fill-opacity="1" fill-rule="nonzero"/><path fill="#ffffff" d="M 197.160156 272.46875 C 195.601562 272.46875 194.035156 272.367188 192.472656 272.15625 L 68.183594 255.398438 C 59.714844 254.257812 51.96875 250.070312 46.375 243.609375 C 40.785156 237.148438 37.75 228.882812 37.835938 220.339844 L 38.246094 178.890625 C 38.292969 173.917969 40.480469 169.199219 44.238281 165.945312 C 48 162.691406 52.980469 161.207031 57.910156 161.871094 L 236.242188 185.914062 C 239.753906 179.25 244.710938 173.628906 251.386719 168.734375 C 257.25 164.433594 264.539062 160.683594 273.664062 157.273438 C 274.929688 156.800781 276.304688 156.847656 277.53125 157.40625 C 278.761719 157.964844 279.699219 158.972656 280.171875 160.238281 C 281.148438 162.851562 279.816406 165.769531 277.207031 166.746094 C 269.25 169.71875 262.921875 172.921875 257.859375 176.539062 C 252.835938 180.125 249.027344 184.140625 246.21875 188.804688 L 231.019531 246.382812 C 228.835938 254.644531 223.722656 261.8125 216.621094 266.558594 C 210.828125 270.433594 204.054688 272.46875 197.160156 272.46875 Z M 55.59375 163.074219 C 51.777344 163.074219 48.054688 164.445312 45.132812 166.972656 C 41.667969 169.972656 39.65625 174.320312 39.609375 178.902344 L 39.199219 220.351562 C 39.117188 228.5625 42.035156 236.507812 47.410156 242.714844 C 52.785156 248.925781 60.226562 252.949219 68.367188 254.046875 L 192.65625 270.804688 C 200.796875 271.902344 209.039062 269.992188 215.867188 265.425781 C 222.695312 260.863281 227.609375 253.976562 229.707031 246.035156 L 244.929688 188.363281 C 244.945312 188.304688 244.972656 188.242188 245.003906 188.1875 C 247.914062 183.324219 251.859375 179.148438 257.070312 175.429688 C 262.234375 171.746094 268.664062 168.488281 276.734375 165.46875 C 278.640625 164.757812 279.613281 162.625 278.902344 160.714844 C 278.554688 159.789062 277.871094 159.054688 276.972656 158.648438 C 276.074219 158.238281 275.070312 158.203125 274.144531 158.546875 C 265.136719 161.914062 257.957031 165.605469 252.195312 169.832031 C 245.554688 174.703125 240.660156 180.304688 237.234375 186.960938 C 237.105469 187.21875 236.824219 187.363281 236.539062 187.324219 L 57.730469 163.21875 C 57.019531 163.125 56.304688 163.078125 55.597656 163.078125 Z M 197.15625 263.714844 C 195.992188 263.714844 194.820312 263.636719 193.644531 263.480469 L 183.054688 262.050781 C 182.878906 262.027344 182.714844 261.933594 182.605469 261.789062 C 182.496094 261.648438 182.445312 261.464844 182.472656 261.285156 L 185.015625 242.433594 C 185.0625 242.0625 185.40625 241.800781 185.78125 241.851562 L 220.878906 246.582031 C 221.089844 246.613281 221.273438 246.734375 221.378906 246.917969 C 221.484375 247.101562 221.5 247.324219 221.417969 247.519531 C 217.308594 257.410156 207.644531 263.714844 197.15625 263.714844 Z M 193.828125 262.128906 C 204.710938 263.597656 215.261719 257.738281 219.804688 247.8125 L 186.273438 243.292969 L 183.914062 260.792969 L 193.824219 262.128906 Z M 174.476562 260.886719 C 174.445312 260.886719 174.414062 260.886719 174.382812 260.882812 L 132.332031 255.214844 C 131.960938 255.164062 131.699219 254.820312 131.75 254.449219 L 134.292969 235.597656 C 134.316406 235.417969 134.410156 235.253906 134.554688 235.144531 C 134.695312 235.035156 134.878906 234.988281 135.058594 235.011719 L 177.109375 240.679688 C 177.285156 240.703125 177.449219 240.796875 177.558594 240.941406 C 177.667969 241.085938 177.71875 241.265625 177.691406 241.445312 L 175.152344 260.296875 C 175.105469 260.640625 174.8125 260.886719 174.476562 260.886719 Z M 133.1875 253.953125 L 173.890625 259.441406 L 176.25 241.941406 L 135.546875 236.453125 Z M 123.75 254.050781 C 123.71875 254.050781 123.6875 254.046875 123.660156 254.042969 L 84.074219 248.707031 C 83.894531 248.679688 83.730469 248.585938 83.621094 248.445312 C 83.511719 248.300781 83.464844 248.117188 83.488281 247.941406 L 86.03125 229.089844 C 86.082031 228.714844 86.425781 228.453125 86.796875 228.503906 L 126.382812 233.839844 C 126.558594 233.867188 126.722656 233.960938 126.832031 234.101562 C 126.941406 234.246094 126.992188 234.429688 126.964844 234.605469 L 124.425781 253.457031 C 124.378906 253.800781 124.085938 254.046875 123.75 254.046875 Z M 84.929688 247.449219 L 123.164062 252.601562 L 125.523438 235.101562 L 87.289062 229.945312 Z M 75.488281 247.542969 C 75.460938 247.542969 75.429688 247.542969 75.398438 247.539062 L 69.351562 246.722656 C 57.5625 245.132812 48.285156 235.78125 46.796875 223.976562 C 46.773438 223.769531 46.84375 223.558594 46.992188 223.410156 C 47.144531 223.261719 47.355469 223.191406 47.566406 223.21875 L 78.121094 227.335938 C 78.496094 227.386719 78.757812 227.730469 78.707031 228.101562 L 76.164062 246.953125 C 76.140625 247.132812 76.046875 247.296875 75.902344 247.40625 C 75.785156 247.496094 75.640625 247.542969 75.492188 247.542969 Z M 48.277344 224.6875 C 50.027344 235.460938 58.652344 243.90625 69.535156 245.371094 L 74.90625 246.09375 L 77.265625 228.59375 L 48.277344 224.683594 Z M 223.277344 239.441406 C 223.246094 239.441406 223.214844 239.441406 223.183594 239.433594 L 186.769531 234.523438 C 186.589844 234.5 186.429688 234.40625 186.316406 234.261719 C 186.207031 234.121094 186.160156 233.9375 186.183594 233.757812 L 188.75 214.726562 C 188.800781 214.355469 189.144531 214.09375 189.515625 214.140625 L 228.308594 219.371094 C 228.5 219.398438 228.675781 219.503906 228.78125 219.667969 C 228.890625 219.832031 228.925781 220.03125 228.875 220.222656 L 223.9375 238.933594 C 223.855469 239.238281 223.582031 239.441406 223.277344 239.441406 Z M 187.625 233.265625 L 222.769531 238.003906 L 227.359375 220.617188 L 190.007812 215.582031 Z M 178.1875 233.363281 C 178.15625 233.363281 178.125 233.359375 178.09375 233.355469 L 136.042969 227.6875 C 135.863281 227.660156 135.703125 227.566406 135.59375 227.425781 C 135.484375 227.28125 135.433594 227.097656 135.457031 226.921875 L 138.023438 207.886719 C 138.074219 207.515625 138.417969 207.253906 138.789062 207.304688 L 180.84375 212.972656 C 181.019531 212.996094 181.183594 213.089844 181.292969 213.234375 C 181.402344 213.375 181.453125 213.558594 181.425781 213.738281 L 178.859375 232.769531 C 178.8125 233.113281 178.523438 233.359375 178.1875 233.359375 Z M 136.898438 226.425781 L 177.601562 231.914062 L 179.984375 214.230469 L 139.285156 208.746094 Z M 127.460938 226.523438 C 127.429688 226.523438 127.398438 226.523438 127.367188 226.515625 L 87.78125 221.179688 C 87.605469 221.15625 87.441406 221.0625 87.332031 220.917969 C 87.222656 220.777344 87.171875 220.59375 87.199219 220.414062 L 89.765625 201.382812 C 89.816406 201.007812 90.160156 200.746094 90.53125 200.796875 L 130.117188 206.136719 C 130.488281 206.183594 130.75 206.527344 130.699219 206.902344 L 128.136719 225.933594 C 128.109375 226.113281 128.015625 226.273438 127.875 226.382812 C 127.753906 226.476562 127.609375 226.523438 127.460938 226.523438 Z M 88.640625 219.921875 L 126.875 225.078125 L 129.257812 207.394531 L 91.023438 202.238281 Z M 79.199219 220.015625 C 79.171875 220.015625 79.136719 220.015625 79.109375 220.011719 L 47.234375 215.714844 C 46.894531 215.667969 46.640625 215.375 46.644531 215.03125 L 46.835938 195.679688 C 46.835938 195.484375 46.921875 195.300781 47.070312 195.171875 C 47.21875 195.042969 47.414062 194.984375 47.609375 195.011719 L 81.855469 199.628906 C 82.035156 199.652344 82.195312 199.746094 82.308594 199.890625 C 82.417969 200.03125 82.464844 200.214844 82.441406 200.394531 L 79.875 219.425781 C 79.828125 219.769531 79.535156 220.015625 79.199219 220.015625 Z M 48.011719 214.445312 L 78.613281 218.570312 L 81 200.886719 L 48.1875 196.464844 Z M 230.46875 212.199219 C 230.4375 212.199219 230.40625 212.199219 230.378906 212.191406 L 190.503906 206.816406 C 190.324219 206.792969 190.164062 206.699219 190.054688 206.554688 C 189.945312 206.414062 189.894531 206.230469 189.917969 206.050781 L 192.152344 189.484375 C 192.179688 189.304688 192.273438 189.144531 192.414062 189.03125 C 192.558594 188.921875 192.738281 188.875 192.917969 188.898438 L 234.859375 194.554688 C 235.050781 194.578125 235.226562 194.6875 235.335938 194.851562 C 235.445312 195.011719 235.476562 195.214844 235.425781 195.402344 L 231.125 211.691406 C 231.046875 211.996094 230.773438 212.199219 230.46875 212.199219 Z M 191.359375 205.558594 L 229.960938 210.761719 L 233.914062 195.800781 L 193.410156 190.339844 Z M 181.921875 205.652344 C 181.890625 205.652344 181.859375 205.652344 181.832031 205.648438 L 139.777344 199.980469 C 139.601562 199.953125 139.4375 199.859375 139.328125 199.71875 C 139.21875 199.574219 139.167969 199.390625 139.195312 199.214844 L 141.429688 182.644531 C 141.480469 182.269531 141.820312 182.011719 142.195312 182.058594 L 184.246094 187.730469 C 184.425781 187.753906 184.585938 187.847656 184.695312 187.992188 C 184.804688 188.132812 184.855469 188.316406 184.828125 188.496094 L 182.59375 205.0625 C 182.550781 205.40625 182.257812 205.652344 181.921875 205.652344 Z M 140.636719 198.71875 L 181.335938 204.207031 L 183.386719 188.988281 L 142.6875 183.5 Z M 131.195312 198.816406 C 131.167969 198.816406 131.136719 198.8125 131.105469 198.808594 L 91.519531 193.472656 C 91.339844 193.445312 91.179688 193.351562 91.066406 193.210938 C 90.960938 193.066406 90.910156 192.882812 90.933594 192.707031 L 93.167969 176.136719 C 93.21875 175.765625 93.5625 175.503906 93.933594 175.550781 L 133.519531 180.890625 C 133.699219 180.914062 133.859375 181.007812 133.972656 181.152344 C 134.082031 181.292969 134.128906 181.476562 134.105469 181.65625 L 131.871094 198.222656 C 131.824219 198.566406 131.53125 198.8125 131.195312 198.8125 Z M 92.375 192.214844 L 130.613281 197.367188 L 132.664062 182.148438 L 94.429688 176.996094 Z M 82.9375 192.308594 C 82.90625 192.308594 82.875 192.308594 82.84375 192.300781 L 47.515625 187.539062 C 47.171875 187.492188 46.921875 187.203125 46.925781 186.859375 L 47.003906 178.972656 C 47.027344 176.472656 48.082031 174.195312 49.96875 172.558594 C 51.859375 170.921875 54.265625 170.207031 56.742188 170.539062 L 85.257812 174.386719 C 85.4375 174.410156 85.601562 174.503906 85.710938 174.648438 C 85.820312 174.789062 85.867188 174.972656 85.84375 175.152344 L 83.609375 191.71875 C 83.5625 192.0625 83.273438 192.308594 82.933594 192.308594 Z M 48.292969 186.269531 L 82.351562 190.863281 L 84.402344 175.644531 L 56.5625 171.890625 C 54.476562 171.609375 52.453125 172.214844 50.863281 173.589844 C 49.273438 174.964844 48.386719 176.882812 48.363281 178.984375 Z M 48.292969 186.269531 " fill-opacity="1" fill-rule="nonzero"/><path fill="#adadad" d="M 282.097656 154.414062 L 293.039062 155.890625 C 293.324219 155.929688 293.605469 155.996094 293.875 156.089844 C 294.148438 156.183594 294.410156 156.300781 294.660156 156.449219 C 294.910156 156.59375 295.140625 156.761719 295.359375 156.949219 C 295.574219 157.140625 295.769531 157.351562 295.945312 157.582031 C 296.121094 157.8125 296.269531 158.054688 296.398438 158.3125 C 296.523438 158.574219 296.625 158.84375 296.699219 159.121094 C 296.769531 159.398438 296.816406 159.683594 296.835938 159.96875 C 296.851562 160.257812 296.84375 160.546875 296.804688 160.832031 L 296.15625 165.652344 C 296.117188 165.9375 296.050781 166.214844 295.957031 166.488281 C 295.863281 166.761719 295.742188 167.023438 295.597656 167.273438 C 295.453125 167.519531 295.285156 167.753906 295.09375 167.96875 C 294.902344 168.1875 294.695312 168.382812 294.464844 168.558594 C 294.234375 168.730469 293.992188 168.882812 293.730469 169.007812 C 293.472656 169.136719 293.203125 169.234375 292.925781 169.308594 C 292.644531 169.382812 292.363281 169.429688 292.074219 169.449219 C 291.789062 169.464844 291.5 169.453125 291.214844 169.417969 L 280.273438 167.941406 C 279.988281 167.902344 279.707031 167.835938 279.433594 167.742188 C 279.160156 167.648438 278.902344 167.53125 278.652344 167.386719 C 278.402344 167.238281 278.167969 167.070312 277.953125 166.882812 C 277.738281 166.691406 277.542969 166.480469 277.367188 166.25 C 277.191406 166.023438 277.039062 165.777344 276.914062 165.519531 C 276.789062 165.257812 276.6875 164.992188 276.613281 164.710938 C 276.539062 164.433594 276.492188 164.148438 276.476562 163.863281 C 276.457031 163.574219 276.46875 163.289062 276.507812 163 L 277.15625 158.179688 C 277.195312 157.894531 277.261719 157.617188 277.355469 157.34375 C 277.449219 157.070312 277.566406 156.808594 277.710938 156.558594 C 277.859375 156.3125 278.027344 156.078125 278.214844 155.863281 C 278.40625 155.644531 278.617188 155.449219 278.847656 155.277344 C 279.074219 155.101562 279.320312 154.949219 279.578125 154.824219 C 279.839844 154.695312 280.105469 154.597656 280.386719 154.523438 C 280.664062 154.449219 280.949219 154.402344 281.234375 154.386719 C 281.523438 154.367188 281.808594 154.378906 282.097656 154.414062 Z M 282.097656 154.414062 " fill-opacity="1" fill-rule="nonzero"/><path fill="#ffffff" d="M 291.820312 170.128906 C 291.589844 170.128906 291.363281 170.117188 291.132812 170.085938 L 280.1875 168.609375 C 277.414062 168.234375 275.464844 165.675781 275.839844 162.902344 L 276.488281 158.082031 C 276.667969 156.738281 277.363281 155.546875 278.441406 154.726562 C 279.519531 153.90625 280.851562 153.550781 282.195312 153.734375 L 293.136719 155.207031 C 294.480469 155.390625 295.671875 156.082031 296.492188 157.160156 C 297.316406 158.238281 297.667969 159.570312 297.488281 160.914062 L 296.835938 165.734375 C 296.65625 167.078125 295.960938 168.269531 294.882812 169.089844 C 293.992188 169.773438 292.921875 170.128906 291.820312 170.128906 Z M 291.3125 168.734375 C 292.292969 168.867188 293.269531 168.609375 294.058594 168.007812 C 294.847656 167.40625 295.351562 166.535156 295.484375 165.554688 L 296.136719 160.730469 C 296.265625 159.75 296.011719 158.773438 295.410156 157.988281 C 294.808594 157.199219 293.9375 156.691406 292.953125 156.558594 L 282.011719 155.085938 C 281.027344 154.953125 280.054688 155.210938 279.265625 155.808594 C 278.476562 156.410156 277.96875 157.28125 277.839844 158.265625 L 277.1875 163.085938 C 276.914062 165.113281 278.34375 166.984375 280.371094 167.257812 Z M 291.3125 168.734375 " fill-opacity="1" fill-rule="nonzero"/><path fill="#adadad" d="M 57.464844 174.992188 L 65.324219 175.859375 C 67.695312 176.125 69.84375 174.445312 70.164062 172.078125 L 71.089844 165.210938 C 71.414062 162.808594 69.726562 160.59375 67.320312 160.269531 L 47.289062 157.570312 C 41.238281 156.753906 35.761719 161.222656 35.347656 167.3125 L 33.910156 188.453125 C 33.75 190.832031 35.515625 192.90625 37.890625 193.125 L 46.453125 193.917969 C 48.816406 194.136719 50.925781 192.441406 51.21875 190.085938 L 52.621094 178.816406 C 52.917969 176.429688 55.074219 174.722656 57.464844 174.988281 Z M 57.464844 174.992188 " fill-opacity="1" fill-rule="nonzero"/><path fill="#ffffff" d="M 46.871094 194.621094 C 46.714844 194.621094 46.550781 194.617188 46.390625 194.601562 L 37.828125 193.808594 C 35.0625 193.550781 33.042969 191.179688 33.230469 188.410156 L 34.667969 167.269531 C 34.878906 164.132812 36.339844 161.3125 38.773438 159.328125 C 41.207031 157.339844 44.265625 156.476562 47.378906 156.894531 L 67.410156 159.597656 C 68.753906 159.777344 69.949219 160.472656 70.769531 161.550781 C 71.589844 162.628906 71.945312 163.964844 71.765625 165.308594 L 70.839844 172.171875 C 70.496094 174.734375 68.347656 176.570312 65.828125 176.570312 C 65.636719 176.570312 65.445312 176.5625 65.25 176.539062 L 57.390625 175.667969 C 55.382812 175.449219 53.546875 176.898438 53.296875 178.902344 L 51.894531 190.171875 C 51.574219 192.75 49.414062 194.625 46.871094 194.625 Z M 45.847656 158.152344 C 43.589844 158.152344 41.421875 158.921875 39.636719 160.378906 C 37.496094 162.125 36.214844 164.605469 36.027344 167.359375 L 34.589844 188.5 C 34.453125 190.527344 35.929688 192.261719 37.953125 192.449219 L 46.515625 193.242188 C 48.527344 193.425781 50.292969 192.003906 50.542969 190 L 51.945312 178.730469 C 52.285156 175.992188 54.796875 174.007812 57.539062 174.3125 L 65.402344 175.183594 C 67.421875 175.40625 69.21875 174.003906 69.492188 171.988281 L 70.414062 165.121094 C 70.546875 164.140625 70.289062 163.164062 69.6875 162.375 C 69.085938 161.585938 68.214844 161.078125 67.230469 160.945312 L 47.199219 158.246094 C 46.746094 158.183594 46.296875 158.152344 45.847656 158.152344 Z M 45.847656 158.152344 " fill-opacity="1" fill-rule="nonzero"/><path fill="#000000" d="M 190.210938 318.300781 L 68.078125 301.835938 C 65.683594 301.511719 64 299.308594 64.324219 296.914062 C 64.648438 294.519531 66.851562 292.839844 69.246094 293.160156 L 188.121094 309.1875 C 189.835938 304.601562 190.074219 300.011719 188.855469 295.238281 C 187.496094 289.914062 184.25 284.292969 179.203125 278.507812 L 75.199219 264.488281 C 72.804688 264.164062 71.125 261.960938 71.445312 259.566406 C 71.769531 257.171875 73.972656 255.488281 76.367188 255.8125 L 181.976562 270.050781 C 182.996094 270.1875 183.933594 270.679688 184.625 271.4375 C 198.519531 286.683594 201.90625 301.652344 194.703125 315.933594 C 193.863281 317.597656 192.058594 318.550781 190.210938 318.300781 Z M 190.210938 318.300781 " fill-opacity="1" fill-rule="nonzero"/><path fill="#ffffff" d="M 190.796875 319.023438 C 190.570312 319.023438 190.347656 319.007812 190.121094 318.976562 L 67.988281 302.511719 C 66.648438 302.332031 65.460938 301.640625 64.640625 300.566406 C 63.824219 299.492188 63.472656 298.164062 63.652344 296.824219 C 64.023438 294.058594 66.574219 292.113281 69.339844 292.488281 L 187.667969 308.4375 C 189.167969 304.152344 189.339844 299.882812 188.195312 295.410156 C 186.878906 290.25 183.738281 284.78125 178.859375 279.152344 L 75.109375 265.164062 C 72.347656 264.792969 70.402344 262.238281 70.773438 259.476562 C 71.144531 256.714844 73.699219 254.765625 76.460938 255.140625 L 182.070312 269.378906 C 183.246094 269.535156 184.332031 270.105469 185.132812 270.984375 C 199.234375 286.457031 202.660156 301.683594 195.3125 316.242188 C 194.445312 317.964844 192.683594 319.023438 190.796875 319.023438 Z M 68.660156 293.804688 C 66.839844 293.804688 65.25 295.152344 65 297.003906 C 64.867188 297.980469 65.125 298.953125 65.722656 299.738281 C 66.320312 300.523438 67.191406 301.027344 68.167969 301.160156 L 190.300781 317.625 C 191.863281 317.835938 193.386719 317.035156 194.09375 315.628906 C 201.160156 301.625 197.804688 286.914062 184.125 271.902344 C 183.539062 271.261719 182.746094 270.84375 181.886719 270.726562 L 76.277344 256.492188 C 74.261719 256.21875 72.394531 257.640625 72.121094 259.660156 C 71.851562 261.679688 73.273438 263.542969 75.292969 263.816406 L 179.296875 277.839844 C 179.460938 277.859375 179.609375 277.941406 179.71875 278.066406 C 184.832031 283.925781 188.128906 289.652344 189.515625 295.074219 C 190.773438 300.003906 190.527344 304.703125 188.761719 309.429688 C 188.648438 309.726562 188.347656 309.910156 188.03125 309.867188 L 69.15625 293.839844 C 68.988281 293.816406 68.824219 293.804688 68.660156 293.804688 Z M 68.660156 293.804688 " fill-opacity="1" fill-rule="nonzero"/><path fill="#adadad" d="M 65.597656 288.265625 L 79.828125 290.183594 C 81.144531 290.363281 82.074219 291.578125 81.894531 292.898438 L 80.476562 303.417969 C 80.296875 304.738281 79.082031 305.664062 77.761719 305.488281 L 63.535156 303.570312 C 60.25 303.125 57.941406 300.097656 58.382812 296.8125 L 58.839844 293.417969 C 59.285156 290.132812 62.3125 287.824219 65.597656 288.265625 Z M 65.597656 288.265625 " fill-opacity="1" fill-rule="nonzero"/><path fill="#ffffff" d="M 78.101562 306.191406 C 77.964844 306.191406 77.824219 306.179688 77.683594 306.160156 L 63.453125 304.242188 C 61.683594 304.003906 60.113281 303.089844 59.027344 301.671875 C 57.945312 300.25 57.480469 298.492188 57.71875 296.722656 L 58.175781 293.324219 C 58.414062 291.554688 59.328125 289.984375 60.75 288.898438 C 62.171875 287.816406 63.929688 287.351562 65.699219 287.589844 L 79.929688 289.507812 C 80.746094 289.621094 81.476562 290.042969 81.976562 290.699219 C 82.476562 291.359375 82.691406 292.167969 82.582031 292.988281 L 81.164062 303.507812 C 81.054688 304.328125 80.632812 305.054688 79.972656 305.558594 C 79.429688 305.972656 78.777344 306.191406 78.105469 306.191406 Z M 64.796875 288.890625 C 63.636719 288.890625 62.515625 289.269531 61.574219 289.984375 C 60.445312 290.84375 59.714844 292.097656 59.527344 293.507812 L 59.070312 296.902344 C 58.878906 298.3125 59.25 299.710938 60.113281 300.84375 C 60.976562 301.976562 62.226562 302.703125 63.636719 302.890625 L 77.867188 304.808594 C 78.324219 304.871094 78.777344 304.75 79.148438 304.472656 C 79.515625 304.191406 79.75 303.78125 79.8125 303.324219 L 81.230469 292.804688 C 81.292969 292.347656 81.171875 291.890625 80.890625 291.523438 C 80.609375 291.15625 80.207031 290.917969 79.746094 290.859375 L 65.515625 288.941406 C 65.277344 288.90625 65.035156 288.890625 64.792969 288.890625 Z M 64.796875 288.890625 " fill-opacity="1" fill-rule="nonzero"/></svg>