<svg xmlns="http://www.w3.org/2000/svg" xmlns:xlink="http://www.w3.org/1999/xlink" width="500" zoomAndPan="magnify" viewBox="0 0 375 123.750003" height="165" preserveAspectRatio="xMidYMid meet" version="1.0"><defs><g/><clipPath id="e9284595fc"><path d="M 221 69.109375 L 241 69.109375 L 241 89 L 221 89 Z M 221 69.109375 " clip-rule="nonzero"/></clipPath><clipPath id="70a0a55944"><path d="M 233 80 L 277 80 L 277 123.386719 L 233 123.386719 Z M 233 80 " clip-rule="nonzero"/></clipPath></defs><g fill="#000000" fill-opacity="1"><g transform="translate(16.385448, 76.327978)"><g><path d="M 16.960938 -4.070312 C 16.816406 -2.375 15.703125 -1.308594 14.25 -1.308594 C 12.941406 -1.308594 11.535156 -2.230469 11.535156 -4.554688 L 11.535156 -30.773438 L 17.011719 -30.773438 L 17.011719 -31.792969 L 11.535156 -31.792969 L 11.535156 -44.585938 L 5.765625 -44.585938 L 5.765625 -31.792969 L 2.421875 -31.792969 L 2.421875 -30.773438 L 5.765625 -30.773438 L 5.765625 -7.949219 C 5.765625 -5.863281 5.960938 -4.121094 6.589844 -2.8125 C 7.707031 -0.53125 9.691406 0.484375 12.746094 0.484375 C 15.800781 0.484375 17.882812 -1.503906 18.027344 -4.070312 Z M 16.960938 -4.070312 "/></g></g></g><g fill="#000000" fill-opacity="1"><g transform="translate(35.863957, 76.327978)"><g><path d="M 11.777344 -31.792969 L 2.664062 -31.792969 L 2.664062 -30.773438 L 6.007812 -30.773438 L 6.007812 -1.019531 L 2.664062 -1.019531 L 2.664062 0 L 15.410156 0 L 15.410156 -1.019531 L 11.777344 -1.019531 L 11.777344 -26.605469 C 13.277344 -29.320312 15.800781 -31.160156 17.785156 -31.160156 C 18.269531 -31.160156 18.609375 -31.066406 18.707031 -31.015625 C 17.15625 -30.824219 15.992188 -29.417969 15.992188 -27.769531 C 15.992188 -25.832031 17.445312 -24.375 19.386719 -24.375 C 21.371094 -24.375 22.824219 -25.925781 22.824219 -27.964844 C 22.824219 -30.386719 20.839844 -32.226562 18.125 -32.226562 C 15.605469 -32.226562 13.132812 -30.484375 11.777344 -28.300781 Z M 11.777344 -31.792969 "/></g></g></g><g fill="#000000" fill-opacity="1"><g transform="translate(58.685798, 76.327978)"><g><path d="M 24.667969 -6.203125 C 23.214844 -2.617188 20.015625 -0.53125 16.863281 -0.53125 C 14.101562 -0.53125 12.164062 -2.035156 11.144531 -3.390625 C 9.207031 -6.007812 9.160156 -8.820312 9.160156 -12.453125 L 9.160156 -19.964844 C 9.160156 -24.617188 9.933594 -26.992188 11.4375 -28.691406 C 12.84375 -30.289062 14.636719 -31.210938 16.914062 -31.210938 C 19.386719 -31.210938 21.421875 -30.09375 22.679688 -28.351562 C 24.183594 -26.316406 24.667969 -24.132812 24.667969 -19.578125 Z M 30.433594 -17.496094 C 30.433594 -22.148438 29.417969 -25.152344 26.75 -28.058594 C 24.28125 -30.726562 20.5 -32.226562 16.914062 -32.226562 C 11.050781 -32.226562 5.765625 -28.496094 4.121094 -23.066406 C 3.539062 -21.226562 3.390625 -19.722656 3.390625 -17.640625 L 3.390625 -14.101562 C 3.390625 -9.886719 4.554688 -6.542969 6.882812 -3.925781 C 9.207031 -1.308594 12.84375 0.484375 16.621094 0.484375 C 20.0625 0.484375 23.214844 -1.453125 24.714844 -4.023438 L 24.714844 0 L 33.777344 0 L 33.777344 -1.019531 L 30.433594 -1.019531 Z M 30.433594 -17.496094 "/></g></g></g><g fill="#000000" fill-opacity="1"><g transform="translate(94.251037, 76.327978)"><g><path d="M 9.160156 -19.289062 C 9.160156 -22.921875 9.207031 -25.734375 11.144531 -28.351562 C 12.164062 -29.707031 14.101562 -31.210938 16.863281 -31.210938 C 20.015625 -31.210938 23.214844 -29.125 24.667969 -25.539062 L 24.667969 -11.777344 C 24.667969 -7.125 23.890625 -4.75 22.390625 -3.054688 C 20.984375 -1.453125 19.191406 -0.53125 16.914062 -0.53125 C 14.441406 -0.53125 12.40625 -1.648438 11.144531 -3.390625 C 9.644531 -5.429688 9.160156 -7.609375 9.160156 -12.164062 Z M 30.433594 -43.566406 L 33.777344 -43.566406 L 33.777344 -44.585938 L 24.667969 -44.585938 L 24.667969 -27.722656 C 23.164062 -30.289062 20.0625 -32.226562 16.621094 -32.226562 C 12.84375 -32.226562 9.207031 -30.433594 6.882812 -27.816406 C 4.554688 -25.199219 3.390625 -21.855469 3.390625 -17.640625 L 3.390625 -14.25 C 3.390625 -9.59375 4.410156 -6.589844 7.074219 -3.683594 C 9.546875 -1.019531 13.328125 0.484375 16.914062 0.484375 C 22.777344 0.484375 28.058594 -3.246094 29.707031 -8.675781 C 30.289062 -10.515625 30.433594 -12.019531 30.433594 -14.101562 Z M 30.433594 -43.566406 "/></g></g></g><g fill="#000000" fill-opacity="1"><g transform="translate(128.508024, 76.327978)"><g><path d="M 30.386719 -15.167969 L 30.386719 -17.398438 C 30.386719 -23.214844 28.835938 -26.171875 25.878906 -28.882812 C 23.554688 -31.015625 20.015625 -32.226562 16.914062 -32.226562 C 8.917969 -32.226562 3.390625 -26.21875 3.390625 -17.980469 L 3.390625 -14.101562 C 3.390625 -9.546875 4.410156 -6.542969 6.929688 -3.78125 C 9.304688 -1.210938 12.890625 0.484375 17.203125 0.484375 C 22.875 0.484375 27.234375 -2.519531 29.851562 -8.238281 L 28.933594 -8.675781 C 26.171875 -3.054688 22.4375 -0.53125 17.351562 -0.53125 C 13.570312 -0.53125 11.195312 -2.328125 10.082031 -5.136719 C 9.257812 -7.222656 9.160156 -9.886719 9.160156 -13.472656 L 9.160156 -15.167969 Z M 24.667969 -16.1875 L 9.160156 -16.1875 L 9.160156 -19.964844 C 9.160156 -24.617188 9.933594 -26.992188 11.4375 -28.691406 C 12.84375 -30.289062 14.636719 -31.210938 16.914062 -31.210938 C 19.386719 -31.210938 21.421875 -30.09375 22.679688 -28.351562 C 24.183594 -26.316406 24.667969 -24.132812 24.667969 -19.578125 Z M 24.667969 -16.1875 "/></g></g></g><g fill="#000000" fill-opacity="1"><g transform="translate(161.31139, 76.327978)"><g/></g></g><g fill="#000000" fill-opacity="1"><g transform="translate(185.344576, 76.327978)"><g><path d="M 35.8125 -30.773438 L 35.8125 -31.792969 L 27.722656 -31.792969 L 27.722656 -30.773438 L 31.015625 -30.773438 L 19.964844 -7.753906 L 9.59375 -30.773438 L 12.84375 -30.773438 L 12.84375 -31.792969 L 0 -31.792969 L 0 -30.773438 L 3.199219 -30.773438 L 17.351562 0.339844 L 32.324219 -30.773438 Z M 35.8125 -30.773438 "/></g></g></g><g fill="#000000" fill-opacity="1"><g transform="translate(219.698471, 76.327978)"><g><path d="M 30.191406 -17.496094 C 30.191406 -22.148438 29.175781 -25.152344 26.507812 -28.058594 C 24.039062 -30.726562 20.257812 -32.226562 16.671875 -32.226562 C 10.808594 -32.226562 5.523438 -28.496094 3.878906 -23.066406 C 3.296875 -21.226562 3.148438 -19.722656 3.148438 -17.640625 L 3.148438 -14.25 C 3.148438 -9.59375 4.167969 -6.589844 6.832031 -3.683594 C 9.304688 -1.019531 13.085938 0.484375 16.671875 0.484375 C 22.535156 0.484375 27.816406 -3.246094 29.464844 -8.675781 C 30.046875 -10.515625 30.191406 -12.019531 30.191406 -14.101562 Z M 24.425781 -11.777344 C 24.425781 -7.125 23.648438 -4.75 22.148438 -3.054688 C 20.742188 -1.453125 18.949219 -0.53125 16.671875 -0.53125 C 14.199219 -0.53125 12.164062 -1.648438 10.902344 -3.390625 C 9.402344 -5.429688 8.917969 -7.609375 8.917969 -12.164062 L 8.917969 -19.964844 C 8.917969 -24.617188 9.691406 -26.992188 11.195312 -28.691406 C 12.601562 -30.289062 14.394531 -31.210938 16.671875 -31.210938 C 19.144531 -31.210938 21.179688 -30.09375 22.4375 -28.351562 C 23.941406 -26.316406 24.425781 -24.132812 24.425781 -19.578125 Z M 24.425781 -11.777344 "/></g></g></g><g fill="#000000" fill-opacity="1"><g transform="translate(253.034826, 76.327978)"><g><path d="M 24.667969 -6.203125 C 23.214844 -2.617188 20.015625 -0.53125 16.863281 -0.53125 C 14.101562 -0.53125 12.164062 -2.035156 11.144531 -3.390625 C 9.207031 -6.007812 9.160156 -8.820312 9.160156 -12.453125 L 9.160156 -19.964844 C 9.160156 -24.617188 9.933594 -26.992188 11.4375 -28.691406 C 12.84375 -30.289062 14.636719 -31.210938 16.914062 -31.210938 C 19.386719 -31.210938 21.421875 -30.09375 22.679688 -28.351562 C 24.183594 -26.316406 24.667969 -24.132812 24.667969 -19.578125 Z M 30.433594 -17.496094 C 30.433594 -22.148438 29.417969 -25.152344 26.75 -28.058594 C 24.28125 -30.726562 20.5 -32.226562 16.914062 -32.226562 C 11.050781 -32.226562 5.765625 -28.496094 4.121094 -23.066406 C 3.539062 -21.226562 3.390625 -19.722656 3.390625 -17.640625 L 3.390625 -14.101562 C 3.390625 -9.886719 4.554688 -6.542969 6.882812 -3.925781 C 9.207031 -1.308594 12.84375 0.484375 16.621094 0.484375 C 20.0625 0.484375 23.214844 -1.453125 24.714844 -4.023438 L 24.714844 2.179688 C 24.714844 5.523438 24.570312 6.492188 23.988281 7.898438 C 23.457031 9.160156 22.632812 10.226562 21.613281 10.953125 C 20.402344 11.824219 18.5625 12.359375 16.914062 12.359375 C 13.667969 12.359375 10.953125 10.710938 9.886719 8.042969 C 10.46875 8.53125 11.195312 8.722656 11.875 8.722656 C 13.761719 8.722656 15.121094 7.414062 15.121094 5.476562 C 15.121094 3.632812 13.617188 2.179688 11.824219 2.179688 C 9.839844 2.179688 8.335938 3.878906 8.335938 6.058594 C 8.335938 10.175781 12.117188 13.328125 17.105469 13.328125 C 22.921875 13.328125 28.449219 9.160156 29.757812 3.925781 C 30.242188 1.988281 30.433594 -0.289062 30.433594 -4.167969 Z M 30.433594 -17.496094 "/></g></g></g><g fill="#000000" fill-opacity="1"><g transform="translate(286.855732, 76.327978)"><g><path d="M 23.941406 -31.792969 L 23.941406 -30.773438 L 27.285156 -30.773438 L 27.285156 -10.46875 C 27.285156 -4.265625 24.039062 -0.582031 19.53125 -0.582031 C 15.023438 -0.582031 11.777344 -4.265625 11.777344 -10.46875 L 11.777344 -30.773438 L 15.023438 -30.773438 L 15.023438 -31.792969 L 2.664062 -31.792969 L 2.664062 -30.773438 L 6.007812 -30.773438 L 6.007812 -14.25 C 6.007812 -11.875 6.398438 -9.546875 7.074219 -7.800781 C 9.0625 -2.90625 14.003906 0.4375 19.53125 0.4375 C 25.054688 0.4375 30 -2.90625 31.984375 -7.800781 C 32.664062 -9.546875 33.050781 -11.875 33.050781 -14.25 L 33.050781 -30.773438 L 36.296875 -30.773438 L 36.296875 -31.792969 Z M 23.941406 -31.792969 "/></g></g></g><g fill="#000000" fill-opacity="1"><g transform="translate(325.812752, 76.327978)"><g><path d="M 30.386719 -15.167969 L 30.386719 -17.398438 C 30.386719 -23.214844 28.835938 -26.171875 25.878906 -28.882812 C 23.554688 -31.015625 20.015625 -32.226562 16.914062 -32.226562 C 8.917969 -32.226562 3.390625 -26.21875 3.390625 -17.980469 L 3.390625 -14.101562 C 3.390625 -9.546875 4.410156 -6.542969 6.929688 -3.78125 C 9.304688 -1.210938 12.890625 0.484375 17.203125 0.484375 C 22.875 0.484375 27.234375 -2.519531 29.851562 -8.238281 L 28.933594 -8.675781 C 26.171875 -3.054688 22.4375 -0.53125 17.351562 -0.53125 C 13.570312 -0.53125 11.195312 -2.328125 10.082031 -5.136719 C 9.257812 -7.222656 9.160156 -9.886719 9.160156 -13.472656 L 9.160156 -15.167969 Z M 24.667969 -16.1875 L 9.160156 -16.1875 L 9.160156 -19.964844 C 9.160156 -24.617188 9.933594 -26.992188 11.4375 -28.691406 C 12.84375 -30.289062 14.636719 -31.210938 16.914062 -31.210938 C 19.386719 -31.210938 21.421875 -30.09375 22.679688 -28.351562 C 24.183594 -26.316406 24.667969 -24.132812 24.667969 -19.578125 Z M 24.667969 -16.1875 "/></g></g></g><g clip-path="url(#e9284595fc)"><path fill="#000000" d="M 231.519531 88.539062 C 228.089844 88.425781 224.5 85.515625 222.546875 82.332031 C 220.988281 79.769531 220.792969 77.09375 222 74.769531 C 224.34375 70.273438 229.140625 72.558594 231.984375 73.921875 C 232.535156 74.191406 233.035156 74.425781 233.503906 74.621094 C 234.832031 75.167969 236.972656 75.167969 237.832031 74.351562 C 238.613281 73.617188 238.300781 72.140625 237.871094 71.054688 C 237.601562 70.394531 237.953125 69.660156 238.613281 69.390625 C 239.269531 69.121094 240.015625 69.472656 240.285156 70.125 C 241.53125 73.421875 240.636719 75.25 239.621094 76.21875 C 237.710938 78.046875 234.28125 77.808594 232.488281 77.035156 C 231.976562 76.796875 231.4375 76.570312 230.847656 76.300781 C 227.066406 74.4375 225.3125 74.007812 224.335938 75.949219 C 223.320312 77.890625 224.023438 79.75 224.761719 80.992188 C 226.246094 83.398438 229.445312 85.257812 231.976562 85.453125 C 232.132812 85.453125 232.40625 85.648438 232.371094 85.878906 L 232.132812 88.046875 C 232.105469 88.042969 231.953125 88.539062 231.519531 88.539062 Z M 231.519531 88.539062 " fill-opacity="1" fill-rule="nonzero"/></g><g clip-path="url(#70a0a55944)"><path fill="#000000" d="M 241.929688 85.089844 C 242.515625 85.246094 243.0625 85.554688 243.488281 85.980469 C 245.007812 87.457031 245.046875 89.820312 243.53125 91.289062 C 242.011719 92.765625 239.554688 92.800781 238.027344 91.332031 C 236.511719 89.855469 236.46875 87.488281 237.988281 86.019531 C 238.300781 85.710938 238.652344 85.515625 239.003906 85.285156 C 239.160156 85.203125 239.199219 85.046875 239.199219 84.933594 C 239.398438 83.695312 239.28125 82.332031 239.242188 81.753906 C 239.242188 81.597656 239.003906 81.515625 238.929688 81.515625 C 237.757812 81.753906 236.550781 82.023438 235.265625 82.371094 C 234.835938 82.488281 234.558594 82.722656 234.484375 83.148438 C 232.617188 91.214844 233.082031 95.988281 233.28125 97.34375 C 233.320312 97.613281 233.433594 97.808594 233.589844 97.964844 C 235.347656 99.75 246.890625 111.351562 259.519531 122.675781 C 259.792969 122.910156 260.414062 123.375 260.921875 122.945312 C 266.582031 118.5625 272.269531 113.398438 276.832031 107.386719 C 277.183594 106.921875 276.871094 106.222656 276.59375 105.992188 C 264.898438 93.972656 252.691406 83.148438 250.625 81.328125 C 250.425781 81.132812 250.199219 81.058594 249.960938 81.019531 C 248.984375 80.863281 245.984375 80.554688 241.734375 81.058594 C 241.652344 81.058594 241.464844 81.214844 241.464844 81.410156 C 241.421875 82.027344 241.382812 83.464844 241.660156 84.703125 C 241.695312 84.859375 241.777344 85.046875 241.929688 85.089844 Z M 241.929688 85.089844 " fill-opacity="1" fill-rule="nonzero"/></g></svg>