<svg xmlns="http://www.w3.org/2000/svg" xmlns:xlink="http://www.w3.org/1999/xlink" width="500" zoomAndPan="magnify" viewBox="0 0 375 374.999991" height="500" preserveAspectRatio="xMidYMid meet" version="1.0"><defs><g/><clipPath id="8b68aaea6a"><path d="M 110 229.679688 L 148 229.679688 L 148 256 L 110 256 Z M 110 229.679688 " clip-rule="nonzero"/></clipPath><clipPath id="516e7b18f9"><path d="M 132 240 L 216.8125 240 L 216.8125 322 L 132 322 Z M 132 240 " clip-rule="nonzero"/></clipPath></defs><g fill="#000000" fill-opacity="1"><g transform="translate(83.175327, 230.717221)"><g><path d="M 65.730469 -15.777344 C 65.167969 -9.203125 60.847656 -5.070312 55.214844 -5.070312 C 50.144531 -5.070312 44.699219 -8.640625 44.699219 -17.652344 L 44.699219 -119.257812 L 65.917969 -119.257812 L 65.917969 -123.199219 L 44.699219 -123.199219 L 44.699219 -172.78125 L 22.347656 -172.78125 L 22.347656 -123.199219 L 9.390625 -123.199219 L 9.390625 -119.257812 L 22.347656 -119.257812 L 22.347656 -30.800781 C 22.347656 -22.722656 23.101562 -15.964844 25.542969 -10.894531 C 29.859375 -2.066406 37.5625 1.878906 49.394531 1.878906 C 61.226562 1.878906 69.300781 -5.820312 69.863281 -15.777344 Z M 65.730469 -15.777344 "/></g></g></g><g fill="#000000" fill-opacity="1"><g transform="translate(158.659402, 230.717221)"><g><path d="M 138.789062 -119.257812 L 138.789062 -123.199219 L 107.425781 -123.199219 L 107.425781 -119.257812 L 120.195312 -119.257812 L 77.375 -30.050781 L 37.183594 -119.257812 L 49.769531 -119.257812 L 49.769531 -123.199219 L 0 -123.199219 L 0 -119.257812 L 12.394531 -119.257812 L 67.234375 1.316406 L 125.265625 -119.257812 Z M 138.789062 -119.257812 "/></g></g></g><g clip-path="url(#8b68aaea6a)"><path fill="#000000" d="M 129.960938 255.554688 C 123.441406 255.335938 116.609375 249.785156 112.898438 243.71875 C 109.933594 238.835938 109.5625 233.734375 111.855469 229.296875 C 116.3125 220.726562 125.4375 225.082031 130.847656 227.679688 C 131.894531 228.191406 132.847656 228.644531 133.734375 229.015625 C 136.261719 230.058594 140.332031 230.058594 141.96875 228.5 C 143.453125 227.101562 142.859375 224.285156 142.046875 222.214844 C 141.53125 220.957031 142.203125 219.554688 143.453125 219.042969 C 144.703125 218.527344 146.117188 219.195312 146.632812 220.441406 C 149.003906 226.726562 147.304688 230.210938 145.371094 232.0625 C 141.738281 235.542969 135.21875 235.09375 131.800781 233.617188 C 130.835938 233.167969 129.804688 232.730469 128.683594 232.214844 C 121.492188 228.667969 118.15625 227.847656 116.300781 231.546875 C 114.367188 235.25 115.707031 238.796875 117.113281 241.160156 C 119.933594 245.75 126.015625 249.296875 130.835938 249.667969 C 131.132812 249.667969 131.648438 250.042969 131.582031 250.480469 L 131.132812 254.617188 C 131.082031 254.605469 130.785156 255.554688 129.960938 255.554688 Z M 129.960938 255.554688 " fill-opacity="1" fill-rule="nonzero"/></g><g clip-path="url(#516e7b18f9)"><path fill="#000000" d="M 149.765625 248.976562 C 150.875 249.269531 151.917969 249.863281 152.730469 250.671875 C 155.617188 253.488281 155.691406 257.996094 152.808594 260.800781 C 149.921875 263.613281 145.242188 263.679688 142.34375 260.875 C 139.457031 258.0625 139.378906 253.550781 142.265625 250.75 C 142.859375 250.15625 143.527344 249.785156 144.199219 249.347656 C 144.496094 249.195312 144.574219 248.898438 144.574219 248.679688 C 144.945312 246.316406 144.726562 243.71875 144.648438 242.613281 C 144.648438 242.316406 144.199219 242.164062 144.058594 242.164062 C 141.828125 242.613281 139.535156 243.128906 137.085938 243.796875 C 136.273438 244.015625 135.746094 244.464844 135.605469 245.273438 C 132.046875 260.660156 132.9375 269.757812 133.308594 272.339844 C 133.386719 272.855469 133.605469 273.226562 133.902344 273.523438 C 137.242188 276.929688 159.199219 299.046875 183.21875 320.640625 C 183.734375 321.089844 184.917969 321.976562 185.886719 321.15625 C 196.644531 312.800781 207.46875 302.957031 216.140625 291.492188 C 216.8125 290.605469 216.21875 289.269531 215.691406 288.832031 C 193.449219 265.914062 170.226562 245.273438 166.296875 241.804688 C 165.925781 241.429688 165.488281 241.289062 165.035156 241.210938 C 163.179688 240.917969 157.472656 240.324219 149.390625 241.289062 C 149.238281 241.289062 148.875 241.585938 148.875 241.957031 C 148.800781 243.140625 148.722656 245.878906 149.25 248.242188 C 149.316406 248.539062 149.46875 248.898438 149.765625 248.976562 Z M 149.765625 248.976562 " fill-opacity="1" fill-rule="nonzero"/></g></svg>