<svg xmlns="http://www.w3.org/2000/svg" xmlns:xlink="http://www.w3.org/1999/xlink" width="500" zoomAndPan="magnify" viewBox="0 0 375 123.750003" height="165" preserveAspectRatio="xMidYMid meet" version="1.0"><defs><g/><clipPath id="dbb63d7a73"><path d="M 28 63 L 84.65625 63 L 84.65625 114 L 28 114 Z M 28 63 " clip-rule="nonzero"/></clipPath></defs><g fill="#FFFFFF" fill-opacity="1"><g transform="translate(1.229195, 69.030542)"><g><path d="M 1.230469 -41.023438 L 1.230469 -35.484375 L 1.640625 -35.484375 C 1.640625 -35.609375 1.601562 -35.484375 1.601562 -35.652344 C 1.601562 -38.398438 6.769531 -40.613281 13.824219 -40.613281 L 13.824219 -11.40625 C 13.824219 -3.324219 13.578125 -0.410156 10.050781 -0.410156 L 10.050781 0 L 20.757812 0 L 20.757812 -0.410156 C 17.230469 -0.410156 17.3125 -3.324219 17.3125 -11.40625 L 17.3125 -40.613281 C 24.367188 -40.613281 29.539062 -38.398438 29.539062 -35.652344 C 29.539062 -35.484375 29.496094 -35.609375 29.496094 -35.484375 L 29.90625 -35.484375 L 29.90625 -41.023438 Z M 1.230469 -41.023438 "/></g></g></g><g fill="#FFFFFF" fill-opacity="1"><g transform="translate(32.359455, 69.030542)"><g><path d="M 1.230469 0 L 12.265625 0 L 12.265625 -0.410156 C 8.738281 -0.410156 8.492188 -3.324219 8.492188 -11.40625 L 8.492188 -39.957031 C 10.996094 -40.859375 12.964844 -41.269531 16 -41.269531 C 23.628906 -41.269531 28.429688 -37.085938 28.429688 -30.277344 C 28.429688 -25.351562 25.105469 -20.308594 19.980469 -20.308594 C 16.164062 -20.308594 14.277344 -22.644531 11.855469 -22.644531 C 11.117188 -22.644531 10.421875 -22.234375 10.421875 -21.25 C 10.421875 -18.460938 14.769531 -18.296875 18.75 -12.308594 C 25.230469 -2.585938 26.378906 0 28.265625 0 L 34.542969 0 L 34.542969 -0.410156 C 29.867188 -0.410156 26.050781 -7.710938 22.808594 -12.757812 C 19.488281 -17.929688 10.832031 -18.503906 10.832031 -21.167969 C 10.832031 -22.113281 11.527344 -22.234375 12.019531 -22.234375 C 13.742188 -22.234375 16.367188 -19.609375 20.226562 -19.609375 C 27.363281 -19.609375 31.957031 -24.695312 31.957031 -30.316406 C 31.957031 -37.003906 27.078125 -41.84375 18.339844 -41.84375 C 13.578125 -41.84375 10.667969 -41.023438 6.152344 -41.023438 L 1.230469 -41.023438 L 1.230469 -40.613281 C 4.757812 -40.613281 5.003906 -37.703125 5.003906 -29.621094 L 5.003906 -11.40625 C 5.003906 -3.324219 4.757812 -0.410156 1.230469 -0.410156 Z M 1.230469 0 "/></g></g></g><g fill="#FFFFFF" fill-opacity="1"><g transform="translate(68.124398, 69.030542)"><g><path d="M 1.230469 -7.179688 C 1.230469 -2.914062 3.9375 0.820312 8.695312 0.820312 C 16.859375 0.820312 21.660156 -6.398438 21.660156 -16.367188 C 21.660156 -18.339844 21.578125 -19.980469 21.414062 -21.292969 L 26.5 -7.875 C 28.0625 -3.734375 28.265625 -0.410156 22.480469 -0.410156 L 22.480469 0 L 35.9375 0 L 35.9375 -0.410156 C 33.433594 -0.410156 32.121094 -2.667969 30.316406 -7.179688 L 17.1875 -41.84375 L 16.777344 -41.84375 C 14.195312 -35.035156 12.675781 -30.972656 10.175781 -24.367188 C 9.765625 -23.300781 9.96875 -22.195312 11.117188 -22.195312 C 13.457031 -22.195312 14.6875 -26.5 16.65625 -26.5 C 17.1875 -26.5 17.640625 -26.171875 17.640625 -25.394531 C 17.640625 -21.128906 1.230469 -17.269531 1.230469 -7.179688 Z M 4.71875 -7.957031 C 4.71875 -18.09375 18.09375 -19.816406 18.09375 -25.3125 C 18.09375 -26.378906 17.515625 -26.914062 16.738281 -26.914062 C 14.5625 -26.914062 13.046875 -22.605469 11.160156 -22.605469 C 10.503906 -22.605469 10.175781 -23.097656 10.707031 -24.53125 L 15.425781 -37.085938 L 20.390625 -24 C 21.128906 -21.578125 21.25 -19.324219 21.25 -16.285156 C 21.25 -9.558594 18.011719 -1.148438 11.160156 -1.148438 C 7.136719 -1.148438 4.71875 -4.101562 4.71875 -7.957031 Z M 4.71875 -7.957031 "/></g></g></g><g fill="#FFFFFF" fill-opacity="1"><g transform="translate(104.053404, 69.030542)"><g><path d="M 1.230469 0 L 4.511719 0 C 8.820312 0 12.347656 0.820312 15.957031 0.820312 C 28.59375 0.820312 34.582031 -9.273438 34.582031 -20.511719 C 34.582031 -31.753906 28.59375 -41.84375 15.957031 -41.84375 C 12.347656 -41.84375 8.820312 -41.023438 4.511719 -41.023438 L 1.230469 -41.023438 L 1.230469 -40.613281 C 4.757812 -40.613281 5.003906 -37.703125 5.003906 -29.621094 L 5.003906 -11.40625 C 5.003906 -3.324219 4.757812 -0.410156 1.230469 -0.410156 Z M 8.492188 -40.121094 C 10.871094 -40.859375 13.25 -41.269531 15.917969 -41.269531 C 26.050781 -41.269531 31.054688 -31.710938 31.054688 -20.511719 C 31.054688 -9.3125 26.050781 0.246094 15.917969 0.246094 C 13.25 0.246094 10.871094 -0.164062 8.492188 -0.902344 Z M 8.492188 -40.121094 "/></g></g></g><g fill="#FFFFFF" fill-opacity="1"><g transform="translate(141.089804, 69.030542)"><g><path d="M 1.230469 -40.613281 C 4.757812 -40.613281 5.003906 -37.703125 5.003906 -29.621094 L 5.003906 -11.40625 C 5.003906 -3.324219 4.757812 -0.410156 1.230469 -0.410156 L 1.230469 0 L 30.605469 0 L 30.605469 -6.769531 L 30.195312 -6.769531 C 30.195312 -0.863281 17.679688 -0.410156 13.785156 -0.410156 L 8.53125 -0.410156 L 8.53125 -22.316406 C 9.191406 -23.179688 10.214844 -23.792969 11.40625 -23.753906 C 14.316406 -23.671875 16.410156 -20.144531 21.414062 -20.144531 C 24.65625 -20.144531 26.664062 -22.234375 26.664062 -24.65625 L 26.253906 -24.65625 C 26.253906 -23.21875 24.777344 -22.316406 23.21875 -22.316406 C 19.609375 -22.316406 17.351562 -24.859375 13.292969 -24.859375 C 11.40625 -24.859375 9.765625 -24.164062 8.53125 -22.972656 L 8.53125 -40.613281 L 15.34375 -40.613281 C 24.777344 -40.613281 30.195312 -38.398438 30.195312 -35.652344 L 30.195312 -35.484375 L 30.605469 -35.484375 L 30.605469 -41.023438 L 1.230469 -41.023438 Z M 1.230469 -40.613281 "/></g></g></g><g fill="#FFFFFF" fill-opacity="1"><g transform="translate(172.917316, 69.030542)"><g/></g></g><g fill="#FFFFFF" fill-opacity="1"><g transform="translate(187.272509, 69.030542)"><g><path d="M 0 -40.613281 C 2.503906 -40.613281 3.816406 -38.359375 5.621094 -33.84375 L 18.75 0.820312 L 19.160156 0.820312 L 32.285156 -33.84375 C 34.007812 -38.398438 35.402344 -40.613281 37.90625 -40.613281 L 37.90625 -41.023438 L 26.296875 -41.023438 L 26.296875 -40.613281 C 32.082031 -40.613281 32 -36.308594 30.933594 -33.023438 C 27.773438 -23.300781 23.917969 -13.621094 20.511719 -3.9375 L 9.4375 -33.148438 C 7.875 -37.292969 7.671875 -40.613281 13.457031 -40.613281 L 13.457031 -41.023438 L 0 -41.023438 Z M 0 -40.613281 "/></g></g></g><g fill="#FFFFFF" fill-opacity="1"><g transform="translate(225.170225, 69.030542)"><g><path d="M 20.71875 0.820312 C 30.933594 0.820312 38.972656 -8.203125 38.972656 -20.511719 C 38.972656 -32.820312 30.933594 -41.84375 20.71875 -41.84375 C 10.503906 -41.84375 2.460938 -32.820312 2.460938 -20.511719 C 2.460938 -8.203125 10.503906 0.820312 20.71875 0.820312 Z M 20.71875 -41.351562 C 29.210938 -41.351562 35.28125 -32.492188 35.28125 -20.511719 C 35.28125 -8.53125 28.636719 0.328125 20.71875 0.328125 C 12.800781 0.328125 6.152344 -8.53125 6.152344 -20.511719 C 6.152344 -32.492188 12.226562 -41.351562 20.71875 -41.351562 Z M 20.71875 -41.351562 "/></g></g></g><g fill="#FFFFFF" fill-opacity="1"><g transform="translate(266.59522, 69.030542)"><g><path d="M 2.460938 -20.511719 C 2.460938 -8.203125 10.503906 0.820312 20.71875 0.820312 C 26.582031 0.820312 31.464844 -2.132812 34.582031 -7.300781 L 34.582031 -13.210938 C 34.582031 -19.773438 28.71875 -20.511719 23.097656 -20.511719 C 17.929688 -20.511719 12.921875 -19.855469 12.921875 -22.605469 C 12.921875 -24.53125 15.261719 -25.394531 17.804688 -25.394531 C 21.867188 -25.394531 27.40625 -21.457031 32.328125 -21.457031 C 34.871094 -21.457031 37.128906 -22.890625 36.472656 -25.476562 C 36.472656 -25.476562 36.347656 -24.246094 33.476562 -24.246094 C 28.183594 -24.246094 24.820312 -27.980469 18.707031 -27.980469 C 16.246094 -27.980469 12.472656 -26.296875 12.472656 -22.808594 C 12.472656 -20.390625 14.808594 -20.019531 17.804688 -20.019531 C 23.300781 -20.019531 31.054688 -21.210938 31.054688 -13.210938 L 31.054688 -7.425781 C 31.054688 -5.949219 27.9375 0.328125 20.71875 0.328125 C 12.800781 0.328125 6.152344 -8.53125 6.152344 -20.511719 C 6.152344 -32.492188 12.226562 -41.351562 20.71875 -41.351562 C 29.496094 -41.351562 32 -34.460938 32 -34.460938 L 32.410156 -34.460938 L 32.410156 -39.957031 C 29.25 -41.023438 25.761719 -41.84375 20.71875 -41.84375 C 10.503906 -41.84375 2.460938 -32.820312 2.460938 -20.511719 Z M 2.460938 -20.511719 "/></g></g></g><g fill="#FFFFFF" fill-opacity="1"><g transform="translate(304.369897, 69.030542)"><g><path d="M 1.230469 -40.613281 C 4.757812 -40.613281 5.003906 -37.703125 5.003906 -29.621094 L 5.003906 -11.40625 C 5.003906 -3.117188 11.324219 0.820312 18.871094 0.820312 C 26.417969 0.820312 32.574219 -3.199219 32.574219 -11.40625 L 32.574219 -29.621094 C 32.574219 -37.703125 32.820312 -40.613281 36.347656 -40.613281 L 36.347656 -41.023438 L 25.269531 -41.023438 L 25.269531 -40.613281 C 28.800781 -40.613281 29.046875 -37.703125 29.046875 -29.621094 L 29.046875 -11.40625 C 29.046875 -3.488281 24.695312 0.410156 18.871094 0.410156 C 13.046875 0.410156 8.53125 -3.445312 8.53125 -11.40625 L 8.53125 -29.621094 C 8.53125 -37.703125 8.777344 -40.613281 12.308594 -40.613281 L 12.308594 -41.023438 L 1.230469 -41.023438 Z M 1.230469 -40.613281 "/></g></g></g><g fill="#FFFFFF" fill-opacity="1"><g transform="translate(341.939476, 69.030542)"><g><path d="M 1.230469 -40.613281 C 4.757812 -40.613281 5.003906 -37.703125 5.003906 -29.621094 L 5.003906 -11.40625 C 5.003906 -3.324219 4.757812 -0.410156 1.230469 -0.410156 L 1.230469 0 L 30.605469 0 L 30.605469 -6.769531 L 30.195312 -6.769531 C 30.195312 -0.863281 17.679688 -0.410156 13.785156 -0.410156 L 8.53125 -0.410156 L 8.53125 -22.316406 C 9.191406 -23.179688 10.214844 -23.792969 11.40625 -23.753906 C 14.316406 -23.671875 16.410156 -20.144531 21.414062 -20.144531 C 24.65625 -20.144531 26.664062 -22.234375 26.664062 -24.65625 L 26.253906 -24.65625 C 26.253906 -23.21875 24.777344 -22.316406 23.21875 -22.316406 C 19.609375 -22.316406 17.351562 -24.859375 13.292969 -24.859375 C 11.40625 -24.859375 9.765625 -24.164062 8.53125 -22.972656 L 8.53125 -40.613281 L 15.34375 -40.613281 C 24.777344 -40.613281 30.195312 -38.398438 30.195312 -35.652344 L 30.195312 -35.484375 L 30.605469 -35.484375 L 30.605469 -41.023438 L 1.230469 -41.023438 Z M 1.230469 -40.613281 "/></g></g></g><g clip-path="url(#dbb63d7a73)"><path fill="#FFFFFF" d="M 56 75.222656 C 51 75.351562 47.488281 77.8125 44.398438 81.457031 C 39.902344 86.757812 35.125 91.820312 30.429688 96.949219 C 29.464844 98.003906 29.882812 98.710938 30.703125 99.519531 C 34.527344 103.308594 38.636719 106.777344 42.703125 110.296875 C 44.898438 112.203125 44.984375 112.269531 47.078125 110.304688 C 50.496094 107.105469 53.59375 103.585938 56.730469 100.113281 C 59.554688 96.980469 62.3125 93.785156 65.160156 90.671875 C 65.941406 89.816406 66.222656 88.871094 66.332031 87.785156 C 66.570312 85.421875 66.664062 83.0625 66.261719 80.710938 C 65.988281 79.109375 65.847656 79.011719 64.117188 78.5 C 63.6875 79.210938 63.941406 80.019531 63.867188 80.769531 C 63.675781 82.75 62.570312 84.195312 60.929688 84.566406 C 59.375 84.914062 57.660156 84.101562 56.691406 82.554688 C 55.851562 81.21875 56.042969 79.152344 57.144531 77.863281 C 58.140625 76.695312 59.492188 76.378906 60.921875 76.542969 C 62.285156 76.699219 62.75 76.207031 62.648438 74.859375 C 62.515625 73.136719 62.78125 71.4375 63.1875 69.757812 C 64.570312 63.980469 71.632812 61.648438 76.363281 64.53125 C 76.835938 64.820312 77.304688 65.121094 77.777344 65.414062 C 79.476562 66.46875 81.25 66.933594 83.1875 66.113281 C 83.699219 65.894531 84.269531 65.816406 84.460938 66.460938 C 84.648438 67.078125 84.015625 67.1875 83.613281 67.351562 C 81.328125 68.285156 79.253906 67.675781 77.304688 66.402344 C 75.519531 65.234375 73.660156 64.472656 71.449219 64.617188 C 68.003906 64.839844 65.535156 66.742188 64.527344 70.054688 C 63.921875 72.042969 63.847656 74.070312 63.878906 76.121094 C 63.886719 76.703125 64.070312 77.109375 64.636719 77.300781 C 66.933594 78.066406 67.652344 79.882812 67.714844 82.078125 C 67.769531 83.839844 67.765625 85.609375 67.707031 87.375 C 67.652344 89.082031 67.089844 90.523438 65.882812 91.871094 C 59.972656 98.46875 54.15625 105.144531 47.90625 111.425781 C 45.308594 114.039062 45.316406 114.027344 42.5625 111.609375 C 38.382812 107.9375 34.082031 104.40625 30.15625 100.453125 C 27.828125 98.109375 27.796875 98.035156 29.964844 95.550781 C 35.753906 88.914062 41.613281 82.339844 47.875 76.140625 C 48.582031 75.445312 49.371094 75.105469 50.308594 74.941406 C 52.859375 74.492188 55.40625 74.019531 57.957031 73.566406 C 58.273438 73.511719 58.601562 73.476562 58.917969 73.496094 C 59.3125 73.515625 59.675781 73.675781 59.664062 74.144531 C 59.652344 74.542969 59.320312 74.652344 58.984375 74.710938 C 58.027344 74.871094 57.070312 75.03125 56 75.222656 M 57.886719 82.347656 C 59.097656 83.398438 60.527344 83.59375 61.503906 82.835938 C 62.4375 82.117188 63.066406 79.300781 62.519531 78.3125 C 62.375 78.046875 62.140625 77.898438 61.863281 77.855469 C 60.542969 77.648438 59.214844 77.6875 58.242188 78.695312 C 57.300781 79.671875 57.175781 80.902344 57.886719 82.347656 Z M 57.886719 82.347656 " fill-opacity="1" fill-rule="nonzero"/></g></svg>