<svg xmlns="http://www.w3.org/2000/svg" xmlns:xlink="http://www.w3.org/1999/xlink" width="500" zoomAndPan="magnify" viewBox="0 0 375 374.999991" height="500" preserveAspectRatio="xMidYMid meet" version="1.0"><defs><clipPath id="4c4fdf7c1f"><path d="M 58.066406 135.027344 L 241 135.027344 L 241 335.109375 L 58.066406 335.109375 Z M 58.066406 135.027344 " clip-rule="nonzero"/></clipPath><clipPath id="573e335f8c"><path d="M 238.140625 123.101562 L 322 123.101562 L 322 335.109375 L 238.140625 335.109375 Z M 238.140625 123.101562 " clip-rule="nonzero"/></clipPath><clipPath id="e82ead5ad2"><path d="M 156 39.609375 L 352 39.609375 L 352 124 L 156 124 Z M 156 39.609375 " clip-rule="nonzero"/></clipPath><clipPath id="b92849de55"><path d="M 240.128906 123.101562 L 374.617188 123.101562 L 374.617188 175.78125 L 240.128906 175.78125 Z M 240.128906 123.101562 " clip-rule="nonzero"/></clipPath></defs><path fill="#be935f" d="M 156.015625 95.136719 L 58.773438 135.132812 L 60.535156 171.988281 L 157.035156 197.558594 L 156.015625 95.136719 " fill-opacity="1" fill-rule="nonzero"/><path fill="#9e6f3f" d="M 319.902344 193.429688 L 157.371094 197.714844 L 156.015625 95.136719 L 321.992188 123.964844 L 319.902344 193.429688 " fill-opacity="1" fill-rule="nonzero"/><g clip-path="url(#4c4fdf7c1f)"><path fill="#be935f" d="M 65.746094 280.976562 L 238.828125 335.117188 L 240.414062 175.613281 L 58.773438 135.132812 L 65.746094 280.976562 " fill-opacity="1" fill-rule="nonzero"/></g><g clip-path="url(#573e335f8c)"><path fill="#dfb77f" d="M 317.773438 264.230469 L 238.828125 335.117188 L 240.414062 175.613281 L 321.992188 123.964844 L 317.773438 264.230469 " fill-opacity="1" fill-rule="nonzero"/></g><path fill="#e5bb87" d="M 181.402344 191.441406 L 0.359375 147.796875 L 58.773438 135.132812 L 240.414062 175.613281 L 181.402344 191.441406 " fill-opacity="1" fill-rule="nonzero"/><path fill="#dfb77f" d="M 103.839844 65.117188 L 4.101562 101.886719 L 58.773438 135.132812 L 156.015625 95.136719 L 103.839844 65.117188 " fill-opacity="1" fill-rule="nonzero"/><g clip-path="url(#e82ead5ad2)"><path fill="#d4ac7b" d="M 321.992188 123.964844 L 156.015625 95.136719 L 189.914062 39.613281 L 351.257812 61.085938 L 321.992188 123.964844 " fill-opacity="1" fill-rule="nonzero"/></g><g clip-path="url(#b92849de55)"><path fill="#be935f" d="M 374.617188 123.964844 L 321.992188 123.964844 L 240.414062 175.613281 L 303.601562 174.886719 L 374.617188 123.964844 " fill-opacity="1" fill-rule="nonzero"/></g></svg>