<svg xmlns="http://www.w3.org/2000/svg" xmlns:xlink="http://www.w3.org/1999/xlink" width="1200" zoomAndPan="magnify" viewBox="0 0 900 599.999999" height="800" preserveAspectRatio="xMidYMid meet" version="1.0"><defs><filter x="0%" y="0%" width="100%" height="100%" id="acbb0b1a92"><feColorMatrix values="0 0 0 0 1 0 0 0 0 1 0 0 0 0 1 0 0 0 1 0" color-interpolation-filters="sRGB"/></filter><g/><mask id="f5adf895bb"><g filter="url(#acbb0b1a92)"><rect x="-90" width="1080" fill="#000000" y="-60" height="719.999999" fill-opacity="0.91"/></g></mask><clipPath id="db63af568c"><path d="M 231 38 L 305 38 L 305 141 L 231 141 Z M 231 38 " clip-rule="nonzero"/></clipPath><clipPath id="63bed407d9"><path d="M 49.011719 0.046875 L 499.699219 78.707031 L 450.953125 357.988281 L 0.265625 279.324219 Z M 49.011719 0.046875 " clip-rule="nonzero"/></clipPath><clipPath id="88e2407a09"><path d="M 49.011719 0.046875 L 499.699219 78.707031 L 450.953125 357.988281 L 0.265625 279.324219 Z M 49.011719 0.046875 " clip-rule="nonzero"/></clipPath><clipPath id="e277129cac"><path d="M 49.011719 0.046875 L 499.699219 78.707031 L 450.953125 357.988281 L 0.265625 279.324219 Z M 49.011719 0.046875 " clip-rule="nonzero"/></clipPath><clipPath id="4ff0815ff9"><path d="M 6 138 L 454 138 L 454 354 L 6 354 Z M 6 138 " clip-rule="nonzero"/></clipPath><clipPath id="e03f1b1975"><path d="M 49.011719 0.046875 L 499.699219 78.707031 L 450.953125 357.988281 L 0.265625 279.324219 Z M 49.011719 0.046875 " clip-rule="nonzero"/></clipPath><clipPath id="616392524f"><path d="M 49.011719 0.046875 L 499.699219 78.707031 L 450.953125 357.988281 L 0.265625 279.324219 Z M 49.011719 0.046875 " clip-rule="nonzero"/></clipPath><clipPath id="01dc29be82"><path d="M 49.011719 0.046875 L 499.699219 78.707031 L 450.953125 357.988281 L 0.265625 279.324219 Z M 49.011719 0.046875 " clip-rule="nonzero"/></clipPath><clipPath id="ed316e0d55"><path d="M 251 122 L 266 122 L 266 133 L 251 133 Z M 251 122 " clip-rule="nonzero"/></clipPath><clipPath id="7ca75f1432"><path d="M 49.011719 0.046875 L 499.699219 78.707031 L 450.953125 357.988281 L 0.265625 279.324219 Z M 49.011719 0.046875 " clip-rule="nonzero"/></clipPath><clipPath id="a0e128f9f9"><path d="M 49.011719 0.046875 L 499.699219 78.707031 L 450.953125 357.988281 L 0.265625 279.324219 Z M 49.011719 0.046875 " clip-rule="nonzero"/></clipPath><clipPath id="79c4de17c8"><path d="M 49.011719 0.046875 L 499.699219 78.707031 L 450.953125 357.988281 L 0.265625 279.324219 Z M 49.011719 0.046875 " clip-rule="nonzero"/></clipPath><clipPath id="64992796ad"><path d="M 250 132 L 264 132 L 264 143 L 250 143 Z M 250 132 " clip-rule="nonzero"/></clipPath><clipPath id="57c3239279"><path d="M 49.011719 0.046875 L 499.699219 78.707031 L 450.953125 357.988281 L 0.265625 279.324219 Z M 49.011719 0.046875 " clip-rule="nonzero"/></clipPath><clipPath id="74f074f4c6"><path d="M 49.011719 0.046875 L 499.699219 78.707031 L 450.953125 357.988281 L 0.265625 279.324219 Z M 49.011719 0.046875 " clip-rule="nonzero"/></clipPath><clipPath id="656eda228d"><path d="M 49.011719 0.046875 L 499.699219 78.707031 L 450.953125 357.988281 L 0.265625 279.324219 Z M 49.011719 0.046875 " clip-rule="nonzero"/></clipPath><clipPath id="5e174d4d11"><path d="M 253 113 L 268 113 L 268 123 L 253 123 Z M 253 113 " clip-rule="nonzero"/></clipPath><clipPath id="6228413263"><path d="M 49.011719 0.046875 L 499.699219 78.707031 L 450.953125 357.988281 L 0.265625 279.324219 Z M 49.011719 0.046875 " clip-rule="nonzero"/></clipPath><clipPath id="58d85398d2"><path d="M 49.011719 0.046875 L 499.699219 78.707031 L 450.953125 357.988281 L 0.265625 279.324219 Z M 49.011719 0.046875 " clip-rule="nonzero"/></clipPath><clipPath id="4f01804110"><path d="M 49.011719 0.046875 L 499.699219 78.707031 L 450.953125 357.988281 L 0.265625 279.324219 Z M 49.011719 0.046875 " clip-rule="nonzero"/></clipPath><clipPath id="fdf9363131"><rect x="0" width="501" y="0" height="359"/></clipPath><mask id="77922837a2"><g filter="url(#acbb0b1a92)"><rect x="-90" width="1080" fill="#000000" y="-60" height="719.999999" fill-opacity="0.58"/></g></mask><clipPath id="ef656dd73d"><path d="M 192 0.40625 L 267 0.40625 L 267 103 L 192 103 Z M 192 0.40625 " clip-rule="nonzero"/></clipPath><clipPath id="23ea2e5812"><path d="M 2 101 L 457 101 L 457 283.90625 L 2 283.90625 Z M 2 101 " clip-rule="nonzero"/></clipPath><clipPath id="92e19a6192"><rect x="0" width="460" y="0" height="284"/></clipPath><mask id="7ba42fcc0c"><g filter="url(#acbb0b1a92)"><rect x="-90" width="1080" fill="#000000" y="-60" height="719.999999" fill-opacity="0.95"/></g></mask><clipPath id="10a2d81763"><path d="M 0.640625 0.359375 L 522.398438 0.359375 L 522.398438 145.558594 L 0.640625 145.558594 Z M 0.640625 0.359375 " clip-rule="nonzero"/></clipPath><clipPath id="72bb5cee46"><rect x="0" width="523" y="0" height="146"/></clipPath><mask id="a64ec9c57a"><g filter="url(#acbb0b1a92)"><rect x="-90" width="1080" fill="#000000" y="-60" height="719.999999" fill-opacity="0.26"/></g></mask><clipPath id="dc563613d1"><path d="M 229 36 L 304 36 L 304 139 L 229 139 Z M 229 36 " clip-rule="nonzero"/></clipPath><clipPath id="dc687cc301"><path d="M 46.546875 0.246094 L 498.003906 74.375 L 452.066406 354.128906 L 0.609375 280 Z M 46.546875 0.246094 " clip-rule="nonzero"/></clipPath><clipPath id="e6b5646c26"><path d="M 46.546875 0.246094 L 498.003906 74.375 L 452.066406 354.128906 L 0.609375 280 Z M 46.546875 0.246094 " clip-rule="nonzero"/></clipPath><clipPath id="2e4de460b4"><path d="M 46.546875 0.246094 L 498.003906 74.375 L 452.066406 354.128906 L 0.609375 280 Z M 46.546875 0.246094 " clip-rule="nonzero"/></clipPath><clipPath id="c3d1e48fa6"><path d="M 6 136 L 455 136 L 455 351 L 6 351 Z M 6 136 " clip-rule="nonzero"/></clipPath><clipPath id="697fb83032"><path d="M 46.546875 0.246094 L 498.003906 74.375 L 452.066406 354.128906 L 0.609375 280 Z M 46.546875 0.246094 " clip-rule="nonzero"/></clipPath><clipPath id="9a9b9f6f45"><path d="M 46.546875 0.246094 L 498.003906 74.375 L 452.066406 354.128906 L 0.609375 280 Z M 46.546875 0.246094 " clip-rule="nonzero"/></clipPath><clipPath id="01e6e833bb"><path d="M 46.546875 0.246094 L 498.003906 74.375 L 452.066406 354.128906 L 0.609375 280 Z M 46.546875 0.246094 " clip-rule="nonzero"/></clipPath><clipPath id="1bc62d21d7"><path d="M 250 120 L 265 120 L 265 131 L 250 131 Z M 250 120 " clip-rule="nonzero"/></clipPath><clipPath id="9d2832db72"><path d="M 46.546875 0.246094 L 498.003906 74.375 L 452.066406 354.128906 L 0.609375 280 Z M 46.546875 0.246094 " clip-rule="nonzero"/></clipPath><clipPath id="4d7123fe2a"><path d="M 46.546875 0.246094 L 498.003906 74.375 L 452.066406 354.128906 L 0.609375 280 Z M 46.546875 0.246094 " clip-rule="nonzero"/></clipPath><clipPath id="9629b91568"><path d="M 46.546875 0.246094 L 498.003906 74.375 L 452.066406 354.128906 L 0.609375 280 Z M 46.546875 0.246094 " clip-rule="nonzero"/></clipPath><clipPath id="428f18333f"><path d="M 248 130 L 263 130 L 263 141 L 248 141 Z M 248 130 " clip-rule="nonzero"/></clipPath><clipPath id="eda3b9932e"><path d="M 46.546875 0.246094 L 498.003906 74.375 L 452.066406 354.128906 L 0.609375 280 Z M 46.546875 0.246094 " clip-rule="nonzero"/></clipPath><clipPath id="7522fa7372"><path d="M 46.546875 0.246094 L 498.003906 74.375 L 452.066406 354.128906 L 0.609375 280 Z M 46.546875 0.246094 " clip-rule="nonzero"/></clipPath><clipPath id="4411161745"><path d="M 46.546875 0.246094 L 498.003906 74.375 L 452.066406 354.128906 L 0.609375 280 Z M 46.546875 0.246094 " clip-rule="nonzero"/></clipPath><clipPath id="00a6a6c60e"><path d="M 252 111 L 266 111 L 266 121 L 252 121 Z M 252 111 " clip-rule="nonzero"/></clipPath><clipPath id="ee1f046f00"><path d="M 46.546875 0.246094 L 498.003906 74.375 L 452.066406 354.128906 L 0.609375 280 Z M 46.546875 0.246094 " clip-rule="nonzero"/></clipPath><clipPath id="639f4cc1b2"><path d="M 46.546875 0.246094 L 498.003906 74.375 L 452.066406 354.128906 L 0.609375 280 Z M 46.546875 0.246094 " clip-rule="nonzero"/></clipPath><clipPath id="102bb4fe3d"><path d="M 46.546875 0.246094 L 498.003906 74.375 L 452.066406 354.128906 L 0.609375 280 Z M 46.546875 0.246094 " clip-rule="nonzero"/></clipPath><clipPath id="b0ef53515e"><rect x="0" width="499" y="0" height="355"/></clipPath><clipPath id="32c962847b"><path d="M 225 149 L 235 149 L 235 167 L 225 167 Z M 225 149 " clip-rule="nonzero"/></clipPath><clipPath id="c4c40f6fba"><path d="M 224.574219 149.523438 L 233.496094 148.523438 L 235.488281 166.289062 L 226.566406 167.289062 Z M 224.574219 149.523438 " clip-rule="nonzero"/></clipPath><clipPath id="4fff817856"><path d="M 229.035156 149.023438 C 226.570312 149.300781 225.019531 153.5 225.570312 158.40625 C 226.121094 163.3125 228.566406 167.066406 231.027344 166.789062 C 233.492188 166.511719 235.042969 162.3125 234.492188 157.40625 C 233.941406 152.5 231.5 148.746094 229.035156 149.023438 Z M 229.035156 149.023438 " clip-rule="nonzero"/></clipPath></defs><g mask="url(#f5adf895bb)"><g transform="matrix(1, 0, 0, 1, 92, 77)"><g clip-path="url(#fdf9363131)"><g clip-path="url(#db63af568c)"><g clip-path="url(#63bed407d9)"><g clip-path="url(#88e2407a09)"><g clip-path="url(#e277129cac)"><path fill="#000000" d="M 259.5625 140.605469 L 253.3125 139.511719 L 258.070312 112.238281 L 260.011719 111.65625 C 260.011719 111.65625 265.539062 110.316406 281.84375 102.566406 C 288.871094 99.1875 296.628906 89.019531 298.03125 80.972656 C 299.4375 72.925781 297.640625 64.777344 292.847656 57.953125 C 288.058594 51.128906 281.015625 46.671875 272.980469 45.269531 C 256.238281 42.347656 240.242188 53.609375 237.316406 70.375 L 231.066406 69.285156 C 234.761719 49.425781 253.90625 35.949219 274.21875 39.496094 C 284.039062 41.210938 292.527344 46.609375 298.238281 54.746094 C 303.949219 62.886719 306.144531 72.714844 304.429688 82.550781 C 302.671875 92.609375 293.710938 104.40625 284.699219 108.59375 C 272.921875 114.140625 266.753906 116.519531 263.84375 117.394531 Z M 259.5625 140.605469 " fill-opacity="1" fill-rule="nonzero"/></g></g></g></g><g clip-path="url(#4ff0815ff9)"><g clip-path="url(#e03f1b1975)"><g clip-path="url(#616392524f)"><g clip-path="url(#01dc29be82)"><path fill="#000000" d="M 425.753906 353.445312 L 25.183594 282.839844 C 14.695312 281.007812 7.34375 273.042969 6.195312 262.476562 C 5.050781 251.910156 10.601562 242.511719 20.28125 238.441406 L 255.476562 138.96875 C 256.710938 138.492188 257.824219 138.6875 258.824219 139.554688 L 445.8125 313.636719 C 453.542969 320.746094 455.542969 331.691406 450.882812 341.246094 C 445.859375 350.273438 436.242188 355.277344 425.753906 353.445312 Z M 255.761719 145.238281 L 22.511719 244.128906 C 13.839844 247.683594 11.503906 255.800781 12.3125 261.703125 C 12.898438 267.5625 17.125 274.980469 26.277344 276.578125 L 426.84375 347.183594 C 435.996094 348.78125 442.484375 343.234375 445.023438 337.917969 C 447.5625 332.601562 448.335938 324.214844 441.382812 317.933594 Z M 255.761719 145.238281 " fill-opacity="1" fill-rule="nonzero"/></g></g></g></g><g clip-path="url(#ed316e0d55)"><g clip-path="url(#7ca75f1432)"><g clip-path="url(#a0e128f9f9)"><g clip-path="url(#79c4de17c8)"><path fill="#000000" d="M 254.335938 132.320312 C 253.21875 132.125 252.40625 131.523438 251.929688 130.289062 C 251.3125 128.566406 252.070312 126.855469 253.789062 126.234375 L 261.226562 123.15625 C 262.945312 122.535156 264.652344 123.292969 265.273438 125.015625 C 265.894531 126.734375 265.132812 128.445312 263.414062 129.066406 L 255.976562 132.144531 C 255.492188 132.292969 255.007812 132.4375 254.335938 132.320312 Z M 254.335938 132.320312 " fill-opacity="1" fill-rule="nonzero"/></g></g></g></g><g clip-path="url(#64992796ad)"><g clip-path="url(#57c3239279)"><g clip-path="url(#74f074f4c6)"><g clip-path="url(#656eda228d)"><path fill="#000000" d="M 252.660156 141.933594 C 251.542969 141.738281 250.726562 141.136719 250.253906 139.902344 C 249.632812 138.179688 250.390625 136.46875 252.109375 135.847656 L 259.550781 132.769531 C 261.265625 132.148438 262.976562 132.90625 263.59375 134.628906 C 264.214844 136.347656 263.457031 138.058594 261.738281 138.679688 L 254.300781 141.757812 C 253.773438 142.128906 253.328125 142.050781 252.660156 141.933594 Z M 252.660156 141.933594 " fill-opacity="1" fill-rule="nonzero"/></g></g></g></g><g clip-path="url(#5e174d4d11)"><g clip-path="url(#6228413263)"><g clip-path="url(#58d85398d2)"><g clip-path="url(#4f01804110)"><path fill="#000000" d="M 256.054688 122.484375 C 254.9375 122.289062 254.121094 121.6875 253.648438 120.453125 C 253.027344 118.730469 253.785156 117.019531 255.503906 116.398438 L 262.945312 113.320312 C 264.664062 112.699219 266.371094 113.457031 266.988281 115.179688 C 267.609375 116.898438 266.851562 118.609375 265.132812 119.230469 L 257.695312 122.308594 C 257.207031 122.453125 256.722656 122.601562 256.054688 122.484375 Z M 256.054688 122.484375 " fill-opacity="1" fill-rule="nonzero"/></g></g></g></g></g></g></g><g mask="url(#77922837a2)"><g transform="matrix(1, 0, 0, 1, 225, 95)"><g clip-path="url(#92e19a6192)"><g clip-path="url(#ef656dd73d)"><path fill="#000000" d="M 232.464844 102.671875 L 226.117188 102.671875 L 226.117188 74.984375 L 227.929688 74.078125 C 227.929688 74.078125 233.144531 71.808594 247.871094 61.367188 C 254.214844 56.828125 260.109375 45.480469 260.109375 37.3125 C 260.109375 29.144531 256.9375 21.425781 251.042969 15.527344 C 245.152344 9.625 237.449219 6.449219 229.289062 6.449219 C 212.296875 6.449219 198.472656 20.292969 198.472656 37.3125 L 192.128906 37.3125 C 192.355469 17.113281 208.898438 0.546875 229.515625 0.546875 C 239.488281 0.546875 248.777344 4.40625 255.800781 11.441406 C 262.828125 18.476562 266.679688 27.78125 266.679688 37.765625 C 266.679688 47.976562 259.882812 61.140625 251.722656 66.8125 C 241.074219 74.304688 235.410156 77.707031 232.691406 79.070312 Z M 232.464844 102.671875 " fill-opacity="1" fill-rule="nonzero"/></g><g clip-path="url(#23ea2e5812)"><path fill="#000000" d="M 432.773438 283.765625 L 26.03125 283.085938 C 15.382812 283.085938 6.773438 276.503906 3.828125 266.292969 C 0.878906 256.082031 4.734375 245.867188 13.570312 240.195312 L 228.15625 101.761719 C 229.289062 101.082031 230.425781 101.082031 231.558594 101.761719 L 445.691406 241.101562 C 454.527344 246.777344 458.378906 257.214844 455.433594 267.425781 C 452.035156 277.183594 443.425781 283.765625 432.773438 283.765625 Z M 229.515625 107.890625 L 16.742188 245.414062 C 8.8125 250.40625 7.90625 258.804688 9.71875 264.476562 C 11.304688 270.152344 16.742188 276.730469 26.03125 276.730469 L 432.773438 277.414062 C 442.066406 277.414062 447.503906 270.832031 449.089844 265.15625 C 450.675781 259.484375 449.996094 251.085938 442.066406 246.09375 Z M 229.515625 107.890625 " fill-opacity="1" fill-rule="nonzero"/></g><path fill="#000000" d="M 225.890625 95.410156 C 224.757812 95.410156 223.851562 94.953125 223.171875 93.820312 C 222.265625 92.230469 222.71875 90.414062 224.304688 89.507812 L 231.105469 85.195312 C 232.691406 84.289062 234.503906 84.742188 235.410156 86.332031 C 236.316406 87.917969 235.863281 89.734375 234.277344 90.644531 L 227.476562 94.953125 C 227.023438 95.179688 226.570312 95.410156 225.890625 95.410156 Z M 225.890625 95.410156 " fill-opacity="1" fill-rule="nonzero"/><path fill="#000000" d="M 225.890625 105.167969 C 224.757812 105.167969 223.851562 104.710938 223.171875 103.578125 C 222.265625 101.988281 222.71875 100.175781 224.304688 99.265625 L 231.105469 94.953125 C 232.691406 94.046875 234.503906 94.5 235.410156 96.089844 C 236.316406 97.679688 235.863281 99.492188 234.277344 100.402344 L 227.476562 104.710938 C 227.023438 105.167969 226.570312 105.167969 225.890625 105.167969 Z M 225.890625 105.167969 " fill-opacity="1" fill-rule="nonzero"/><path fill="#000000" d="M 225.890625 85.421875 C 224.757812 85.421875 223.851562 84.96875 223.171875 83.835938 C 222.265625 82.246094 222.71875 80.429688 224.304688 79.523438 L 231.105469 75.210938 C 232.691406 74.304688 234.503906 74.757812 235.410156 76.34375 C 236.316406 77.933594 235.863281 79.75 234.277344 80.65625 L 227.476562 84.96875 C 227.023438 85.195312 226.570312 85.421875 225.890625 85.421875 Z M 225.890625 85.421875 " fill-opacity="1" fill-rule="nonzero"/></g></g></g><g mask="url(#7ba42fcc0c)"><g transform="matrix(1, 0, 0, 1, 194, 51)"><g clip-path="url(#72bb5cee46)"><g clip-path="url(#10a2d81763)"><path stroke-linecap="round" transform="matrix(0.741867, -0.11015, 0.11015, 0.741867, 30.614034, 98.481561)" fill="none" stroke-linejoin="miter" d="M 11.502451 11.50008 L 607.301991 11.498206 " stroke="#000000" stroke-width="23" stroke-opacity="1" stroke-miterlimit="4"/></g></g></g></g><g mask="url(#a64ec9c57a)"><g transform="matrix(1, 0, 0, 1, 326, 48)"><g clip-path="url(#b0ef53515e)"><g clip-path="url(#dc563613d1)"><g clip-path="url(#dc687cc301)"><g clip-path="url(#e6b5646c26)"><g clip-path="url(#2e4de460b4)"><path fill="#000000" d="M 258.5 138.683594 L 252.238281 137.652344 L 256.726562 110.332031 L 258.660156 109.730469 C 258.660156 109.730469 264.171875 108.335938 280.398438 100.421875 C 287.394531 96.972656 295.046875 86.730469 296.371094 78.667969 C 297.695312 70.605469 295.8125 62.476562 290.957031 55.699219 C 286.097656 48.921875 279.011719 44.539062 270.960938 43.21875 C 254.191406 40.464844 238.308594 51.882812 235.550781 68.679688 L 229.289062 67.652344 C 232.785156 47.757812 251.792969 34.089844 272.140625 37.433594 C 281.980469 39.046875 290.523438 44.359375 296.3125 52.441406 C 302.105469 60.519531 304.398438 70.328125 302.78125 80.179688 C 301.125 90.257812 292.285156 102.144531 283.316406 106.421875 C 271.59375 112.085938 265.453125 114.527344 262.546875 115.429688 Z M 258.5 138.683594 " fill-opacity="1" fill-rule="nonzero"/></g></g></g></g><g clip-path="url(#c3d1e48fa6)"><g clip-path="url(#697fb83032)"><g clip-path="url(#9a9b9f6f45)"><g clip-path="url(#01e6e833bb)"><path fill="#000000" d="M 426.820312 349.84375 L 25.5625 283.265625 C 15.054688 281.539062 7.625 273.648438 6.371094 263.09375 C 5.121094 252.539062 10.574219 243.085938 20.214844 238.921875 L 254.398438 137.089844 C 255.628906 136.601562 256.746094 136.785156 257.753906 137.640625 L 446.480469 309.835938 C 454.28125 316.863281 456.390625 327.789062 451.828125 337.390625 C 446.894531 346.46875 437.332031 351.566406 426.820312 349.84375 Z M 254.746094 143.355469 L 22.5 244.585938 C 13.867188 248.226562 11.609375 256.367188 12.480469 262.257812 C 13.125 268.113281 17.425781 275.488281 26.59375 276.992188 L 427.851562 343.570312 C 437.019531 345.078125 443.453125 339.464844 445.9375 334.125 C 448.421875 328.78125 449.109375 320.386719 442.09375 314.175781 Z M 254.746094 143.355469 " fill-opacity="1" fill-rule="nonzero"/></g></g></g></g><g clip-path="url(#1bc62d21d7)"><g clip-path="url(#9d2832db72)"><g clip-path="url(#4d7123fe2a)"><g clip-path="url(#9629b91568)"><path fill="#000000" d="M 253.191406 130.449219 C 252.074219 130.265625 251.253906 129.671875 250.765625 128.441406 C 250.128906 126.726562 250.871094 125.011719 252.582031 124.371094 L 259.988281 121.21875 C 261.703125 120.578125 263.417969 121.320312 264.054688 123.035156 C 264.691406 124.75 263.949219 126.46875 262.238281 127.105469 L 254.832031 130.261719 C 254.347656 130.410156 253.863281 130.5625 253.191406 130.449219 Z M 253.191406 130.449219 " fill-opacity="1" fill-rule="nonzero"/></g></g></g></g><g clip-path="url(#428f18333f)"><g clip-path="url(#eda3b9932e)"><g clip-path="url(#7522fa7372)"><g clip-path="url(#4411161745)"><path fill="#000000" d="M 251.609375 140.082031 C 250.492188 139.898438 249.671875 139.300781 249.183594 138.070312 C 248.546875 136.359375 249.289062 134.640625 251 134 L 258.410156 130.847656 C 260.121094 130.207031 261.835938 130.949219 262.472656 132.664062 C 263.109375 134.378906 262.367188 136.097656 260.65625 136.734375 L 253.25 139.890625 C 252.730469 140.265625 252.28125 140.191406 251.609375 140.082031 Z M 251.609375 140.082031 " fill-opacity="1" fill-rule="nonzero"/></g></g></g></g><g clip-path="url(#00a6a6c60e)"><g clip-path="url(#ee1f046f00)"><g clip-path="url(#639f4cc1b2)"><g clip-path="url(#102bb4fe3d)"><path fill="#000000" d="M 254.808594 120.597656 C 253.691406 120.414062 252.871094 119.820312 252.382812 118.589844 C 251.746094 116.875 252.488281 115.15625 254.199219 114.519531 L 261.609375 111.363281 C 263.320312 110.726562 265.035156 111.46875 265.671875 113.183594 C 266.308594 114.898438 265.566406 116.613281 263.855469 117.253906 L 256.449219 120.40625 C 255.964844 120.558594 255.480469 120.707031 254.808594 120.597656 Z M 254.808594 120.597656 " fill-opacity="1" fill-rule="nonzero"/></g></g></g></g></g></g></g><g clip-path="url(#32c962847b)"><g clip-path="url(#c4c40f6fba)"><g clip-path="url(#4fff817856)"><path fill="#d9d9d9" d="M 224.574219 149.523438 L 233.496094 148.523438 L 235.488281 166.289062 L 226.566406 167.289062 Z M 224.574219 149.523438 " fill-opacity="1" fill-rule="nonzero"/></g></g></g><g fill="#231f20" fill-opacity="1"><g transform="translate(282.917992, 509.857635)"><g><path d="M 36.1875 -38.46875 L 36.1875 0 L 30.4375 0 L 8.953125 -29.515625 L 8.953125 0 L 3.03125 0 L 3.03125 -38.46875 L 9.015625 -38.46875 L 30.5 -8.796875 L 30.5 -38.46875 Z M 36.1875 -38.46875 "/></g></g></g><g fill="#231f20" fill-opacity="1"><g transform="translate(322.252761, 509.857635)"><g><path d="M 14.4375 0.65625 C 12.625 0.65625 10.929688 0.300781 9.359375 -0.40625 C 7.785156 -1.113281 6.410156 -2.082031 5.234375 -3.3125 C 4.054688 -4.539062 3.125 -5.984375 2.4375 -7.640625 C 1.75 -9.304688 1.40625 -11.082031 1.40625 -12.96875 C 1.40625 -14.851562 1.75 -16.625 2.4375 -18.28125 C 3.125 -19.945312 4.054688 -21.394531 5.234375 -22.625 C 6.410156 -23.851562 7.785156 -24.820312 9.359375 -25.53125 C 10.929688 -26.238281 12.625 -26.59375 14.4375 -26.59375 C 16.207031 -26.59375 17.890625 -26.238281 19.484375 -25.53125 C 21.078125 -24.820312 22.457031 -23.851562 23.625 -22.625 C 24.800781 -21.394531 25.734375 -19.945312 26.421875 -18.28125 C 27.109375 -16.625 27.453125 -14.851562 27.453125 -12.96875 C 27.453125 -11.082031 27.109375 -9.304688 26.421875 -7.640625 C 25.734375 -5.984375 24.800781 -4.539062 23.625 -3.3125 C 22.457031 -2.082031 21.078125 -1.113281 19.484375 -0.40625 C 17.890625 0.300781 16.207031 0.65625 14.4375 0.65625 Z M 14.4375 -21.875 C 13.382812 -21.875 12.390625 -21.632812 11.453125 -21.15625 C 10.515625 -20.6875 9.691406 -20.054688 8.984375 -19.265625 C 8.273438 -18.472656 7.722656 -17.53125 7.328125 -16.4375 C 6.929688 -15.351562 6.734375 -14.195312 6.734375 -12.96875 C 6.734375 -11.738281 6.929688 -10.582031 7.328125 -9.5 C 7.722656 -8.414062 8.273438 -7.460938 8.984375 -6.640625 C 9.691406 -5.828125 10.515625 -5.1875 11.453125 -4.71875 C 12.390625 -4.25 13.382812 -4.015625 14.4375 -4.015625 C 15.488281 -4.015625 16.484375 -4.25 17.421875 -4.71875 C 18.359375 -5.1875 19.171875 -5.828125 19.859375 -6.640625 C 20.546875 -7.460938 21.085938 -8.414062 21.484375 -9.5 C 21.890625 -10.582031 22.09375 -11.738281 22.09375 -12.96875 C 22.09375 -14.195312 21.890625 -15.351562 21.484375 -16.4375 C 21.085938 -17.53125 20.546875 -18.472656 19.859375 -19.265625 C 19.171875 -20.054688 18.359375 -20.6875 17.421875 -21.15625 C 16.484375 -21.632812 15.488281 -21.875 14.4375 -21.875 Z M 14.4375 -21.875 "/></g></g></g><g fill="#231f20" fill-opacity="1"><g transform="translate(350.899322, 509.857635)"><g/></g></g><g fill="#231f20" fill-opacity="1"><g transform="translate(365.05984, 509.857635)"><g><path d="M 27.890625 -39.609375 L 27.890625 0 L 23.71875 0 L 22.625 -2.71875 C 21.582031 -1.664062 20.390625 -0.835938 19.046875 -0.234375 C 17.710938 0.359375 16.175781 0.65625 14.4375 0.65625 C 12.625 0.65625 10.957031 0.300781 9.4375 -0.40625 C 7.914062 -1.113281 6.59375 -2.082031 5.46875 -3.3125 C 4.351562 -4.539062 3.476562 -5.984375 2.84375 -7.640625 C 2.21875 -9.304688 1.90625 -11.082031 1.90625 -12.96875 C 1.90625 -14.851562 2.21875 -16.625 2.84375 -18.28125 C 3.476562 -19.945312 4.351562 -21.394531 5.46875 -22.625 C 6.59375 -23.851562 7.914062 -24.820312 9.4375 -25.53125 C 10.957031 -26.238281 12.625 -26.59375 14.4375 -26.59375 C 16.238281 -26.59375 17.804688 -26.289062 19.140625 -25.6875 C 20.484375 -25.09375 21.644531 -24.253906 22.625 -23.171875 L 22.625 -39.609375 Z M 14.875 -4.015625 C 15.957031 -4.015625 16.957031 -4.191406 17.875 -4.546875 C 18.800781 -4.910156 19.613281 -5.460938 20.3125 -6.203125 C 21.019531 -6.953125 21.570312 -7.882812 21.96875 -9 C 22.375 -10.125 22.578125 -11.445312 22.578125 -12.96875 C 22.578125 -14.59375 22.375 -15.96875 21.96875 -17.09375 C 21.570312 -18.21875 21.019531 -19.128906 20.3125 -19.828125 C 19.613281 -20.535156 18.800781 -21.039062 17.875 -21.34375 C 16.957031 -21.65625 15.957031 -21.8125 14.875 -21.8125 C 13.820312 -21.8125 12.820312 -21.582031 11.875 -21.125 C 10.9375 -20.675781 10.125 -20.054688 9.4375 -19.265625 C 8.75 -18.472656 8.207031 -17.53125 7.8125 -16.4375 C 7.414062 -15.351562 7.21875 -14.195312 7.21875 -12.96875 C 7.21875 -11.738281 7.414062 -10.582031 7.8125 -9.5 C 8.207031 -8.414062 8.75 -7.460938 9.4375 -6.640625 C 10.125 -5.828125 10.9375 -5.1875 11.875 -4.71875 C 12.820312 -4.25 13.820312 -4.015625 14.875 -4.015625 Z M 14.875 -4.015625 "/></g></g></g><g fill="#231f20" fill-opacity="1"><g transform="translate(396.473396, 509.857635)"><g><path d="M 27.671875 -26 L 27.671875 0 L 23.21875 0 L 22.40625 -2.984375 C 21.507812 -1.785156 20.351562 -0.878906 18.9375 -0.265625 C 17.53125 0.347656 16.101562 0.65625 14.65625 0.65625 C 12.84375 0.65625 11.148438 0.300781 9.578125 -0.40625 C 8.003906 -1.113281 6.628906 -2.082031 5.453125 -3.3125 C 4.273438 -4.539062 3.34375 -5.984375 2.65625 -7.640625 C 1.96875 -9.304688 1.625 -11.082031 1.625 -12.96875 C 1.625 -14.851562 1.96875 -16.625 2.65625 -18.28125 C 3.34375 -19.945312 4.273438 -21.394531 5.453125 -22.625 C 6.628906 -23.851562 8.003906 -24.820312 9.578125 -25.53125 C 11.148438 -26.238281 12.84375 -26.59375 14.65625 -26.59375 C 16.101562 -26.59375 17.492188 -26.3125 18.828125 -25.75 C 20.171875 -25.1875 21.363281 -24.3125 22.40625 -23.125 L 23.21875 -26 Z M 14.65625 -4.015625 C 15.695312 -4.015625 16.6875 -4.25 17.625 -4.71875 C 18.570312 -5.1875 19.390625 -5.828125 20.078125 -6.640625 C 20.765625 -7.460938 21.304688 -8.414062 21.703125 -9.5 C 22.097656 -10.582031 22.296875 -11.738281 22.296875 -12.96875 C 22.296875 -14.195312 22.097656 -15.351562 21.703125 -16.4375 C 21.304688 -17.53125 20.765625 -18.484375 20.078125 -19.296875 C 19.390625 -20.109375 18.570312 -20.75 17.625 -21.21875 C 16.6875 -21.6875 15.695312 -21.921875 14.65625 -21.921875 C 13.601562 -21.921875 12.601562 -21.6875 11.65625 -21.21875 C 10.71875 -20.75 9.90625 -20.109375 9.21875 -19.296875 C 8.53125 -18.484375 7.988281 -17.53125 7.59375 -16.4375 C 7.195312 -15.351562 7 -14.195312 7 -12.96875 C 7 -11.738281 7.195312 -10.582031 7.59375 -9.5 C 7.988281 -8.414062 8.53125 -7.460938 9.21875 -6.640625 C 9.90625 -5.828125 10.71875 -5.1875 11.65625 -4.71875 C 12.601562 -4.25 13.601562 -4.015625 14.65625 -4.015625 Z M 14.65625 -4.015625 "/></g></g></g><g fill="#231f20" fill-opacity="1"><g transform="translate(426.47632, 509.857635)"><g><path d="M 17.140625 -0.046875 C 15.660156 0.453125 14.195312 0.753906 12.75 0.859375 C 11.300781 0.972656 10 0.765625 8.84375 0.234375 C 7.6875 -0.285156 6.742188 -1.203125 6.015625 -2.515625 C 5.296875 -3.835938 4.9375 -5.691406 4.9375 -8.078125 L 4.9375 -21.265625 L 1.140625 -21.265625 L 1.140625 -24.90625 L 4.9375 -26 L 4.9375 -32.9375 L 10.203125 -32.9375 L 10.203125 -26 L 17.25 -26 L 17.25 -21.265625 L 10.203125 -21.265625 L 10.203125 -7.265625 C 10.203125 -6.398438 10.300781 -5.710938 10.5 -5.203125 C 10.695312 -4.703125 11.03125 -4.320312 11.5 -4.0625 C 11.96875 -3.8125 12.582031 -3.6875 13.34375 -3.6875 C 14.101562 -3.6875 15.023438 -3.757812 16.109375 -3.90625 Z M 17.140625 -0.046875 "/></g></g></g><g fill="#231f20" fill-opacity="1"><g transform="translate(445.031473, 509.857635)"><g><path d="M 27.671875 -26 L 27.671875 0 L 23.21875 0 L 22.40625 -2.984375 C 21.507812 -1.785156 20.351562 -0.878906 18.9375 -0.265625 C 17.53125 0.347656 16.101562 0.65625 14.65625 0.65625 C 12.84375 0.65625 11.148438 0.300781 9.578125 -0.40625 C 8.003906 -1.113281 6.628906 -2.082031 5.453125 -3.3125 C 4.273438 -4.539062 3.34375 -5.984375 2.65625 -7.640625 C 1.96875 -9.304688 1.625 -11.082031 1.625 -12.96875 C 1.625 -14.851562 1.96875 -16.625 2.65625 -18.28125 C 3.34375 -19.945312 4.273438 -21.394531 5.453125 -22.625 C 6.628906 -23.851562 8.003906 -24.820312 9.578125 -25.53125 C 11.148438 -26.238281 12.84375 -26.59375 14.65625 -26.59375 C 16.101562 -26.59375 17.492188 -26.3125 18.828125 -25.75 C 20.171875 -25.1875 21.363281 -24.3125 22.40625 -23.125 L 23.21875 -26 Z M 14.65625 -4.015625 C 15.695312 -4.015625 16.6875 -4.25 17.625 -4.71875 C 18.570312 -5.1875 19.390625 -5.828125 20.078125 -6.640625 C 20.765625 -7.460938 21.304688 -8.414062 21.703125 -9.5 C 22.097656 -10.582031 22.296875 -11.738281 22.296875 -12.96875 C 22.296875 -14.195312 22.097656 -15.351562 21.703125 -16.4375 C 21.304688 -17.53125 20.765625 -18.484375 20.078125 -19.296875 C 19.390625 -20.109375 18.570312 -20.75 17.625 -21.21875 C 16.6875 -21.6875 15.695312 -21.921875 14.65625 -21.921875 C 13.601562 -21.921875 12.601562 -21.6875 11.65625 -21.21875 C 10.71875 -20.75 9.90625 -20.109375 9.21875 -19.296875 C 8.53125 -18.484375 7.988281 -17.53125 7.59375 -16.4375 C 7.195312 -15.351562 7 -14.195312 7 -12.96875 C 7 -11.738281 7.195312 -10.582031 7.59375 -9.5 C 7.988281 -8.414062 8.53125 -7.460938 9.21875 -6.640625 C 9.90625 -5.828125 10.71875 -5.1875 11.65625 -4.71875 C 12.601562 -4.25 13.601562 -4.015625 14.65625 -4.015625 Z M 14.65625 -4.015625 "/></g></g></g><g fill="#231f20" fill-opacity="1"><g transform="translate(475.034397, 509.857635)"><g/></g></g><g fill="#231f20" fill-opacity="1"><g transform="translate(489.194916, 509.857635)"><g><path d="M 6.78125 0 L 6.78125 -21.265625 L 2.328125 -21.265625 L 2.328125 -24.90625 L 6.78125 -26 L 6.78125 -29.140625 C 6.78125 -30.984375 7.015625 -32.582031 7.484375 -33.9375 C 7.953125 -35.300781 8.59375 -36.414062 9.40625 -37.28125 C 10.226562 -38.144531 11.160156 -38.785156 12.203125 -39.203125 C 13.253906 -39.617188 14.378906 -39.828125 15.578125 -39.828125 C 17.054688 -39.828125 18.554688 -39.519531 20.078125 -38.90625 L 20.078125 -35.0625 C 18.773438 -35.457031 17.65625 -35.65625 16.71875 -35.65625 C 15.226562 -35.65625 14.078125 -35.203125 13.265625 -34.296875 C 12.453125 -33.390625 12.046875 -31.941406 12.046875 -29.953125 L 12.046875 -26 L 20.078125 -26 L 20.078125 -21.265625 L 12.046875 -21.265625 L 12.046875 0 Z M 6.78125 0 "/></g></g></g><g fill="#231f20" fill-opacity="1"><g transform="translate(509.811769, 509.857635)"><g><path d="M 14.4375 0.65625 C 12.625 0.65625 10.929688 0.300781 9.359375 -0.40625 C 7.785156 -1.113281 6.410156 -2.082031 5.234375 -3.3125 C 4.054688 -4.539062 3.125 -5.984375 2.4375 -7.640625 C 1.75 -9.304688 1.40625 -11.082031 1.40625 -12.96875 C 1.40625 -14.851562 1.75 -16.625 2.4375 -18.28125 C 3.125 -19.945312 4.054688 -21.394531 5.234375 -22.625 C 6.410156 -23.851562 7.785156 -24.820312 9.359375 -25.53125 C 10.929688 -26.238281 12.625 -26.59375 14.4375 -26.59375 C 16.207031 -26.59375 17.890625 -26.238281 19.484375 -25.53125 C 21.078125 -24.820312 22.457031 -23.851562 23.625 -22.625 C 24.800781 -21.394531 25.734375 -19.945312 26.421875 -18.28125 C 27.109375 -16.625 27.453125 -14.851562 27.453125 -12.96875 C 27.453125 -11.082031 27.109375 -9.304688 26.421875 -7.640625 C 25.734375 -5.984375 24.800781 -4.539062 23.625 -3.3125 C 22.457031 -2.082031 21.078125 -1.113281 19.484375 -0.40625 C 17.890625 0.300781 16.207031 0.65625 14.4375 0.65625 Z M 14.4375 -21.875 C 13.382812 -21.875 12.390625 -21.632812 11.453125 -21.15625 C 10.515625 -20.6875 9.691406 -20.054688 8.984375 -19.265625 C 8.273438 -18.472656 7.722656 -17.53125 7.328125 -16.4375 C 6.929688 -15.351562 6.734375 -14.195312 6.734375 -12.96875 C 6.734375 -11.738281 6.929688 -10.582031 7.328125 -9.5 C 7.722656 -8.414062 8.273438 -7.460938 8.984375 -6.640625 C 9.691406 -5.828125 10.515625 -5.1875 11.453125 -4.71875 C 12.390625 -4.25 13.382812 -4.015625 14.4375 -4.015625 C 15.488281 -4.015625 16.484375 -4.25 17.421875 -4.71875 C 18.359375 -5.1875 19.171875 -5.828125 19.859375 -6.640625 C 20.546875 -7.460938 21.085938 -8.414062 21.484375 -9.5 C 21.890625 -10.582031 22.09375 -11.738281 22.09375 -12.96875 C 22.09375 -14.195312 21.890625 -15.351562 21.484375 -16.4375 C 21.085938 -17.53125 20.546875 -18.472656 19.859375 -19.265625 C 19.171875 -20.054688 18.359375 -20.6875 17.421875 -21.15625 C 16.484375 -21.632812 15.488281 -21.875 14.4375 -21.875 Z M 14.4375 -21.875 "/></g></g></g><g fill="#231f20" fill-opacity="1"><g transform="translate(538.45833, 509.857635)"><g><path d="M 20.625 -2.328125 C 19.71875 -1.492188 18.65625 -0.804688 17.4375 -0.265625 C 16.226562 0.273438 14.882812 0.546875 13.40625 0.546875 C 12.46875 0.546875 11.398438 0.410156 10.203125 0.140625 C 9.003906 -0.128906 7.890625 -0.660156 6.859375 -1.453125 C 5.828125 -2.253906 4.957031 -3.351562 4.25 -4.75 C 3.550781 -6.144531 3.203125 -7.960938 3.203125 -10.203125 L 3.203125 -26 L 8.1875 -26 L 8.1875 -10.203125 C 8.1875 -9.078125 8.359375 -8.125 8.703125 -7.34375 C 9.046875 -6.570312 9.5 -5.953125 10.0625 -5.484375 C 10.625 -5.015625 11.265625 -4.671875 11.984375 -4.453125 C 12.710938 -4.234375 13.457031 -4.125 14.21875 -4.125 C 14.789062 -4.125 15.445312 -4.234375 16.1875 -4.453125 C 16.9375 -4.671875 17.632812 -5.019531 18.28125 -5.5 C 18.9375 -5.988281 19.488281 -6.613281 19.9375 -7.375 C 20.394531 -8.132812 20.625 -9.054688 20.625 -10.140625 L 20.625 -26 L 25.890625 -26 L 25.890625 0 L 21.703125 0 Z M 20.625 -2.328125 "/></g></g></g><g fill="#231f20" fill-opacity="1"><g transform="translate(567.484683, 509.857635)"><g><path d="M 8.1875 0 L 2.9375 0 L 2.9375 -26 L 7.109375 -26 L 8.1875 -23.71875 C 9.0625 -24.550781 10.113281 -25.238281 11.34375 -25.78125 C 12.570312 -26.320312 13.910156 -26.59375 15.359375 -26.59375 C 16.296875 -26.59375 17.359375 -26.445312 18.546875 -26.15625 C 19.742188 -25.863281 20.859375 -25.316406 21.890625 -24.515625 C 22.921875 -23.722656 23.789062 -22.617188 24.5 -21.203125 C 25.207031 -19.796875 25.5625 -17.972656 25.5625 -15.734375 L 25.5625 0 L 20.5625 0 L 20.5625 -15.796875 C 20.5625 -16.910156 20.390625 -17.859375 20.046875 -18.640625 C 19.703125 -19.421875 19.25 -20.046875 18.6875 -20.515625 C 18.132812 -20.984375 17.503906 -21.316406 16.796875 -21.515625 C 16.085938 -21.710938 15.351562 -21.8125 14.59375 -21.8125 C 14.019531 -21.8125 13.359375 -21.703125 12.609375 -21.484375 C 11.867188 -21.265625 11.171875 -20.910156 10.515625 -20.421875 C 9.867188 -19.941406 9.316406 -19.328125 8.859375 -18.578125 C 8.410156 -17.835938 8.1875 -16.925781 8.1875 -15.84375 Z M 8.1875 0 "/></g></g></g><g fill="#231f20" fill-opacity="1"><g transform="translate(596.456768, 509.857635)"><g><path d="M 27.890625 -39.609375 L 27.890625 0 L 23.71875 0 L 22.625 -2.71875 C 21.582031 -1.664062 20.390625 -0.835938 19.046875 -0.234375 C 17.710938 0.359375 16.175781 0.65625 14.4375 0.65625 C 12.625 0.65625 10.957031 0.300781 9.4375 -0.40625 C 7.914062 -1.113281 6.59375 -2.082031 5.46875 -3.3125 C 4.351562 -4.539062 3.476562 -5.984375 2.84375 -7.640625 C 2.21875 -9.304688 1.90625 -11.082031 1.90625 -12.96875 C 1.90625 -14.851562 2.21875 -16.625 2.84375 -18.28125 C 3.476562 -19.945312 4.351562 -21.394531 5.46875 -22.625 C 6.59375 -23.851562 7.914062 -24.820312 9.4375 -25.53125 C 10.957031 -26.238281 12.625 -26.59375 14.4375 -26.59375 C 16.238281 -26.59375 17.804688 -26.289062 19.140625 -25.6875 C 20.484375 -25.09375 21.644531 -24.253906 22.625 -23.171875 L 22.625 -39.609375 Z M 14.875 -4.015625 C 15.957031 -4.015625 16.957031 -4.191406 17.875 -4.546875 C 18.800781 -4.910156 19.613281 -5.460938 20.3125 -6.203125 C 21.019531 -6.953125 21.570312 -7.882812 21.96875 -9 C 22.375 -10.125 22.578125 -11.445312 22.578125 -12.96875 C 22.578125 -14.59375 22.375 -15.96875 21.96875 -17.09375 C 21.570312 -18.21875 21.019531 -19.128906 20.3125 -19.828125 C 19.613281 -20.535156 18.800781 -21.039062 17.875 -21.34375 C 16.957031 -21.65625 15.957031 -21.8125 14.875 -21.8125 C 13.820312 -21.8125 12.820312 -21.582031 11.875 -21.125 C 10.9375 -20.675781 10.125 -20.054688 9.4375 -19.265625 C 8.75 -18.472656 8.207031 -17.53125 7.8125 -16.4375 C 7.414062 -15.351562 7.21875 -14.195312 7.21875 -12.96875 C 7.21875 -11.738281 7.414062 -10.582031 7.8125 -9.5 C 8.207031 -8.414062 8.75 -7.460938 9.4375 -6.640625 C 10.125 -5.828125 10.9375 -5.1875 11.875 -4.71875 C 12.820312 -4.25 13.820312 -4.015625 14.875 -4.015625 Z M 14.875 -4.015625 "/></g></g></g><path stroke-linecap="round" transform="matrix(0.742136, -0.108327, 0.108327, 0.742136, 231.189511, 164.317895)" fill="none" stroke-linejoin="miter" d="M 0.998524 1.0017 L 605.182841 1.001957 " stroke="#d9d9d9" stroke-width="2" stroke-opacity="1" stroke-miterlimit="4"/></svg>