<svg xmlns="http://www.w3.org/2000/svg" xmlns:xlink="http://www.w3.org/1999/xlink" width="1200" zoomAndPan="magnify" viewBox="0 0 900 599.999999" height="800" preserveAspectRatio="xMidYMid meet" version="1.0"><defs><filter x="0%" y="0%" width="100%" height="100%" id="f98205d536"><feColorMatrix values="0 0 0 0 1 0 0 0 0 1 0 0 0 0 1 0 0 0 1 0" color-interpolation-filters="sRGB"/></filter><g/><clipPath id="f4671c69df"><path d="M 323 115 L 398 115 L 398 218 L 323 218 Z M 323 115 " clip-rule="nonzero"/></clipPath><clipPath id="e1120f95ac"><path d="M 141.011719 77.046875 L 591.699219 155.707031 L 542.953125 434.988281 L 92.265625 356.324219 Z M 141.011719 77.046875 " clip-rule="nonzero"/></clipPath><clipPath id="54ebc40a2f"><path d="M 141.011719 77.046875 L 591.699219 155.707031 L 542.953125 434.988281 L 92.265625 356.324219 Z M 141.011719 77.046875 " clip-rule="nonzero"/></clipPath><clipPath id="702d3c9602"><path d="M 98 215 L 546 215 L 546 431 L 98 431 Z M 98 215 " clip-rule="nonzero"/></clipPath><clipPath id="73d49e911c"><path d="M 141.011719 77.046875 L 591.699219 155.707031 L 542.953125 434.988281 L 92.265625 356.324219 Z M 141.011719 77.046875 " clip-rule="nonzero"/></clipPath><clipPath id="c5d8d6e76f"><path d="M 141.011719 77.046875 L 591.699219 155.707031 L 542.953125 434.988281 L 92.265625 356.324219 Z M 141.011719 77.046875 " clip-rule="nonzero"/></clipPath><clipPath id="ad2f68ce90"><path d="M 343 199 L 358 199 L 358 210 L 343 210 Z M 343 199 " clip-rule="nonzero"/></clipPath><clipPath id="354fd6caf6"><path d="M 141.011719 77.046875 L 591.699219 155.707031 L 542.953125 434.988281 L 92.265625 356.324219 Z M 141.011719 77.046875 " clip-rule="nonzero"/></clipPath><clipPath id="f508708774"><path d="M 141.011719 77.046875 L 591.699219 155.707031 L 542.953125 434.988281 L 92.265625 356.324219 Z M 141.011719 77.046875 " clip-rule="nonzero"/></clipPath><clipPath id="144ef9a779"><path d="M 342 209 L 356 209 L 356 219 L 342 219 Z M 342 209 " clip-rule="nonzero"/></clipPath><clipPath id="41b4926dca"><path d="M 141.011719 77.046875 L 591.699219 155.707031 L 542.953125 434.988281 L 92.265625 356.324219 Z M 141.011719 77.046875 " clip-rule="nonzero"/></clipPath><clipPath id="35e8aa6450"><path d="M 141.011719 77.046875 L 591.699219 155.707031 L 542.953125 434.988281 L 92.265625 356.324219 Z M 141.011719 77.046875 " clip-rule="nonzero"/></clipPath><clipPath id="304a53560d"><path d="M 345 190 L 360 190 L 360 200 L 345 200 Z M 345 190 " clip-rule="nonzero"/></clipPath><clipPath id="d32112e79e"><path d="M 141.011719 77.046875 L 591.699219 155.707031 L 542.953125 434.988281 L 92.265625 356.324219 Z M 141.011719 77.046875 " clip-rule="nonzero"/></clipPath><clipPath id="acfc72e936"><path d="M 141.011719 77.046875 L 591.699219 155.707031 L 542.953125 434.988281 L 92.265625 356.324219 Z M 141.011719 77.046875 " clip-rule="nonzero"/></clipPath><mask id="cb8c425652"><g filter="url(#f98205d536)"><rect x="-90" width="1080" fill="#000000" y="-60" height="719.999999" fill-opacity="0.6"/></g></mask><clipPath id="c369ce7f64"><path d="M 190 0.519531 L 265 0.519531 L 265 103 L 190 103 Z M 190 0.519531 " clip-rule="nonzero"/></clipPath><clipPath id="e899ed388f"><path d="M 0.519531 101 L 455 101 L 455 283.90625 L 0.519531 283.90625 Z M 0.519531 101 " clip-rule="nonzero"/></clipPath><clipPath id="70cf66e53f"><rect x="0" width="457" y="0" height="284"/></clipPath><mask id="b5ce9d6dbe"><g filter="url(#f98205d536)"><rect x="-90" width="1080" fill="#000000" y="-60" height="719.999999" fill-opacity="0.89"/></g></mask><clipPath id="f8f5fe3e9c"><path d="M 0.640625 0.359375 L 522.398438 0.359375 L 522.398438 145.558594 L 0.640625 145.558594 Z M 0.640625 0.359375 " clip-rule="nonzero"/></clipPath><clipPath id="3a31539467"><rect x="0" width="523" y="0" height="146"/></clipPath><mask id="4054960fa4"><g filter="url(#f98205d536)"><rect x="-90" width="1080" fill="#000000" y="-60" height="719.999999" fill-opacity="0.2"/></g></mask><clipPath id="000766d47e"><path d="M 227 36 L 302 36 L 302 139 L 227 139 Z M 227 36 " clip-rule="nonzero"/></clipPath><clipPath id="743caf9679"><path d="M 44.546875 0.246094 L 496.003906 74.375 L 450.066406 354.128906 L -1.390625 280 Z M 44.546875 0.246094 " clip-rule="nonzero"/></clipPath><clipPath id="7518c65399"><path d="M 44.546875 0.246094 L 496.003906 74.375 L 450.066406 354.128906 L -1.390625 280 Z M 44.546875 0.246094 " clip-rule="nonzero"/></clipPath><clipPath id="c30f368317"><path d="M 4 136 L 453 136 L 453 350 L 4 350 Z M 4 136 " clip-rule="nonzero"/></clipPath><clipPath id="4276fbffd3"><path d="M 44.546875 0.246094 L 496.003906 74.375 L 450.066406 354.128906 L -1.390625 280 Z M 44.546875 0.246094 " clip-rule="nonzero"/></clipPath><clipPath id="adc4faeb11"><path d="M 44.546875 0.246094 L 496.003906 74.375 L 450.066406 354.128906 L -1.390625 280 Z M 44.546875 0.246094 " clip-rule="nonzero"/></clipPath><clipPath id="9fa4cecf95"><path d="M 248 120 L 263 120 L 263 131 L 248 131 Z M 248 120 " clip-rule="nonzero"/></clipPath><clipPath id="d12b0ac21c"><path d="M 44.546875 0.246094 L 496.003906 74.375 L 450.066406 354.128906 L -1.390625 280 Z M 44.546875 0.246094 " clip-rule="nonzero"/></clipPath><clipPath id="f58a756aa5"><path d="M 44.546875 0.246094 L 496.003906 74.375 L 450.066406 354.128906 L -1.390625 280 Z M 44.546875 0.246094 " clip-rule="nonzero"/></clipPath><clipPath id="72b6c5ab09"><path d="M 247 130 L 261 130 L 261 141 L 247 141 Z M 247 130 " clip-rule="nonzero"/></clipPath><clipPath id="002e88de21"><path d="M 44.546875 0.246094 L 496.003906 74.375 L 450.066406 354.128906 L -1.390625 280 Z M 44.546875 0.246094 " clip-rule="nonzero"/></clipPath><clipPath id="37a0d9310a"><path d="M 44.546875 0.246094 L 496.003906 74.375 L 450.066406 354.128906 L -1.390625 280 Z M 44.546875 0.246094 " clip-rule="nonzero"/></clipPath><clipPath id="e17860a628"><path d="M 250 111 L 264 111 L 264 121 L 250 121 Z M 250 111 " clip-rule="nonzero"/></clipPath><clipPath id="9d06215a3c"><path d="M 44.546875 0.246094 L 496.003906 74.375 L 450.066406 354.128906 L -1.390625 280 Z M 44.546875 0.246094 " clip-rule="nonzero"/></clipPath><clipPath id="7bd2c7a28a"><path d="M 44.546875 0.246094 L 496.003906 74.375 L 450.066406 354.128906 L -1.390625 280 Z M 44.546875 0.246094 " clip-rule="nonzero"/></clipPath><clipPath id="087af4a133"><rect x="0" width="497" y="0" height="355"/></clipPath><clipPath id="e46062067f"><path d="M 225 149 L 235 149 L 235 167 L 225 167 Z M 225 149 " clip-rule="nonzero"/></clipPath><clipPath id="bc5469959a"><path d="M 224.574219 149.523438 L 233.496094 148.523438 L 235.488281 166.289062 L 226.566406 167.289062 Z M 224.574219 149.523438 " clip-rule="nonzero"/></clipPath><clipPath id="1b5a469850"><path d="M 229.035156 149.023438 C 226.570312 149.300781 225.019531 153.5 225.570312 158.40625 C 226.121094 163.3125 228.566406 167.066406 231.027344 166.789062 C 233.492188 166.511719 235.042969 162.3125 234.492188 157.40625 C 233.941406 152.5 231.5 148.746094 229.035156 149.023438 Z M 229.035156 149.023438 " clip-rule="nonzero"/></clipPath></defs><g clip-path="url(#f4671c69df)"><g clip-path="url(#e1120f95ac)"><g clip-path="url(#54ebc40a2f)"><path fill="#ffffff" d="M 351.667969 217.507812 L 345.417969 216.414062 L 350.171875 189.171875 L 352.113281 188.589844 C 352.113281 188.589844 357.640625 187.253906 373.949219 179.515625 C 380.980469 176.140625 388.734375 165.988281 390.136719 157.949219 C 391.539062 149.910156 389.738281 141.773438 384.945312 134.953125 C 380.15625 128.132812 373.109375 123.679688 365.070312 122.277344 C 348.320312 119.355469 332.320312 130.597656 329.398438 147.347656 L 323.144531 146.257812 C 326.835938 126.421875 345.984375 112.964844 366.304688 116.511719 C 376.128906 118.226562 384.625 123.621094 390.339844 131.75 C 396.050781 139.882812 398.25 149.699219 396.535156 159.527344 C 394.78125 169.574219 385.820312 181.359375 376.808594 185.535156 C 365.027344 191.074219 358.859375 193.449219 355.945312 194.320312 Z M 351.667969 217.507812 " fill-opacity="1" fill-rule="nonzero"/></g></g></g><g clip-path="url(#702d3c9602)"><g clip-path="url(#73d49e911c)"><g clip-path="url(#c5d8d6e76f)"><path fill="#ffffff" d="M 517.96875 430.160156 L 117.25 359.53125 C 106.753906 357.699219 99.398438 349.742188 98.25 339.183594 C 97.097656 328.628906 102.648438 319.242188 112.332031 315.179688 L 347.582031 215.871094 C 348.816406 215.398438 349.933594 215.59375 350.929688 216.457031 L 538.027344 390.402344 C 545.761719 397.503906 547.765625 408.4375 543.105469 417.980469 C 538.082031 427 528.464844 431.992188 517.96875 430.160156 Z M 347.871094 222.136719 L 114.5625 320.863281 C 105.890625 324.410156 103.554688 332.515625 104.367188 338.410156 C 104.957031 344.265625 109.183594 351.679688 118.339844 353.277344 L 519.0625 423.910156 C 528.21875 425.507812 534.707031 419.96875 537.246094 414.65625 C 539.78125 409.347656 540.554688 400.96875 533.597656 394.691406 Z M 347.871094 222.136719 " fill-opacity="1" fill-rule="nonzero"/></g></g></g><g clip-path="url(#ad2f68ce90)"><g clip-path="url(#354fd6caf6)"><g clip-path="url(#f508708774)"><path fill="#ffffff" d="M 346.441406 209.230469 C 345.324219 209.035156 344.507812 208.433594 344.035156 207.199219 C 343.414062 205.480469 344.171875 203.773438 345.890625 203.152344 L 353.332031 200.078125 C 355.050781 199.457031 356.757812 200.214844 357.378906 201.933594 C 358 203.65625 357.238281 205.363281 355.519531 205.984375 L 348.082031 209.058594 C 347.59375 209.203125 347.109375 209.347656 346.441406 209.230469 Z M 346.441406 209.230469 " fill-opacity="1" fill-rule="nonzero"/></g></g></g><g clip-path="url(#144ef9a779)"><g clip-path="url(#41b4926dca)"><g clip-path="url(#35e8aa6450)"><path fill="#ffffff" d="M 344.765625 218.832031 C 343.648438 218.636719 342.832031 218.035156 342.355469 216.800781 C 341.738281 215.082031 342.496094 213.375 344.214844 212.753906 L 351.652344 209.679688 C 353.375 209.058594 355.082031 209.820312 355.703125 211.539062 C 356.324219 213.257812 355.5625 214.964844 353.84375 215.585938 L 346.40625 218.660156 C 345.878906 219.027344 345.433594 218.949219 344.765625 218.832031 Z M 344.765625 218.832031 " fill-opacity="1" fill-rule="nonzero"/></g></g></g><g clip-path="url(#304a53560d)"><g clip-path="url(#d32112e79e)"><g clip-path="url(#acfc72e936)"><path fill="#ffffff" d="M 348.15625 199.40625 C 347.039062 199.210938 346.222656 198.609375 345.75 197.375 C 345.128906 195.65625 345.886719 193.945312 347.605469 193.328125 L 355.046875 190.253906 C 356.765625 189.632812 358.472656 190.390625 359.09375 192.109375 C 359.714844 193.828125 358.953125 195.539062 357.234375 196.15625 L 349.796875 199.230469 C 349.3125 199.375 348.824219 199.523438 348.15625 199.40625 Z M 348.15625 199.40625 " fill-opacity="1" fill-rule="nonzero"/></g></g></g><g mask="url(#cb8c425652)"><g transform="matrix(1, 0, 0, 1, 227, 95)"><g clip-path="url(#70cf66e53f)"><g clip-path="url(#c369ce7f64)"><path fill="#d9d9d9" d="M 230.550781 102.554688 L 224.203125 102.554688 L 224.203125 74.902344 L 226.019531 73.992188 C 226.019531 73.992188 231.230469 71.726562 245.964844 61.300781 C 252.3125 56.765625 258.207031 45.433594 258.207031 37.269531 C 258.207031 29.109375 255.035156 21.402344 249.140625 15.507812 C 243.246094 9.617188 235.539062 6.441406 227.378906 6.441406 C 210.378906 6.441406 196.550781 20.269531 196.550781 37.269531 L 190.203125 37.269531 C 190.429688 17.097656 206.976562 0.546875 227.605469 0.546875 C 237.578125 0.546875 246.875 4.402344 253.902344 11.429688 C 260.929688 18.457031 264.78125 27.75 264.78125 37.722656 C 264.78125 47.925781 257.980469 61.074219 249.820312 66.738281 C 239.167969 74.222656 233.5 77.621094 230.777344 78.980469 Z M 230.550781 102.554688 " fill-opacity="1" fill-rule="nonzero"/></g><g clip-path="url(#e899ed388f)"><path fill="#d9d9d9" d="M 430.941406 283.449219 L 24.042969 282.769531 C 13.386719 282.769531 4.773438 276.195312 1.828125 265.996094 C -1.121094 255.792969 2.734375 245.59375 11.574219 239.925781 L 226.246094 101.648438 C 227.378906 100.96875 228.511719 100.96875 229.644531 101.648438 L 443.863281 240.832031 C 452.703125 246.5 456.554688 256.929688 453.609375 267.128906 C 450.210938 276.875 441.59375 283.449219 430.941406 283.449219 Z M 227.605469 107.769531 L 14.75 245.140625 C 6.816406 250.128906 5.90625 258.515625 7.722656 264.183594 C 9.308594 269.847656 14.75 276.421875 24.042969 276.421875 L 430.941406 277.101562 C 440.234375 277.101562 445.675781 270.53125 447.261719 264.863281 C 448.847656 259.195312 448.167969 250.808594 440.234375 245.820312 Z M 227.605469 107.769531 " fill-opacity="1" fill-rule="nonzero"/></g><path fill="#d9d9d9" d="M 223.976562 95.300781 C 222.84375 95.300781 221.9375 94.847656 221.257812 93.714844 C 220.351562 92.128906 220.804688 90.316406 222.390625 89.410156 L 229.191406 85.101562 C 230.777344 84.195312 232.59375 84.648438 233.5 86.234375 C 234.40625 87.820312 233.953125 89.636719 232.367188 90.542969 L 225.566406 94.847656 C 225.113281 95.074219 224.660156 95.300781 223.976562 95.300781 Z M 223.976562 95.300781 " fill-opacity="1" fill-rule="nonzero"/><path fill="#d9d9d9" d="M 223.976562 105.050781 C 222.84375 105.050781 221.9375 104.597656 221.257812 103.464844 C 220.351562 101.875 220.804688 100.0625 222.390625 99.15625 L 229.191406 94.847656 C 230.777344 93.941406 232.59375 94.394531 233.5 95.980469 C 234.40625 97.570312 233.953125 99.382812 232.367188 100.289062 L 225.566406 104.597656 C 225.113281 105.050781 224.660156 105.050781 223.976562 105.050781 Z M 223.976562 105.050781 " fill-opacity="1" fill-rule="nonzero"/><path fill="#d9d9d9" d="M 223.976562 85.328125 C 222.84375 85.328125 221.9375 84.875 221.257812 83.742188 C 220.351562 82.15625 220.804688 80.339844 222.390625 79.433594 L 229.191406 75.128906 C 230.777344 74.222656 232.59375 74.675781 233.5 76.261719 C 234.40625 77.847656 233.953125 79.660156 232.367188 80.566406 L 225.566406 84.875 C 225.113281 85.101562 224.660156 85.328125 223.976562 85.328125 Z M 223.976562 85.328125 " fill-opacity="1" fill-rule="nonzero"/></g></g></g><g mask="url(#b5ce9d6dbe)"><g transform="matrix(1, 0, 0, 1, 194, 51)"><g clip-path="url(#3a31539467)"><g clip-path="url(#f8f5fe3e9c)"><path stroke-linecap="round" transform="matrix(0.741867, -0.11015, 0.11015, 0.741867, 30.614034, 98.481575)" fill="none" stroke-linejoin="miter" d="M 11.502454 11.500061 L 607.301994 11.498187 " stroke="#d9d9d9" stroke-width="23" stroke-opacity="1" stroke-miterlimit="4"/></g></g></g></g><g mask="url(#4054960fa4)"><g transform="matrix(1, 0, 0, 1, 328, 48)"><g clip-path="url(#087af4a133)"><g clip-path="url(#000766d47e)"><g clip-path="url(#743caf9679)"><g clip-path="url(#7518c65399)"><path fill="#f4f4f4" d="M 256.605469 138.582031 L 250.34375 137.554688 L 254.824219 110.265625 L 256.761719 109.664062 C 256.761719 109.664062 262.273438 108.273438 278.503906 100.371094 C 285.5 96.925781 293.152344 86.695312 294.476562 78.640625 C 295.796875 70.589844 293.914062 62.46875 289.054688 55.699219 C 284.191406 48.929688 277.101562 44.546875 269.046875 43.226562 C 252.273438 40.46875 236.386719 51.875 233.632812 68.652344 L 227.367188 67.625 C 230.859375 47.75 249.871094 34.105469 270.226562 37.445312 C 280.070312 39.0625 288.617188 44.371094 294.410156 52.445312 C 300.207031 60.515625 302.503906 70.3125 300.886719 80.15625 C 299.234375 90.222656 290.394531 102.09375 281.421875 106.363281 C 269.699219 112.019531 263.554688 114.457031 260.648438 115.355469 Z M 256.605469 138.582031 " fill-opacity="1" fill-rule="nonzero"/></g></g></g><g clip-path="url(#c30f368317)"><g clip-path="url(#4276fbffd3)"><g clip-path="url(#adc4faeb11)"><path fill="#f4f4f4" d="M 425.035156 349.558594 L 23.625 282.953125 C 13.113281 281.226562 5.675781 273.34375 4.421875 262.800781 C 3.167969 252.257812 8.621094 242.816406 18.265625 238.65625 L 252.503906 136.992188 C 253.730469 136.503906 254.851562 136.6875 255.859375 137.542969 L 444.691406 309.597656 C 452.496094 316.621094 454.609375 327.535156 450.050781 337.125 C 445.113281 346.191406 435.550781 351.285156 425.035156 349.558594 Z M 252.855469 143.25 L 20.550781 244.316406 C 11.914062 247.953125 9.660156 256.082031 10.53125 261.96875 C 11.179688 267.816406 15.480469 275.183594 24.652344 276.691406 L 426.066406 343.292969 C 435.234375 344.800781 441.667969 339.195312 444.152344 333.859375 C 446.636719 328.523438 447.324219 320.136719 440.304688 313.929688 Z M 252.855469 143.25 " fill-opacity="1" fill-rule="nonzero"/></g></g></g><g clip-path="url(#9fa4cecf95)"><g clip-path="url(#d12b0ac21c)"><g clip-path="url(#f58a756aa5)"><path fill="#f4f4f4" d="M 251.292969 130.359375 C 250.175781 130.175781 249.355469 129.582031 248.867188 128.355469 C 248.230469 126.640625 248.972656 124.925781 250.683594 124.289062 L 258.09375 121.140625 C 259.804688 120.5 261.519531 121.242188 262.160156 122.957031 C 262.796875 124.667969 262.054688 126.382812 260.34375 127.023438 L 252.933594 130.171875 C 252.449219 130.320312 251.964844 130.46875 251.292969 130.359375 Z M 251.292969 130.359375 " fill-opacity="1" fill-rule="nonzero"/></g></g></g><g clip-path="url(#72b6c5ab09)"><g clip-path="url(#002e88de21)"><g clip-path="url(#37a0d9310a)"><path fill="#f4f4f4" d="M 249.714844 139.980469 C 248.597656 139.796875 247.777344 139.199219 247.289062 137.972656 C 246.652344 136.257812 247.390625 134.542969 249.105469 133.90625 L 256.511719 130.757812 C 258.226562 130.121094 259.941406 130.863281 260.578125 132.574219 C 261.21875 134.285156 260.476562 136.003906 258.761719 136.640625 L 251.355469 139.789062 C 250.832031 140.164062 250.386719 140.089844 249.714844 139.980469 Z M 249.714844 139.980469 " fill-opacity="1" fill-rule="nonzero"/></g></g></g><g clip-path="url(#e17860a628)"><g clip-path="url(#9d06215a3c)"><g clip-path="url(#7bd2c7a28a)"><path fill="#f4f4f4" d="M 252.910156 120.519531 C 251.792969 120.335938 250.972656 119.738281 250.484375 118.511719 C 249.847656 116.796875 250.585938 115.082031 252.300781 114.445312 L 259.707031 111.296875 C 261.421875 110.660156 263.136719 111.402344 263.773438 113.113281 C 264.414062 114.824219 263.671875 116.542969 261.957031 117.179688 L 254.550781 120.328125 C 254.066406 120.476562 253.582031 120.628906 252.910156 120.519531 Z M 252.910156 120.519531 " fill-opacity="1" fill-rule="nonzero"/></g></g></g></g></g></g><g clip-path="url(#e46062067f)"><g clip-path="url(#bc5469959a)"><g clip-path="url(#1b5a469850)"><path fill="#737373" d="M 224.574219 149.523438 L 233.496094 148.523438 L 235.488281 166.289062 L 226.566406 167.289062 Z M 224.574219 149.523438 " fill-opacity="1" fill-rule="nonzero"/></g></g></g><g fill="#a6a6a6" fill-opacity="1"><g transform="translate(282.917992, 509.857635)"><g><path d="M 36.1875 -38.46875 L 36.1875 0 L 30.4375 0 L 8.953125 -29.515625 L 8.953125 0 L 3.03125 0 L 3.03125 -38.46875 L 9.015625 -38.46875 L 30.5 -8.796875 L 30.5 -38.46875 Z M 36.1875 -38.46875 "/></g></g></g><g fill="#a6a6a6" fill-opacity="1"><g transform="translate(322.252761, 509.857635)"><g><path d="M 14.4375 0.65625 C 12.625 0.65625 10.929688 0.300781 9.359375 -0.40625 C 7.785156 -1.113281 6.410156 -2.082031 5.234375 -3.3125 C 4.054688 -4.539062 3.125 -5.984375 2.4375 -7.640625 C 1.75 -9.304688 1.40625 -11.082031 1.40625 -12.96875 C 1.40625 -14.851562 1.75 -16.625 2.4375 -18.28125 C 3.125 -19.945312 4.054688 -21.394531 5.234375 -22.625 C 6.410156 -23.851562 7.785156 -24.820312 9.359375 -25.53125 C 10.929688 -26.238281 12.625 -26.59375 14.4375 -26.59375 C 16.207031 -26.59375 17.890625 -26.238281 19.484375 -25.53125 C 21.078125 -24.820312 22.457031 -23.851562 23.625 -22.625 C 24.800781 -21.394531 25.734375 -19.945312 26.421875 -18.28125 C 27.109375 -16.625 27.453125 -14.851562 27.453125 -12.96875 C 27.453125 -11.082031 27.109375 -9.304688 26.421875 -7.640625 C 25.734375 -5.984375 24.800781 -4.539062 23.625 -3.3125 C 22.457031 -2.082031 21.078125 -1.113281 19.484375 -0.40625 C 17.890625 0.300781 16.207031 0.65625 14.4375 0.65625 Z M 14.4375 -21.875 C 13.382812 -21.875 12.390625 -21.632812 11.453125 -21.15625 C 10.515625 -20.6875 9.691406 -20.054688 8.984375 -19.265625 C 8.273438 -18.472656 7.722656 -17.53125 7.328125 -16.4375 C 6.929688 -15.351562 6.734375 -14.195312 6.734375 -12.96875 C 6.734375 -11.738281 6.929688 -10.582031 7.328125 -9.5 C 7.722656 -8.414062 8.273438 -7.460938 8.984375 -6.640625 C 9.691406 -5.828125 10.515625 -5.1875 11.453125 -4.71875 C 12.390625 -4.25 13.382812 -4.015625 14.4375 -4.015625 C 15.488281 -4.015625 16.484375 -4.25 17.421875 -4.71875 C 18.359375 -5.1875 19.171875 -5.828125 19.859375 -6.640625 C 20.546875 -7.460938 21.085938 -8.414062 21.484375 -9.5 C 21.890625 -10.582031 22.09375 -11.738281 22.09375 -12.96875 C 22.09375 -14.195312 21.890625 -15.351562 21.484375 -16.4375 C 21.085938 -17.53125 20.546875 -18.472656 19.859375 -19.265625 C 19.171875 -20.054688 18.359375 -20.6875 17.421875 -21.15625 C 16.484375 -21.632812 15.488281 -21.875 14.4375 -21.875 Z M 14.4375 -21.875 "/></g></g></g><g fill="#a6a6a6" fill-opacity="1"><g transform="translate(350.899322, 509.857635)"><g/></g></g><g fill="#a6a6a6" fill-opacity="1"><g transform="translate(365.05984, 509.857635)"><g><path d="M 27.890625 -39.609375 L 27.890625 0 L 23.71875 0 L 22.625 -2.71875 C 21.582031 -1.664062 20.390625 -0.835938 19.046875 -0.234375 C 17.710938 0.359375 16.175781 0.65625 14.4375 0.65625 C 12.625 0.65625 10.957031 0.300781 9.4375 -0.40625 C 7.914062 -1.113281 6.59375 -2.082031 5.46875 -3.3125 C 4.351562 -4.539062 3.476562 -5.984375 2.84375 -7.640625 C 2.21875 -9.304688 1.90625 -11.082031 1.90625 -12.96875 C 1.90625 -14.851562 2.21875 -16.625 2.84375 -18.28125 C 3.476562 -19.945312 4.351562 -21.394531 5.46875 -22.625 C 6.59375 -23.851562 7.914062 -24.820312 9.4375 -25.53125 C 10.957031 -26.238281 12.625 -26.59375 14.4375 -26.59375 C 16.238281 -26.59375 17.804688 -26.289062 19.140625 -25.6875 C 20.484375 -25.09375 21.644531 -24.253906 22.625 -23.171875 L 22.625 -39.609375 Z M 14.875 -4.015625 C 15.957031 -4.015625 16.957031 -4.191406 17.875 -4.546875 C 18.800781 -4.910156 19.613281 -5.460938 20.3125 -6.203125 C 21.019531 -6.953125 21.570312 -7.882812 21.96875 -9 C 22.375 -10.125 22.578125 -11.445312 22.578125 -12.96875 C 22.578125 -14.59375 22.375 -15.96875 21.96875 -17.09375 C 21.570312 -18.21875 21.019531 -19.128906 20.3125 -19.828125 C 19.613281 -20.535156 18.800781 -21.039062 17.875 -21.34375 C 16.957031 -21.65625 15.957031 -21.8125 14.875 -21.8125 C 13.820312 -21.8125 12.820312 -21.582031 11.875 -21.125 C 10.9375 -20.675781 10.125 -20.054688 9.4375 -19.265625 C 8.75 -18.472656 8.207031 -17.53125 7.8125 -16.4375 C 7.414062 -15.351562 7.21875 -14.195312 7.21875 -12.96875 C 7.21875 -11.738281 7.414062 -10.582031 7.8125 -9.5 C 8.207031 -8.414062 8.75 -7.460938 9.4375 -6.640625 C 10.125 -5.828125 10.9375 -5.1875 11.875 -4.71875 C 12.820312 -4.25 13.820312 -4.015625 14.875 -4.015625 Z M 14.875 -4.015625 "/></g></g></g><g fill="#a6a6a6" fill-opacity="1"><g transform="translate(396.473396, 509.857635)"><g><path d="M 27.671875 -26 L 27.671875 0 L 23.21875 0 L 22.40625 -2.984375 C 21.507812 -1.785156 20.351562 -0.878906 18.9375 -0.265625 C 17.53125 0.347656 16.101562 0.65625 14.65625 0.65625 C 12.84375 0.65625 11.148438 0.300781 9.578125 -0.40625 C 8.003906 -1.113281 6.628906 -2.082031 5.453125 -3.3125 C 4.273438 -4.539062 3.34375 -5.984375 2.65625 -7.640625 C 1.96875 -9.304688 1.625 -11.082031 1.625 -12.96875 C 1.625 -14.851562 1.96875 -16.625 2.65625 -18.28125 C 3.34375 -19.945312 4.273438 -21.394531 5.453125 -22.625 C 6.628906 -23.851562 8.003906 -24.820312 9.578125 -25.53125 C 11.148438 -26.238281 12.84375 -26.59375 14.65625 -26.59375 C 16.101562 -26.59375 17.492188 -26.3125 18.828125 -25.75 C 20.171875 -25.1875 21.363281 -24.3125 22.40625 -23.125 L 23.21875 -26 Z M 14.65625 -4.015625 C 15.695312 -4.015625 16.6875 -4.25 17.625 -4.71875 C 18.570312 -5.1875 19.390625 -5.828125 20.078125 -6.640625 C 20.765625 -7.460938 21.304688 -8.414062 21.703125 -9.5 C 22.097656 -10.582031 22.296875 -11.738281 22.296875 -12.96875 C 22.296875 -14.195312 22.097656 -15.351562 21.703125 -16.4375 C 21.304688 -17.53125 20.765625 -18.484375 20.078125 -19.296875 C 19.390625 -20.109375 18.570312 -20.75 17.625 -21.21875 C 16.6875 -21.6875 15.695312 -21.921875 14.65625 -21.921875 C 13.601562 -21.921875 12.601562 -21.6875 11.65625 -21.21875 C 10.71875 -20.75 9.90625 -20.109375 9.21875 -19.296875 C 8.53125 -18.484375 7.988281 -17.53125 7.59375 -16.4375 C 7.195312 -15.351562 7 -14.195312 7 -12.96875 C 7 -11.738281 7.195312 -10.582031 7.59375 -9.5 C 7.988281 -8.414062 8.53125 -7.460938 9.21875 -6.640625 C 9.90625 -5.828125 10.71875 -5.1875 11.65625 -4.71875 C 12.601562 -4.25 13.601562 -4.015625 14.65625 -4.015625 Z M 14.65625 -4.015625 "/></g></g></g><g fill="#a6a6a6" fill-opacity="1"><g transform="translate(426.47632, 509.857635)"><g><path d="M 17.140625 -0.046875 C 15.660156 0.453125 14.195312 0.753906 12.75 0.859375 C 11.300781 0.972656 10 0.765625 8.84375 0.234375 C 7.6875 -0.285156 6.742188 -1.203125 6.015625 -2.515625 C 5.296875 -3.835938 4.9375 -5.691406 4.9375 -8.078125 L 4.9375 -21.265625 L 1.140625 -21.265625 L 1.140625 -24.90625 L 4.9375 -26 L 4.9375 -32.9375 L 10.203125 -32.9375 L 10.203125 -26 L 17.25 -26 L 17.25 -21.265625 L 10.203125 -21.265625 L 10.203125 -7.265625 C 10.203125 -6.398438 10.300781 -5.710938 10.5 -5.203125 C 10.695312 -4.703125 11.03125 -4.320312 11.5 -4.0625 C 11.96875 -3.8125 12.582031 -3.6875 13.34375 -3.6875 C 14.101562 -3.6875 15.023438 -3.757812 16.109375 -3.90625 Z M 17.140625 -0.046875 "/></g></g></g><g fill="#a6a6a6" fill-opacity="1"><g transform="translate(445.031473, 509.857635)"><g><path d="M 27.671875 -26 L 27.671875 0 L 23.21875 0 L 22.40625 -2.984375 C 21.507812 -1.785156 20.351562 -0.878906 18.9375 -0.265625 C 17.53125 0.347656 16.101562 0.65625 14.65625 0.65625 C 12.84375 0.65625 11.148438 0.300781 9.578125 -0.40625 C 8.003906 -1.113281 6.628906 -2.082031 5.453125 -3.3125 C 4.273438 -4.539062 3.34375 -5.984375 2.65625 -7.640625 C 1.96875 -9.304688 1.625 -11.082031 1.625 -12.96875 C 1.625 -14.851562 1.96875 -16.625 2.65625 -18.28125 C 3.34375 -19.945312 4.273438 -21.394531 5.453125 -22.625 C 6.628906 -23.851562 8.003906 -24.820312 9.578125 -25.53125 C 11.148438 -26.238281 12.84375 -26.59375 14.65625 -26.59375 C 16.101562 -26.59375 17.492188 -26.3125 18.828125 -25.75 C 20.171875 -25.1875 21.363281 -24.3125 22.40625 -23.125 L 23.21875 -26 Z M 14.65625 -4.015625 C 15.695312 -4.015625 16.6875 -4.25 17.625 -4.71875 C 18.570312 -5.1875 19.390625 -5.828125 20.078125 -6.640625 C 20.765625 -7.460938 21.304688 -8.414062 21.703125 -9.5 C 22.097656 -10.582031 22.296875 -11.738281 22.296875 -12.96875 C 22.296875 -14.195312 22.097656 -15.351562 21.703125 -16.4375 C 21.304688 -17.53125 20.765625 -18.484375 20.078125 -19.296875 C 19.390625 -20.109375 18.570312 -20.75 17.625 -21.21875 C 16.6875 -21.6875 15.695312 -21.921875 14.65625 -21.921875 C 13.601562 -21.921875 12.601562 -21.6875 11.65625 -21.21875 C 10.71875 -20.75 9.90625 -20.109375 9.21875 -19.296875 C 8.53125 -18.484375 7.988281 -17.53125 7.59375 -16.4375 C 7.195312 -15.351562 7 -14.195312 7 -12.96875 C 7 -11.738281 7.195312 -10.582031 7.59375 -9.5 C 7.988281 -8.414062 8.53125 -7.460938 9.21875 -6.640625 C 9.90625 -5.828125 10.71875 -5.1875 11.65625 -4.71875 C 12.601562 -4.25 13.601562 -4.015625 14.65625 -4.015625 Z M 14.65625 -4.015625 "/></g></g></g><g fill="#a6a6a6" fill-opacity="1"><g transform="translate(475.034397, 509.857635)"><g/></g></g><g fill="#a6a6a6" fill-opacity="1"><g transform="translate(489.194916, 509.857635)"><g><path d="M 6.78125 0 L 6.78125 -21.265625 L 2.328125 -21.265625 L 2.328125 -24.90625 L 6.78125 -26 L 6.78125 -29.140625 C 6.78125 -30.984375 7.015625 -32.582031 7.484375 -33.9375 C 7.953125 -35.300781 8.59375 -36.414062 9.40625 -37.28125 C 10.226562 -38.144531 11.160156 -38.785156 12.203125 -39.203125 C 13.253906 -39.617188 14.378906 -39.828125 15.578125 -39.828125 C 17.054688 -39.828125 18.554688 -39.519531 20.078125 -38.90625 L 20.078125 -35.0625 C 18.773438 -35.457031 17.65625 -35.65625 16.71875 -35.65625 C 15.226562 -35.65625 14.078125 -35.203125 13.265625 -34.296875 C 12.453125 -33.390625 12.046875 -31.941406 12.046875 -29.953125 L 12.046875 -26 L 20.078125 -26 L 20.078125 -21.265625 L 12.046875 -21.265625 L 12.046875 0 Z M 6.78125 0 "/></g></g></g><g fill="#a6a6a6" fill-opacity="1"><g transform="translate(509.811769, 509.857635)"><g><path d="M 14.4375 0.65625 C 12.625 0.65625 10.929688 0.300781 9.359375 -0.40625 C 7.785156 -1.113281 6.410156 -2.082031 5.234375 -3.3125 C 4.054688 -4.539062 3.125 -5.984375 2.4375 -7.640625 C 1.75 -9.304688 1.40625 -11.082031 1.40625 -12.96875 C 1.40625 -14.851562 1.75 -16.625 2.4375 -18.28125 C 3.125 -19.945312 4.054688 -21.394531 5.234375 -22.625 C 6.410156 -23.851562 7.785156 -24.820312 9.359375 -25.53125 C 10.929688 -26.238281 12.625 -26.59375 14.4375 -26.59375 C 16.207031 -26.59375 17.890625 -26.238281 19.484375 -25.53125 C 21.078125 -24.820312 22.457031 -23.851562 23.625 -22.625 C 24.800781 -21.394531 25.734375 -19.945312 26.421875 -18.28125 C 27.109375 -16.625 27.453125 -14.851562 27.453125 -12.96875 C 27.453125 -11.082031 27.109375 -9.304688 26.421875 -7.640625 C 25.734375 -5.984375 24.800781 -4.539062 23.625 -3.3125 C 22.457031 -2.082031 21.078125 -1.113281 19.484375 -0.40625 C 17.890625 0.300781 16.207031 0.65625 14.4375 0.65625 Z M 14.4375 -21.875 C 13.382812 -21.875 12.390625 -21.632812 11.453125 -21.15625 C 10.515625 -20.6875 9.691406 -20.054688 8.984375 -19.265625 C 8.273438 -18.472656 7.722656 -17.53125 7.328125 -16.4375 C 6.929688 -15.351562 6.734375 -14.195312 6.734375 -12.96875 C 6.734375 -11.738281 6.929688 -10.582031 7.328125 -9.5 C 7.722656 -8.414062 8.273438 -7.460938 8.984375 -6.640625 C 9.691406 -5.828125 10.515625 -5.1875 11.453125 -4.71875 C 12.390625 -4.25 13.382812 -4.015625 14.4375 -4.015625 C 15.488281 -4.015625 16.484375 -4.25 17.421875 -4.71875 C 18.359375 -5.1875 19.171875 -5.828125 19.859375 -6.640625 C 20.546875 -7.460938 21.085938 -8.414062 21.484375 -9.5 C 21.890625 -10.582031 22.09375 -11.738281 22.09375 -12.96875 C 22.09375 -14.195312 21.890625 -15.351562 21.484375 -16.4375 C 21.085938 -17.53125 20.546875 -18.472656 19.859375 -19.265625 C 19.171875 -20.054688 18.359375 -20.6875 17.421875 -21.15625 C 16.484375 -21.632812 15.488281 -21.875 14.4375 -21.875 Z M 14.4375 -21.875 "/></g></g></g><g fill="#a6a6a6" fill-opacity="1"><g transform="translate(538.45833, 509.857635)"><g><path d="M 20.625 -2.328125 C 19.71875 -1.492188 18.65625 -0.804688 17.4375 -0.265625 C 16.226562 0.273438 14.882812 0.546875 13.40625 0.546875 C 12.46875 0.546875 11.398438 0.410156 10.203125 0.140625 C 9.003906 -0.128906 7.890625 -0.660156 6.859375 -1.453125 C 5.828125 -2.253906 4.957031 -3.351562 4.25 -4.75 C 3.550781 -6.144531 3.203125 -7.960938 3.203125 -10.203125 L 3.203125 -26 L 8.1875 -26 L 8.1875 -10.203125 C 8.1875 -9.078125 8.359375 -8.125 8.703125 -7.34375 C 9.046875 -6.570312 9.5 -5.953125 10.0625 -5.484375 C 10.625 -5.015625 11.265625 -4.671875 11.984375 -4.453125 C 12.710938 -4.234375 13.457031 -4.125 14.21875 -4.125 C 14.789062 -4.125 15.445312 -4.234375 16.1875 -4.453125 C 16.9375 -4.671875 17.632812 -5.019531 18.28125 -5.5 C 18.9375 -5.988281 19.488281 -6.613281 19.9375 -7.375 C 20.394531 -8.132812 20.625 -9.054688 20.625 -10.140625 L 20.625 -26 L 25.890625 -26 L 25.890625 0 L 21.703125 0 Z M 20.625 -2.328125 "/></g></g></g><g fill="#a6a6a6" fill-opacity="1"><g transform="translate(567.484683, 509.857635)"><g><path d="M 8.1875 0 L 2.9375 0 L 2.9375 -26 L 7.109375 -26 L 8.1875 -23.71875 C 9.0625 -24.550781 10.113281 -25.238281 11.34375 -25.78125 C 12.570312 -26.320312 13.910156 -26.59375 15.359375 -26.59375 C 16.296875 -26.59375 17.359375 -26.445312 18.546875 -26.15625 C 19.742188 -25.863281 20.859375 -25.316406 21.890625 -24.515625 C 22.921875 -23.722656 23.789062 -22.617188 24.5 -21.203125 C 25.207031 -19.796875 25.5625 -17.972656 25.5625 -15.734375 L 25.5625 0 L 20.5625 0 L 20.5625 -15.796875 C 20.5625 -16.910156 20.390625 -17.859375 20.046875 -18.640625 C 19.703125 -19.421875 19.25 -20.046875 18.6875 -20.515625 C 18.132812 -20.984375 17.503906 -21.316406 16.796875 -21.515625 C 16.085938 -21.710938 15.351562 -21.8125 14.59375 -21.8125 C 14.019531 -21.8125 13.359375 -21.703125 12.609375 -21.484375 C 11.867188 -21.265625 11.171875 -20.910156 10.515625 -20.421875 C 9.867188 -19.941406 9.316406 -19.328125 8.859375 -18.578125 C 8.410156 -17.835938 8.1875 -16.925781 8.1875 -15.84375 Z M 8.1875 0 "/></g></g></g><g fill="#a6a6a6" fill-opacity="1"><g transform="translate(596.456768, 509.857635)"><g><path d="M 27.890625 -39.609375 L 27.890625 0 L 23.71875 0 L 22.625 -2.71875 C 21.582031 -1.664062 20.390625 -0.835938 19.046875 -0.234375 C 17.710938 0.359375 16.175781 0.65625 14.4375 0.65625 C 12.625 0.65625 10.957031 0.300781 9.4375 -0.40625 C 7.914062 -1.113281 6.59375 -2.082031 5.46875 -3.3125 C 4.351562 -4.539062 3.476562 -5.984375 2.84375 -7.640625 C 2.21875 -9.304688 1.90625 -11.082031 1.90625 -12.96875 C 1.90625 -14.851562 2.21875 -16.625 2.84375 -18.28125 C 3.476562 -19.945312 4.351562 -21.394531 5.46875 -22.625 C 6.59375 -23.851562 7.914062 -24.820312 9.4375 -25.53125 C 10.957031 -26.238281 12.625 -26.59375 14.4375 -26.59375 C 16.238281 -26.59375 17.804688 -26.289062 19.140625 -25.6875 C 20.484375 -25.09375 21.644531 -24.253906 22.625 -23.171875 L 22.625 -39.609375 Z M 14.875 -4.015625 C 15.957031 -4.015625 16.957031 -4.191406 17.875 -4.546875 C 18.800781 -4.910156 19.613281 -5.460938 20.3125 -6.203125 C 21.019531 -6.953125 21.570312 -7.882812 21.96875 -9 C 22.375 -10.125 22.578125 -11.445312 22.578125 -12.96875 C 22.578125 -14.59375 22.375 -15.96875 21.96875 -17.09375 C 21.570312 -18.21875 21.019531 -19.128906 20.3125 -19.828125 C 19.613281 -20.535156 18.800781 -21.039062 17.875 -21.34375 C 16.957031 -21.65625 15.957031 -21.8125 14.875 -21.8125 C 13.820312 -21.8125 12.820312 -21.582031 11.875 -21.125 C 10.9375 -20.675781 10.125 -20.054688 9.4375 -19.265625 C 8.75 -18.472656 8.207031 -17.53125 7.8125 -16.4375 C 7.414062 -15.351562 7.21875 -14.195312 7.21875 -12.96875 C 7.21875 -11.738281 7.414062 -10.582031 7.8125 -9.5 C 8.207031 -8.414062 8.75 -7.460938 9.4375 -6.640625 C 10.125 -5.828125 10.9375 -5.1875 11.875 -4.71875 C 12.820312 -4.25 13.820312 -4.015625 14.875 -4.015625 Z M 14.875 -4.015625 "/></g></g></g><path stroke-linecap="round" transform="matrix(0.742136, -0.108327, 0.108327, 0.742136, 231.189511, 165.053862)" fill="none" stroke-linejoin="miter" d="M 0.99883 0.9996 L 605.183148 0.999856 " stroke="#737373" stroke-width="2" stroke-opacity="1" stroke-miterlimit="4"/></svg>