<svg xmlns="http://www.w3.org/2000/svg" xmlns:xlink="http://www.w3.org/1999/xlink" width="1200" zoomAndPan="magnify" viewBox="0 0 900 599.999999" height="800" preserveAspectRatio="xMidYMid meet" version="1.0"><defs><filter x="0%" y="0%" width="100%" height="100%" id="5bbe0c47a4"><feColorMatrix values="0 0 0 0 1 0 0 0 0 1 0 0 0 0 1 0 0 0 1 0" color-interpolation-filters="sRGB"/></filter><g/><clipPath id="475a38c519"><path d="M 323 115 L 398 115 L 398 218 L 323 218 Z M 323 115 " clip-rule="nonzero"/></clipPath><clipPath id="ec63cc8426"><path d="M 141.011719 77.046875 L 591.699219 155.707031 L 542.953125 434.988281 L 92.265625 356.324219 Z M 141.011719 77.046875 " clip-rule="nonzero"/></clipPath><clipPath id="fd2355a958"><path d="M 141.011719 77.046875 L 591.699219 155.707031 L 542.953125 434.988281 L 92.265625 356.324219 Z M 141.011719 77.046875 " clip-rule="nonzero"/></clipPath><clipPath id="ca652eb834"><path d="M 98 215 L 546 215 L 546 431 L 98 431 Z M 98 215 " clip-rule="nonzero"/></clipPath><clipPath id="1a63bdca48"><path d="M 141.011719 77.046875 L 591.699219 155.707031 L 542.953125 434.988281 L 92.265625 356.324219 Z M 141.011719 77.046875 " clip-rule="nonzero"/></clipPath><clipPath id="6ad939e005"><path d="M 141.011719 77.046875 L 591.699219 155.707031 L 542.953125 434.988281 L 92.265625 356.324219 Z M 141.011719 77.046875 " clip-rule="nonzero"/></clipPath><clipPath id="90aeed414a"><path d="M 343 199 L 358 199 L 358 210 L 343 210 Z M 343 199 " clip-rule="nonzero"/></clipPath><clipPath id="c616f723be"><path d="M 141.011719 77.046875 L 591.699219 155.707031 L 542.953125 434.988281 L 92.265625 356.324219 Z M 141.011719 77.046875 " clip-rule="nonzero"/></clipPath><clipPath id="488e6505a0"><path d="M 141.011719 77.046875 L 591.699219 155.707031 L 542.953125 434.988281 L 92.265625 356.324219 Z M 141.011719 77.046875 " clip-rule="nonzero"/></clipPath><clipPath id="9abbab1c55"><path d="M 342 209 L 356 209 L 356 219 L 342 219 Z M 342 209 " clip-rule="nonzero"/></clipPath><clipPath id="7fa2759b82"><path d="M 141.011719 77.046875 L 591.699219 155.707031 L 542.953125 434.988281 L 92.265625 356.324219 Z M 141.011719 77.046875 " clip-rule="nonzero"/></clipPath><clipPath id="e9009ca3fb"><path d="M 141.011719 77.046875 L 591.699219 155.707031 L 542.953125 434.988281 L 92.265625 356.324219 Z M 141.011719 77.046875 " clip-rule="nonzero"/></clipPath><clipPath id="6ad0cea3c4"><path d="M 345 190 L 360 190 L 360 200 L 345 200 Z M 345 190 " clip-rule="nonzero"/></clipPath><clipPath id="90804f1a2f"><path d="M 141.011719 77.046875 L 591.699219 155.707031 L 542.953125 434.988281 L 92.265625 356.324219 Z M 141.011719 77.046875 " clip-rule="nonzero"/></clipPath><clipPath id="25cb8cbadc"><path d="M 141.011719 77.046875 L 591.699219 155.707031 L 542.953125 434.988281 L 92.265625 356.324219 Z M 141.011719 77.046875 " clip-rule="nonzero"/></clipPath><mask id="706c139011"><g filter="url(#5bbe0c47a4)"><rect x="-90" width="1080" fill="#000000" y="-60" height="719.999999" fill-opacity="0.6"/></g></mask><clipPath id="9c45b64f56"><path d="M 190 0.519531 L 265 0.519531 L 265 103 L 190 103 Z M 190 0.519531 " clip-rule="nonzero"/></clipPath><clipPath id="4a896f1b7f"><path d="M 0.519531 101 L 455 101 L 455 283.90625 L 0.519531 283.90625 Z M 0.519531 101 " clip-rule="nonzero"/></clipPath><clipPath id="8db3ffd90d"><rect x="0" width="457" y="0" height="284"/></clipPath><mask id="d02d3ade66"><g filter="url(#5bbe0c47a4)"><rect x="-90" width="1080" fill="#000000" y="-60" height="719.999999" fill-opacity="0.89"/></g></mask><clipPath id="4f1cc4e20d"><path d="M 0.640625 0.359375 L 522.398438 0.359375 L 522.398438 145.558594 L 0.640625 145.558594 Z M 0.640625 0.359375 " clip-rule="nonzero"/></clipPath><clipPath id="7d26d8c83e"><rect x="0" width="523" y="0" height="146"/></clipPath><mask id="a8526b7a85"><g filter="url(#5bbe0c47a4)"><rect x="-90" width="1080" fill="#000000" y="-60" height="719.999999" fill-opacity="0.2"/></g></mask><clipPath id="16ae53363d"><path d="M 227 36 L 302 36 L 302 139 L 227 139 Z M 227 36 " clip-rule="nonzero"/></clipPath><clipPath id="b1aebdc715"><path d="M 44.546875 0.246094 L 496.003906 74.375 L 450.066406 354.128906 L -1.390625 280 Z M 44.546875 0.246094 " clip-rule="nonzero"/></clipPath><clipPath id="f52ac6a465"><path d="M 44.546875 0.246094 L 496.003906 74.375 L 450.066406 354.128906 L -1.390625 280 Z M 44.546875 0.246094 " clip-rule="nonzero"/></clipPath><clipPath id="4f474bfd05"><path d="M 4 136 L 453 136 L 453 350 L 4 350 Z M 4 136 " clip-rule="nonzero"/></clipPath><clipPath id="4c344b97da"><path d="M 44.546875 0.246094 L 496.003906 74.375 L 450.066406 354.128906 L -1.390625 280 Z M 44.546875 0.246094 " clip-rule="nonzero"/></clipPath><clipPath id="0744a4085f"><path d="M 44.546875 0.246094 L 496.003906 74.375 L 450.066406 354.128906 L -1.390625 280 Z M 44.546875 0.246094 " clip-rule="nonzero"/></clipPath><clipPath id="e5fb9f5c2a"><path d="M 248 120 L 263 120 L 263 131 L 248 131 Z M 248 120 " clip-rule="nonzero"/></clipPath><clipPath id="1b0843a901"><path d="M 44.546875 0.246094 L 496.003906 74.375 L 450.066406 354.128906 L -1.390625 280 Z M 44.546875 0.246094 " clip-rule="nonzero"/></clipPath><clipPath id="bffe52abc1"><path d="M 44.546875 0.246094 L 496.003906 74.375 L 450.066406 354.128906 L -1.390625 280 Z M 44.546875 0.246094 " clip-rule="nonzero"/></clipPath><clipPath id="074175e164"><path d="M 247 130 L 261 130 L 261 141 L 247 141 Z M 247 130 " clip-rule="nonzero"/></clipPath><clipPath id="11aa6c5b9a"><path d="M 44.546875 0.246094 L 496.003906 74.375 L 450.066406 354.128906 L -1.390625 280 Z M 44.546875 0.246094 " clip-rule="nonzero"/></clipPath><clipPath id="002f983cd1"><path d="M 44.546875 0.246094 L 496.003906 74.375 L 450.066406 354.128906 L -1.390625 280 Z M 44.546875 0.246094 " clip-rule="nonzero"/></clipPath><clipPath id="f633e59bab"><path d="M 250 111 L 264 111 L 264 121 L 250 121 Z M 250 111 " clip-rule="nonzero"/></clipPath><clipPath id="4253c53c29"><path d="M 44.546875 0.246094 L 496.003906 74.375 L 450.066406 354.128906 L -1.390625 280 Z M 44.546875 0.246094 " clip-rule="nonzero"/></clipPath><clipPath id="736469fff8"><path d="M 44.546875 0.246094 L 496.003906 74.375 L 450.066406 354.128906 L -1.390625 280 Z M 44.546875 0.246094 " clip-rule="nonzero"/></clipPath><clipPath id="7ee5a145d3"><rect x="0" width="497" y="0" height="355"/></clipPath><clipPath id="f092407187"><path d="M 225 149 L 235 149 L 235 167 L 225 167 Z M 225 149 " clip-rule="nonzero"/></clipPath><clipPath id="0508b86d0c"><path d="M 224.574219 149.523438 L 233.496094 148.523438 L 235.488281 166.289062 L 226.566406 167.289062 Z M 224.574219 149.523438 " clip-rule="nonzero"/></clipPath><clipPath id="4267654140"><path d="M 229.035156 149.023438 C 226.570312 149.300781 225.019531 153.5 225.570312 158.40625 C 226.121094 163.3125 228.566406 167.066406 231.027344 166.789062 C 233.492188 166.511719 235.042969 162.3125 234.492188 157.40625 C 233.941406 152.5 231.5 148.746094 229.035156 149.023438 Z M 229.035156 149.023438 " clip-rule="nonzero"/></clipPath></defs><g clip-path="url(#475a38c519)"><g clip-path="url(#ec63cc8426)"><g clip-path="url(#fd2355a958)"><path fill="#ffffff" d="M 351.667969 217.507812 L 345.417969 216.414062 L 350.171875 189.171875 L 352.113281 188.589844 C 352.113281 188.589844 357.640625 187.253906 373.949219 179.515625 C 380.980469 176.140625 388.734375 165.988281 390.136719 157.949219 C 391.539062 149.910156 389.738281 141.773438 384.945312 134.953125 C 380.15625 128.132812 373.109375 123.679688 365.070312 122.277344 C 348.320312 119.355469 332.320312 130.597656 329.398438 147.347656 L 323.144531 146.257812 C 326.835938 126.421875 345.984375 112.964844 366.304688 116.511719 C 376.128906 118.226562 384.625 123.621094 390.339844 131.75 C 396.050781 139.882812 398.25 149.699219 396.535156 159.527344 C 394.78125 169.574219 385.820312 181.359375 376.808594 185.535156 C 365.027344 191.074219 358.859375 193.449219 355.945312 194.320312 Z M 351.667969 217.507812 " fill-opacity="1" fill-rule="nonzero"/></g></g></g><g clip-path="url(#ca652eb834)"><g clip-path="url(#1a63bdca48)"><g clip-path="url(#6ad939e005)"><path fill="#ffffff" d="M 517.96875 430.160156 L 117.25 359.53125 C 106.753906 357.699219 99.398438 349.742188 98.25 339.183594 C 97.097656 328.628906 102.648438 319.242188 112.332031 315.179688 L 347.582031 215.871094 C 348.816406 215.398438 349.933594 215.59375 350.929688 216.457031 L 538.027344 390.402344 C 545.761719 397.503906 547.765625 408.4375 543.105469 417.980469 C 538.082031 427 528.464844 431.992188 517.96875 430.160156 Z M 347.871094 222.136719 L 114.5625 320.863281 C 105.890625 324.410156 103.554688 332.515625 104.367188 338.410156 C 104.957031 344.265625 109.183594 351.679688 118.339844 353.277344 L 519.0625 423.910156 C 528.21875 425.507812 534.707031 419.96875 537.246094 414.65625 C 539.78125 409.347656 540.554688 400.96875 533.597656 394.691406 Z M 347.871094 222.136719 " fill-opacity="1" fill-rule="nonzero"/></g></g></g><g clip-path="url(#90aeed414a)"><g clip-path="url(#c616f723be)"><g clip-path="url(#488e6505a0)"><path fill="#ffffff" d="M 346.441406 209.230469 C 345.324219 209.035156 344.507812 208.433594 344.035156 207.199219 C 343.414062 205.480469 344.171875 203.773438 345.890625 203.152344 L 353.332031 200.078125 C 355.050781 199.457031 356.757812 200.214844 357.378906 201.933594 C 358 203.65625 357.238281 205.363281 355.519531 205.984375 L 348.082031 209.058594 C 347.59375 209.203125 347.109375 209.347656 346.441406 209.230469 Z M 346.441406 209.230469 " fill-opacity="1" fill-rule="nonzero"/></g></g></g><g clip-path="url(#9abbab1c55)"><g clip-path="url(#7fa2759b82)"><g clip-path="url(#e9009ca3fb)"><path fill="#ffffff" d="M 344.765625 218.832031 C 343.648438 218.636719 342.832031 218.035156 342.355469 216.800781 C 341.738281 215.082031 342.496094 213.375 344.214844 212.753906 L 351.652344 209.679688 C 353.375 209.058594 355.082031 209.820312 355.703125 211.539062 C 356.324219 213.257812 355.5625 214.964844 353.84375 215.585938 L 346.40625 218.660156 C 345.878906 219.027344 345.433594 218.949219 344.765625 218.832031 Z M 344.765625 218.832031 " fill-opacity="1" fill-rule="nonzero"/></g></g></g><g clip-path="url(#6ad0cea3c4)"><g clip-path="url(#90804f1a2f)"><g clip-path="url(#25cb8cbadc)"><path fill="#ffffff" d="M 348.15625 199.40625 C 347.039062 199.210938 346.222656 198.609375 345.75 197.375 C 345.128906 195.65625 345.886719 193.945312 347.605469 193.328125 L 355.046875 190.253906 C 356.765625 189.632812 358.472656 190.390625 359.09375 192.109375 C 359.714844 193.828125 358.953125 195.539062 357.234375 196.15625 L 349.796875 199.230469 C 349.3125 199.375 348.824219 199.523438 348.15625 199.40625 Z M 348.15625 199.40625 " fill-opacity="1" fill-rule="nonzero"/></g></g></g><g mask="url(#706c139011)"><g transform="matrix(1, 0, 0, 1, 227, 95)"><g clip-path="url(#8db3ffd90d)"><g clip-path="url(#9c45b64f56)"><path fill="#d9d9d9" d="M 230.550781 102.554688 L 224.203125 102.554688 L 224.203125 74.902344 L 226.019531 73.992188 C 226.019531 73.992188 231.230469 71.726562 245.964844 61.300781 C 252.3125 56.765625 258.207031 45.433594 258.207031 37.269531 C 258.207031 29.109375 255.035156 21.402344 249.140625 15.507812 C 243.246094 9.617188 235.539062 6.441406 227.378906 6.441406 C 210.378906 6.441406 196.550781 20.269531 196.550781 37.269531 L 190.203125 37.269531 C 190.429688 17.097656 206.976562 0.546875 227.605469 0.546875 C 237.578125 0.546875 246.875 4.402344 253.902344 11.429688 C 260.929688 18.457031 264.78125 27.75 264.78125 37.722656 C 264.78125 47.925781 257.980469 61.074219 249.820312 66.738281 C 239.167969 74.222656 233.5 77.621094 230.777344 78.980469 Z M 230.550781 102.554688 " fill-opacity="1" fill-rule="nonzero"/></g><g clip-path="url(#4a896f1b7f)"><path fill="#d9d9d9" d="M 430.941406 283.449219 L 24.042969 282.769531 C 13.386719 282.769531 4.773438 276.195312 1.828125 265.996094 C -1.121094 255.792969 2.734375 245.59375 11.574219 239.925781 L 226.246094 101.648438 C 227.378906 100.96875 228.511719 100.96875 229.644531 101.648438 L 443.863281 240.832031 C 452.703125 246.5 456.554688 256.929688 453.609375 267.128906 C 450.210938 276.875 441.59375 283.449219 430.941406 283.449219 Z M 227.605469 107.769531 L 14.75 245.140625 C 6.816406 250.128906 5.90625 258.515625 7.722656 264.183594 C 9.308594 269.847656 14.75 276.421875 24.042969 276.421875 L 430.941406 277.101562 C 440.234375 277.101562 445.675781 270.53125 447.261719 264.863281 C 448.847656 259.195312 448.167969 250.808594 440.234375 245.820312 Z M 227.605469 107.769531 " fill-opacity="1" fill-rule="nonzero"/></g><path fill="#d9d9d9" d="M 223.976562 95.300781 C 222.84375 95.300781 221.9375 94.847656 221.257812 93.714844 C 220.351562 92.128906 220.804688 90.316406 222.390625 89.410156 L 229.191406 85.101562 C 230.777344 84.195312 232.59375 84.648438 233.5 86.234375 C 234.40625 87.820312 233.953125 89.636719 232.367188 90.542969 L 225.566406 94.847656 C 225.113281 95.074219 224.660156 95.300781 223.976562 95.300781 Z M 223.976562 95.300781 " fill-opacity="1" fill-rule="nonzero"/><path fill="#d9d9d9" d="M 223.976562 105.050781 C 222.84375 105.050781 221.9375 104.597656 221.257812 103.464844 C 220.351562 101.875 220.804688 100.0625 222.390625 99.15625 L 229.191406 94.847656 C 230.777344 93.941406 232.59375 94.394531 233.5 95.980469 C 234.40625 97.570312 233.953125 99.382812 232.367188 100.289062 L 225.566406 104.597656 C 225.113281 105.050781 224.660156 105.050781 223.976562 105.050781 Z M 223.976562 105.050781 " fill-opacity="1" fill-rule="nonzero"/><path fill="#d9d9d9" d="M 223.976562 85.328125 C 222.84375 85.328125 221.9375 84.875 221.257812 83.742188 C 220.351562 82.15625 220.804688 80.339844 222.390625 79.433594 L 229.191406 75.128906 C 230.777344 74.222656 232.59375 74.675781 233.5 76.261719 C 234.40625 77.847656 233.953125 79.660156 232.367188 80.566406 L 225.566406 84.875 C 225.113281 85.101562 224.660156 85.328125 223.976562 85.328125 Z M 223.976562 85.328125 " fill-opacity="1" fill-rule="nonzero"/></g></g></g><g mask="url(#d02d3ade66)"><g transform="matrix(1, 0, 0, 1, 194, 51)"><g clip-path="url(#7d26d8c83e)"><g clip-path="url(#4f1cc4e20d)"><path stroke-linecap="round" transform="matrix(0.741867, -0.11015, 0.11015, 0.741867, 30.614034, 98.481561)" fill="none" stroke-linejoin="miter" d="M 11.502451 11.50008 L 607.301991 11.498206 " stroke="#d9d9d9" stroke-width="23" stroke-opacity="1" stroke-miterlimit="4"/></g></g></g></g><g mask="url(#a8526b7a85)"><g transform="matrix(1, 0, 0, 1, 328, 48)"><g clip-path="url(#7ee5a145d3)"><g clip-path="url(#16ae53363d)"><g clip-path="url(#b1aebdc715)"><g clip-path="url(#f52ac6a465)"><path fill="#f4f4f4" d="M 256.605469 138.582031 L 250.34375 137.554688 L 254.824219 110.265625 L 256.761719 109.664062 C 256.761719 109.664062 262.273438 108.273438 278.503906 100.371094 C 285.5 96.925781 293.152344 86.695312 294.476562 78.640625 C 295.796875 70.589844 293.914062 62.46875 289.054688 55.699219 C 284.191406 48.929688 277.101562 44.546875 269.046875 43.226562 C 252.273438 40.46875 236.386719 51.875 233.632812 68.652344 L 227.367188 67.625 C 230.859375 47.75 249.871094 34.105469 270.226562 37.445312 C 280.070312 39.0625 288.617188 44.371094 294.410156 52.445312 C 300.207031 60.515625 302.503906 70.3125 300.886719 80.15625 C 299.234375 90.222656 290.394531 102.09375 281.421875 106.363281 C 269.699219 112.019531 263.554688 114.457031 260.648438 115.355469 Z M 256.605469 138.582031 " fill-opacity="1" fill-rule="nonzero"/></g></g></g><g clip-path="url(#4f474bfd05)"><g clip-path="url(#4c344b97da)"><g clip-path="url(#0744a4085f)"><path fill="#f4f4f4" d="M 425.035156 349.558594 L 23.625 282.953125 C 13.113281 281.226562 5.675781 273.34375 4.421875 262.800781 C 3.167969 252.257812 8.621094 242.816406 18.265625 238.65625 L 252.503906 136.992188 C 253.730469 136.503906 254.851562 136.6875 255.859375 137.542969 L 444.691406 309.597656 C 452.496094 316.621094 454.609375 327.535156 450.050781 337.125 C 445.113281 346.191406 435.550781 351.285156 425.035156 349.558594 Z M 252.855469 143.25 L 20.550781 244.316406 C 11.914062 247.953125 9.660156 256.082031 10.53125 261.96875 C 11.179688 267.816406 15.480469 275.183594 24.652344 276.691406 L 426.066406 343.292969 C 435.234375 344.800781 441.667969 339.195312 444.152344 333.859375 C 446.636719 328.523438 447.324219 320.136719 440.304688 313.929688 Z M 252.855469 143.25 " fill-opacity="1" fill-rule="nonzero"/></g></g></g><g clip-path="url(#e5fb9f5c2a)"><g clip-path="url(#1b0843a901)"><g clip-path="url(#bffe52abc1)"><path fill="#f4f4f4" d="M 251.292969 130.359375 C 250.175781 130.175781 249.355469 129.582031 248.867188 128.355469 C 248.230469 126.640625 248.972656 124.925781 250.683594 124.289062 L 258.09375 121.140625 C 259.804688 120.5 261.519531 121.242188 262.160156 122.957031 C 262.796875 124.667969 262.054688 126.382812 260.34375 127.023438 L 252.933594 130.171875 C 252.449219 130.320312 251.964844 130.46875 251.292969 130.359375 Z M 251.292969 130.359375 " fill-opacity="1" fill-rule="nonzero"/></g></g></g><g clip-path="url(#074175e164)"><g clip-path="url(#11aa6c5b9a)"><g clip-path="url(#002f983cd1)"><path fill="#f4f4f4" d="M 249.714844 139.980469 C 248.597656 139.796875 247.777344 139.199219 247.289062 137.972656 C 246.652344 136.257812 247.390625 134.542969 249.105469 133.90625 L 256.511719 130.757812 C 258.226562 130.121094 259.941406 130.863281 260.578125 132.574219 C 261.21875 134.285156 260.476562 136.003906 258.761719 136.640625 L 251.355469 139.789062 C 250.832031 140.164062 250.386719 140.089844 249.714844 139.980469 Z M 249.714844 139.980469 " fill-opacity="1" fill-rule="nonzero"/></g></g></g><g clip-path="url(#f633e59bab)"><g clip-path="url(#4253c53c29)"><g clip-path="url(#736469fff8)"><path fill="#f4f4f4" d="M 252.910156 120.519531 C 251.792969 120.335938 250.972656 119.738281 250.484375 118.511719 C 249.847656 116.796875 250.585938 115.082031 252.300781 114.445312 L 259.707031 111.296875 C 261.421875 110.660156 263.136719 111.402344 263.773438 113.113281 C 264.414062 114.824219 263.671875 116.542969 261.957031 117.179688 L 254.550781 120.328125 C 254.066406 120.476562 253.582031 120.628906 252.910156 120.519531 Z M 252.910156 120.519531 " fill-opacity="1" fill-rule="nonzero"/></g></g></g></g></g></g><g clip-path="url(#f092407187)"><g clip-path="url(#0508b86d0c)"><g clip-path="url(#4267654140)"><path fill="#737373" d="M 224.574219 149.523438 L 233.496094 148.523438 L 235.488281 166.289062 L 226.566406 167.289062 Z M 224.574219 149.523438 " fill-opacity="1" fill-rule="nonzero"/></g></g></g><g fill="#a6a6a6" fill-opacity="1"><g transform="translate(276.871892, 509.857635)"><g><path d="M 36.1875 -38.46875 L 36.1875 0 L 30.4375 0 L 8.953125 -29.515625 L 8.953125 0 L 3.03125 0 L 3.03125 -38.46875 L 9.015625 -38.46875 L 30.5 -8.796875 L 30.5 -38.46875 Z M 36.1875 -38.46875 "/></g></g></g><g fill="#a6a6a6" fill-opacity="1"><g transform="translate(316.206661, 509.857635)"><g><path d="M 14.4375 0.65625 C 12.625 0.65625 10.929688 0.300781 9.359375 -0.40625 C 7.785156 -1.113281 6.410156 -2.082031 5.234375 -3.3125 C 4.054688 -4.539062 3.125 -5.984375 2.4375 -7.640625 C 1.75 -9.304688 1.40625 -11.082031 1.40625 -12.96875 C 1.40625 -14.851562 1.75 -16.625 2.4375 -18.28125 C 3.125 -19.945312 4.054688 -21.394531 5.234375 -22.625 C 6.410156 -23.851562 7.785156 -24.820312 9.359375 -25.53125 C 10.929688 -26.238281 12.625 -26.59375 14.4375 -26.59375 C 16.207031 -26.59375 17.890625 -26.238281 19.484375 -25.53125 C 21.078125 -24.820312 22.457031 -23.851562 23.625 -22.625 C 24.800781 -21.394531 25.734375 -19.945312 26.421875 -18.28125 C 27.109375 -16.625 27.453125 -14.851562 27.453125 -12.96875 C 27.453125 -11.082031 27.109375 -9.304688 26.421875 -7.640625 C 25.734375 -5.984375 24.800781 -4.539062 23.625 -3.3125 C 22.457031 -2.082031 21.078125 -1.113281 19.484375 -0.40625 C 17.890625 0.300781 16.207031 0.65625 14.4375 0.65625 Z M 14.4375 -21.875 C 13.382812 -21.875 12.390625 -21.632812 11.453125 -21.15625 C 10.515625 -20.6875 9.691406 -20.054688 8.984375 -19.265625 C 8.273438 -18.472656 7.722656 -17.53125 7.328125 -16.4375 C 6.929688 -15.351562 6.734375 -14.195312 6.734375 -12.96875 C 6.734375 -11.738281 6.929688 -10.582031 7.328125 -9.5 C 7.722656 -8.414062 8.273438 -7.460938 8.984375 -6.640625 C 9.691406 -5.828125 10.515625 -5.1875 11.453125 -4.71875 C 12.390625 -4.25 13.382812 -4.015625 14.4375 -4.015625 C 15.488281 -4.015625 16.484375 -4.25 17.421875 -4.71875 C 18.359375 -5.1875 19.171875 -5.828125 19.859375 -6.640625 C 20.546875 -7.460938 21.085938 -8.414062 21.484375 -9.5 C 21.890625 -10.582031 22.09375 -11.738281 22.09375 -12.96875 C 22.09375 -14.195312 21.890625 -15.351562 21.484375 -16.4375 C 21.085938 -17.53125 20.546875 -18.472656 19.859375 -19.265625 C 19.171875 -20.054688 18.359375 -20.6875 17.421875 -21.15625 C 16.484375 -21.632812 15.488281 -21.875 14.4375 -21.875 Z M 14.4375 -21.875 "/></g></g></g><g fill="#a6a6a6" fill-opacity="1"><g transform="translate(344.853222, 509.857635)"><g/></g></g><g fill="#a6a6a6" fill-opacity="1"><g transform="translate(359.01374, 509.857635)"><g><path d="M 8.515625 0 L 3.25 0 L 3.25 -26 L 8.46875 -26 Z M 5.859375 -31.640625 C 4.921875 -31.640625 4.125 -31.972656 3.46875 -32.640625 C 2.820312 -33.304688 2.5 -34.113281 2.5 -35.0625 C 2.5 -36 2.820312 -36.789062 3.46875 -37.4375 C 4.125 -38.09375 4.921875 -38.421875 5.859375 -38.421875 C 6.796875 -38.421875 7.585938 -38.09375 8.234375 -37.4375 C 8.890625 -36.789062 9.21875 -36 9.21875 -35.0625 C 9.21875 -34.113281 8.890625 -33.304688 8.234375 -32.640625 C 7.585938 -31.972656 6.796875 -31.640625 5.859375 -31.640625 Z M 5.859375 -31.640625 "/></g></g></g><g fill="#a6a6a6" fill-opacity="1"><g transform="translate(370.407264, 509.857635)"><g><path d="M 17.140625 -0.046875 C 15.660156 0.453125 14.195312 0.753906 12.75 0.859375 C 11.300781 0.972656 10 0.765625 8.84375 0.234375 C 7.6875 -0.285156 6.742188 -1.203125 6.015625 -2.515625 C 5.296875 -3.835938 4.9375 -5.691406 4.9375 -8.078125 L 4.9375 -21.265625 L 1.140625 -21.265625 L 1.140625 -24.90625 L 4.9375 -26 L 4.9375 -32.9375 L 10.203125 -32.9375 L 10.203125 -26 L 17.25 -26 L 17.25 -21.265625 L 10.203125 -21.265625 L 10.203125 -7.265625 C 10.203125 -6.398438 10.300781 -5.710938 10.5 -5.203125 C 10.695312 -4.703125 11.03125 -4.320312 11.5 -4.0625 C 11.96875 -3.8125 12.582031 -3.6875 13.34375 -3.6875 C 14.101562 -3.6875 15.023438 -3.757812 16.109375 -3.90625 Z M 17.140625 -0.046875 "/></g></g></g><g fill="#a6a6a6" fill-opacity="1"><g transform="translate(388.962417, 509.857635)"><g><path d="M 15.359375 0.65625 C 13.472656 0.65625 11.707031 0.300781 10.0625 -0.40625 C 8.414062 -1.113281 6.976562 -2.082031 5.75 -3.3125 C 4.519531 -4.539062 3.550781 -5.984375 2.84375 -7.640625 C 2.144531 -9.304688 1.796875 -11.082031 1.796875 -12.96875 C 1.796875 -14.851562 2.128906 -16.625 2.796875 -18.28125 C 3.460938 -19.945312 4.363281 -21.394531 5.5 -22.625 C 6.644531 -23.851562 7.976562 -24.820312 9.5 -25.53125 C 11.019531 -26.238281 12.644531 -26.59375 14.375 -26.59375 C 16.15625 -26.59375 17.796875 -26.285156 19.296875 -25.671875 C 20.796875 -25.054688 22.097656 -24.097656 23.203125 -22.796875 C 24.304688 -21.492188 25.164062 -19.835938 25.78125 -17.828125 C 26.394531 -15.816406 26.703125 -13.421875 26.703125 -10.640625 L 7.375 -10.640625 C 7.632812 -9.691406 8.035156 -8.8125 8.578125 -8 C 9.117188 -7.1875 9.757812 -6.484375 10.5 -5.890625 C 11.238281 -5.296875 12.066406 -4.832031 12.984375 -4.5 C 13.910156 -4.175781 14.882812 -4.015625 15.90625 -4.015625 C 17.28125 -4.015625 18.550781 -4.265625 19.71875 -4.765625 C 20.894531 -5.273438 21.898438 -5.945312 22.734375 -6.78125 L 26 -3.53125 C 24.726562 -2.257812 23.175781 -1.242188 21.34375 -0.484375 C 19.519531 0.273438 17.523438 0.65625 15.359375 0.65625 Z M 14.375 -21.8125 C 13.539062 -21.8125 12.753906 -21.648438 12.015625 -21.328125 C 11.273438 -21.003906 10.585938 -20.550781 9.953125 -19.96875 C 9.328125 -19.382812 8.785156 -18.695312 8.328125 -17.90625 C 7.878906 -17.113281 7.546875 -16.242188 7.328125 -15.296875 L 21.0625 -15.296875 C 20.988281 -16.171875 20.785156 -17.003906 20.453125 -17.796875 C 20.128906 -18.597656 19.675781 -19.296875 19.09375 -19.890625 C 18.519531 -20.484375 17.84375 -20.953125 17.0625 -21.296875 C 16.289062 -21.640625 15.394531 -21.8125 14.375 -21.8125 Z M 14.375 -21.8125 "/></g></g></g><g fill="#a6a6a6" fill-opacity="1"><g transform="translate(417.717493, 509.857635)"><g><path d="M 8.296875 0 L 3.03125 0 L 3.03125 -26 L 7.21875 -26 L 8.296875 -23.765625 C 8.953125 -24.523438 9.734375 -25.1875 10.640625 -25.75 C 11.546875 -26.3125 12.648438 -26.59375 13.953125 -26.59375 C 14.453125 -26.59375 15.019531 -26.523438 15.65625 -26.390625 C 16.289062 -26.265625 16.941406 -26.046875 17.609375 -25.734375 C 18.273438 -25.429688 18.914062 -25.019531 19.53125 -24.5 C 20.144531 -23.976562 20.671875 -23.300781 21.109375 -22.46875 C 21.722656 -23.582031 22.65625 -24.546875 23.90625 -25.359375 C 25.15625 -26.179688 26.484375 -26.59375 27.890625 -26.59375 C 28.828125 -26.59375 29.820312 -26.445312 30.875 -26.15625 C 31.925781 -25.863281 32.90625 -25.316406 33.8125 -24.515625 C 34.71875 -23.722656 35.457031 -22.617188 36.03125 -21.203125 C 36.613281 -19.796875 36.90625 -17.972656 36.90625 -15.734375 L 36.90625 0 L 31.96875 0 L 31.96875 -15.796875 C 31.96875 -18.035156 31.503906 -19.597656 30.578125 -20.484375 C 29.648438 -21.367188 28.429688 -21.8125 26.921875 -21.8125 C 25.753906 -21.8125 24.738281 -21.320312 23.875 -20.34375 C 23.007812 -19.375 22.578125 -17.835938 22.578125 -15.734375 L 22.578125 0 L 17.640625 0 L 17.640625 -15.796875 C 17.640625 -18.035156 17.175781 -19.597656 16.25 -20.484375 C 15.332031 -21.367188 14.113281 -21.8125 12.59375 -21.8125 C 11.507812 -21.8125 10.554688 -21.394531 9.734375 -20.5625 C 8.921875 -19.726562 8.441406 -18.425781 8.296875 -16.65625 Z M 8.296875 0 "/></g></g></g><g fill="#a6a6a6" fill-opacity="1"><g transform="translate(457.757578, 509.857635)"><g><path d="M 15.140625 -5.421875 C 15.460938 -5.710938 15.75 -6.039062 16 -6.40625 C 16.257812 -6.769531 16.390625 -7.1875 16.390625 -7.65625 C 16.390625 -8.226562 16.179688 -8.710938 15.765625 -9.109375 C 15.347656 -9.515625 14.835938 -9.851562 14.234375 -10.125 C 13.640625 -10.394531 13.015625 -10.601562 12.359375 -10.75 C 11.710938 -10.894531 11.175781 -11.019531 10.75 -11.125 C 9.550781 -11.414062 8.425781 -11.769531 7.375 -12.1875 C 6.332031 -12.601562 5.421875 -13.109375 4.640625 -13.703125 C 3.859375 -14.296875 3.238281 -15 2.78125 -15.8125 C 2.332031 -16.632812 2.109375 -17.601562 2.109375 -18.71875 C 2.109375 -19.769531 2.363281 -20.753906 2.875 -21.671875 C 3.382812 -22.597656 4.0625 -23.410156 4.90625 -24.109375 C 5.757812 -24.816406 6.753906 -25.378906 7.890625 -25.796875 C 9.035156 -26.210938 10.238281 -26.421875 11.5 -26.421875 C 12.625 -26.421875 13.691406 -26.257812 14.703125 -25.9375 C 15.710938 -25.613281 16.625 -25.171875 17.4375 -24.609375 C 18.257812 -24.046875 18.945312 -23.363281 19.5 -22.5625 C 20.0625 -21.769531 20.4375 -20.890625 20.625 -19.921875 L 15.90625 -18.78125 C 15.6875 -19.644531 15.210938 -20.363281 14.484375 -20.9375 C 13.765625 -21.519531 12.769531 -21.8125 11.5 -21.8125 C 11.070312 -21.8125 10.617188 -21.75 10.140625 -21.625 C 9.671875 -21.5 9.238281 -21.304688 8.84375 -21.046875 C 8.445312 -20.796875 8.113281 -20.488281 7.84375 -20.125 C 7.570312 -19.769531 7.4375 -19.359375 7.4375 -18.890625 C 7.4375 -18.378906 7.585938 -17.941406 7.890625 -17.578125 C 8.203125 -17.222656 8.570312 -16.925781 9 -16.6875 C 9.4375 -16.445312 9.90625 -16.253906 10.40625 -16.109375 C 10.914062 -15.972656 11.390625 -15.847656 11.828125 -15.734375 C 13.742188 -15.265625 15.332031 -14.757812 16.59375 -14.21875 C 17.863281 -13.675781 18.878906 -13.078125 19.640625 -12.421875 C 20.398438 -11.773438 20.929688 -11.0625 21.234375 -10.28125 C 21.546875 -9.5 21.703125 -8.625 21.703125 -7.65625 C 21.703125 -6.5 21.4375 -5.410156 20.90625 -4.390625 C 20.382812 -3.378906 19.660156 -2.503906 18.734375 -1.765625 C 17.816406 -1.023438 16.71875 -0.445312 15.4375 -0.03125 C 14.15625 0.382812 12.769531 0.59375 11.28125 0.59375 C 9.039062 0.59375 7.039062 0.0390625 5.28125 -1.0625 C 3.53125 -2.164062 2.347656 -3.640625 1.734375 -5.484375 L 6.1875 -7.484375 C 6.757812 -6.222656 7.5 -5.363281 8.40625 -4.90625 C 9.3125 -4.457031 10.34375 -4.234375 11.5 -4.234375 C 12.945312 -4.234375 14.160156 -4.628906 15.140625 -5.421875 Z M 15.140625 -5.421875 "/></g></g></g><g fill="#a6a6a6" fill-opacity="1"><g transform="translate(481.087158, 509.857635)"><g/></g></g><g fill="#a6a6a6" fill-opacity="1"><g transform="translate(495.247676, 509.857635)"><g><path d="M 6.78125 0 L 6.78125 -21.265625 L 2.328125 -21.265625 L 2.328125 -24.90625 L 6.78125 -26 L 6.78125 -29.140625 C 6.78125 -30.984375 7.015625 -32.582031 7.484375 -33.9375 C 7.953125 -35.300781 8.59375 -36.414062 9.40625 -37.28125 C 10.226562 -38.144531 11.160156 -38.785156 12.203125 -39.203125 C 13.253906 -39.617188 14.378906 -39.828125 15.578125 -39.828125 C 17.054688 -39.828125 18.554688 -39.519531 20.078125 -38.90625 L 20.078125 -35.0625 C 18.773438 -35.457031 17.65625 -35.65625 16.71875 -35.65625 C 15.226562 -35.65625 14.078125 -35.203125 13.265625 -34.296875 C 12.453125 -33.390625 12.046875 -31.941406 12.046875 -29.953125 L 12.046875 -26 L 20.078125 -26 L 20.078125 -21.265625 L 12.046875 -21.265625 L 12.046875 0 Z M 6.78125 0 "/></g></g></g><g fill="#a6a6a6" fill-opacity="1"><g transform="translate(515.86453, 509.857635)"><g><path d="M 14.4375 0.65625 C 12.625 0.65625 10.929688 0.300781 9.359375 -0.40625 C 7.785156 -1.113281 6.410156 -2.082031 5.234375 -3.3125 C 4.054688 -4.539062 3.125 -5.984375 2.4375 -7.640625 C 1.75 -9.304688 1.40625 -11.082031 1.40625 -12.96875 C 1.40625 -14.851562 1.75 -16.625 2.4375 -18.28125 C 3.125 -19.945312 4.054688 -21.394531 5.234375 -22.625 C 6.410156 -23.851562 7.785156 -24.820312 9.359375 -25.53125 C 10.929688 -26.238281 12.625 -26.59375 14.4375 -26.59375 C 16.207031 -26.59375 17.890625 -26.238281 19.484375 -25.53125 C 21.078125 -24.820312 22.457031 -23.851562 23.625 -22.625 C 24.800781 -21.394531 25.734375 -19.945312 26.421875 -18.28125 C 27.109375 -16.625 27.453125 -14.851562 27.453125 -12.96875 C 27.453125 -11.082031 27.109375 -9.304688 26.421875 -7.640625 C 25.734375 -5.984375 24.800781 -4.539062 23.625 -3.3125 C 22.457031 -2.082031 21.078125 -1.113281 19.484375 -0.40625 C 17.890625 0.300781 16.207031 0.65625 14.4375 0.65625 Z M 14.4375 -21.875 C 13.382812 -21.875 12.390625 -21.632812 11.453125 -21.15625 C 10.515625 -20.6875 9.691406 -20.054688 8.984375 -19.265625 C 8.273438 -18.472656 7.722656 -17.53125 7.328125 -16.4375 C 6.929688 -15.351562 6.734375 -14.195312 6.734375 -12.96875 C 6.734375 -11.738281 6.929688 -10.582031 7.328125 -9.5 C 7.722656 -8.414062 8.273438 -7.460938 8.984375 -6.640625 C 9.691406 -5.828125 10.515625 -5.1875 11.453125 -4.71875 C 12.390625 -4.25 13.382812 -4.015625 14.4375 -4.015625 C 15.488281 -4.015625 16.484375 -4.25 17.421875 -4.71875 C 18.359375 -5.1875 19.171875 -5.828125 19.859375 -6.640625 C 20.546875 -7.460938 21.085938 -8.414062 21.484375 -9.5 C 21.890625 -10.582031 22.09375 -11.738281 22.09375 -12.96875 C 22.09375 -14.195312 21.890625 -15.351562 21.484375 -16.4375 C 21.085938 -17.53125 20.546875 -18.472656 19.859375 -19.265625 C 19.171875 -20.054688 18.359375 -20.6875 17.421875 -21.15625 C 16.484375 -21.632812 15.488281 -21.875 14.4375 -21.875 Z M 14.4375 -21.875 "/></g></g></g><g fill="#a6a6a6" fill-opacity="1"><g transform="translate(544.511091, 509.857635)"><g><path d="M 20.625 -2.328125 C 19.71875 -1.492188 18.65625 -0.804688 17.4375 -0.265625 C 16.226562 0.273438 14.882812 0.546875 13.40625 0.546875 C 12.46875 0.546875 11.398438 0.410156 10.203125 0.140625 C 9.003906 -0.128906 7.890625 -0.660156 6.859375 -1.453125 C 5.828125 -2.253906 4.957031 -3.351562 4.25 -4.75 C 3.550781 -6.144531 3.203125 -7.960938 3.203125 -10.203125 L 3.203125 -26 L 8.1875 -26 L 8.1875 -10.203125 C 8.1875 -9.078125 8.359375 -8.125 8.703125 -7.34375 C 9.046875 -6.570312 9.5 -5.953125 10.0625 -5.484375 C 10.625 -5.015625 11.265625 -4.671875 11.984375 -4.453125 C 12.710938 -4.234375 13.457031 -4.125 14.21875 -4.125 C 14.789062 -4.125 15.445312 -4.234375 16.1875 -4.453125 C 16.9375 -4.671875 17.632812 -5.019531 18.28125 -5.5 C 18.9375 -5.988281 19.488281 -6.613281 19.9375 -7.375 C 20.394531 -8.132812 20.625 -9.054688 20.625 -10.140625 L 20.625 -26 L 25.890625 -26 L 25.890625 0 L 21.703125 0 Z M 20.625 -2.328125 "/></g></g></g><g fill="#a6a6a6" fill-opacity="1"><g transform="translate(573.537443, 509.857635)"><g><path d="M 8.1875 0 L 2.9375 0 L 2.9375 -26 L 7.109375 -26 L 8.1875 -23.71875 C 9.0625 -24.550781 10.113281 -25.238281 11.34375 -25.78125 C 12.570312 -26.320312 13.910156 -26.59375 15.359375 -26.59375 C 16.296875 -26.59375 17.359375 -26.445312 18.546875 -26.15625 C 19.742188 -25.863281 20.859375 -25.316406 21.890625 -24.515625 C 22.921875 -23.722656 23.789062 -22.617188 24.5 -21.203125 C 25.207031 -19.796875 25.5625 -17.972656 25.5625 -15.734375 L 25.5625 0 L 20.5625 0 L 20.5625 -15.796875 C 20.5625 -16.910156 20.390625 -17.859375 20.046875 -18.640625 C 19.703125 -19.421875 19.25 -20.046875 18.6875 -20.515625 C 18.132812 -20.984375 17.503906 -21.316406 16.796875 -21.515625 C 16.085938 -21.710938 15.351562 -21.8125 14.59375 -21.8125 C 14.019531 -21.8125 13.359375 -21.703125 12.609375 -21.484375 C 11.867188 -21.265625 11.171875 -20.910156 10.515625 -20.421875 C 9.867188 -19.941406 9.316406 -19.328125 8.859375 -18.578125 C 8.410156 -17.835938 8.1875 -16.925781 8.1875 -15.84375 Z M 8.1875 0 "/></g></g></g><g fill="#a6a6a6" fill-opacity="1"><g transform="translate(602.509529, 509.857635)"><g><path d="M 27.890625 -39.609375 L 27.890625 0 L 23.71875 0 L 22.625 -2.71875 C 21.582031 -1.664062 20.390625 -0.835938 19.046875 -0.234375 C 17.710938 0.359375 16.175781 0.65625 14.4375 0.65625 C 12.625 0.65625 10.957031 0.300781 9.4375 -0.40625 C 7.914062 -1.113281 6.59375 -2.082031 5.46875 -3.3125 C 4.351562 -4.539062 3.476562 -5.984375 2.84375 -7.640625 C 2.21875 -9.304688 1.90625 -11.082031 1.90625 -12.96875 C 1.90625 -14.851562 2.21875 -16.625 2.84375 -18.28125 C 3.476562 -19.945312 4.351562 -21.394531 5.46875 -22.625 C 6.59375 -23.851562 7.914062 -24.820312 9.4375 -25.53125 C 10.957031 -26.238281 12.625 -26.59375 14.4375 -26.59375 C 16.238281 -26.59375 17.804688 -26.289062 19.140625 -25.6875 C 20.484375 -25.09375 21.644531 -24.253906 22.625 -23.171875 L 22.625 -39.609375 Z M 14.875 -4.015625 C 15.957031 -4.015625 16.957031 -4.191406 17.875 -4.546875 C 18.800781 -4.910156 19.613281 -5.460938 20.3125 -6.203125 C 21.019531 -6.953125 21.570312 -7.882812 21.96875 -9 C 22.375 -10.125 22.578125 -11.445312 22.578125 -12.96875 C 22.578125 -14.59375 22.375 -15.96875 21.96875 -17.09375 C 21.570312 -18.21875 21.019531 -19.128906 20.3125 -19.828125 C 19.613281 -20.535156 18.800781 -21.039062 17.875 -21.34375 C 16.957031 -21.65625 15.957031 -21.8125 14.875 -21.8125 C 13.820312 -21.8125 12.820312 -21.582031 11.875 -21.125 C 10.9375 -20.675781 10.125 -20.054688 9.4375 -19.265625 C 8.75 -18.472656 8.207031 -17.53125 7.8125 -16.4375 C 7.414062 -15.351562 7.21875 -14.195312 7.21875 -12.96875 C 7.21875 -11.738281 7.414062 -10.582031 7.8125 -9.5 C 8.207031 -8.414062 8.75 -7.460938 9.4375 -6.640625 C 10.125 -5.828125 10.9375 -5.1875 11.875 -4.71875 C 12.820312 -4.25 13.820312 -4.015625 14.875 -4.015625 Z M 14.875 -4.015625 "/></g></g></g><path stroke-linecap="round" transform="matrix(0.742136, -0.108327, 0.108327, 0.742136, 231.189511, 165.053876)" fill="none" stroke-linejoin="miter" d="M 0.998833 0.999581 L 605.18315 0.999837 " stroke="#737373" stroke-width="2" stroke-opacity="1" stroke-miterlimit="4"/></svg>