<svg xmlns="http://www.w3.org/2000/svg" xmlns:xlink="http://www.w3.org/1999/xlink" width="500" zoomAndPan="magnify" viewBox="0 0 375 374.999991" height="500" preserveAspectRatio="xMidYMid meet" version="1.0"><defs><clipPath id="0c6e6818c8"><path d="M 72 49.648438 L 302.960938 49.648438 L 302.960938 296 L 72 296 Z M 72 49.648438 " clip-rule="nonzero"/></clipPath></defs><g clip-path="url(#0c6e6818c8)"><path fill="#000000" d="M 288.160156 68.738281 L 243.289062 113.613281 C 240.609375 110.25 237.683594 107.117188 234.511719 104.214844 C 231.339844 101.3125 227.960938 98.675781 224.375 96.304688 C 220.789062 93.933594 217.039062 91.859375 213.128906 90.078125 C 209.214844 88.296875 205.1875 86.832031 201.042969 85.6875 C 202.882812 82.195312 203.816406 78.476562 203.84375 74.527344 C 203.84375 73.722656 203.804688 72.921875 203.726562 72.121094 C 203.648438 71.320312 203.53125 70.523438 203.375 69.734375 C 203.214844 68.945312 203.019531 68.164062 202.789062 67.394531 C 202.554688 66.625 202.28125 65.867188 201.976562 65.125 C 201.667969 64.382812 201.324219 63.652344 200.945312 62.945312 C 200.5625 62.234375 200.152344 61.546875 199.703125 60.875 C 199.257812 60.207031 198.777344 59.5625 198.265625 58.9375 C 197.757812 58.316406 197.214844 57.722656 196.648438 57.152344 C 196.078125 56.582031 195.484375 56.042969 194.859375 55.53125 C 194.238281 55.023438 193.59375 54.542969 192.921875 54.09375 C 192.253906 53.648438 191.566406 53.234375 190.855469 52.855469 C 190.144531 52.476562 189.417969 52.132812 188.675781 51.824219 C 187.929688 51.515625 187.175781 51.246094 186.40625 51.011719 C 185.632812 50.777344 184.855469 50.582031 184.066406 50.425781 C 183.277344 50.269531 182.480469 50.152344 181.679688 50.074219 C 180.878906 49.992188 180.074219 49.953125 179.269531 49.953125 C 178.464844 49.953125 177.664062 49.992188 176.863281 50.074219 C 176.0625 50.152344 175.265625 50.269531 174.476562 50.425781 C 173.6875 50.582031 172.90625 50.777344 172.136719 51.011719 C 171.367188 51.246094 170.609375 51.515625 169.867188 51.824219 C 169.121094 52.132812 168.394531 52.476562 167.6875 52.855469 C 166.976562 53.234375 166.289062 53.648438 165.617188 54.09375 C 164.949219 54.542969 164.304688 55.023438 163.679688 55.53125 C 163.058594 56.042969 162.464844 56.582031 161.894531 57.152344 C 161.324219 57.722656 160.785156 58.316406 160.273438 58.9375 C 159.765625 59.5625 159.285156 60.207031 158.839844 60.875 C 158.390625 61.546875 157.976562 62.234375 157.597656 62.945312 C 157.21875 63.652344 156.875 64.382812 156.566406 65.125 C 156.257812 65.867188 155.988281 66.625 155.753906 67.394531 C 155.519531 68.164062 155.324219 68.945312 155.167969 69.734375 C 155.011719 70.523438 154.894531 71.320312 154.816406 72.121094 C 154.734375 72.921875 154.695312 73.722656 154.695312 74.527344 C 154.722656 78.476562 155.65625 82.195312 157.496094 85.6875 C 155.550781 86.222656 153.625 86.832031 151.71875 87.515625 C 149.816406 88.195312 147.941406 88.945312 146.09375 89.765625 C 144.246094 90.585938 142.429688 91.472656 140.648438 92.425781 C 138.867188 93.378906 137.121094 94.398438 135.414062 95.484375 C 133.707031 96.566406 132.042969 97.710938 130.421875 98.917969 C 128.800781 100.125 127.226562 101.390625 125.695312 102.714844 C 124.167969 104.035156 122.691406 105.414062 121.265625 106.847656 C 119.839844 108.28125 118.46875 109.765625 117.152344 111.300781 C 115.835938 112.832031 114.578125 114.414062 113.378906 116.042969 C 112.179688 117.671875 111.042969 119.339844 109.96875 121.050781 C 108.894531 122.765625 107.882812 124.511719 106.9375 126.300781 C 105.992188 128.085938 105.113281 129.90625 104.304688 131.757812 C 103.492188 133.609375 102.75 135.488281 102.078125 137.398438 C 101.410156 139.304688 100.808594 141.234375 100.28125 143.183594 C 99.75 145.136719 99.296875 147.101562 98.914062 149.089844 C 98.53125 151.074219 98.222656 153.070312 97.988281 155.078125 L 90.957031 214.605469 C 89.59375 214.96875 88.273438 215.449219 86.992188 216.039062 C 85.710938 216.628906 84.492188 217.328125 83.332031 218.128906 C 82.171875 218.933594 81.089844 219.828125 80.082031 220.820312 C 79.078125 221.808594 78.164062 222.875 77.34375 224.023438 C 76.523438 225.171875 75.808594 226.378906 75.195312 227.652344 C 74.582031 228.921875 74.085938 230.238281 73.699219 231.59375 C 73.316406 232.949219 73.050781 234.332031 72.902344 235.734375 C 72.753906 237.136719 72.730469 238.542969 72.828125 239.949219 C 72.921875 241.355469 73.136719 242.746094 73.472656 244.117188 C 73.808594 245.484375 74.261719 246.816406 74.828125 248.109375 C 75.394531 249.402344 76.066406 250.636719 76.84375 251.8125 C 77.625 252.988281 78.496094 254.089844 79.46875 255.113281 C 80.4375 256.136719 81.484375 257.074219 82.617188 257.917969 C 83.746094 258.761719 84.941406 259.5 86.199219 260.136719 C 87.457031 260.777344 88.761719 261.300781 90.113281 261.710938 C 91.460938 262.125 92.835938 262.417969 94.234375 262.59375 L 75.179688 281.71875 C 74.800781 282.101562 74.460938 282.515625 74.164062 282.960938 C 73.863281 283.410156 73.613281 283.882812 73.40625 284.378906 C 73.199219 284.875 73.046875 285.386719 72.941406 285.914062 C 72.835938 286.441406 72.785156 286.972656 72.785156 287.511719 C 72.785156 288.050781 72.835938 288.582031 72.941406 289.109375 C 73.046875 289.636719 73.199219 290.148438 73.40625 290.644531 C 73.613281 291.144531 73.863281 291.613281 74.164062 292.0625 C 74.460938 292.507812 74.800781 292.921875 75.179688 293.304688 C 75.566406 293.675781 75.980469 294.007812 76.429688 294.300781 C 76.878906 294.59375 77.351562 294.839844 77.847656 295.042969 C 78.34375 295.242188 78.855469 295.394531 79.382812 295.5 C 79.90625 295.601562 80.4375 295.652344 80.972656 295.652344 C 81.507812 295.652344 82.039062 295.601562 82.566406 295.5 C 83.089844 295.394531 83.601562 295.242188 84.097656 295.042969 C 84.59375 294.839844 85.066406 294.59375 85.515625 294.300781 C 85.964844 294.007812 86.378906 293.675781 86.765625 293.304688 L 117.128906 262.9375 L 146.503906 262.9375 C 146.503906 264.011719 146.558594 265.082031 146.664062 266.148438 C 146.769531 267.214844 146.925781 268.277344 147.132812 269.328125 C 147.34375 270.382812 147.605469 271.421875 147.914062 272.449219 C 148.226562 273.476562 148.589844 274.484375 149 275.476562 C 149.410156 276.46875 149.867188 277.4375 150.375 278.382812 C 150.878906 279.328125 151.429688 280.25 152.027344 281.140625 C 152.625 282.035156 153.261719 282.894531 153.941406 283.722656 C 154.625 284.554688 155.34375 285.347656 156.101562 286.105469 C 156.859375 286.867188 157.65625 287.585938 158.484375 288.265625 C 159.3125 288.945312 160.175781 289.585938 161.066406 290.179688 C 161.960938 290.777344 162.878906 291.328125 163.824219 291.835938 C 164.769531 292.339844 165.742188 292.796875 166.730469 293.210938 C 167.722656 293.621094 168.734375 293.980469 169.757812 294.292969 C 170.785156 294.605469 171.824219 294.863281 172.878906 295.074219 C 173.929688 295.285156 174.992188 295.441406 176.058594 295.546875 C 177.128906 295.652344 178.199219 295.703125 179.269531 295.703125 C 180.34375 295.703125 181.414062 295.652344 182.484375 295.546875 C 183.550781 295.441406 184.609375 295.285156 185.664062 295.074219 C 186.714844 294.863281 187.753906 294.605469 188.78125 294.292969 C 189.808594 293.980469 190.816406 293.621094 191.808594 293.210938 C 192.800781 292.796875 193.769531 292.339844 194.714844 291.835938 C 195.664062 291.328125 196.582031 290.777344 197.472656 290.179688 C 198.367188 289.585938 199.226562 288.945312 200.058594 288.265625 C 200.886719 287.585938 201.679688 286.867188 202.441406 286.105469 C 203.199219 285.347656 203.917969 284.554688 204.597656 283.722656 C 205.28125 282.894531 205.917969 282.035156 206.515625 281.140625 C 207.109375 280.25 207.660156 279.328125 208.167969 278.382812 C 208.671875 277.4375 209.132812 276.46875 209.542969 275.476562 C 209.953125 274.484375 210.3125 273.476562 210.625 272.449219 C 210.9375 271.421875 211.199219 270.382812 211.40625 269.328125 C 211.617188 268.277344 211.773438 267.214844 211.878906 266.148438 C 211.984375 265.082031 212.035156 264.011719 212.035156 262.9375 L 261.1875 262.9375 C 261.925781 262.941406 262.664062 262.910156 263.398438 262.847656 C 264.136719 262.785156 264.871094 262.6875 265.597656 262.558594 C 266.324219 262.425781 267.046875 262.265625 267.761719 262.070312 C 268.472656 261.875 269.175781 261.648438 269.871094 261.390625 C 270.5625 261.132812 271.242188 260.84375 271.910156 260.523438 C 272.578125 260.207031 273.226562 259.855469 273.863281 259.476562 C 274.5 259.101562 275.117188 258.695312 275.714844 258.261719 C 276.3125 257.824219 276.890625 257.367188 277.449219 256.878906 C 278.003906 256.394531 278.539062 255.882812 279.050781 255.347656 C 279.5625 254.8125 280.046875 254.257812 280.507812 253.679688 C 280.96875 253.101562 281.402344 252.503906 281.8125 251.886719 C 282.21875 251.269531 282.597656 250.632812 282.945312 249.980469 C 283.296875 249.332031 283.617188 248.664062 283.90625 247.984375 C 284.195312 247.304688 284.453125 246.609375 284.679688 245.90625 C 284.90625 245.203125 285.101562 244.492188 285.265625 243.769531 C 285.425781 243.046875 285.558594 242.320312 285.652344 241.585938 C 285.75 240.855469 285.816406 240.117188 285.84375 239.378906 C 285.875 238.640625 285.875 237.902344 285.835938 237.164062 C 285.800781 236.425781 285.730469 235.6875 285.628906 234.957031 C 285.527344 234.222656 285.390625 233.496094 285.222656 232.777344 C 285.054688 232.058594 284.855469 231.347656 284.621094 230.644531 C 284.390625 229.941406 284.128906 229.25 283.832031 228.574219 C 283.539062 227.894531 283.214844 227.230469 282.859375 226.582031 C 282.503906 225.933594 282.121094 225.300781 281.710938 224.6875 C 281.296875 224.070312 280.859375 223.476562 280.394531 222.902344 C 279.929688 222.328125 279.4375 221.773438 278.925781 221.246094 C 278.410156 220.714844 277.871094 220.207031 277.308594 219.726562 C 276.75 219.242188 276.167969 218.789062 275.566406 218.359375 C 274.964844 217.929688 274.34375 217.527344 273.707031 217.152344 C 273.066406 216.78125 272.414062 216.4375 271.746094 216.121094 C 271.074219 215.804688 270.394531 215.523438 269.699219 215.269531 C 269.003906 215.015625 268.296875 214.796875 267.582031 214.605469 L 260.554688 155.054688 C 259.421875 145.472656 256.675781 136.378906 252.3125 127.773438 L 299.742188 80.34375 C 300.132812 79.96875 300.484375 79.554688 300.792969 79.105469 C 301.101562 78.660156 301.363281 78.1875 301.578125 77.6875 C 301.792969 77.1875 301.957031 76.671875 302.070312 76.136719 C 302.179688 75.605469 302.238281 75.066406 302.242188 74.523438 C 302.25 73.980469 302.199219 73.441406 302.097656 72.90625 C 301.992188 72.375 301.839844 71.855469 301.632812 71.351562 C 301.429688 70.847656 301.175781 70.371094 300.875 69.917969 C 300.570312 69.464844 300.230469 69.046875 299.84375 68.660156 C 299.460938 68.277344 299.042969 67.933594 298.589844 67.632812 C 298.136719 67.332031 297.65625 67.078125 297.152344 66.871094 C 296.652344 66.664062 296.132812 66.511719 295.597656 66.410156 C 295.0625 66.304688 294.523438 66.257812 293.980469 66.261719 C 293.4375 66.265625 292.898438 66.324219 292.367188 66.4375 C 291.835938 66.546875 291.320312 66.710938 290.820312 66.925781 C 290.320312 67.140625 289.847656 67.402344 289.398438 67.710938 C 288.949219 68.019531 288.539062 68.371094 288.160156 68.761719 Z M 171.078125 74.527344 C 171.078125 73.992188 171.132812 73.457031 171.238281 72.929688 C 171.339844 72.402344 171.496094 71.890625 171.703125 71.394531 C 171.910156 70.898438 172.160156 70.425781 172.460938 69.976562 C 172.757812 69.53125 173.097656 69.117188 173.480469 68.738281 C 173.859375 68.355469 174.273438 68.015625 174.71875 67.71875 C 175.167969 67.417969 175.640625 67.167969 176.136719 66.960938 C 176.632812 66.753906 177.144531 66.601562 177.671875 66.496094 C 178.199219 66.390625 178.734375 66.335938 179.269531 66.335938 C 179.808594 66.335938 180.339844 66.390625 180.867188 66.496094 C 181.394531 66.601562 181.910156 66.753906 182.40625 66.960938 C 182.902344 67.167969 183.375 67.417969 183.820312 67.71875 C 184.269531 68.015625 184.683594 68.355469 185.0625 68.738281 C 185.445312 69.117188 185.78125 69.53125 186.082031 69.976562 C 186.378906 70.425781 186.632812 70.898438 186.839844 71.394531 C 187.042969 71.890625 187.199219 72.402344 187.304688 72.929688 C 187.410156 73.457031 187.460938 73.992188 187.460938 74.527344 C 187.460938 75.066406 187.410156 75.597656 187.304688 76.128906 C 187.199219 76.65625 187.042969 77.167969 186.839844 77.664062 C 186.632812 78.160156 186.378906 78.632812 186.082031 79.078125 C 185.78125 79.527344 185.445312 79.941406 185.0625 80.320312 C 184.683594 80.703125 184.269531 81.042969 183.820312 81.339844 C 183.375 81.640625 182.902344 81.890625 182.40625 82.097656 C 181.910156 82.304688 181.394531 82.457031 180.867188 82.5625 C 180.339844 82.667969 179.808594 82.71875 179.269531 82.71875 C 178.734375 82.71875 178.199219 82.667969 177.671875 82.5625 C 177.144531 82.457031 176.632812 82.304688 176.136719 82.097656 C 175.640625 81.890625 175.167969 81.640625 174.71875 81.339844 C 174.273438 81.042969 173.859375 80.703125 173.480469 80.320312 C 173.097656 79.941406 172.757812 79.527344 172.460938 79.078125 C 172.160156 78.632812 171.910156 78.160156 171.703125 77.664062 C 171.496094 77.167969 171.339844 76.65625 171.238281 76.128906 C 171.132812 75.597656 171.078125 75.066406 171.078125 74.527344 Z M 97.355469 246.554688 C 96.816406 246.554688 96.285156 246.5 95.757812 246.394531 C 95.230469 246.292969 94.71875 246.136719 94.222656 245.929688 C 93.722656 245.722656 93.253906 245.472656 92.804688 245.171875 C 92.359375 244.875 91.945312 244.535156 91.5625 244.15625 C 91.183594 243.773438 90.84375 243.359375 90.546875 242.914062 C 90.246094 242.464844 89.992188 241.992188 89.789062 241.496094 C 89.582031 241 89.425781 240.488281 89.320312 239.960938 C 89.21875 239.433594 89.164062 238.898438 89.164062 238.363281 C 89.183594 237.789062 89.261719 237.222656 89.398438 236.664062 C 89.535156 236.105469 89.722656 235.566406 89.96875 235.046875 C 90.210938 234.527344 90.507812 234.035156 90.847656 233.578125 C 91.191406 233.117188 91.578125 232.695312 92.007812 232.3125 C 92.433594 231.929688 92.898438 231.59375 93.394531 231.304688 C 93.890625 231.015625 94.410156 230.777344 94.953125 230.59375 C 95.5 230.410156 96.054688 230.28125 96.625 230.210938 C 97.195312 230.140625 97.765625 230.125 98.339844 230.171875 C 98.835938 230.171875 99.328125 230.125 99.820312 230.035156 C 100.308594 229.945312 100.785156 229.8125 101.25 229.636719 C 101.714844 229.457031 102.160156 229.242188 102.585938 228.984375 C 103.011719 228.726562 103.410156 228.429688 103.78125 228.101562 C 104.152344 227.769531 104.492188 227.410156 104.796875 227.015625 C 105.101562 226.625 105.371094 226.207031 105.601562 225.765625 C 105.832031 225.324219 106.019531 224.867188 106.167969 224.390625 C 106.3125 223.914062 106.414062 223.429688 106.472656 222.9375 L 114.253906 156.984375 C 114.441406 155.371094 114.6875 153.765625 114.996094 152.171875 C 115.300781 150.578125 115.667969 148.996094 116.09375 147.425781 C 116.515625 145.859375 117 144.308594 117.539062 142.773438 C 118.078125 141.242188 118.675781 139.730469 119.328125 138.246094 C 119.980469 136.757812 120.6875 135.292969 121.449219 133.859375 C 122.210938 132.425781 123.027344 131.019531 123.890625 129.644531 C 124.757812 128.269531 125.675781 126.929688 126.640625 125.625 C 127.605469 124.316406 128.621094 123.046875 129.679688 121.816406 C 130.742188 120.585938 131.847656 119.398438 132.996094 118.25 C 134.144531 117.101562 135.335938 115.996094 136.566406 114.9375 C 137.796875 113.875 139.066406 112.863281 140.375 111.898438 C 141.683594 110.933594 143.023438 110.019531 144.398438 109.152344 C 145.773438 108.289062 147.179688 107.476562 148.613281 106.714844 C 150.050781 105.953125 151.511719 105.25 153 104.597656 C 154.488281 103.945312 156 103.351562 157.53125 102.8125 C 159.066406 102.273438 160.617188 101.792969 162.183594 101.367188 C 163.753906 100.945312 165.335938 100.578125 166.933594 100.273438 C 168.527344 99.96875 170.132812 99.722656 171.746094 99.539062 C 173.359375 99.351562 174.980469 99.226562 176.601562 99.160156 C 178.226562 99.09375 179.851562 99.089844 181.472656 99.148438 C 183.097656 99.203125 184.71875 99.320312 186.332031 99.496094 C 187.949219 99.671875 189.554688 99.90625 191.152344 100.203125 C 192.75 100.5 194.332031 100.855469 195.902344 101.269531 C 197.476562 101.683594 199.027344 102.15625 200.566406 102.6875 C 202.101562 103.214844 203.613281 103.800781 205.105469 104.445312 C 206.597656 105.085938 208.066406 105.785156 209.503906 106.539062 C 210.945312 107.289062 212.355469 108.09375 213.734375 108.953125 C 215.117188 109.808594 216.460938 110.714844 217.777344 111.671875 C 219.089844 112.628906 220.363281 113.636719 221.601562 114.6875 C 222.839844 115.742188 224.035156 116.839844 225.191406 117.980469 C 226.347656 119.121094 227.460938 120.304688 228.527344 121.53125 C 229.59375 122.753906 230.617188 124.015625 231.589844 125.316406 L 110.347656 246.554688 Z M 179.269531 279.320312 C 178.734375 279.320312 178.199219 279.292969 177.664062 279.242188 C 177.132812 279.1875 176.601562 279.109375 176.074219 279.003906 C 175.546875 278.902344 175.027344 278.769531 174.515625 278.613281 C 174 278.460938 173.496094 278.277344 173 278.074219 C 172.503906 277.867188 172.019531 277.640625 171.546875 277.386719 C 171.074219 277.132812 170.613281 276.855469 170.167969 276.558594 C 169.722656 276.261719 169.292969 275.941406 168.878906 275.601562 C 168.460938 275.261719 168.066406 274.902344 167.6875 274.523438 C 167.308594 274.140625 166.945312 273.746094 166.605469 273.332031 C 166.265625 272.914062 165.945312 272.484375 165.648438 272.039062 C 165.351562 271.59375 165.074219 271.132812 164.824219 270.660156 C 164.570312 270.1875 164.339844 269.703125 164.136719 269.207031 C 163.929688 268.710938 163.75 268.207031 163.59375 267.691406 C 163.4375 267.179688 163.308594 266.660156 163.203125 266.132812 C 163.097656 265.605469 163.019531 265.078125 162.964844 264.542969 C 162.914062 264.007812 162.886719 263.472656 162.886719 262.9375 L 195.652344 262.9375 C 195.652344 263.472656 195.628906 264.007812 195.574219 264.542969 C 195.523438 265.078125 195.445312 265.605469 195.339844 266.132812 C 195.234375 266.660156 195.105469 267.179688 194.949219 267.691406 C 194.792969 268.207031 194.613281 268.710938 194.40625 269.207031 C 194.203125 269.703125 193.972656 270.1875 193.71875 270.660156 C 193.464844 271.132812 193.191406 271.59375 192.894531 272.039062 C 192.59375 272.484375 192.277344 272.914062 191.933594 273.332031 C 191.59375 273.746094 191.234375 274.140625 190.855469 274.523438 C 190.476562 274.902344 190.078125 275.261719 189.664062 275.601562 C 189.25 275.941406 188.820312 276.261719 188.371094 276.558594 C 187.925781 276.855469 187.46875 277.132812 186.992188 277.386719 C 186.519531 277.640625 186.035156 277.867188 185.539062 278.074219 C 185.042969 278.277344 184.539062 278.460938 184.027344 278.613281 C 183.511719 278.769531 182.992188 278.902344 182.46875 279.003906 C 181.941406 279.109375 181.410156 279.1875 180.875 279.242188 C 180.34375 279.292969 179.808594 279.320312 179.269531 279.320312 Z M 244.285156 156.996094 L 252.070312 222.9375 C 252.125 223.429688 252.230469 223.914062 252.375 224.390625 C 252.523438 224.867188 252.710938 225.324219 252.941406 225.765625 C 253.171875 226.207031 253.4375 226.625 253.746094 227.015625 C 254.050781 227.410156 254.390625 227.769531 254.761719 228.101562 C 255.132812 228.429688 255.53125 228.726562 255.957031 228.984375 C 256.382812 229.242188 256.828125 229.457031 257.292969 229.636719 C 257.757812 229.8125 258.234375 229.945312 258.722656 230.035156 C 259.210938 230.125 259.707031 230.171875 260.203125 230.171875 C 260.777344 230.121094 261.347656 230.132812 261.921875 230.199219 C 262.492188 230.269531 263.050781 230.394531 263.597656 230.574219 C 264.144531 230.757812 264.664062 230.992188 265.164062 231.28125 C 265.660156 231.570312 266.125 231.90625 266.554688 232.289062 C 266.984375 232.671875 267.371094 233.097656 267.714844 233.558594 C 268.054688 234.019531 268.347656 234.511719 268.59375 235.035156 C 268.835938 235.558594 269.023438 236.097656 269.15625 236.660156 C 269.285156 237.21875 269.359375 237.785156 269.378906 238.363281 C 269.378906 238.898438 269.324219 239.433594 269.21875 239.960938 C 269.113281 240.488281 268.960938 241 268.753906 241.496094 C 268.546875 241.992188 268.296875 242.464844 267.996094 242.914062 C 267.699219 243.359375 267.359375 243.773438 266.976562 244.15625 C 266.597656 244.535156 266.183594 244.875 265.738281 245.171875 C 265.289062 245.472656 264.816406 245.722656 264.320312 245.929688 C 263.824219 246.136719 263.3125 246.292969 262.785156 246.394531 C 262.257812 246.5 261.722656 246.554688 261.1875 246.554688 L 133.511719 246.554688 L 240.003906 140.101562 C 242.183594 145.542969 243.613281 151.171875 244.285156 156.996094 Z M 244.285156 156.996094 " fill-opacity="1" fill-rule="nonzero"/></g></svg>